G04*
G04 #@! TF.GenerationSoftware,Altium Limited,Altium Designer,20.2.7 (254)*
G04*
G04 Layer_Color=32896*
%FSLAX44Y44*%
%MOMM*%
G71*
G04*
G04 #@! TF.SameCoordinates,7A469513-7955-4F55-9394-07B41ED8EACC*
G04*
G04*
G04 #@! TF.FilePolarity,Positive*
G04*
G01*
G75*
%ADD10C,0.2500*%
%ADD12C,0.2000*%
%ADD13C,0.1500*%
D10*
X293090Y11020D02*
G03*
X293090Y11020I-1250J0D01*
G01*
X232130D02*
G03*
X232130Y11020I-1250J0D01*
G01*
X171170D02*
G03*
X171170Y11020I-1250J0D01*
G01*
X110210D02*
G03*
X110210Y11020I-1250J0D01*
G01*
X49250D02*
G03*
X49250Y11020I-1250J0D01*
G01*
X321430Y54460D02*
G03*
X321430Y54460I-1250J0D01*
G01*
X260470D02*
G03*
X260470Y54460I-1250J0D01*
G01*
X199510D02*
G03*
X199510Y54460I-1250J0D01*
G01*
X138550D02*
G03*
X138550Y54460I-1250J0D01*
G01*
X77590D02*
G03*
X77590Y54460I-1250J0D01*
G01*
D12*
X300340Y14020D02*
X310340D01*
Y22020D01*
X300340Y44020D02*
X310340D01*
Y36020D02*
Y44020D01*
X239380Y14020D02*
X249380D01*
Y22020D01*
X239380Y44020D02*
X249380D01*
Y36020D02*
Y44020D01*
X178420Y14020D02*
X188420D01*
Y22020D01*
X178420Y44020D02*
X188420D01*
Y36020D02*
Y44020D01*
X117460Y14020D02*
X127460D01*
Y22020D01*
X117460Y44020D02*
X127460D01*
Y36020D02*
Y44020D01*
X56500Y14020D02*
X66500D01*
Y22020D01*
X56500Y44020D02*
X66500D01*
Y36020D02*
Y44020D01*
X83320Y47180D02*
Y49180D01*
X94320Y47180D02*
Y49180D01*
X144280Y47180D02*
Y49180D01*
X155280Y47180D02*
Y49180D01*
X205240Y47180D02*
Y49180D01*
X216240Y47180D02*
Y49180D01*
X327160Y47180D02*
Y49180D01*
X338160Y47180D02*
Y49180D01*
X317180Y62960D02*
Y72960D01*
X309180D02*
X317180D01*
X287180Y62960D02*
Y72960D01*
X295180D01*
X256220Y62960D02*
Y72960D01*
X248220D02*
X256220D01*
X226220Y62960D02*
Y72960D01*
X234220D01*
X195260Y62960D02*
Y72960D01*
X187260D02*
X195260D01*
X165260Y62960D02*
Y72960D01*
X173260D01*
X134300Y62960D02*
Y72960D01*
X126300D02*
X134300D01*
X104300Y62960D02*
Y72960D01*
X112300D01*
X73340Y62960D02*
Y72960D01*
X65340D02*
X73340D01*
X43340Y62960D02*
Y72960D01*
X51340D01*
X277200Y47180D02*
Y49180D01*
X266200Y47180D02*
Y49180D01*
D13*
X120798Y124001D02*
Y129999D01*
X117799D01*
X116799Y128999D01*
Y127000D01*
X117799Y126000D01*
X120798D01*
X118799D02*
X116799Y124001D01*
X114800D02*
X112801D01*
X113800D01*
Y129999D01*
X114800Y128999D01*
X109802Y124001D02*
X107802D01*
X108802D01*
Y129999D01*
X109802Y128999D01*
X147198Y124001D02*
Y129999D01*
X144199D01*
X143199Y128999D01*
Y127000D01*
X144199Y126000D01*
X147198D01*
X145198D02*
X143199Y124001D01*
X141200D02*
X139200D01*
X140200D01*
Y129999D01*
X141200Y128999D01*
X132202Y129999D02*
X136201D01*
Y127000D01*
X134202Y128000D01*
X133202D01*
X132202Y127000D01*
Y125001D01*
X133202Y124001D01*
X135202D01*
X136201Y125001D01*
X335617Y89359D02*
Y85360D01*
X333617Y83361D01*
X331618Y85360D01*
Y89359D01*
X329618D02*
X325620D01*
X327619D01*
Y83361D01*
X323620D02*
X321621D01*
X322621D01*
Y89359D01*
X323620Y88359D01*
X318622D02*
X317622Y89359D01*
X315623D01*
X314623Y88359D01*
Y84361D01*
X315623Y83361D01*
X317622D01*
X318622Y84361D01*
Y88359D01*
X325497Y8079D02*
Y4080D01*
X323498Y2081D01*
X321499Y4080D01*
Y8079D01*
X319499D02*
X315501D01*
X317500D01*
Y2081D01*
X313501Y3081D02*
X312502Y2081D01*
X310502D01*
X309503Y3081D01*
Y7079D01*
X310502Y8079D01*
X312502D01*
X313501Y7079D01*
Y6080D01*
X312502Y5080D01*
X309503D01*
X269617Y89359D02*
Y85360D01*
X267618Y83361D01*
X265619Y85360D01*
Y89359D01*
X263619D02*
X259621D01*
X261620D01*
Y83361D01*
X257621Y88359D02*
X256622Y89359D01*
X254622D01*
X253623Y88359D01*
Y87360D01*
X254622Y86360D01*
X253623Y85360D01*
Y84361D01*
X254622Y83361D01*
X256622D01*
X257621Y84361D01*
Y85360D01*
X256622Y86360D01*
X257621Y87360D01*
Y88359D01*
X256622Y86360D02*
X254622D01*
X264537Y8079D02*
Y4080D01*
X262538Y2081D01*
X260539Y4080D01*
Y8079D01*
X258539D02*
X254541D01*
X256540D01*
Y2081D01*
X252541Y8079D02*
X248543D01*
Y7079D01*
X252541Y3081D01*
Y2081D01*
X206117Y89359D02*
Y85360D01*
X204118Y83361D01*
X202119Y85360D01*
Y89359D01*
X200119D02*
X196121D01*
X198120D01*
Y83361D01*
X190123Y89359D02*
X192122Y88359D01*
X194121Y86360D01*
Y84361D01*
X193122Y83361D01*
X191122D01*
X190123Y84361D01*
Y85360D01*
X191122Y86360D01*
X194121D01*
X203577Y8079D02*
Y4080D01*
X201578Y2081D01*
X199579Y4080D01*
Y8079D01*
X197579D02*
X193581D01*
X195580D01*
Y2081D01*
X187583Y8079D02*
X191581D01*
Y5080D01*
X189582Y6080D01*
X188582D01*
X187583Y5080D01*
Y3081D01*
X188582Y2081D01*
X190582D01*
X191581Y3081D01*
X142617Y89359D02*
Y85360D01*
X140618Y83361D01*
X138619Y85360D01*
Y89359D01*
X136619D02*
X132621D01*
X134620D01*
Y83361D01*
X127622D02*
Y89359D01*
X130621Y86360D01*
X126623D01*
X145157Y8079D02*
Y4080D01*
X143158Y2081D01*
X141159Y4080D01*
Y8079D01*
X139159D02*
X135161D01*
X137160D01*
Y2081D01*
X133161Y7079D02*
X132162Y8079D01*
X130162D01*
X129163Y7079D01*
Y6080D01*
X130162Y5080D01*
X131162D01*
X130162D01*
X129163Y4080D01*
Y3081D01*
X130162Y2081D01*
X132162D01*
X133161Y3081D01*
X81657Y89359D02*
Y85360D01*
X79658Y83361D01*
X77659Y85360D01*
Y89359D01*
X75659D02*
X71661D01*
X73660D01*
Y83361D01*
X65663D02*
X69661D01*
X65663Y87360D01*
Y88359D01*
X66662Y89359D01*
X68662D01*
X69661Y88359D01*
X75578Y8079D02*
Y4080D01*
X73578Y2081D01*
X71579Y4080D01*
Y8079D01*
X69580D02*
X65581D01*
X67580D01*
Y2081D01*
X63582D02*
X61582D01*
X62582D01*
Y8079D01*
X63582Y7079D01*
X172598Y124001D02*
Y129999D01*
X169599D01*
X168599Y128999D01*
Y127000D01*
X169599Y126000D01*
X172598D01*
X170598D02*
X168599Y124001D01*
X166600D02*
X164600D01*
X165600D01*
Y129999D01*
X166600Y128999D01*
X161601D02*
X160602Y129999D01*
X158602D01*
X157602Y128999D01*
Y128000D01*
X158602Y127000D01*
X157602Y126000D01*
Y125001D01*
X158602Y124001D01*
X160602D01*
X161601Y125001D01*
Y126000D01*
X160602Y127000D01*
X161601Y128000D01*
Y128999D01*
X160602Y127000D02*
X158602D01*
X340819Y27817D02*
X334821D01*
Y24818D01*
X335821Y23819D01*
X337820D01*
X338820Y24818D01*
Y27817D01*
Y25818D02*
X340819Y23819D01*
Y21820D02*
Y19820D01*
Y20820D01*
X334821D01*
X335821Y21820D01*
X334821Y16821D02*
Y12822D01*
X335821D01*
X339819Y16821D01*
X340819D01*
X342777Y65581D02*
Y71579D01*
X339779D01*
X338779Y70579D01*
Y68580D01*
X339779Y67580D01*
X342777D01*
X340778D02*
X338779Y65581D01*
X336780D02*
X334780D01*
X335780D01*
Y71579D01*
X336780Y70579D01*
X327782Y71579D02*
X329782Y70579D01*
X331781Y68580D01*
Y66581D01*
X330782Y65581D01*
X328782D01*
X327782Y66581D01*
Y67580D01*
X328782Y68580D01*
X331781D01*
X279859Y27817D02*
X273861D01*
Y24818D01*
X274861Y23819D01*
X276860D01*
X277860Y24818D01*
Y27817D01*
Y25818D02*
X279859Y23819D01*
Y21820D02*
Y19820D01*
Y20820D01*
X273861D01*
X274861Y21820D01*
X279859Y13822D02*
X273861D01*
X276860Y16821D01*
Y12822D01*
X281817Y65581D02*
Y71579D01*
X278818D01*
X277819Y70579D01*
Y68580D01*
X278818Y67580D01*
X281817D01*
X279818D02*
X277819Y65581D01*
X275819D02*
X273820D01*
X274820D01*
Y71579D01*
X275819Y70579D01*
X270821D02*
X269821Y71579D01*
X267822D01*
X266822Y70579D01*
Y69580D01*
X267822Y68580D01*
X268822D01*
X267822D01*
X266822Y67580D01*
Y66581D01*
X267822Y65581D01*
X269821D01*
X270821Y66581D01*
X218899Y27817D02*
X212901D01*
Y24818D01*
X213901Y23819D01*
X215900D01*
X216900Y24818D01*
Y27817D01*
Y25818D02*
X218899Y23819D01*
Y21820D02*
Y19820D01*
Y20820D01*
X212901D01*
X213901Y21820D01*
Y16821D02*
X212901Y15821D01*
Y13822D01*
X213901Y12822D01*
X217899D01*
X218899Y13822D01*
Y15821D01*
X217899Y16821D01*
X213901D01*
X218358Y68121D02*
Y74119D01*
X215359D01*
X214360Y73119D01*
Y71120D01*
X215359Y70120D01*
X218358D01*
X216359D02*
X214360Y68121D01*
X212360Y69121D02*
X211361Y68121D01*
X209361D01*
X208362Y69121D01*
Y73119D01*
X209361Y74119D01*
X211361D01*
X212360Y73119D01*
Y72120D01*
X211361Y71120D01*
X208362D01*
X91358Y124001D02*
Y129999D01*
X88359D01*
X87360Y128999D01*
Y127000D01*
X88359Y126000D01*
X91358D01*
X89359D02*
X87360Y124001D01*
X85360Y128999D02*
X84361Y129999D01*
X82361D01*
X81362Y128999D01*
Y128000D01*
X82361Y127000D01*
X81362Y126000D01*
Y125001D01*
X82361Y124001D01*
X84361D01*
X85360Y125001D01*
Y126000D01*
X84361Y127000D01*
X85360Y128000D01*
Y128999D01*
X84361Y127000D02*
X82361D01*
X157939Y22778D02*
X151941D01*
Y19779D01*
X152941Y18780D01*
X154940D01*
X155940Y19779D01*
Y22778D01*
Y20779D02*
X157939Y18780D01*
X151941Y16780D02*
Y12782D01*
X152941D01*
X156939Y16780D01*
X157939D01*
X154858Y68121D02*
Y74119D01*
X151859D01*
X150860Y73119D01*
Y71120D01*
X151859Y70120D01*
X154858D01*
X152859D02*
X150860Y68121D01*
X144862Y74119D02*
X146861Y73119D01*
X148860Y71120D01*
Y69121D01*
X147861Y68121D01*
X145861D01*
X144862Y69121D01*
Y70120D01*
X145861Y71120D01*
X148860D01*
X73578Y124001D02*
Y129999D01*
X70579D01*
X69580Y128999D01*
Y127000D01*
X70579Y126000D01*
X73578D01*
X71579D02*
X69580Y124001D01*
X64581D02*
Y129999D01*
X67580Y127000D01*
X63582D01*
X96979Y22778D02*
X90981D01*
Y19779D01*
X91981Y18780D01*
X93980D01*
X94980Y19779D01*
Y22778D01*
Y20779D02*
X96979Y18780D01*
X91981Y16780D02*
X90981Y15781D01*
Y13781D01*
X91981Y12782D01*
X92980D01*
X93980Y13781D01*
Y14781D01*
Y13781D01*
X94980Y12782D01*
X95979D01*
X96979Y13781D01*
Y15781D01*
X95979Y16780D01*
X92899Y68121D02*
Y74119D01*
X89900D01*
X88900Y73119D01*
Y71120D01*
X89900Y70120D01*
X92899D01*
X90899D02*
X88900Y68121D01*
X86901D02*
X84901D01*
X85901D01*
Y74119D01*
X86901Y73119D01*
M02*
