G04*
G04 #@! TF.GenerationSoftware,Altium Limited,Altium Designer,20.2.7 (254)*
G04*
G04 Layer_Physical_Order=1*
G04 Layer_Color=255*
%FSLAX44Y44*%
%MOMM*%
G71*
G04*
G04 #@! TF.SameCoordinates,7A469513-7955-4F55-9394-07B41ED8EACC*
G04*
G04*
G04 #@! TF.FilePolarity,Positive*
G04*
G01*
G75*
%ADD14R,0.9000X1.3000*%
G04:AMPARAMS|DCode=15|XSize=0.6mm|YSize=0.95mm|CornerRadius=0mm|HoleSize=0mm|Usage=FLASHONLY|Rotation=45.000|XOffset=0mm|YOffset=0mm|HoleType=Round|Shape=Rectangle|*
%AMROTATEDRECTD15*
4,1,4,0.1237,-0.5480,-0.5480,0.1237,-0.1237,0.5480,0.5480,-0.1237,0.1237,-0.5480,0.0*
%
%ADD15ROTATEDRECTD15*%

%ADD16R,0.5500X0.4500*%
%ADD17O,0.6000X1.4500*%
%ADD18R,1.3000X0.9000*%
%ADD19C,0.4000*%
%ADD20C,0.5000*%
%ADD21C,0.3000*%
%ADD22C,1.5000*%
%ADD23C,0.6000*%
D14*
X254910Y101600D02*
D03*
X273410D02*
D03*
X315870Y93980D02*
D03*
X334370D02*
D03*
D15*
X195292Y69603D02*
D03*
X188574Y62886D02*
D03*
X181857Y56168D02*
D03*
X200948Y37077D02*
D03*
X207666Y43794D02*
D03*
X214383Y50512D02*
D03*
D16*
X144700Y55880D02*
D03*
Y65880D02*
D03*
X25400Y33020D02*
D03*
Y23020D02*
D03*
D17*
X125650Y70350D02*
D03*
X112950D02*
D03*
X100250D02*
D03*
X87550D02*
D03*
X74850D02*
D03*
X62150D02*
D03*
X49450D02*
D03*
X36750D02*
D03*
X125650Y15850D02*
D03*
X112950D02*
D03*
X100250D02*
D03*
X87550D02*
D03*
X74850D02*
D03*
X62150D02*
D03*
X49450D02*
D03*
X36750D02*
D03*
X327580Y70350D02*
D03*
X314880D02*
D03*
X302180D02*
D03*
X289480D02*
D03*
X276780D02*
D03*
X264080D02*
D03*
X251380D02*
D03*
X327580Y15850D02*
D03*
X314880D02*
D03*
X302180D02*
D03*
X289480D02*
D03*
X276780D02*
D03*
X264080D02*
D03*
X251380D02*
D03*
D18*
X347900Y33850D02*
D03*
Y52350D02*
D03*
D19*
X167005Y85725D02*
X182880Y101600D01*
X254910D01*
X148949Y88900D02*
X163830D01*
X167640Y85090D01*
X113333Y77773D02*
X118110Y82550D01*
X113333Y71115D02*
Y77773D01*
X118110Y82550D02*
X146050D01*
X283210Y36830D02*
X287020Y40640D01*
X254910Y101600D02*
X256540Y103230D01*
Y116840D02*
X266700Y127000D01*
X256540Y103230D02*
Y116840D01*
X125650Y11059D02*
Y15850D01*
X122398Y7807D02*
X125650Y11059D01*
X36750Y70350D02*
Y75141D01*
X33498Y78393D02*
X36750Y75141D01*
X33498Y78393D02*
Y80802D01*
X33020Y81280D02*
X33498Y80802D01*
X49450Y15850D02*
X49833Y15467D01*
Y6724D02*
Y15467D01*
Y6724D02*
X50800Y5756D01*
Y5080D02*
Y5756D01*
X243206Y16324D02*
Y24766D01*
X247650Y29210D01*
X289560D01*
X233877Y16244D02*
X236220Y18587D01*
Y36830D02*
X272332D01*
X236586Y9704D02*
X243206Y16324D01*
X155813Y38100D02*
X184209Y9704D01*
X214630Y36830D02*
X236220D01*
X188226Y16244D02*
X233877D01*
X236220Y18587D02*
Y36830D01*
X184209Y9704D02*
X236586D01*
X157480Y46990D02*
X188226Y16244D01*
X157480Y57150D02*
X190596Y24034D01*
X227330D01*
X272332Y36830D02*
X272332Y36830D01*
X283210D01*
X237766Y43370D02*
X275780D01*
X289480Y57070D02*
Y70350D01*
X275780Y43370D02*
X289480Y57070D01*
X226060Y66040D02*
X241300Y50800D01*
X271780D01*
X276780Y55800D01*
X226656Y54480D02*
X237766Y43370D01*
X207666Y43794D02*
X214630Y36830D01*
X135810Y46990D02*
X157480D01*
X146050Y82550D02*
X157480Y71120D01*
X76390Y89090D02*
X148759D01*
X113333Y71115D02*
X113524Y70924D01*
X62150Y74850D02*
X76390Y89090D01*
X148759D02*
X148949Y88900D01*
X157480Y57150D02*
Y71120D01*
X195031Y70571D02*
X200660Y76200D01*
X226563D01*
X167640Y57150D02*
Y85090D01*
Y57150D02*
X186476Y38314D01*
X199711D01*
X216328Y49274D02*
X221534Y54480D01*
X226656D01*
X190933Y51234D02*
X205740Y66040D01*
X182564Y56168D02*
X187499Y51234D01*
X190933D01*
X81280Y38100D02*
X155813D01*
X25400Y23020D02*
X36750D01*
X260651Y58060D02*
X263580Y60989D01*
X226563Y76200D02*
X244703Y58060D01*
X260651D01*
X263580Y60989D02*
Y65329D01*
X36750Y23020D02*
Y29130D01*
X40640Y33020D02*
X76200D01*
X81280Y38100D01*
X36750Y29130D02*
X40640Y33020D01*
X25400Y53340D02*
X27477D01*
X24130Y35527D02*
Y53340D01*
X32690Y41910D02*
X72390D01*
X70337Y50520D02*
X75697Y55880D01*
X30297Y50520D02*
X70337D01*
X27477Y53340D02*
X30297Y50520D01*
X66810Y58060D02*
X74850Y66100D01*
X33420Y58060D02*
X66810D01*
X29850Y61630D02*
X33420Y58060D01*
X20696Y61630D02*
X29850D01*
X72390Y41910D02*
X77470Y46990D01*
X15840Y18450D02*
Y56774D01*
Y18450D02*
X24130Y10160D01*
X15840Y56774D02*
X20696Y61630D01*
X205740Y66040D02*
X226060D01*
X77470Y46990D02*
X135810D01*
X75697Y55880D02*
X129540D01*
X135810Y46990D02*
X144700Y55880D01*
X129540D02*
X139620Y65960D01*
X144620D01*
X276780Y55800D02*
Y70350D01*
D20*
X321311Y40640D02*
X328101Y33850D01*
X287020Y40640D02*
X321311D01*
X314342Y95926D02*
Y111371D01*
X311413Y114300D02*
X314342Y111371D01*
X273410Y101600D02*
X275245Y103435D01*
Y111371D01*
X278174Y114300D02*
X311413D01*
X275245Y111371D02*
X278174Y114300D01*
X292100Y89289D02*
Y99060D01*
X289171Y86360D02*
X292100Y89289D01*
X195580Y86360D02*
X289171D01*
X251380Y70350D02*
Y83431D01*
X345900Y52350D02*
X347849Y54299D01*
X195031Y69864D02*
X195292Y69603D01*
X195031Y69864D02*
Y70571D01*
X214383Y50512D02*
X215621Y49274D01*
X216328D01*
X181857Y56168D02*
X182564D01*
X188574Y62886D02*
Y63593D01*
X182245Y69922D02*
X188574Y63593D01*
X182245Y69922D02*
Y73025D01*
X264080Y65829D02*
Y70350D01*
X263580Y65329D02*
X264080Y65829D01*
X144691Y30011D02*
X158193Y16510D01*
X163830D01*
X327389Y16041D02*
Y33138D01*
X24130Y53340D02*
X25400D01*
X182245Y73025D02*
X195580Y86360D01*
X75041Y21701D02*
X83070Y29730D01*
X109140D01*
X74850Y15850D02*
X75041Y16041D01*
Y21701D01*
X341950Y100909D02*
Y126050D01*
X339021Y97980D02*
X341950Y100909D01*
X336370Y97980D02*
X339021D01*
X334370Y95980D02*
X336370Y97980D01*
X334370Y93980D02*
Y95980D01*
X347900Y33850D02*
X349900D01*
X328101D02*
X347900D01*
X314342Y95926D02*
X314963Y95305D01*
X352773Y80993D02*
X353060Y81280D01*
X352773Y70936D02*
Y80993D01*
X347849Y66011D02*
X352773Y70936D01*
X317500Y127000D02*
X318916Y128416D01*
X144700Y55880D02*
X144700D01*
X144620Y65960D02*
X144700Y65880D01*
X358060Y20240D02*
Y20240D01*
X349900Y33850D02*
X351900Y31850D01*
Y26400D02*
Y31850D01*
Y26400D02*
X358060Y20240D01*
X62150Y70350D02*
Y74850D01*
X343510Y70350D02*
X347849Y66011D01*
X327580Y70350D02*
X343510D01*
X347849Y54299D02*
Y66011D01*
X345900Y52350D02*
X347900D01*
X341950Y126050D02*
X342900Y127000D01*
X314880Y70350D02*
Y89720D01*
X121451Y30011D02*
X144691D01*
X112950Y15850D02*
X113141Y16041D01*
Y21701D01*
X121451Y30011D01*
X292100Y127000D02*
Y129380D01*
X314689Y70541D02*
Y75062D01*
X292100Y127000D02*
X292875Y126225D01*
X327389Y16041D02*
X327580Y15850D01*
D21*
X199711Y38314D02*
X200948Y37077D01*
X112950Y70350D02*
X113524Y70924D01*
X36750Y15850D02*
Y23020D01*
X24900Y33020D02*
X25400D01*
X24150Y33770D02*
Y35507D01*
Y33770D02*
X24900Y33020D01*
X24130Y35527D02*
X24150Y35507D01*
X49450Y70350D02*
Y75412D01*
X44450Y80412D02*
X49450Y75412D01*
X44450Y80412D02*
Y81280D01*
X74850Y66100D02*
Y70350D01*
D22*
X139700Y101600D02*
D03*
X114300D02*
D03*
X88900D02*
D03*
X63500D02*
D03*
X38100D02*
D03*
X342900Y127000D02*
D03*
X317500D02*
D03*
X292100D02*
D03*
X266700D02*
D03*
X241300D02*
D03*
D23*
X121920Y5080D02*
D03*
X33020Y81280D02*
D03*
X50800Y5080D02*
D03*
X292100Y99060D02*
D03*
X227330Y24034D02*
D03*
X289938Y29405D02*
D03*
X163830Y16510D02*
D03*
X32690Y41910D02*
D03*
X24130Y53340D02*
D03*
Y10160D02*
D03*
X44450Y81280D02*
D03*
X353060D02*
D03*
X358060Y20240D02*
D03*
X109140Y29730D02*
D03*
M02*
