M48
;Layer_Color=9474304
;FILE_FORMAT=4:4
METRIC,LZ
;TYPE=PLATED
T1F00S00C0.3000
T2F00S00C0.7000
%
T01
X0004413Y0003016
X000708Y0002508
X0005269Y0006191
X0004413Y0007334
X0005302Y0010128
X0006445
X0012914Y0004973
X0014192Y0002508
X0018383Y0003651
X0024733Y00044034
X00309938Y00049405
X003121Y0011906
X0037306Y0010128
X0037806Y0004024
Y0020524
X0037306Y0026628
X003121Y0028406
X00309938Y00214405
X0024733Y00209034
X0018383Y0020151
Y0036651
X0024733Y00374034
X00309938Y00379405
X003121Y0044906
X0037306Y0043128
X0037806Y0037024
Y0053524
X0024733Y00539034
X0018383Y0053151
X0014192Y0052008
X000708
X0004413Y0052516
X0005302Y0043128
X0006445
X0004413Y0040334
X0005269Y0039191
X0004413Y0036016
X000708Y0035508
X0014192
X0012914Y0037973
Y0021473
X0014192Y0019008
X000708
X0004413Y0019516
X0005269Y0022691
X0004413Y0023834
X0005302Y0026628
X0006445
X0005269Y0055691
X0004413Y0056834
X0005302Y0059628
X0006445
X0012914Y0054473
X00309938Y00544405
X003121Y0061406
X0037306Y0059628
T02
X000581Y001216
X000835
X001089
X001343
X001597
X002613Y00147
X002867
X003121
X003375
X003629
Y00312
X003375
X003121
X002867
X002613
X001597Y002866
Y004516
X002613Y00477
X002867
X003121
X003375
X003629
X001343Y004516
X001089
X000835
X000581
Y002866
X000835
X001089
X001343
Y006166
X001089
X000835
X000581
X001597
X002613Y00642
X002867
X003121
X003375
X003629
M30
