G04*
G04 #@! TF.GenerationSoftware,Altium Limited,Altium Designer,20.2.7 (254)*
G04*
G04 Layer_Physical_Order=2*
G04 Layer_Color=16711680*
%FSLAX44Y44*%
%MOMM*%
G71*
G04*
G04 #@! TF.SameCoordinates,9E9914D9-28FD-47AE-AA4C-24E4B2164C89*
G04*
G04*
G04 #@! TF.FilePolarity,Positive*
G04*
G01*
G75*
%ADD28R,0.5500X0.4500*%
%ADD29R,0.4500X0.5500*%
%ADD67C,0.4000*%
%ADD69C,1.5000*%
%ADD70C,1.0000*%
G04:AMPARAMS|DCode=71|XSize=1.2mm|YSize=1.6mm|CornerRadius=0.3mm|HoleSize=0mm|Usage=FLASHONLY|Rotation=180.000|XOffset=0mm|YOffset=0mm|HoleType=Round|Shape=RoundedRectangle|*
%AMROUNDEDRECTD71*
21,1,1.2000,1.0000,0,0,180.0*
21,1,0.6000,1.6000,0,0,180.0*
1,1,0.6000,-0.3000,0.5000*
1,1,0.6000,0.3000,0.5000*
1,1,0.6000,0.3000,-0.5000*
1,1,0.6000,-0.3000,-0.5000*
%
%ADD71ROUNDEDRECTD71*%
%ADD72C,1.3000*%
%ADD73C,0.8000*%
%ADD74C,0.6000*%
%ADD75C,1.4000*%
%ADD76O,1.4500X0.6000*%
%ADD77C,0.3000*%
D28*
X121600Y430100D02*
D03*
Y440100D02*
D03*
Y680100D02*
D03*
Y690100D02*
D03*
Y930100D02*
D03*
Y940100D02*
D03*
Y190100D02*
D03*
Y180100D02*
D03*
D29*
X291700Y402080D02*
D03*
X281700D02*
D03*
X291700Y652080D02*
D03*
X281700D02*
D03*
X291700Y902080D02*
D03*
X281700D02*
D03*
X291700Y386840D02*
D03*
X281700D02*
D03*
X291700Y636840D02*
D03*
X281700D02*
D03*
X291700Y886840D02*
D03*
X281700D02*
D03*
Y152080D02*
D03*
Y136840D02*
D03*
X291700Y152080D02*
D03*
Y136840D02*
D03*
D67*
X289240Y68260D02*
X312100Y45400D01*
X246060Y68260D02*
X289240D01*
X230820Y83500D02*
X246060Y68260D01*
X220660Y83500D02*
X230820D01*
X610500Y182560D02*
Y218120D01*
Y182560D02*
X620660Y172400D01*
X648797D01*
X651140Y174743D01*
Y213040D01*
X623200Y240980D02*
X651140Y213040D01*
X559700Y240980D02*
X623200D01*
X554620Y235900D02*
X559700Y240980D01*
X554620Y205420D02*
Y235900D01*
Y200340D02*
Y205420D01*
X539380Y185100D02*
X554620Y200340D01*
X524140Y185100D02*
X539380D01*
X516520Y192720D02*
X524140Y185100D01*
X475880Y192720D02*
X516520D01*
X463180Y180020D02*
X475880Y192720D01*
X463180Y113980D02*
Y180020D01*
X80960Y91120D02*
X169860D01*
X68260Y103820D02*
X80960Y91120D01*
X147000Y177480D02*
Y218120D01*
X144460Y174940D02*
X147000Y177480D01*
X127260Y174940D02*
X144460D01*
X122100Y180100D02*
X127260Y174940D01*
X121600Y180100D02*
X122100D01*
X200340Y190180D02*
X210500Y200340D01*
X235900D01*
X251140Y185100D01*
Y158430D02*
Y185100D01*
X242420Y149710D02*
X251140Y158430D01*
X186173Y149710D02*
X242420D01*
X183830Y147367D02*
X186173Y149710D01*
X183830Y141063D02*
Y147367D01*
Y141063D02*
X209643Y115250D01*
X221930D01*
X230820Y106360D01*
Y93660D02*
Y106360D01*
X299400Y136840D02*
X304189D01*
X305459Y138110D01*
X310250D01*
X299400Y131760D02*
Y136840D01*
X291700D02*
X299400D01*
X291700D02*
Y137034D01*
X291950Y137284D01*
X207960Y106360D02*
X218120D01*
X207960Y95800D02*
Y106360D01*
X207960Y106360D01*
X173670Y140650D02*
X207960Y106360D01*
X193120Y80960D02*
X207960Y95800D01*
X173670Y140650D02*
Y148270D01*
X73340Y80960D02*
X193120D01*
X173670Y148270D02*
X181290Y155890D01*
X60640Y93660D02*
X73340Y80960D01*
X181290Y155890D02*
X235487D01*
X60640Y93660D02*
Y113980D01*
X235487Y155890D02*
X243690Y164093D01*
X60640Y113980D02*
X65720Y119060D01*
X243690Y164093D02*
Y179482D01*
X65720Y119060D02*
Y202880D01*
X230282Y192890D02*
X243690Y179482D01*
X65720Y202880D02*
X75880Y213040D01*
X215750Y192890D02*
X230282D01*
X75880Y213040D02*
Y235900D01*
X200340Y177480D02*
X215750Y192890D01*
X162043Y177480D02*
X200340D01*
X157160Y182560D02*
X159700Y180020D01*
Y179823D02*
X162043Y177480D01*
X159700Y179823D02*
Y180020D01*
X157160Y182560D02*
Y195260D01*
X172400Y210500D01*
Y218120D01*
X134977D02*
X145136Y228280D01*
X134300Y218120D02*
X134977D01*
X134300Y185100D02*
Y218120D01*
X145136Y228280D02*
X201032D01*
X191450Y218698D02*
X201032Y228280D01*
X214360Y241608D01*
X191450Y218317D02*
Y218698D01*
X214360Y241608D02*
X247972D01*
X281700Y207880D01*
Y159780D02*
Y207880D01*
X94930Y181290D02*
X96200Y180020D01*
Y121600D02*
Y180020D01*
X281700Y152080D02*
Y159780D01*
X298513Y176593D01*
X281700Y136840D02*
Y152080D01*
X298513Y176593D02*
X309867D01*
X310250Y176210D01*
X323530D01*
X329880Y169860D01*
Y119060D02*
Y169860D01*
X322260Y111440D02*
X329880Y119060D01*
X276540Y111440D02*
X322260D01*
X274000Y108900D02*
X276540Y111440D01*
X83500Y152080D02*
Y167320D01*
X73340Y141920D02*
X83500Y152080D01*
X73340Y113980D02*
Y141920D01*
Y113980D02*
X80960Y106360D01*
X101806D01*
X108900Y113454D01*
Y121600D01*
X582560Y162240D02*
X595260Y149540D01*
X582560Y162240D02*
Y210697D01*
X577677Y215580D02*
X582560Y210697D01*
X577480Y215580D02*
X577677D01*
X534300Y121600D02*
Y134300D01*
Y136840D01*
X521600Y147000D02*
X534300Y134300D01*
Y136840D02*
X541920Y144460D01*
X498878Y147000D02*
X521600D01*
X541920Y144460D02*
Y174940D01*
X496200Y146090D02*
X496678Y146568D01*
X498446D02*
X498878Y147000D01*
X496678Y146568D02*
X498446D01*
X541920Y174940D02*
X552080Y185100D01*
X143110Y238360D02*
X174445D01*
X121600Y216850D02*
X143110Y238360D01*
X111440Y206690D02*
X121600Y216850D01*
X111440Y190180D02*
Y206690D01*
Y149540D02*
Y190180D01*
Y149540D02*
X120330Y140650D01*
X159700D01*
X160178Y140172D02*
X164845D01*
X159700Y140650D02*
Y148270D01*
Y140650D02*
X160178Y140172D01*
X164845D02*
X199111Y105905D01*
X159700Y148270D02*
X174940Y163510D01*
X199111Y98543D02*
Y105905D01*
X174940Y163510D02*
X224470D01*
X196768Y96200D02*
X199111Y98543D01*
X181703Y96200D02*
X196768D01*
X224470Y163510D02*
X229550Y168590D01*
X176623Y101280D02*
X181703Y96200D01*
X141920Y101280D02*
X176623D01*
X134300Y108900D02*
X141920Y101280D01*
X134300Y108900D02*
Y121600D01*
X340040D02*
Y134300D01*
X343850Y138110D01*
X364750D01*
X193990Y141920D02*
X205420D01*
X268920Y78420D01*
X291780D01*
X309560Y60640D01*
X352740D01*
X362900Y70800D01*
Y96200D01*
X350200Y108900D02*
X362900Y96200D01*
X340040Y108900D02*
X350200D01*
X305459Y150810D02*
X310250D01*
X304189Y152080D02*
X305459Y150810D01*
X310250D02*
X319917D01*
X291700Y152080D02*
X304189D01*
X322040Y134987D02*
Y148687D01*
X319917Y150810D02*
X322040Y148687D01*
X311023Y123970D02*
X322040Y134987D01*
X283150Y123970D02*
X311023D01*
X274000Y133119D02*
X283150Y123970D01*
X274000Y133119D02*
Y205420D01*
X244600Y234820D02*
X274000Y205420D01*
X223390Y234820D02*
X244600D01*
X174318Y185748D02*
X223390Y234820D01*
X169860Y185270D02*
X170338Y185748D01*
X174318D01*
X340040Y96200D02*
X340518Y95722D01*
X348138D01*
X352740Y91120D01*
Y75683D02*
Y91120D01*
X347857Y70800D02*
X352740Y75683D01*
X327340Y70800D02*
X347857D01*
X309560Y88580D02*
X327340Y70800D01*
X268920Y88580D02*
X309560D01*
X216607Y140893D02*
X268920Y88580D01*
X216607Y140893D02*
Y141750D01*
X571560Y140220D02*
X572400Y139380D01*
X561400Y140220D02*
X571560D01*
X557160Y144460D02*
X561400Y140220D01*
X557160Y144460D02*
Y177480D01*
X567320Y187640D01*
Y225937D01*
X569663Y228280D01*
X618120D01*
X635900Y210500D01*
Y185100D02*
Y210500D01*
X327340Y83500D02*
X340040D01*
X312100Y98740D02*
X327340Y83500D01*
X268920Y98740D02*
X312100D01*
X253680Y113980D02*
X268920Y98740D01*
X253680Y113980D02*
Y127950D01*
X258760Y133030D01*
Y190180D01*
X234630Y214310D02*
X258760Y190180D01*
X234630Y214310D02*
Y217950D01*
X486040Y139380D02*
Y180020D01*
X483303Y136643D02*
X483303D01*
X486040Y139380D01*
X473340Y126680D02*
X483303Y136643D01*
X473340Y111440D02*
Y126680D01*
Y111440D02*
X483500Y101280D01*
X102550Y188910D02*
X103820Y187640D01*
Y144460D02*
Y187640D01*
Y144460D02*
X116520Y131760D01*
X162240D01*
X187640Y106360D01*
X266380Y116520D02*
Y196863D01*
X237753Y225490D02*
X266380Y196863D01*
X229300Y225490D02*
X237753D01*
X219390Y215580D02*
X229300Y225490D01*
X534300Y871600D02*
Y884300D01*
X582560Y912240D02*
X595260Y899540D01*
X582560Y912240D02*
Y960697D01*
X539380Y935100D02*
X554620Y950340D01*
Y955420D01*
X516520Y942720D02*
X524140Y935100D01*
X539380D01*
X475880Y942720D02*
X516520D01*
X496678Y896568D02*
X498446D01*
X498878Y897000D01*
X496200Y896090D02*
X496678Y896568D01*
X498878Y897000D02*
X521600D01*
X534300Y884300D01*
Y886840D01*
X541920Y894460D01*
X577677Y965580D02*
X582560Y960697D01*
X577480Y965580D02*
X577677D01*
X610500Y932560D02*
X620660Y922400D01*
X610500Y932560D02*
Y968120D01*
X569663Y978280D02*
X618120D01*
X567320Y937640D02*
Y975937D01*
X569663Y978280D01*
X635900Y935100D02*
Y960500D01*
X618120Y978280D02*
X635900Y960500D01*
X554620Y985900D02*
X559700Y990980D01*
X623200D01*
X554620Y955420D02*
Y985900D01*
X648797Y922400D02*
X651140Y924743D01*
Y963040D01*
X623200Y990980D02*
X651140Y963040D01*
X620660Y922400D02*
X648797D01*
X557160Y927480D02*
X567320Y937640D01*
X557160Y894460D02*
X561400Y890220D01*
X557160Y894460D02*
Y927480D01*
X561400Y890220D02*
X571560D01*
X572400Y889380D01*
X541920Y894460D02*
Y924940D01*
X552080Y935100D01*
X473340Y876680D02*
X483303Y886643D01*
X483303D02*
X486040Y889380D01*
Y930020D01*
X483303Y886643D02*
X483303D01*
X463180Y863980D02*
Y930020D01*
X475880Y942720D01*
X473340Y861440D02*
Y876680D01*
Y861440D02*
X483500Y851280D01*
X534300Y621600D02*
Y634300D01*
X582560Y662240D02*
X595260Y649540D01*
X582560Y662240D02*
Y710697D01*
X539380Y685100D02*
X554620Y700340D01*
Y705420D01*
X516520Y692720D02*
X524140Y685100D01*
X539380D01*
X475880Y692720D02*
X516520D01*
X496678Y646568D02*
X498446D01*
X498878Y647000D01*
X496200Y646090D02*
X496678Y646568D01*
X498878Y647000D02*
X521600D01*
X534300Y634300D01*
Y636840D01*
X541920Y644460D01*
X577677Y715580D02*
X582560Y710697D01*
X577480Y715580D02*
X577677D01*
X610500Y682560D02*
X620660Y672400D01*
X610500Y682560D02*
Y718120D01*
X569663Y728280D02*
X618120D01*
X567320Y687640D02*
Y725937D01*
X569663Y728280D01*
X635900Y685100D02*
Y710500D01*
X618120Y728280D02*
X635900Y710500D01*
X554620Y735900D02*
X559700Y740980D01*
X623200D01*
X554620Y705420D02*
Y735900D01*
X648797Y672400D02*
X651140Y674743D01*
Y713040D01*
X623200Y740980D02*
X651140Y713040D01*
X620660Y672400D02*
X648797D01*
X557160Y677480D02*
X567320Y687640D01*
X557160Y644460D02*
X561400Y640220D01*
X557160Y644460D02*
Y677480D01*
X561400Y640220D02*
X571560D01*
X572400Y639380D01*
X541920Y644460D02*
Y674940D01*
X552080Y685100D01*
X473340Y626680D02*
X483303Y636643D01*
X483303D02*
X486040Y639380D01*
Y680020D01*
X483303Y636643D02*
X483303D01*
X463180Y613980D02*
Y680020D01*
X475880Y692720D01*
X473340Y611440D02*
Y626680D01*
Y611440D02*
X483500Y601280D01*
X534300Y371600D02*
Y384300D01*
X582560Y412240D02*
X595260Y399540D01*
X582560Y412240D02*
Y460697D01*
X539380Y435100D02*
X554620Y450340D01*
Y455420D01*
X516520Y442720D02*
X524140Y435100D01*
X539380D01*
X475880Y442720D02*
X516520D01*
X496678Y396568D02*
X498446D01*
X498878Y397000D01*
X496200Y396090D02*
X496678Y396568D01*
X498878Y397000D02*
X521600D01*
X534300Y384300D01*
Y386840D01*
X541920Y394460D01*
X577677Y465580D02*
X582560Y460697D01*
X577480Y465580D02*
X577677D01*
X610500Y432560D02*
X620660Y422400D01*
X610500Y432560D02*
Y468120D01*
X569663Y478280D02*
X618120D01*
X567320Y437640D02*
Y475937D01*
X569663Y478280D01*
X635900Y435100D02*
Y460500D01*
X618120Y478280D02*
X635900Y460500D01*
X554620Y485900D02*
X559700Y490980D01*
X623200D01*
X554620Y455420D02*
Y485900D01*
X648797Y422400D02*
X651140Y424743D01*
Y463040D01*
X623200Y490980D02*
X651140Y463040D01*
X620660Y422400D02*
X648797D01*
X557160Y427480D02*
X567320Y437640D01*
X557160Y394460D02*
X561400Y390220D01*
X557160Y394460D02*
Y427480D01*
X561400Y390220D02*
X571560D01*
X572400Y389380D01*
X541920Y394460D02*
Y424940D01*
X552080Y435100D01*
X473340Y376680D02*
X483303Y386643D01*
X483303D02*
X486040Y389380D01*
Y430020D01*
X483303Y386643D02*
X483303D01*
X463180Y363980D02*
Y430020D01*
X475880Y442720D01*
X473340Y361440D02*
Y376680D01*
Y361440D02*
X483500Y351280D01*
X73340Y891920D02*
X83500Y902080D01*
X111440Y956690D02*
X121600Y966850D01*
X364367Y913893D02*
X364750Y913510D01*
X348138Y845722D02*
X352740Y841120D01*
X340518Y845722D02*
X348138D01*
X340040Y846200D02*
X340518Y845722D01*
X352740Y825683D02*
Y841120D01*
X350200Y858900D02*
X362900Y846200D01*
X340040Y858900D02*
X350200D01*
X352740Y810640D02*
X362900Y820800D01*
Y846200D01*
X309560Y810640D02*
X352740D01*
X220660Y833500D02*
X230820D01*
X246060Y818260D02*
X289240D01*
X312100Y795400D01*
X230820Y833500D02*
X246060Y818260D01*
X291780Y828420D02*
X309560Y810640D01*
X327340Y833500D02*
X340040D01*
X312100Y848740D02*
X327340Y833500D01*
X253680Y863980D02*
X268920Y848740D01*
X312100D01*
X134300Y935100D02*
Y968120D01*
X111440Y940180D02*
Y956690D01*
X134300Y968120D02*
X134977D01*
X122100Y930100D02*
X127260Y924940D01*
X121600Y930100D02*
X122100D01*
X144460Y924940D02*
X147000Y927480D01*
X127260Y924940D02*
X144460D01*
X304189Y902080D02*
X305459Y900810D01*
X291700Y902080D02*
X304189D01*
X309867Y926593D02*
X310250Y926210D01*
X281700Y902080D02*
Y909780D01*
Y886840D02*
Y902080D01*
X298513Y926593D02*
X309867D01*
X364750Y926210D02*
X365133Y925827D01*
X340040Y871600D02*
Y884300D01*
X343850Y888110D01*
X364750D01*
X65720Y869060D02*
Y952880D01*
X310250Y926210D02*
X323530D01*
X329880Y869060D02*
Y919860D01*
X323530Y926210D02*
X329880Y919860D01*
X322260Y861440D02*
X329880Y869060D01*
X274000Y858900D02*
X276540Y861440D01*
X322260D01*
X268920Y828420D02*
X291780D01*
X281700Y909780D02*
X298513Y926593D01*
X191450Y968317D02*
Y968698D01*
X268920Y838580D02*
X309560D01*
X159700Y890650D02*
X160178Y890172D01*
X207960Y856360D02*
X218120D01*
X159700Y890650D02*
Y898270D01*
X221930Y865250D02*
X230820Y856360D01*
X216607Y890893D02*
Y891750D01*
Y890893D02*
X268920Y838580D01*
X253680Y863980D02*
Y877950D01*
X159700Y898270D02*
X174940Y913510D01*
X181290Y905890D02*
X235487D01*
X243690Y914093D01*
X230282Y942890D02*
X243690Y929482D01*
Y914093D02*
Y929482D01*
X281700Y909780D02*
Y957880D01*
X193990Y891920D02*
X205420D01*
X268920Y828420D01*
X209643Y865250D02*
X221930D01*
X183830Y891063D02*
Y897367D01*
Y891063D02*
X209643Y865250D01*
X183830Y897367D02*
X186173Y899710D01*
X173670Y890650D02*
Y898270D01*
Y890650D02*
X207960Y856360D01*
X173670Y898270D02*
X181290Y905890D01*
X309560Y838580D02*
X327340Y820800D01*
X347857D02*
X352740Y825683D01*
X327340Y820800D02*
X347857D01*
X242420Y899710D02*
X251140Y908430D01*
Y935100D01*
X186173Y899710D02*
X242420D01*
X174940Y913510D02*
X224470D01*
X229550Y918590D01*
X160178Y890172D02*
X164845D01*
X385084Y924940D02*
X385760D01*
X383814Y926210D02*
X385084Y924940D01*
X364750Y926210D02*
X383814D01*
X385282Y902558D02*
X385760Y902080D01*
X381669Y913510D02*
X385282Y909897D01*
X364750Y913510D02*
X381669D01*
X385282Y902558D02*
Y909897D01*
X363985Y913510D02*
X364367Y913893D01*
X68260Y853820D02*
X80960Y841120D01*
X73340Y863980D02*
X80960Y856360D01*
X73340Y863980D02*
Y891920D01*
X80960Y856360D02*
X101806D01*
X108900Y863454D02*
Y871600D01*
X101806Y856360D02*
X108900Y863454D01*
X80960Y841120D02*
X169860D01*
X147000Y927480D02*
Y968120D01*
X191450Y968698D02*
X201032Y978280D01*
X65720Y952880D02*
X75880Y963040D01*
Y985900D01*
X134977Y968120D02*
X145136Y978280D01*
X201032D01*
X121600Y966850D02*
X143110Y988360D01*
X174445D01*
X305459Y900810D02*
X310250D01*
X319917D01*
X201032Y978280D02*
X214360Y991608D01*
X247972D02*
X281700Y957880D01*
X214360Y991608D02*
X247972D01*
X253680Y877950D02*
X258760Y883030D01*
Y940180D01*
X234630Y964310D02*
X258760Y940180D01*
X234630Y964310D02*
Y967950D01*
X244600Y984820D02*
X274000Y955420D01*
X174318Y935748D02*
X223390Y984820D01*
X170338Y935748D02*
X174318D01*
X169860Y935270D02*
X170338Y935748D01*
X223390Y984820D02*
X244600D01*
X200340Y927480D02*
X215750Y942890D01*
X230282D01*
X164845Y890172D02*
X199111Y855905D01*
X73340Y830960D02*
X193120D01*
X199111Y848543D02*
Y855905D01*
X181703Y846200D02*
X196768D01*
X199111Y848543D01*
X176623Y851280D02*
X181703Y846200D01*
X193120Y830960D02*
X207960Y845800D01*
Y856360D02*
X207960Y856360D01*
X207960Y845800D02*
Y856360D01*
X230820Y843660D02*
Y856360D01*
X291700Y887034D02*
X291950Y887284D01*
X291700Y886840D02*
Y887034D01*
X274000Y883120D02*
Y955420D01*
Y883120D02*
X283150Y873970D01*
X311023D01*
X322040Y884987D01*
Y898687D01*
X319917Y900810D02*
X322040Y898687D01*
X305459Y888110D02*
X310250D01*
X304189Y886840D02*
X305459Y888110D01*
X291700Y886840D02*
X299400D01*
X304189D01*
X299400Y881760D02*
Y886840D01*
X134300Y858900D02*
Y871600D01*
X141920Y851280D02*
X176623D01*
X134300Y858900D02*
X141920Y851280D01*
X157160Y945260D02*
X172400Y960500D01*
Y968120D01*
X159700Y929823D02*
Y930020D01*
Y929823D02*
X162043Y927480D01*
X157160Y932560D02*
X159700Y930020D01*
X162043Y927480D02*
X200340D01*
X157160Y932560D02*
Y945260D01*
X162240Y881760D02*
X187640Y856360D01*
X116520Y881760D02*
X162240D01*
X96200Y871600D02*
Y930020D01*
X103820Y894460D02*
X116520Y881760D01*
X120330Y890650D02*
X159700D01*
X111440Y899540D02*
X120330Y890650D01*
X111440Y899540D02*
Y940180D01*
X94930Y931290D02*
X96200Y930020D01*
X103820Y894460D02*
Y937640D01*
X102550Y938910D02*
X103820Y937640D01*
X83500Y902080D02*
Y917320D01*
X235900Y950340D02*
X251140Y935100D01*
X200340Y940180D02*
X210500Y950340D01*
X235900D01*
X266380Y866520D02*
Y946863D01*
X237753Y975490D02*
X266380Y946863D01*
X229300Y975490D02*
X237753D01*
X219390Y965580D02*
X229300Y975490D01*
X60640Y863980D02*
X65720Y869060D01*
X60640Y843660D02*
X73340Y830960D01*
X60640Y843660D02*
Y863980D01*
X73340Y641920D02*
X83500Y652080D01*
X111440Y706690D02*
X121600Y716850D01*
X364367Y663893D02*
X364750Y663510D01*
X348138Y595722D02*
X352740Y591120D01*
X340518Y595722D02*
X348138D01*
X340040Y596200D02*
X340518Y595722D01*
X352740Y575683D02*
Y591120D01*
X350200Y608900D02*
X362900Y596200D01*
X340040Y608900D02*
X350200D01*
X352740Y560640D02*
X362900Y570800D01*
Y596200D01*
X309560Y560640D02*
X352740D01*
X220660Y583500D02*
X230820D01*
X246060Y568260D02*
X289240D01*
X312100Y545400D01*
X230820Y583500D02*
X246060Y568260D01*
X291780Y578420D02*
X309560Y560640D01*
X327340Y583500D02*
X340040D01*
X312100Y598740D02*
X327340Y583500D01*
X253680Y613980D02*
X268920Y598740D01*
X312100D01*
X134300Y685100D02*
Y718120D01*
X111440Y690180D02*
Y706690D01*
X134300Y718120D02*
X134977D01*
X122100Y680100D02*
X127260Y674940D01*
X121600Y680100D02*
X122100D01*
X144460Y674940D02*
X147000Y677480D01*
X127260Y674940D02*
X144460D01*
X304189Y652080D02*
X305459Y650810D01*
X291700Y652080D02*
X304189D01*
X309867Y676593D02*
X310250Y676210D01*
X281700Y652080D02*
Y659780D01*
Y636840D02*
Y652080D01*
X298513Y676593D02*
X309867D01*
X364750Y676210D02*
X365133Y675827D01*
X340040Y621600D02*
Y634300D01*
X343850Y638110D01*
X364750D01*
X65720Y619060D02*
Y702880D01*
X310250Y676210D02*
X323530D01*
X329880Y619060D02*
Y669860D01*
X323530Y676210D02*
X329880Y669860D01*
X322260Y611440D02*
X329880Y619060D01*
X274000Y608900D02*
X276540Y611440D01*
X322260D01*
X268920Y578420D02*
X291780D01*
X281700Y659780D02*
X298513Y676593D01*
X191450Y718317D02*
Y718698D01*
X268920Y588580D02*
X309560D01*
X159700Y640650D02*
X160178Y640172D01*
X207960Y606360D02*
X218120D01*
X159700Y640650D02*
Y648270D01*
X221930Y615250D02*
X230820Y606360D01*
X216607Y640893D02*
Y641750D01*
Y640893D02*
X268920Y588580D01*
X253680Y613980D02*
Y627950D01*
X159700Y648270D02*
X174940Y663510D01*
X181290Y655890D02*
X235487D01*
X243690Y664093D01*
X230282Y692890D02*
X243690Y679482D01*
Y664093D02*
Y679482D01*
X281700Y659780D02*
Y707880D01*
X193990Y641920D02*
X205420D01*
X268920Y578420D01*
X209643Y615250D02*
X221930D01*
X183830Y641063D02*
Y647367D01*
Y641063D02*
X209643Y615250D01*
X183830Y647367D02*
X186173Y649710D01*
X173670Y640650D02*
Y648270D01*
Y640650D02*
X207960Y606360D01*
X173670Y648270D02*
X181290Y655890D01*
X309560Y588580D02*
X327340Y570800D01*
X347857D02*
X352740Y575683D01*
X327340Y570800D02*
X347857D01*
X242420Y649710D02*
X251140Y658430D01*
Y685100D01*
X186173Y649710D02*
X242420D01*
X174940Y663510D02*
X224470D01*
X229550Y668590D01*
X160178Y640172D02*
X164845D01*
X385084Y674940D02*
X385760D01*
X383814Y676210D02*
X385084Y674940D01*
X364750Y676210D02*
X383814D01*
X385282Y652558D02*
X385760Y652080D01*
X381669Y663510D02*
X385282Y659897D01*
X364750Y663510D02*
X381669D01*
X385282Y652558D02*
Y659897D01*
X363985Y663510D02*
X364367Y663893D01*
X68260Y603820D02*
X80960Y591120D01*
X73340Y613980D02*
X80960Y606360D01*
X73340Y613980D02*
Y641920D01*
X80960Y606360D02*
X101806D01*
X108900Y613454D02*
Y621600D01*
X101806Y606360D02*
X108900Y613454D01*
X80960Y591120D02*
X169860D01*
X147000Y677480D02*
Y718120D01*
X191450Y718698D02*
X201032Y728280D01*
X65720Y702880D02*
X75880Y713040D01*
Y735900D01*
X134977Y718120D02*
X145136Y728280D01*
X201032D01*
X121600Y716850D02*
X143110Y738360D01*
X174445D01*
X305459Y650810D02*
X310250D01*
X319917D01*
X201032Y728280D02*
X214360Y741608D01*
X247972D02*
X281700Y707880D01*
X214360Y741608D02*
X247972D01*
X253680Y627950D02*
X258760Y633030D01*
Y690180D01*
X234630Y714310D02*
X258760Y690180D01*
X234630Y714310D02*
Y717950D01*
X244600Y734820D02*
X274000Y705420D01*
X174318Y685748D02*
X223390Y734820D01*
X170338Y685748D02*
X174318D01*
X169860Y685270D02*
X170338Y685748D01*
X223390Y734820D02*
X244600D01*
X200340Y677480D02*
X215750Y692890D01*
X230282D01*
X164845Y640172D02*
X199111Y605905D01*
X73340Y580960D02*
X193120D01*
X199111Y598543D02*
Y605905D01*
X181703Y596200D02*
X196768D01*
X199111Y598543D01*
X176623Y601280D02*
X181703Y596200D01*
X193120Y580960D02*
X207960Y595800D01*
Y606360D02*
X207960Y606360D01*
X207960Y595800D02*
Y606360D01*
X230820Y593660D02*
Y606360D01*
X291700Y637034D02*
X291950Y637284D01*
X291700Y636840D02*
Y637034D01*
X274000Y633120D02*
Y705420D01*
Y633120D02*
X283150Y623970D01*
X311023D01*
X322040Y634987D01*
Y648687D01*
X319917Y650810D02*
X322040Y648687D01*
X305459Y638110D02*
X310250D01*
X304189Y636840D02*
X305459Y638110D01*
X291700Y636840D02*
X299400D01*
X304189D01*
X299400Y631760D02*
Y636840D01*
X134300Y608900D02*
Y621600D01*
X141920Y601280D02*
X176623D01*
X134300Y608900D02*
X141920Y601280D01*
X157160Y695260D02*
X172400Y710500D01*
Y718120D01*
X159700Y679823D02*
Y680020D01*
Y679823D02*
X162043Y677480D01*
X157160Y682560D02*
X159700Y680020D01*
X162043Y677480D02*
X200340D01*
X157160Y682560D02*
Y695260D01*
X162240Y631760D02*
X187640Y606360D01*
X116520Y631760D02*
X162240D01*
X96200Y621600D02*
Y680020D01*
X103820Y644460D02*
X116520Y631760D01*
X120330Y640650D02*
X159700D01*
X111440Y649540D02*
X120330Y640650D01*
X111440Y649540D02*
Y690180D01*
X94930Y681290D02*
X96200Y680020D01*
X103820Y644460D02*
Y687640D01*
X102550Y688910D02*
X103820Y687640D01*
X83500Y652080D02*
Y667320D01*
X235900Y700340D02*
X251140Y685100D01*
X200340Y690180D02*
X210500Y700340D01*
X235900D01*
X266380Y616520D02*
Y696863D01*
X237753Y725490D02*
X266380Y696863D01*
X229300Y725490D02*
X237753D01*
X219390Y715580D02*
X229300Y725490D01*
X60640Y613980D02*
X65720Y619060D01*
X60640Y593660D02*
X73340Y580960D01*
X60640Y593660D02*
Y613980D01*
X73340Y391920D02*
X83500Y402080D01*
X111440Y456690D02*
X121600Y466850D01*
X364367Y413893D02*
X364750Y413510D01*
X348138Y345722D02*
X352740Y341120D01*
X340518Y345722D02*
X348138D01*
X340040Y346200D02*
X340518Y345722D01*
X352740Y325683D02*
Y341120D01*
X350200Y358900D02*
X362900Y346200D01*
X340040Y358900D02*
X350200D01*
X352740Y310640D02*
X362900Y320800D01*
Y346200D01*
X309560Y310640D02*
X352740D01*
X220660Y333500D02*
X230820D01*
X246060Y318260D02*
X289240D01*
X312100Y295400D01*
X230820Y333500D02*
X246060Y318260D01*
X291780Y328420D02*
X309560Y310640D01*
X327340Y333500D02*
X340040D01*
X312100Y348740D02*
X327340Y333500D01*
X253680Y363980D02*
X268920Y348740D01*
X312100D01*
X134300Y435100D02*
Y468120D01*
X111440Y440180D02*
Y456690D01*
X134300Y468120D02*
X134977D01*
X122100Y430100D02*
X127260Y424940D01*
X121600Y430100D02*
X122100D01*
X144460Y424940D02*
X147000Y427480D01*
X127260Y424940D02*
X144460D01*
X304189Y402080D02*
X305459Y400810D01*
X291700Y402080D02*
X304189D01*
X309867Y426593D02*
X310250Y426210D01*
X281700Y402080D02*
Y409780D01*
Y386840D02*
Y402080D01*
X298513Y426593D02*
X309867D01*
X364750Y426210D02*
X365133Y425827D01*
X340040Y371600D02*
Y384300D01*
X343850Y388110D01*
X364750D01*
X65720Y369060D02*
Y452880D01*
X310250Y426210D02*
X323530D01*
X329880Y369060D02*
Y419860D01*
X323530Y426210D02*
X329880Y419860D01*
X322260Y361440D02*
X329880Y369060D01*
X274000Y358900D02*
X276540Y361440D01*
X322260D01*
X268920Y328420D02*
X291780D01*
X281700Y409780D02*
X298513Y426593D01*
X191450Y468317D02*
Y468698D01*
X268920Y338580D02*
X309560D01*
X159700Y390650D02*
X160178Y390172D01*
X207960Y356360D02*
X218120D01*
X159700Y390650D02*
Y398270D01*
X221930Y365250D02*
X230820Y356360D01*
X216607Y390893D02*
Y391750D01*
Y390893D02*
X268920Y338580D01*
X253680Y363980D02*
Y377950D01*
X159700Y398270D02*
X174940Y413510D01*
X181290Y405890D02*
X235487D01*
X243690Y414093D01*
X230282Y442890D02*
X243690Y429482D01*
Y414093D02*
Y429482D01*
X281700Y409780D02*
Y457880D01*
X193990Y391920D02*
X205420D01*
X268920Y328420D01*
X209643Y365250D02*
X221930D01*
X183830Y391063D02*
Y397367D01*
Y391063D02*
X209643Y365250D01*
X183830Y397367D02*
X186173Y399710D01*
X173670Y390650D02*
Y398270D01*
Y390650D02*
X207960Y356360D01*
X173670Y398270D02*
X181290Y405890D01*
X309560Y338580D02*
X327340Y320800D01*
X347857D02*
X352740Y325683D01*
X327340Y320800D02*
X347857D01*
X242420Y399710D02*
X251140Y408430D01*
Y435100D01*
X186173Y399710D02*
X242420D01*
X174940Y413510D02*
X224470D01*
X229550Y418590D01*
X160178Y390172D02*
X164845D01*
X385084Y424940D02*
X385760D01*
X383814Y426210D02*
X385084Y424940D01*
X364750Y426210D02*
X383814D01*
X385282Y402558D02*
X385760Y402080D01*
X381669Y413510D02*
X385282Y409897D01*
X364750Y413510D02*
X381669D01*
X385282Y402558D02*
Y409897D01*
X363985Y413510D02*
X364367Y413893D01*
X68260Y353820D02*
X80960Y341120D01*
X73340Y363980D02*
X80960Y356360D01*
X73340Y363980D02*
Y391920D01*
X80960Y356360D02*
X101806D01*
X108900Y363454D02*
Y371600D01*
X101806Y356360D02*
X108900Y363454D01*
X80960Y341120D02*
X169860D01*
X147000Y427480D02*
Y468120D01*
X191450Y468698D02*
X201032Y478280D01*
X65720Y452880D02*
X75880Y463040D01*
Y485900D01*
X134977Y468120D02*
X145136Y478280D01*
X201032D01*
X121600Y466850D02*
X143110Y488360D01*
X174445D01*
X305459Y400810D02*
X310250D01*
X319917D01*
X201032Y478280D02*
X214360Y491608D01*
X247972D02*
X281700Y457880D01*
X214360Y491608D02*
X247972D01*
X253680Y377950D02*
X258760Y383030D01*
Y440180D01*
X234630Y464310D02*
X258760Y440180D01*
X234630Y464310D02*
Y467950D01*
X244600Y484820D02*
X274000Y455420D01*
X174318Y435748D02*
X223390Y484820D01*
X170338Y435748D02*
X174318D01*
X169860Y435270D02*
X170338Y435748D01*
X223390Y484820D02*
X244600D01*
X200340Y427480D02*
X215750Y442890D01*
X230282D01*
X164845Y390172D02*
X199111Y355905D01*
X73340Y330960D02*
X193120D01*
X199111Y348543D02*
Y355905D01*
X181703Y346200D02*
X196768D01*
X199111Y348543D01*
X176623Y351280D02*
X181703Y346200D01*
X193120Y330960D02*
X207960Y345800D01*
Y356360D02*
X207960Y356360D01*
X207960Y345800D02*
Y356360D01*
X230820Y343660D02*
Y356360D01*
X291700Y387034D02*
X291950Y387284D01*
X291700Y386840D02*
Y387034D01*
X274000Y383120D02*
Y455420D01*
Y383120D02*
X283150Y373970D01*
X311023D01*
X322040Y384987D01*
Y398687D01*
X319917Y400810D02*
X322040Y398687D01*
X305459Y388110D02*
X310250D01*
X304189Y386840D02*
X305459Y388110D01*
X291700Y386840D02*
X299400D01*
X304189D01*
X299400Y381760D02*
Y386840D01*
X134300Y358900D02*
Y371600D01*
X141920Y351280D02*
X176623D01*
X134300Y358900D02*
X141920Y351280D01*
X157160Y445260D02*
X172400Y460500D01*
Y468120D01*
X159700Y429823D02*
Y430020D01*
Y429823D02*
X162043Y427480D01*
X157160Y432560D02*
X159700Y430020D01*
X162043Y427480D02*
X200340D01*
X157160Y432560D02*
Y445260D01*
X162240Y381760D02*
X187640Y356360D01*
X116520Y381760D02*
X162240D01*
X96200Y371600D02*
Y430020D01*
X103820Y394460D02*
X116520Y381760D01*
X120330Y390650D02*
X159700D01*
X111440Y399540D02*
X120330Y390650D01*
X111440Y399540D02*
Y440180D01*
X94930Y431290D02*
X96200Y430020D01*
X103820Y394460D02*
Y437640D01*
X102550Y438910D02*
X103820Y437640D01*
X83500Y402080D02*
Y417320D01*
X235900Y450340D02*
X251140Y435100D01*
X200340Y440180D02*
X210500Y450340D01*
X235900D01*
X266380Y366520D02*
Y446863D01*
X237753Y475490D02*
X266380Y446863D01*
X229300Y475490D02*
X237753D01*
X219390Y465580D02*
X229300Y475490D01*
X60640Y363980D02*
X65720Y369060D01*
X60640Y343660D02*
X73340Y330960D01*
X60640Y343660D02*
Y363980D01*
X364367Y163893D02*
X364750Y163510D01*
Y176210D02*
X365133Y175827D01*
X385084Y174940D02*
X385760D01*
X383814Y176210D02*
X385084Y174940D01*
X364750Y176210D02*
X383814D01*
X385282Y152558D02*
X385760Y152080D01*
X381669Y163510D02*
X385282Y159897D01*
X364750Y163510D02*
X381669D01*
X385282Y152558D02*
Y159897D01*
X363985Y163510D02*
X364367Y163893D01*
D69*
X762900Y545400D02*
D03*
X737500D02*
D03*
X712100D02*
D03*
X686700D02*
D03*
X661300D02*
D03*
X635900D02*
D03*
X762900Y295400D02*
D03*
X737500D02*
D03*
X712100D02*
D03*
X686700D02*
D03*
X661300D02*
D03*
X635900D02*
D03*
X762900Y795400D02*
D03*
X737500D02*
D03*
X712100D02*
D03*
X686700D02*
D03*
X661300D02*
D03*
X635900D02*
D03*
X585100Y295400D02*
D03*
X559700D02*
D03*
X534300D02*
D03*
X508900D02*
D03*
X483500D02*
D03*
X458100D02*
D03*
X585100Y545400D02*
D03*
X559700D02*
D03*
X534300D02*
D03*
X508900D02*
D03*
X483500D02*
D03*
X458100D02*
D03*
X585100Y795400D02*
D03*
X559700D02*
D03*
X534300D02*
D03*
X508900D02*
D03*
X483500D02*
D03*
X458100D02*
D03*
X362900Y295400D02*
D03*
X337500D02*
D03*
X312100D02*
D03*
X286700D02*
D03*
X261300D02*
D03*
X235900D02*
D03*
X362900Y545400D02*
D03*
X337500D02*
D03*
X312100D02*
D03*
X286700D02*
D03*
X261300D02*
D03*
X235900D02*
D03*
X362900Y795400D02*
D03*
X337500D02*
D03*
X312100D02*
D03*
X286700D02*
D03*
X261300D02*
D03*
X235900D02*
D03*
X185100Y295400D02*
D03*
X159700D02*
D03*
X134300D02*
D03*
X108900D02*
D03*
X83500D02*
D03*
X58100D02*
D03*
X185100Y545400D02*
D03*
X159700D02*
D03*
X134300D02*
D03*
X108900D02*
D03*
X83500D02*
D03*
X58100D02*
D03*
X185100Y795400D02*
D03*
X159700D02*
D03*
X134300D02*
D03*
X108900D02*
D03*
X83500D02*
D03*
X58100D02*
D03*
X47066Y447800D02*
D03*
X29066Y432800D02*
D03*
X47066Y417800D02*
D03*
Y697800D02*
D03*
X29066Y682800D02*
D03*
X47066Y667800D02*
D03*
Y947800D02*
D03*
X29066Y932800D02*
D03*
X47066Y917800D02*
D03*
X46846Y391680D02*
D03*
Y361680D02*
D03*
X28846Y376680D02*
D03*
X46846Y641680D02*
D03*
Y611680D02*
D03*
X28846Y626680D02*
D03*
X46846Y891680D02*
D03*
Y861680D02*
D03*
X28846Y876680D02*
D03*
X559700Y320800D02*
D03*
X534300D02*
D03*
X508900D02*
D03*
X483500D02*
D03*
X458100D02*
D03*
X559700Y570800D02*
D03*
X534300D02*
D03*
X508900D02*
D03*
X483500D02*
D03*
X458100D02*
D03*
X559700Y820800D02*
D03*
X534300D02*
D03*
X508900D02*
D03*
X483500D02*
D03*
X458100D02*
D03*
X762900Y346200D02*
D03*
X737500D02*
D03*
X712100D02*
D03*
X686700D02*
D03*
X661300D02*
D03*
X762900Y596200D02*
D03*
X737500D02*
D03*
X712100D02*
D03*
X686700D02*
D03*
X661300D02*
D03*
X762900Y846200D02*
D03*
X737500D02*
D03*
X712100D02*
D03*
X686700D02*
D03*
X661300D02*
D03*
X762900Y96200D02*
D03*
X661300D02*
D03*
X312100Y45400D02*
D03*
X134300D02*
D03*
X47066Y167800D02*
D03*
X46846Y141680D02*
D03*
X58100Y45400D02*
D03*
X235900D02*
D03*
X185100D02*
D03*
X712100Y96200D02*
D03*
X261300Y45400D02*
D03*
X83500D02*
D03*
X47066Y197800D02*
D03*
X286700Y45400D02*
D03*
X108900D02*
D03*
X635900D02*
D03*
X458100D02*
D03*
Y70800D02*
D03*
X661300Y45400D02*
D03*
X483500D02*
D03*
Y70800D02*
D03*
X686700Y45400D02*
D03*
X508900D02*
D03*
Y70800D02*
D03*
X712100Y45400D02*
D03*
X534300D02*
D03*
Y70800D02*
D03*
X737500Y45400D02*
D03*
X559700D02*
D03*
Y70800D02*
D03*
X46846Y111680D02*
D03*
X686700Y96200D02*
D03*
X737500D02*
D03*
X337500Y45400D02*
D03*
X159700D02*
D03*
X762900D02*
D03*
X585100D02*
D03*
X362900D02*
D03*
X29066Y182800D02*
D03*
X28846Y126680D02*
D03*
D70*
X572400Y389380D02*
D03*
Y407160D02*
D03*
Y639380D02*
D03*
Y657160D02*
D03*
Y889380D02*
D03*
Y907160D02*
D03*
Y157160D02*
D03*
Y139380D02*
D03*
D71*
X467400Y487500D02*
D03*
X537400D02*
D03*
X467400Y737500D02*
D03*
X537400D02*
D03*
X467400Y987500D02*
D03*
X537400D02*
D03*
Y237500D02*
D03*
X467400D02*
D03*
D72*
X527400Y460500D02*
D03*
X477400D02*
D03*
X527400Y710500D02*
D03*
X477400D02*
D03*
X527400Y960500D02*
D03*
X477400D02*
D03*
Y210500D02*
D03*
X527400D02*
D03*
D73*
X559700Y371600D02*
D03*
X547000D02*
D03*
X534300D02*
D03*
X521600D02*
D03*
X508900D02*
D03*
X496200D02*
D03*
X483500D02*
D03*
X559700Y621600D02*
D03*
X547000D02*
D03*
X534300D02*
D03*
X521600D02*
D03*
X508900D02*
D03*
X496200D02*
D03*
X483500D02*
D03*
X559700Y871600D02*
D03*
X547000D02*
D03*
X534300D02*
D03*
X521600D02*
D03*
X508900D02*
D03*
X496200D02*
D03*
X483500D02*
D03*
X159700Y371600D02*
D03*
X147000D02*
D03*
X134300D02*
D03*
X121600D02*
D03*
X108900D02*
D03*
X96200D02*
D03*
X83500D02*
D03*
X159700Y621600D02*
D03*
X147000D02*
D03*
X134300D02*
D03*
X121600D02*
D03*
X108900D02*
D03*
X96200D02*
D03*
X83500D02*
D03*
X159700Y871600D02*
D03*
X147000D02*
D03*
X134300D02*
D03*
X121600D02*
D03*
X108900D02*
D03*
X96200D02*
D03*
X83500D02*
D03*
X496200Y121600D02*
D03*
X96200D02*
D03*
X483500D02*
D03*
X83500D02*
D03*
X508900D02*
D03*
X108900D02*
D03*
X559700D02*
D03*
X159700D02*
D03*
X534300D02*
D03*
X134300D02*
D03*
X521600D02*
D03*
X547000D02*
D03*
X121600D02*
D03*
X147000D02*
D03*
D74*
X220660Y83500D02*
D03*
X610500Y218120D02*
D03*
X554620Y205420D02*
D03*
X539380Y185100D02*
D03*
X463180Y113980D02*
D03*
X615580Y124140D02*
D03*
X169860Y91120D02*
D03*
X68260Y103820D02*
D03*
X775600Y158157D02*
D03*
X661300Y134300D02*
D03*
X147000Y218120D02*
D03*
X200340Y190180D02*
D03*
X230820Y93660D02*
D03*
X299400Y131760D02*
D03*
X218120Y106360D02*
D03*
X75880Y235900D02*
D03*
X172400Y218120D02*
D03*
X134300D02*
D03*
Y185100D02*
D03*
X191450Y218317D02*
D03*
X94930Y181290D02*
D03*
X274000Y108900D02*
D03*
X83500Y167320D02*
D03*
X577480Y215580D02*
D03*
X541920Y144460D02*
D03*
X496200Y146090D02*
D03*
X552080Y185100D02*
D03*
X174445Y238360D02*
D03*
X121600Y216850D02*
D03*
X159700Y140650D02*
D03*
X229550Y168590D02*
D03*
X172400Y70800D02*
D03*
X340040Y121600D02*
D03*
X193990Y141920D02*
D03*
X340040Y108900D02*
D03*
X613040Y159700D02*
D03*
X638440D02*
D03*
X169860Y185270D02*
D03*
X340040Y96200D02*
D03*
X216607Y141750D02*
D03*
X714640Y162240D02*
D03*
X731150Y121600D02*
D03*
X635900Y185100D02*
D03*
X340040Y83500D02*
D03*
X234630Y217950D02*
D03*
X220660Y70800D02*
D03*
X486040Y180020D02*
D03*
X483500Y101280D02*
D03*
X102550Y188910D02*
D03*
X187640Y106360D02*
D03*
X266380Y116520D02*
D03*
X219390Y215580D02*
D03*
X224470Y185100D02*
D03*
X121600Y167320D02*
D03*
X775600Y908157D02*
D03*
X661300Y884300D02*
D03*
X731150Y871600D02*
D03*
X615580Y874140D02*
D03*
X714640Y912240D02*
D03*
X577480Y965580D02*
D03*
X539380Y935100D02*
D03*
X554620Y955420D02*
D03*
X486040Y930020D02*
D03*
X496200Y896090D02*
D03*
X541920Y894460D02*
D03*
X635900Y935100D02*
D03*
X638440Y909700D02*
D03*
X610500Y968120D02*
D03*
X552080Y935100D02*
D03*
X483500Y851280D02*
D03*
X463180Y863980D02*
D03*
X613040Y909700D02*
D03*
X775600Y658157D02*
D03*
X661300Y634300D02*
D03*
X731150Y621600D02*
D03*
X615580Y624140D02*
D03*
X714640Y662240D02*
D03*
X577480Y715580D02*
D03*
X539380Y685100D02*
D03*
X554620Y705420D02*
D03*
X486040Y680020D02*
D03*
X496200Y646090D02*
D03*
X541920Y644460D02*
D03*
X635900Y685100D02*
D03*
X638440Y659700D02*
D03*
X610500Y718120D02*
D03*
X552080Y685100D02*
D03*
X483500Y601280D02*
D03*
X463180Y613980D02*
D03*
X613040Y659700D02*
D03*
X775600Y408157D02*
D03*
X661300Y384300D02*
D03*
X731150Y371600D02*
D03*
X615580Y374140D02*
D03*
X714640Y412240D02*
D03*
X577480Y465580D02*
D03*
X539380Y435100D02*
D03*
X554620Y455420D02*
D03*
X486040Y430020D02*
D03*
X496200Y396090D02*
D03*
X541920Y394460D02*
D03*
X635900Y435100D02*
D03*
X638440Y409700D02*
D03*
X610500Y468120D02*
D03*
X552080Y435100D02*
D03*
X483500Y351280D02*
D03*
X463180Y363980D02*
D03*
X613040Y409700D02*
D03*
X172400Y820800D02*
D03*
X159700Y890650D02*
D03*
X121600Y966850D02*
D03*
Y917320D02*
D03*
X134300Y968120D02*
D03*
X340040Y858900D02*
D03*
Y846200D02*
D03*
Y833500D02*
D03*
Y871600D02*
D03*
X220660Y820800D02*
D03*
Y833500D02*
D03*
X134300Y935100D02*
D03*
X191450Y968317D02*
D03*
X274000Y858900D02*
D03*
X218120Y856360D02*
D03*
X216607Y891750D02*
D03*
X169860Y935270D02*
D03*
X224470Y935100D02*
D03*
X193990Y891920D02*
D03*
X229550Y918590D02*
D03*
X187640Y856360D02*
D03*
X385760Y902080D02*
D03*
Y924940D02*
D03*
X68260Y853820D02*
D03*
X169860Y841120D02*
D03*
X147000Y968120D02*
D03*
X75880Y985900D02*
D03*
X174445Y988360D02*
D03*
X219390Y965580D02*
D03*
X234630Y967950D02*
D03*
X230820Y843660D02*
D03*
X299400Y881760D02*
D03*
X172400Y968120D02*
D03*
X94930Y931290D02*
D03*
X102550Y938910D02*
D03*
X83500Y917320D02*
D03*
X200340Y940180D02*
D03*
X266380Y866520D02*
D03*
X172400Y570800D02*
D03*
X159700Y640650D02*
D03*
X121600Y716850D02*
D03*
Y667320D02*
D03*
X134300Y718120D02*
D03*
X340040Y608900D02*
D03*
Y596200D02*
D03*
Y583500D02*
D03*
Y621600D02*
D03*
X220660Y570800D02*
D03*
Y583500D02*
D03*
X134300Y685100D02*
D03*
X191450Y718317D02*
D03*
X274000Y608900D02*
D03*
X218120Y606360D02*
D03*
X216607Y641750D02*
D03*
X169860Y685270D02*
D03*
X224470Y685100D02*
D03*
X193990Y641920D02*
D03*
X229550Y668590D02*
D03*
X187640Y606360D02*
D03*
X385760Y652080D02*
D03*
Y674940D02*
D03*
X68260Y603820D02*
D03*
X169860Y591120D02*
D03*
X147000Y718120D02*
D03*
X75880Y735900D02*
D03*
X174445Y738360D02*
D03*
X219390Y715580D02*
D03*
X234630Y717950D02*
D03*
X230820Y593660D02*
D03*
X299400Y631760D02*
D03*
X172400Y718120D02*
D03*
X94930Y681290D02*
D03*
X102550Y688910D02*
D03*
X83500Y667320D02*
D03*
X200340Y690180D02*
D03*
X266380Y616520D02*
D03*
X172400Y320800D02*
D03*
X159700Y390650D02*
D03*
X121600Y466850D02*
D03*
Y417320D02*
D03*
X134300Y468120D02*
D03*
X340040Y358900D02*
D03*
Y346200D02*
D03*
Y333500D02*
D03*
Y371600D02*
D03*
X220660Y320800D02*
D03*
Y333500D02*
D03*
X134300Y435100D02*
D03*
X191450Y468317D02*
D03*
X274000Y358900D02*
D03*
X218120Y356360D02*
D03*
X216607Y391750D02*
D03*
X169860Y435270D02*
D03*
X224470Y435100D02*
D03*
X193990Y391920D02*
D03*
X229550Y418590D02*
D03*
X187640Y356360D02*
D03*
X385760Y402080D02*
D03*
Y424940D02*
D03*
X68260Y353820D02*
D03*
X169860Y341120D02*
D03*
X147000Y468120D02*
D03*
X75880Y485900D02*
D03*
X174445Y488360D02*
D03*
X219390Y465580D02*
D03*
X234630Y467950D02*
D03*
X230820Y343660D02*
D03*
X299400Y381760D02*
D03*
X172400Y468120D02*
D03*
X94930Y431290D02*
D03*
X102550Y438910D02*
D03*
X83500Y417320D02*
D03*
X200340Y440180D02*
D03*
X266380Y366520D02*
D03*
X385760Y152080D02*
D03*
Y174940D02*
D03*
D75*
X787300Y979550D02*
D03*
X432700D02*
D03*
X787300Y729550D02*
D03*
X432700D02*
D03*
X787300Y479550D02*
D03*
X432700D02*
D03*
X787300Y229550D02*
D03*
X432700D02*
D03*
X32700Y979550D02*
D03*
X387300D02*
D03*
X32700Y729550D02*
D03*
X387300D02*
D03*
X32700Y479550D02*
D03*
X387300D02*
D03*
X32700Y229550D02*
D03*
X387300D02*
D03*
D76*
X310250Y388110D02*
D03*
Y400810D02*
D03*
Y413510D02*
D03*
Y426210D02*
D03*
X364750Y388110D02*
D03*
Y400810D02*
D03*
Y413510D02*
D03*
Y426210D02*
D03*
X310250Y638110D02*
D03*
Y650810D02*
D03*
Y663510D02*
D03*
Y676210D02*
D03*
X364750Y638110D02*
D03*
Y650810D02*
D03*
Y663510D02*
D03*
Y676210D02*
D03*
X310250Y888110D02*
D03*
Y900810D02*
D03*
Y913510D02*
D03*
Y926210D02*
D03*
X364750Y888110D02*
D03*
Y900810D02*
D03*
Y913510D02*
D03*
Y926210D02*
D03*
X310250Y176210D02*
D03*
X364750Y138110D02*
D03*
Y176210D02*
D03*
Y163510D02*
D03*
X310250Y150810D02*
D03*
Y138110D02*
D03*
X364750Y150810D02*
D03*
X310250Y163510D02*
D03*
D77*
X134300Y45400D02*
X153350Y26350D01*
X293050D01*
X312100Y45400D01*
X653830Y96200D02*
X661300D01*
X615730Y134300D02*
X653830Y96200D01*
X610500Y134300D02*
X615730D01*
X605420Y129220D02*
X610500Y134300D01*
X605420Y108900D02*
Y129220D01*
X592720Y96200D02*
X605420Y108900D01*
X508900Y96200D02*
X592720D01*
X483500Y121600D02*
X508900Y96200D01*
X463180Y101280D02*
Y113980D01*
Y101280D02*
X475880Y88580D01*
X597800D01*
X615580Y106360D01*
Y124140D01*
X755007Y178750D02*
X775600Y158157D01*
X693050Y178750D02*
X755007D01*
X661300Y147000D02*
X693050Y178750D01*
X661300Y134300D02*
Y147000D01*
X521600Y121600D02*
X522290Y120910D01*
Y113290D02*
Y120910D01*
Y113290D02*
X531760Y103820D01*
X585100D01*
X595260Y113980D01*
Y134300D01*
X602880Y141920D01*
X620660D01*
X653680Y108900D01*
X674000D01*
X686700Y96200D01*
Y121600D02*
X712100Y96200D01*
X653680Y121600D02*
X686700D01*
X625740Y149540D02*
X653680Y121600D01*
X595260Y149540D02*
X625740D01*
X585100Y139380D02*
X595260Y149540D01*
X585100Y119060D02*
Y139380D01*
X577480Y111440D02*
X585100Y119060D01*
X536840Y111440D02*
X577480D01*
X534990Y113290D02*
Y120910D01*
Y113290D02*
X536840Y111440D01*
X534300Y121600D02*
X534990Y120910D01*
X111440Y190180D02*
X121520D01*
X121600Y190100D01*
X108900Y70800D02*
X172400D01*
X83500Y45400D02*
X108900Y70800D01*
X613040Y159700D02*
X638440D01*
X714703Y162177D02*
X730480Y146400D01*
Y121600D02*
Y146400D01*
X534300Y45400D02*
X547000Y32700D01*
X699400D01*
X712100Y45400D01*
X274000Y58100D02*
X286700Y45400D01*
X223200Y58100D02*
X274000D01*
X220660Y60640D02*
X223200Y58100D01*
X121600D02*
X223200D01*
X220660Y60640D02*
Y70800D01*
X108900Y45400D02*
X121600Y58100D01*
X508900Y45400D02*
X521600Y58100D01*
X674000D01*
X686700Y45400D01*
X209230Y169860D02*
X224470Y185100D01*
X159700Y169860D02*
X209230D01*
X157160Y167320D02*
X159700Y169860D01*
X121600Y167320D02*
X157160D01*
X508900Y795400D02*
X521600Y808100D01*
X674000D01*
X686700Y795400D01*
X534300D02*
X547000Y782700D01*
X699400D01*
X712100Y795400D01*
X661300Y897000D02*
X693050Y928750D01*
X661300Y884300D02*
Y897000D01*
X693050Y928750D02*
X755007D01*
X775600Y908157D01*
X585100Y869060D02*
Y889380D01*
X522290Y863290D02*
Y870910D01*
X521600Y871600D02*
X522290Y870910D01*
X577480Y861440D02*
X585100Y869060D01*
X534990Y863290D02*
X536840Y861440D01*
X534300Y871600D02*
X534990Y870910D01*
X536840Y861440D02*
X577480D01*
X534990Y863290D02*
Y870910D01*
X653680Y871600D02*
X686700D01*
X712100Y846200D01*
X674000Y858900D02*
X686700Y846200D01*
X595260Y899540D02*
X625740D01*
X653680Y871600D01*
X585100Y889380D02*
X595260Y899540D01*
X605420Y858900D02*
Y879220D01*
X610500Y884300D01*
X615580Y856360D02*
Y874140D01*
X610500Y884300D02*
X615730D01*
X597800Y838580D02*
X615580Y856360D01*
X592720Y846200D02*
X605420Y858900D01*
X483500Y871600D02*
X508900Y846200D01*
X592720D01*
X531760Y853820D02*
X585100D01*
X522290Y863290D02*
X531760Y853820D01*
X595260Y863980D02*
Y884300D01*
X602880Y891920D01*
X585100Y853820D02*
X595260Y863980D01*
X620660Y891920D02*
X653680Y858900D01*
X674000D01*
X602880Y891920D02*
X620660D01*
X653830Y846200D02*
X661300D01*
X615730Y884300D02*
X653830Y846200D01*
X714703Y912177D02*
X730480Y896400D01*
X613040Y909700D02*
X638440D01*
X463180Y851280D02*
X475880Y838580D01*
X463180Y851280D02*
Y863980D01*
X475880Y838580D02*
X597800D01*
X730480Y871600D02*
Y896400D01*
X508900Y545400D02*
X521600Y558100D01*
X674000D01*
X686700Y545400D01*
X534300D02*
X547000Y532700D01*
X699400D01*
X712100Y545400D01*
X661300Y647000D02*
X693050Y678750D01*
X661300Y634300D02*
Y647000D01*
X693050Y678750D02*
X755007D01*
X775600Y658157D01*
X585100Y619060D02*
Y639380D01*
X522290Y613290D02*
Y620910D01*
X521600Y621600D02*
X522290Y620910D01*
X577480Y611440D02*
X585100Y619060D01*
X534990Y613290D02*
X536840Y611440D01*
X534300Y621600D02*
X534990Y620910D01*
X536840Y611440D02*
X577480D01*
X534990Y613290D02*
Y620910D01*
X653680Y621600D02*
X686700D01*
X712100Y596200D01*
X674000Y608900D02*
X686700Y596200D01*
X595260Y649540D02*
X625740D01*
X653680Y621600D01*
X585100Y639380D02*
X595260Y649540D01*
X605420Y608900D02*
Y629220D01*
X610500Y634300D01*
X615580Y606360D02*
Y624140D01*
X610500Y634300D02*
X615730D01*
X597800Y588580D02*
X615580Y606360D01*
X592720Y596200D02*
X605420Y608900D01*
X483500Y621600D02*
X508900Y596200D01*
X592720D01*
X531760Y603820D02*
X585100D01*
X522290Y613290D02*
X531760Y603820D01*
X595260Y613980D02*
Y634300D01*
X602880Y641920D01*
X585100Y603820D02*
X595260Y613980D01*
X620660Y641920D02*
X653680Y608900D01*
X674000D01*
X602880Y641920D02*
X620660D01*
X653830Y596200D02*
X661300D01*
X615730Y634300D02*
X653830Y596200D01*
X714703Y662177D02*
X730480Y646400D01*
X613040Y659700D02*
X638440D01*
X463180Y601280D02*
X475880Y588580D01*
X463180Y601280D02*
Y613980D01*
X475880Y588580D02*
X597800D01*
X730480Y621600D02*
Y646400D01*
X508900Y295400D02*
X521600Y308100D01*
X674000D01*
X686700Y295400D01*
X534300D02*
X547000Y282700D01*
X699400D01*
X712100Y295400D01*
X661300Y397000D02*
X693050Y428750D01*
X661300Y384300D02*
Y397000D01*
X693050Y428750D02*
X755007D01*
X775600Y408157D01*
X585100Y369060D02*
Y389380D01*
X522290Y363290D02*
Y370910D01*
X521600Y371600D02*
X522290Y370910D01*
X577480Y361440D02*
X585100Y369060D01*
X534990Y363290D02*
X536840Y361440D01*
X534300Y371600D02*
X534990Y370910D01*
X536840Y361440D02*
X577480D01*
X534990Y363290D02*
Y370910D01*
X653680Y371600D02*
X686700D01*
X712100Y346200D01*
X674000Y358900D02*
X686700Y346200D01*
X595260Y399540D02*
X625740D01*
X653680Y371600D01*
X585100Y389380D02*
X595260Y399540D01*
X605420Y358900D02*
Y379220D01*
X610500Y384300D01*
X615580Y356360D02*
Y374140D01*
X610500Y384300D02*
X615730D01*
X597800Y338580D02*
X615580Y356360D01*
X592720Y346200D02*
X605420Y358900D01*
X483500Y371600D02*
X508900Y346200D01*
X592720D01*
X531760Y353820D02*
X585100D01*
X522290Y363290D02*
X531760Y353820D01*
X595260Y363980D02*
Y384300D01*
X602880Y391920D01*
X585100Y353820D02*
X595260Y363980D01*
X620660Y391920D02*
X653680Y358900D01*
X674000D01*
X602880Y391920D02*
X620660D01*
X653830Y346200D02*
X661300D01*
X615730Y384300D02*
X653830Y346200D01*
X714703Y412177D02*
X730480Y396400D01*
X613040Y409700D02*
X638440D01*
X463180Y351280D02*
X475880Y338580D01*
X463180Y351280D02*
Y363980D01*
X475880Y338580D02*
X597800D01*
X730480Y371600D02*
Y396400D01*
X293050Y776350D02*
X312100Y795400D01*
X153350Y776350D02*
X293050D01*
X134300Y795400D02*
X153350Y776350D01*
X108900Y795400D02*
X121600Y808100D01*
X274000D02*
X286700Y795400D01*
X83500D02*
X108900Y820800D01*
X172400D01*
X121600Y808100D02*
X223200D01*
X274000D01*
X220660Y810640D02*
X223200Y808100D01*
X220660Y810640D02*
Y820800D01*
X111440Y940180D02*
X121520D01*
X121600Y940100D01*
X159700Y919860D02*
X209230D01*
X224470Y935100D01*
X157160Y917320D02*
X159700Y919860D01*
X121600Y917320D02*
X157160D01*
X293050Y526350D02*
X312100Y545400D01*
X153350Y526350D02*
X293050D01*
X134300Y545400D02*
X153350Y526350D01*
X108900Y545400D02*
X121600Y558100D01*
X274000D02*
X286700Y545400D01*
X83500D02*
X108900Y570800D01*
X172400D01*
X121600Y558100D02*
X223200D01*
X274000D01*
X220660Y560640D02*
X223200Y558100D01*
X220660Y560640D02*
Y570800D01*
X111440Y690180D02*
X121520D01*
X121600Y690100D01*
X159700Y669860D02*
X209230D01*
X224470Y685100D01*
X157160Y667320D02*
X159700Y669860D01*
X121600Y667320D02*
X157160D01*
X293050Y276350D02*
X312100Y295400D01*
X153350Y276350D02*
X293050D01*
X134300Y295400D02*
X153350Y276350D01*
X108900Y295400D02*
X121600Y308100D01*
X274000D02*
X286700Y295400D01*
X83500D02*
X108900Y320800D01*
X172400D01*
X121600Y308100D02*
X223200D01*
X274000D01*
X220660Y310640D02*
X223200Y308100D01*
X220660Y310640D02*
Y320800D01*
X111440Y440180D02*
X121520D01*
X121600Y440100D01*
X159700Y419860D02*
X209230D01*
X224470Y435100D01*
X157160Y417320D02*
X159700Y419860D01*
X121600Y417320D02*
X157160D01*
M02*
