G04*
G04 #@! TF.GenerationSoftware,Altium Limited,Altium Designer,20.2.7 (254)*
G04*
G04 Layer_Color=32896*
%FSLAX44Y44*%
%MOMM*%
G71*
G04*
G04 #@! TF.SameCoordinates,9E9914D9-28FD-47AE-AA4C-24E4B2164C89*
G04*
G04*
G04 #@! TF.FilePolarity,Positive*
G04*
G01*
G75*
%ADD10C,0.2500*%
%ADD11C,0.6000*%
%ADD12C,0.2000*%
%ADD13C,0.1500*%
D10*
X366000Y434710D02*
G03*
X366000Y434710I-1250J0D01*
G01*
Y684710D02*
G03*
X366000Y684710I-1250J0D01*
G01*
Y934710D02*
G03*
X366000Y934710I-1250J0D01*
G01*
Y184710D02*
G03*
X366000Y184710I-1250J0D01*
G01*
D11*
X346500Y422160D02*
G03*
X346500Y422160I-3000J0D01*
G01*
Y672160D02*
G03*
X346500Y672160I-3000J0D01*
G01*
Y922160D02*
G03*
X346500Y922160I-3000J0D01*
G01*
Y172160D02*
G03*
X346500Y172160I-3000J0D01*
G01*
D12*
X321500Y382160D02*
X353500D01*
X321500Y432160D02*
X353500D01*
X321500Y382160D02*
Y432160D01*
X353500Y382160D02*
Y432160D01*
X321500Y632160D02*
X353500D01*
X321500Y682160D02*
X353500D01*
X321500Y632160D02*
Y682160D01*
X353500Y632160D02*
Y682160D01*
X321500Y882160D02*
X353500D01*
X321500Y932160D02*
X353500D01*
X321500Y882160D02*
Y932160D01*
X353500Y882160D02*
Y932160D01*
X27066Y407800D02*
Y417800D01*
Y407800D02*
X57066D01*
Y457800D01*
X27066D02*
X57066D01*
X27066Y447800D02*
Y457800D01*
Y657800D02*
Y667800D01*
Y657800D02*
X57066D01*
Y707800D01*
X27066D02*
X57066D01*
X27066Y697800D02*
Y707800D01*
Y907800D02*
Y917800D01*
Y907800D02*
X57066D01*
Y957800D01*
X27066D02*
X57066D01*
X27066Y947800D02*
Y957800D01*
X26846Y391680D02*
Y401680D01*
X56846D01*
Y351680D02*
Y401680D01*
X26846Y351680D02*
X56846D01*
X26846D02*
Y361680D01*
Y641680D02*
Y651680D01*
X56846D01*
Y601680D02*
Y651680D01*
X26846Y601680D02*
X56846D01*
X26846D02*
Y611680D01*
Y891680D02*
Y901680D01*
X56846D01*
Y851680D02*
Y901680D01*
X26846Y851680D02*
X56846D01*
X26846D02*
Y861680D01*
X353500Y132160D02*
Y182160D01*
X321500Y132160D02*
Y182160D01*
X353500D01*
X321500Y132160D02*
X353500D01*
X27066Y197800D02*
Y207800D01*
X57066D01*
Y157800D02*
Y207800D01*
X27066Y157800D02*
X57066D01*
X27066D02*
Y167800D01*
X26846Y101680D02*
Y111680D01*
Y101680D02*
X56846D01*
Y151680D01*
X26846D02*
X56846D01*
X26846Y141680D02*
Y151680D01*
D13*
X368357Y377139D02*
Y371141D01*
X365358D01*
X364359Y372141D01*
Y376139D01*
X365358Y377139D01*
X368357D01*
X362359D02*
Y371141D01*
X359360D01*
X358361Y372141D01*
Y376139D01*
X359360Y377139D01*
X362359D01*
X353362Y371141D02*
Y377139D01*
X356361Y374140D01*
X352363D01*
X368357Y627139D02*
Y621141D01*
X365358D01*
X364359Y622141D01*
Y626139D01*
X365358Y627139D01*
X368357D01*
X362359D02*
Y621141D01*
X359360D01*
X358361Y622141D01*
Y626139D01*
X359360Y627139D01*
X362359D01*
X353362Y621141D02*
Y627139D01*
X356361Y624140D01*
X352363D01*
X368357Y877139D02*
Y871141D01*
X365358D01*
X364359Y872141D01*
Y876139D01*
X365358Y877139D01*
X368357D01*
X362359D02*
Y871141D01*
X359360D01*
X358361Y872141D01*
Y876139D01*
X359360Y877139D01*
X362359D01*
X353362Y871141D02*
Y877139D01*
X356361Y874140D01*
X352363D01*
X556701Y391272D02*
X562699D01*
X559700D01*
Y395271D01*
X556701D01*
X562699D01*
X556701Y397270D02*
X562699D01*
Y401269D01*
Y403268D02*
Y405268D01*
Y404268D01*
X556701D01*
X557701Y403268D01*
X556701Y641272D02*
X562699D01*
X559700D01*
Y645271D01*
X556701D01*
X562699D01*
X556701Y647270D02*
X562699D01*
Y651269D01*
Y653268D02*
Y655268D01*
Y654268D01*
X556701D01*
X557701Y653268D01*
X556701Y891272D02*
X562699D01*
X559700D01*
Y895271D01*
X556701D01*
X562699D01*
X556701Y897270D02*
X562699D01*
Y901269D01*
Y903268D02*
Y905268D01*
Y904268D01*
X556701D01*
X557701Y903268D01*
X294697Y409241D02*
Y415239D01*
X291698D01*
X290699Y414239D01*
Y412240D01*
X291698Y411240D01*
X294697D01*
X292698D02*
X290699Y409241D01*
X284701D02*
X288699D01*
X284701Y413240D01*
Y414239D01*
X285700Y415239D01*
X287700D01*
X288699Y414239D01*
X282701D02*
X281702Y415239D01*
X279702D01*
X278703Y414239D01*
Y413240D01*
X279702Y412240D01*
X278703Y411240D01*
Y410241D01*
X279702Y409241D01*
X281702D01*
X282701Y410241D01*
Y411240D01*
X281702Y412240D01*
X282701Y413240D01*
Y414239D01*
X281702Y412240D02*
X279702D01*
X294697Y659241D02*
Y665239D01*
X291698D01*
X290699Y664239D01*
Y662240D01*
X291698Y661240D01*
X294697D01*
X292698D02*
X290699Y659241D01*
X284701D02*
X288699D01*
X284701Y663240D01*
Y664239D01*
X285700Y665239D01*
X287700D01*
X288699Y664239D01*
X282701D02*
X281702Y665239D01*
X279702D01*
X278703Y664239D01*
Y663240D01*
X279702Y662240D01*
X278703Y661240D01*
Y660241D01*
X279702Y659241D01*
X281702D01*
X282701Y660241D01*
Y661240D01*
X281702Y662240D01*
X282701Y663240D01*
Y664239D01*
X281702Y662240D02*
X279702D01*
X294697Y909241D02*
Y915239D01*
X291698D01*
X290699Y914239D01*
Y912240D01*
X291698Y911240D01*
X294697D01*
X292698D02*
X290699Y909241D01*
X284701D02*
X288699D01*
X284701Y913240D01*
Y914239D01*
X285700Y915239D01*
X287700D01*
X288699Y914239D01*
X282701D02*
X281702Y915239D01*
X279702D01*
X278703Y914239D01*
Y913240D01*
X279702Y912240D01*
X278703Y911240D01*
Y910241D01*
X279702Y909241D01*
X281702D01*
X282701Y910241D01*
Y911240D01*
X281702Y912240D01*
X282701Y913240D01*
Y914239D01*
X281702Y912240D02*
X279702D01*
X294697Y391461D02*
Y397459D01*
X291698D01*
X290699Y396459D01*
Y394460D01*
X291698Y393460D01*
X294697D01*
X292698D02*
X290699Y391461D01*
X284701D02*
X288699D01*
X284701Y395460D01*
Y396459D01*
X285700Y397459D01*
X287700D01*
X288699Y396459D01*
X282701Y392461D02*
X281702Y391461D01*
X279702D01*
X278703Y392461D01*
Y396459D01*
X279702Y397459D01*
X281702D01*
X282701Y396459D01*
Y395460D01*
X281702Y394460D01*
X278703D01*
X294697Y641461D02*
Y647459D01*
X291698D01*
X290699Y646459D01*
Y644460D01*
X291698Y643460D01*
X294697D01*
X292698D02*
X290699Y641461D01*
X284701D02*
X288699D01*
X284701Y645460D01*
Y646459D01*
X285700Y647459D01*
X287700D01*
X288699Y646459D01*
X282701Y642461D02*
X281702Y641461D01*
X279702D01*
X278703Y642461D01*
Y646459D01*
X279702Y647459D01*
X281702D01*
X282701Y646459D01*
Y645460D01*
X281702Y644460D01*
X278703D01*
X294697Y891461D02*
Y897459D01*
X291698D01*
X290699Y896459D01*
Y894460D01*
X291698Y893460D01*
X294697D01*
X292698D02*
X290699Y891461D01*
X284701D02*
X288699D01*
X284701Y895460D01*
Y896459D01*
X285700Y897459D01*
X287700D01*
X288699Y896459D01*
X282701Y892461D02*
X281702Y891461D01*
X279702D01*
X278703Y892461D01*
Y896459D01*
X279702Y897459D01*
X281702D01*
X282701Y896459D01*
Y895460D01*
X281702Y894460D01*
X278703D01*
X114342Y443133D02*
X108344Y443060D01*
X108380Y440062D01*
X109392Y439074D01*
X111391Y439098D01*
X112379Y440110D01*
X112342Y443109D01*
X112367Y441110D02*
X114390Y439135D01*
X109417Y437075D02*
X108429Y436063D01*
X108453Y434064D01*
X109465Y433077D01*
X110465Y433089D01*
X111452Y434100D01*
X111440Y435100D01*
X111452Y434100D01*
X112464Y433113D01*
X113463Y433125D01*
X114451Y434137D01*
X114427Y436136D01*
X113415Y437123D01*
X114536Y427140D02*
X114487Y431138D01*
X110538Y427091D01*
X109538Y427079D01*
X108526Y428066D01*
X108502Y430066D01*
X109489Y431077D01*
X114342Y693133D02*
X108344Y693060D01*
X108380Y690062D01*
X109392Y689074D01*
X111391Y689098D01*
X112379Y690110D01*
X112342Y693109D01*
X112367Y691110D02*
X114390Y689135D01*
X109417Y687075D02*
X108429Y686063D01*
X108453Y684064D01*
X109465Y683076D01*
X110465Y683089D01*
X111452Y684100D01*
X111440Y685100D01*
X111452Y684100D01*
X112464Y683113D01*
X113463Y683125D01*
X114451Y684137D01*
X114427Y686136D01*
X113415Y687123D01*
X114536Y677140D02*
X114487Y681138D01*
X110538Y677091D01*
X109538Y677079D01*
X108526Y678066D01*
X108502Y680066D01*
X109489Y681077D01*
X114342Y943133D02*
X108344Y943060D01*
X108380Y940062D01*
X109392Y939074D01*
X111391Y939098D01*
X112379Y940110D01*
X112342Y943109D01*
X112367Y941110D02*
X114390Y939135D01*
X109417Y937075D02*
X108429Y936063D01*
X108453Y934064D01*
X109465Y933076D01*
X110465Y933089D01*
X111452Y934100D01*
X111440Y935100D01*
X111452Y934100D01*
X112464Y933113D01*
X113463Y933125D01*
X114451Y934137D01*
X114427Y936136D01*
X113415Y937123D01*
X114536Y927140D02*
X114487Y931138D01*
X110538Y927091D01*
X109538Y927079D01*
X108526Y928066D01*
X108502Y930066D01*
X109489Y931077D01*
X63679Y438071D02*
X62666Y439057D01*
X62638Y441056D01*
X63624Y442069D01*
X64623Y442083D01*
X65637Y441097D01*
X65665Y439098D01*
X66678Y438113D01*
X67678Y438126D01*
X68663Y439140D01*
X68636Y441139D01*
X67622Y442125D01*
X62707Y436058D02*
X68705Y436141D01*
X66733Y434114D01*
X68760Y432143D01*
X62763Y432060D01*
X68788Y430144D02*
X68816Y428144D01*
X68802Y429144D01*
X62804Y429061D01*
X63790Y430074D01*
X63679Y688071D02*
X62666Y689057D01*
X62638Y691056D01*
X63624Y692069D01*
X64623Y692083D01*
X65637Y691097D01*
X65665Y689098D01*
X66678Y688112D01*
X67678Y688126D01*
X68663Y689140D01*
X68636Y691139D01*
X67622Y692125D01*
X62707Y686058D02*
X68705Y686141D01*
X66733Y684114D01*
X68760Y682143D01*
X62763Y682060D01*
X68788Y680144D02*
X68816Y678144D01*
X68802Y679144D01*
X62804Y679061D01*
X63790Y680074D01*
X63679Y938071D02*
X62666Y939057D01*
X62638Y941056D01*
X63624Y942069D01*
X64623Y942083D01*
X65637Y941097D01*
X65665Y939098D01*
X66678Y938113D01*
X67678Y938126D01*
X68663Y939140D01*
X68636Y941139D01*
X67622Y942125D01*
X62707Y936058D02*
X68705Y936141D01*
X66733Y934114D01*
X68760Y932143D01*
X62763Y932060D01*
X68788Y930144D02*
X68816Y928144D01*
X68802Y929144D01*
X62804Y929061D01*
X63790Y930074D01*
X63719Y380678D02*
X62719Y381677D01*
X62719Y383677D01*
X63718Y384677D01*
X64718Y384677D01*
X65718Y383678D01*
X65718Y381678D01*
X66718Y380679D01*
X67718Y380679D01*
X68717Y381679D01*
X68717Y383679D01*
X67717Y384678D01*
X62720Y378678D02*
X68718Y378680D01*
X66720Y376680D01*
X68720Y374682D01*
X62722Y374680D01*
X68721Y368684D02*
X68720Y372682D01*
X64723Y368682D01*
X63723Y368682D01*
X62723Y369681D01*
X62723Y371681D01*
X63722Y372681D01*
X63720Y630678D02*
X62719Y631678D01*
X62719Y633677D01*
X63718Y634677D01*
X64718Y634677D01*
X65718Y633678D01*
X65718Y631678D01*
X66719Y630679D01*
X67718Y630679D01*
X68717Y631679D01*
X68717Y633679D01*
X67717Y634678D01*
X62720Y628678D02*
X68718Y628680D01*
X66720Y626680D01*
X68720Y624682D01*
X62722Y624680D01*
X68721Y618684D02*
X68720Y622682D01*
X64723Y618682D01*
X63723Y618682D01*
X62723Y619681D01*
X62723Y621681D01*
X63722Y622681D01*
X63720Y880678D02*
X62719Y881677D01*
X62719Y883677D01*
X63718Y884677D01*
X64718Y884677D01*
X65718Y883678D01*
X65718Y881678D01*
X66719Y880679D01*
X67718Y880679D01*
X68717Y881679D01*
X68717Y883679D01*
X67717Y884678D01*
X62720Y878678D02*
X68718Y878680D01*
X66720Y876680D01*
X68720Y874682D01*
X62722Y874680D01*
X68721Y868683D02*
X68720Y872682D01*
X64723Y868682D01*
X63723Y868682D01*
X62723Y869681D01*
X62723Y871681D01*
X63722Y872681D01*
X556701Y141272D02*
X562699D01*
X559700D01*
Y145271D01*
X556701D01*
X562699D01*
X556701Y147270D02*
X562699D01*
Y151269D01*
Y153268D02*
Y155268D01*
Y154268D01*
X556701D01*
X557701Y153268D01*
X368357Y127139D02*
Y121141D01*
X365358D01*
X364359Y122141D01*
Y126139D01*
X365358Y127139D01*
X368357D01*
X362359D02*
Y121141D01*
X359360D01*
X358361Y122141D01*
Y126139D01*
X359360Y127139D01*
X362359D01*
X353362Y121141D02*
Y127139D01*
X356361Y124140D01*
X352363D01*
X294697Y159241D02*
Y165239D01*
X291698D01*
X290699Y164239D01*
Y162240D01*
X291698Y161240D01*
X294697D01*
X292698D02*
X290699Y159241D01*
X284701D02*
X288699D01*
X284701Y163240D01*
Y164239D01*
X285700Y165239D01*
X287700D01*
X288699Y164239D01*
X282701D02*
X281702Y165239D01*
X279702D01*
X278703Y164239D01*
Y163240D01*
X279702Y162240D01*
X278703Y161240D01*
Y160241D01*
X279702Y159241D01*
X281702D01*
X282701Y160241D01*
Y161240D01*
X281702Y162240D01*
X282701Y163240D01*
Y164239D01*
X281702Y162240D02*
X279702D01*
X294697Y141461D02*
Y147459D01*
X291698D01*
X290699Y146459D01*
Y144460D01*
X291698Y143460D01*
X294697D01*
X292698D02*
X290699Y141461D01*
X284701D02*
X288699D01*
X284701Y145460D01*
Y146459D01*
X285700Y147459D01*
X287700D01*
X288699Y146459D01*
X282701Y142461D02*
X281702Y141461D01*
X279702D01*
X278703Y142461D01*
Y146459D01*
X279702Y147459D01*
X281702D01*
X282701Y146459D01*
Y145460D01*
X281702Y144460D01*
X278703D01*
X114342Y193133D02*
X108344Y193060D01*
X108380Y190061D01*
X109392Y189074D01*
X111391Y189098D01*
X112379Y190110D01*
X112342Y193109D01*
X112367Y191110D02*
X114390Y189135D01*
X109417Y187075D02*
X108429Y186063D01*
X108453Y184064D01*
X109465Y183076D01*
X110465Y183089D01*
X111452Y184100D01*
X111440Y185100D01*
X111452Y184100D01*
X112464Y183113D01*
X113463Y183125D01*
X114451Y184137D01*
X114427Y186136D01*
X113415Y187124D01*
X114536Y177140D02*
X114487Y181138D01*
X110538Y177091D01*
X109538Y177079D01*
X108526Y178066D01*
X108502Y180065D01*
X109489Y181077D01*
X63679Y188071D02*
X62666Y189057D01*
X62638Y191056D01*
X63624Y192069D01*
X64623Y192083D01*
X65637Y191098D01*
X65665Y189098D01*
X66678Y188113D01*
X67678Y188126D01*
X68663Y189140D01*
X68636Y191139D01*
X67622Y192125D01*
X62707Y186058D02*
X68705Y186141D01*
X66733Y184114D01*
X68760Y182143D01*
X62763Y182060D01*
X68788Y180144D02*
X68816Y178144D01*
X68802Y179144D01*
X62804Y179061D01*
X63790Y180074D01*
X63719Y130678D02*
X62719Y131677D01*
X62719Y133677D01*
X63718Y134677D01*
X64718Y134677D01*
X65718Y133678D01*
X65718Y131678D01*
X66718Y130679D01*
X67718Y130679D01*
X68717Y131679D01*
X68717Y133679D01*
X67717Y134678D01*
X62720Y128678D02*
X68718Y128680D01*
X66720Y126680D01*
X68720Y124682D01*
X62722Y124680D01*
X68721Y118684D02*
X68720Y122682D01*
X64723Y118682D01*
X63723Y118682D01*
X62723Y119681D01*
X62723Y121681D01*
X63722Y122681D01*
M02*
