G04*
G04 #@! TF.GenerationSoftware,Altium Limited,Altium Designer,20.2.7 (254)*
G04*
G04 Layer_Color=128*
%FSLAX44Y44*%
%MOMM*%
G71*
G04*
G04 #@! TF.SameCoordinates,9E9914D9-28FD-47AE-AA4C-24E4B2164C89*
G04*
G04*
G04 #@! TF.FilePolarity,Positive*
G04*
G01*
G75*
%ADD79C,0.0508*%
D79*
X759400Y545400D02*
X766400D01*
X762900Y541900D02*
Y548900D01*
X734000Y545400D02*
X741000D01*
X737500Y541900D02*
Y548900D01*
X708600Y545400D02*
X715600D01*
X712100Y541900D02*
Y548900D01*
X683200Y545400D02*
X690200D01*
X686700Y541900D02*
Y548900D01*
X657800Y545400D02*
X664800D01*
X661300Y541900D02*
Y548900D01*
X632400Y545400D02*
X639400D01*
X635900Y541900D02*
Y548900D01*
X759400Y295400D02*
X766400D01*
X762900Y291900D02*
Y298900D01*
X734000Y295400D02*
X741000D01*
X737500Y291900D02*
Y298900D01*
X708600Y295400D02*
X715600D01*
X712100Y291900D02*
Y298900D01*
X683200Y295400D02*
X690200D01*
X686700Y291900D02*
Y298900D01*
X657800Y295400D02*
X664800D01*
X661300Y291900D02*
Y298900D01*
X632400Y295400D02*
X639400D01*
X635900Y291900D02*
Y298900D01*
X759400Y795400D02*
X766400D01*
X762900Y791900D02*
Y798900D01*
X734000Y795400D02*
X741000D01*
X737500Y791900D02*
Y798900D01*
X708600Y795400D02*
X715600D01*
X712100Y791900D02*
Y798900D01*
X683200Y795400D02*
X690200D01*
X686700Y791900D02*
Y798900D01*
X657800Y795400D02*
X664800D01*
X661300Y791900D02*
Y798900D01*
X632400Y795400D02*
X639400D01*
X635900Y791900D02*
Y798900D01*
X581600Y295400D02*
X588600D01*
X585100Y291900D02*
Y298900D01*
X556200Y295400D02*
X563200D01*
X559700Y291900D02*
Y298900D01*
X530800Y295400D02*
X537800D01*
X534300Y291900D02*
Y298900D01*
X505400Y295400D02*
X512400D01*
X508900Y291900D02*
Y298900D01*
X480000Y295400D02*
X487000D01*
X483500Y291900D02*
Y298900D01*
X454600Y295400D02*
X461600D01*
X458100Y291900D02*
Y298900D01*
X581600Y545400D02*
X588600D01*
X585100Y541900D02*
Y548900D01*
X556200Y545400D02*
X563200D01*
X559700Y541900D02*
Y548900D01*
X530800Y545400D02*
X537800D01*
X534300Y541900D02*
Y548900D01*
X505400Y545400D02*
X512400D01*
X508900Y541900D02*
Y548900D01*
X480000Y545400D02*
X487000D01*
X483500Y541900D02*
Y548900D01*
X454600Y545400D02*
X461600D01*
X458100Y541900D02*
Y548900D01*
X581600Y795400D02*
X588600D01*
X585100Y791900D02*
Y798900D01*
X556200Y795400D02*
X563200D01*
X559700Y791900D02*
Y798900D01*
X530800Y795400D02*
X537800D01*
X534300Y791900D02*
Y798900D01*
X505400Y795400D02*
X512400D01*
X508900Y791900D02*
Y798900D01*
X480000Y795400D02*
X487000D01*
X483500Y791900D02*
Y798900D01*
X454600Y795400D02*
X461600D01*
X458100Y791900D02*
Y798900D01*
X359400Y295400D02*
X366400D01*
X362900Y291900D02*
Y298900D01*
X334000Y295400D02*
X341000D01*
X337500Y291900D02*
Y298900D01*
X308600Y295400D02*
X315600D01*
X312100Y291900D02*
Y298900D01*
X283200Y295400D02*
X290200D01*
X286700Y291900D02*
Y298900D01*
X257800Y295400D02*
X264800D01*
X261300Y291900D02*
Y298900D01*
X232400Y295400D02*
X239400D01*
X235900Y291900D02*
Y298900D01*
X359400Y545400D02*
X366400D01*
X362900Y541900D02*
Y548900D01*
X334000Y545400D02*
X341000D01*
X337500Y541900D02*
Y548900D01*
X308600Y545400D02*
X315600D01*
X312100Y541900D02*
Y548900D01*
X283200Y545400D02*
X290200D01*
X286700Y541900D02*
Y548900D01*
X257800Y545400D02*
X264800D01*
X261300Y541900D02*
Y548900D01*
X232400Y545400D02*
X239400D01*
X235900Y541900D02*
Y548900D01*
X359400Y795400D02*
X366400D01*
X362900Y791900D02*
Y798900D01*
X334000Y795400D02*
X341000D01*
X337500Y791900D02*
Y798900D01*
X308600Y795400D02*
X315600D01*
X312100Y791900D02*
Y798900D01*
X283200Y795400D02*
X290200D01*
X286700Y791900D02*
Y798900D01*
X257800Y795400D02*
X264800D01*
X261300Y791900D02*
Y798900D01*
X232400Y795400D02*
X239400D01*
X235900Y791900D02*
Y798900D01*
X181600Y295400D02*
X188600D01*
X185100Y291900D02*
Y298900D01*
X156200Y295400D02*
X163200D01*
X159700Y291900D02*
Y298900D01*
X130800Y295400D02*
X137800D01*
X134300Y291900D02*
Y298900D01*
X105400Y295400D02*
X112400D01*
X108900Y291900D02*
Y298900D01*
X80000Y295400D02*
X87000D01*
X83500Y291900D02*
Y298900D01*
X54600Y295400D02*
X61600D01*
X58100Y291900D02*
Y298900D01*
X181600Y545400D02*
X188600D01*
X185100Y541900D02*
Y548900D01*
X156200Y545400D02*
X163200D01*
X159700Y541900D02*
Y548900D01*
X130800Y545400D02*
X137800D01*
X134300Y541900D02*
Y548900D01*
X105400Y545400D02*
X112400D01*
X108900Y541900D02*
Y548900D01*
X80000Y545400D02*
X87000D01*
X83500Y541900D02*
Y548900D01*
X54600Y545400D02*
X61600D01*
X58100Y541900D02*
Y548900D01*
X181600Y795400D02*
X188600D01*
X185100Y791900D02*
Y798900D01*
X156200Y795400D02*
X163200D01*
X159700Y791900D02*
Y798900D01*
X130800Y795400D02*
X137800D01*
X134300Y791900D02*
Y798900D01*
X105400Y795400D02*
X112400D01*
X108900Y791900D02*
Y798900D01*
X80000Y795400D02*
X87000D01*
X83500Y791900D02*
Y798900D01*
X54600Y795400D02*
X61600D01*
X58100Y791900D02*
Y798900D01*
X570400Y389380D02*
X574400D01*
X572400Y387380D02*
Y391380D01*
X570400Y407160D02*
X574400D01*
X572400Y405160D02*
Y409160D01*
X570400Y639380D02*
X574400D01*
X572400Y637380D02*
Y641380D01*
X570400Y657160D02*
X574400D01*
X572400Y655160D02*
Y659160D01*
X570400Y889380D02*
X574400D01*
X572400Y887380D02*
Y891380D01*
X570400Y907160D02*
X574400D01*
X572400Y905160D02*
Y909160D01*
X43566Y447800D02*
X50566D01*
X47066Y444300D02*
Y451300D01*
X25566Y432800D02*
X32566D01*
X29066Y429300D02*
Y436300D01*
X43566Y417800D02*
X50566D01*
X47066Y414300D02*
Y421300D01*
X43566Y697800D02*
X50566D01*
X47066Y694300D02*
Y701300D01*
X25566Y682800D02*
X32566D01*
X29066Y679300D02*
Y686300D01*
X43566Y667800D02*
X50566D01*
X47066Y664300D02*
Y671300D01*
X43566Y947800D02*
X50566D01*
X47066Y944300D02*
Y951300D01*
X25566Y932800D02*
X32566D01*
X29066Y929300D02*
Y936300D01*
X43566Y917800D02*
X50566D01*
X47066Y914300D02*
Y921300D01*
X43346Y391680D02*
X50346D01*
X46846Y388180D02*
Y395180D01*
X43346Y361680D02*
X50346D01*
X46846Y358180D02*
Y365180D01*
X25346Y376680D02*
X32346D01*
X28846Y373180D02*
Y380180D01*
X43346Y641680D02*
X50346D01*
X46846Y638180D02*
Y645180D01*
X43346Y611680D02*
X50346D01*
X46846Y608180D02*
Y615180D01*
X25346Y626680D02*
X32346D01*
X28846Y623180D02*
Y630180D01*
X43346Y891680D02*
X50346D01*
X46846Y888180D02*
Y895180D01*
X43346Y861680D02*
X50346D01*
X46846Y858180D02*
Y865180D01*
X25346Y876680D02*
X32346D01*
X28846Y873180D02*
Y880180D01*
X462400Y487500D02*
X472400D01*
X467400Y482500D02*
Y492500D01*
X532400Y487500D02*
X542400D01*
X537400Y482500D02*
Y492500D01*
X523900Y460500D02*
X530900D01*
X527400Y457000D02*
Y464000D01*
X473900Y460500D02*
X480900D01*
X477400Y457000D02*
Y464000D01*
X462400Y737500D02*
X472400D01*
X467400Y732500D02*
Y742500D01*
X532400Y737500D02*
X542400D01*
X537400Y732500D02*
Y742500D01*
X523900Y710500D02*
X530900D01*
X527400Y707000D02*
Y714000D01*
X473900Y710500D02*
X480900D01*
X477400Y707000D02*
Y714000D01*
X462400Y987500D02*
X472400D01*
X467400Y982500D02*
Y992500D01*
X532400Y987500D02*
X542400D01*
X537400Y982500D02*
Y992500D01*
X523900Y960500D02*
X530900D01*
X527400Y957000D02*
Y964000D01*
X473900Y960500D02*
X480900D01*
X477400Y957000D02*
Y964000D01*
X556200Y320800D02*
X563200D01*
X559700Y317300D02*
Y324300D01*
X530800Y320800D02*
X537800D01*
X534300Y317300D02*
Y324300D01*
X505400Y320800D02*
X512400D01*
X508900Y317300D02*
Y324300D01*
X480000Y320800D02*
X487000D01*
X483500Y317300D02*
Y324300D01*
X454600Y320800D02*
X461600D01*
X458100Y317300D02*
Y324300D01*
X556200Y570800D02*
X563200D01*
X559700Y567300D02*
Y574300D01*
X530800Y570800D02*
X537800D01*
X534300Y567300D02*
Y574300D01*
X505400Y570800D02*
X512400D01*
X508900Y567300D02*
Y574300D01*
X480000Y570800D02*
X487000D01*
X483500Y567300D02*
Y574300D01*
X454600Y570800D02*
X461600D01*
X458100Y567300D02*
Y574300D01*
X556200Y820800D02*
X563200D01*
X559700Y817300D02*
Y824300D01*
X530800Y820800D02*
X537800D01*
X534300Y817300D02*
Y824300D01*
X505400Y820800D02*
X512400D01*
X508900Y817300D02*
Y824300D01*
X480000Y820800D02*
X487000D01*
X483500Y817300D02*
Y824300D01*
X454600Y820800D02*
X461600D01*
X458100Y817300D02*
Y824300D01*
X759400Y346200D02*
X766400D01*
X762900Y342700D02*
Y349700D01*
X734000Y346200D02*
X741000D01*
X737500Y342700D02*
Y349700D01*
X708600Y346200D02*
X715600D01*
X712100Y342700D02*
Y349700D01*
X683200Y346200D02*
X690200D01*
X686700Y342700D02*
Y349700D01*
X657800Y346200D02*
X664800D01*
X661300Y342700D02*
Y349700D01*
X759400Y596200D02*
X766400D01*
X762900Y592700D02*
Y599700D01*
X734000Y596200D02*
X741000D01*
X737500Y592700D02*
Y599700D01*
X708600Y596200D02*
X715600D01*
X712100Y592700D02*
Y599700D01*
X683200Y596200D02*
X690200D01*
X686700Y592700D02*
Y599700D01*
X657800Y596200D02*
X664800D01*
X661300Y592700D02*
Y599700D01*
X759400Y846200D02*
X766400D01*
X762900Y842700D02*
Y849700D01*
X734000Y846200D02*
X741000D01*
X737500Y842700D02*
Y849700D01*
X708600Y846200D02*
X715600D01*
X712100Y842700D02*
Y849700D01*
X683200Y846200D02*
X690200D01*
X686700Y842700D02*
Y849700D01*
X657800Y846200D02*
X664800D01*
X661300Y842700D02*
Y849700D01*
X557200Y371600D02*
X562200D01*
X559700Y369100D02*
Y374100D01*
X544500Y371600D02*
X549500D01*
X547000Y369100D02*
Y374100D01*
X531800Y371600D02*
X536800D01*
X534300Y369100D02*
Y374100D01*
X519100Y371600D02*
X524100D01*
X521600Y369100D02*
Y374100D01*
X506400Y371600D02*
X511400D01*
X508900Y369100D02*
Y374100D01*
X493700Y371600D02*
X498700D01*
X496200Y369100D02*
Y374100D01*
X481000Y371600D02*
X486000D01*
X483500Y369100D02*
Y374100D01*
X557200Y621600D02*
X562200D01*
X559700Y619100D02*
Y624100D01*
X544500Y621600D02*
X549500D01*
X547000Y619100D02*
Y624100D01*
X531800Y621600D02*
X536800D01*
X534300Y619100D02*
Y624100D01*
X519100Y621600D02*
X524100D01*
X521600Y619100D02*
Y624100D01*
X506400Y621600D02*
X511400D01*
X508900Y619100D02*
Y624100D01*
X493700Y621600D02*
X498700D01*
X496200Y619100D02*
Y624100D01*
X481000Y621600D02*
X486000D01*
X483500Y619100D02*
Y624100D01*
X557200Y871600D02*
X562200D01*
X559700Y869100D02*
Y874100D01*
X544500Y871600D02*
X549500D01*
X547000Y869100D02*
Y874100D01*
X531800Y871600D02*
X536800D01*
X534300Y869100D02*
Y874100D01*
X519100Y871600D02*
X524100D01*
X521600Y869100D02*
Y874100D01*
X506400Y871600D02*
X511400D01*
X508900Y869100D02*
Y874100D01*
X493700Y871600D02*
X498700D01*
X496200Y869100D02*
Y874100D01*
X481000Y871600D02*
X486000D01*
X483500Y869100D02*
Y874100D01*
X157200Y371600D02*
X162200D01*
X159700Y369100D02*
Y374100D01*
X144500Y371600D02*
X149500D01*
X147000Y369100D02*
Y374100D01*
X131800Y371600D02*
X136800D01*
X134300Y369100D02*
Y374100D01*
X119100Y371600D02*
X124100D01*
X121600Y369100D02*
Y374100D01*
X106400Y371600D02*
X111400D01*
X108900Y369100D02*
Y374100D01*
X93700Y371600D02*
X98700D01*
X96200Y369100D02*
Y374100D01*
X81000Y371600D02*
X86000D01*
X83500Y369100D02*
Y374100D01*
X157200Y621600D02*
X162200D01*
X159700Y619100D02*
Y624100D01*
X144500Y621600D02*
X149500D01*
X147000Y619100D02*
Y624100D01*
X131800Y621600D02*
X136800D01*
X134300Y619100D02*
Y624100D01*
X119100Y621600D02*
X124100D01*
X121600Y619100D02*
Y624100D01*
X106400Y621600D02*
X111400D01*
X108900Y619100D02*
Y624100D01*
X93700Y621600D02*
X98700D01*
X96200Y619100D02*
Y624100D01*
X81000Y621600D02*
X86000D01*
X83500Y619100D02*
Y624100D01*
X157200Y871600D02*
X162200D01*
X159700Y869100D02*
Y874100D01*
X144500Y871600D02*
X149500D01*
X147000Y869100D02*
Y874100D01*
X131800Y871600D02*
X136800D01*
X134300Y869100D02*
Y874100D01*
X119100Y871600D02*
X124100D01*
X121600Y869100D02*
Y874100D01*
X106400Y871600D02*
X111400D01*
X108900Y869100D02*
Y874100D01*
X93700Y871600D02*
X98700D01*
X96200Y869100D02*
Y874100D01*
X81000Y871600D02*
X86000D01*
X83500Y869100D02*
Y874100D01*
X759400Y96200D02*
X766400D01*
X762900Y92700D02*
Y99700D01*
X493700Y121600D02*
X498700D01*
X496200Y119100D02*
Y124100D01*
X93700Y121600D02*
X98700D01*
X96200Y119100D02*
Y124100D01*
X657800Y96200D02*
X664800D01*
X661300Y92700D02*
Y99700D01*
X481000Y121600D02*
X486000D01*
X483500Y119100D02*
Y124100D01*
X308600Y45400D02*
X315600D01*
X312100Y41900D02*
Y48900D01*
X130800Y45400D02*
X137800D01*
X134300Y41900D02*
Y48900D01*
X81000Y121600D02*
X86000D01*
X83500Y119100D02*
Y124100D01*
X506400Y121600D02*
X511400D01*
X508900Y119100D02*
Y124100D01*
X106400Y121600D02*
X111400D01*
X108900Y119100D02*
Y124100D01*
X43566Y167800D02*
X50566D01*
X47066Y164300D02*
Y171300D01*
X43346Y141680D02*
X50346D01*
X46846Y138180D02*
Y145180D01*
X54600Y45400D02*
X61600D01*
X58100Y41900D02*
Y48900D01*
X232400Y45400D02*
X239400D01*
X235900Y41900D02*
Y48900D01*
X181600Y45400D02*
X188600D01*
X185100Y41900D02*
Y48900D01*
X557200Y121600D02*
X562200D01*
X559700Y119100D02*
Y124100D01*
X157200Y121600D02*
X162200D01*
X159700Y119100D02*
Y124100D01*
X708600Y96200D02*
X715600D01*
X712100Y92700D02*
Y99700D01*
X531800Y121600D02*
X536800D01*
X534300Y119100D02*
Y124100D01*
X257800Y45400D02*
X264800D01*
X261300Y41900D02*
Y48900D01*
X80000Y45400D02*
X87000D01*
X83500Y41900D02*
Y48900D01*
X43566Y197800D02*
X50566D01*
X47066Y194300D02*
Y201300D01*
X131800Y121600D02*
X136800D01*
X134300Y119100D02*
Y124100D01*
X283200Y45400D02*
X290200D01*
X286700Y41900D02*
Y48900D01*
X105400Y45400D02*
X112400D01*
X108900Y41900D02*
Y48900D01*
X570400Y157160D02*
X574400D01*
X572400Y155160D02*
Y159160D01*
X632400Y45400D02*
X639400D01*
X635900Y41900D02*
Y48900D01*
X454600Y45400D02*
X461600D01*
X458100Y41900D02*
Y48900D01*
X454600Y70800D02*
X461600D01*
X458100Y67300D02*
Y74300D01*
X657800Y45400D02*
X664800D01*
X661300Y41900D02*
Y48900D01*
X480000Y45400D02*
X487000D01*
X483500Y41900D02*
Y48900D01*
X480000Y70800D02*
X487000D01*
X483500Y67300D02*
Y74300D01*
X683200Y45400D02*
X690200D01*
X686700Y41900D02*
Y48900D01*
X505400Y45400D02*
X512400D01*
X508900Y41900D02*
Y48900D01*
X505400Y70800D02*
X512400D01*
X508900Y67300D02*
Y74300D01*
X708600Y45400D02*
X715600D01*
X712100Y41900D02*
Y48900D01*
X530800Y45400D02*
X537800D01*
X534300Y41900D02*
Y48900D01*
X530800Y70800D02*
X537800D01*
X534300Y67300D02*
Y74300D01*
X734000Y45400D02*
X741000D01*
X737500Y41900D02*
Y48900D01*
X556200Y45400D02*
X563200D01*
X559700Y41900D02*
Y48900D01*
X556200Y70800D02*
X563200D01*
X559700Y67300D02*
Y74300D01*
X570400Y139380D02*
X574400D01*
X572400Y137380D02*
Y141380D01*
X43346Y111680D02*
X50346D01*
X46846Y108180D02*
Y115180D01*
X683200Y96200D02*
X690200D01*
X686700Y92700D02*
Y99700D01*
X519100Y121600D02*
X524100D01*
X521600Y119100D02*
Y124100D01*
X734000Y96200D02*
X741000D01*
X737500Y92700D02*
Y99700D01*
X544500Y121600D02*
X549500D01*
X547000Y119100D02*
Y124100D01*
X334000Y45400D02*
X341000D01*
X337500Y41900D02*
Y48900D01*
X156200Y45400D02*
X163200D01*
X159700Y41900D02*
Y48900D01*
X119100Y121600D02*
X124100D01*
X121600Y119100D02*
Y124100D01*
X144500Y121600D02*
X149500D01*
X147000Y119100D02*
Y124100D01*
X759400Y45400D02*
X766400D01*
X762900Y41900D02*
Y48900D01*
X581600Y45400D02*
X588600D01*
X585100Y41900D02*
Y48900D01*
X473900Y210500D02*
X480900D01*
X477400Y207000D02*
Y214000D01*
X523900Y210500D02*
X530900D01*
X527400Y207000D02*
Y214000D01*
X532400Y237500D02*
X542400D01*
X537400Y232500D02*
Y242500D01*
X462400Y237500D02*
X472400D01*
X467400Y232500D02*
Y242500D01*
X359400Y45400D02*
X366400D01*
X362900Y41900D02*
Y48900D01*
X25566Y182800D02*
X32566D01*
X29066Y179300D02*
Y186300D01*
X25346Y126680D02*
X32346D01*
X28846Y123180D02*
Y130180D01*
X219160Y83500D02*
X222160D01*
X220660Y82000D02*
Y85000D01*
X609000Y218120D02*
X612000D01*
X610500Y216620D02*
Y219620D01*
X553120Y205420D02*
X556120D01*
X554620Y203920D02*
Y206920D01*
X537880Y185100D02*
X540880D01*
X539380Y183600D02*
Y186600D01*
X461680Y113980D02*
X464680D01*
X463180Y112480D02*
Y115480D01*
X614080Y124140D02*
X617080D01*
X615580Y122640D02*
Y125640D01*
X168360Y91120D02*
X171360D01*
X169860Y89620D02*
Y92620D01*
X66760Y103820D02*
X69760D01*
X68260Y102320D02*
Y105320D01*
X774100Y158157D02*
X777100D01*
X775600Y156657D02*
Y159657D01*
X659800Y134300D02*
X662800D01*
X661300Y132800D02*
Y135800D01*
X145500Y218120D02*
X148500D01*
X147000Y216620D02*
Y219620D01*
X198840Y190180D02*
X201840D01*
X200340Y188680D02*
Y191680D01*
X229320Y93660D02*
X232320D01*
X230820Y92160D02*
Y95160D01*
X297900Y131760D02*
X300900D01*
X299400Y130260D02*
Y133260D01*
X216620Y106360D02*
X219620D01*
X218120Y104860D02*
Y107860D01*
X74380Y235900D02*
X77380D01*
X75880Y234400D02*
Y237400D01*
X170900Y218120D02*
X173900D01*
X172400Y216620D02*
Y219620D01*
X132800Y218120D02*
X135800D01*
X134300Y216620D02*
Y219620D01*
X132800Y185100D02*
X135800D01*
X134300Y183600D02*
Y186600D01*
X189950Y218317D02*
X192950D01*
X191450Y216817D02*
Y219817D01*
X93430Y181290D02*
X96430D01*
X94930Y179790D02*
Y182790D01*
X272500Y108900D02*
X275500D01*
X274000Y107400D02*
Y110400D01*
X82000Y167320D02*
X85000D01*
X83500Y165820D02*
Y168820D01*
X575980Y215580D02*
X578980D01*
X577480Y214080D02*
Y217080D01*
X540420Y144460D02*
X543420D01*
X541920Y142960D02*
Y145960D01*
X494700Y146090D02*
X497700D01*
X496200Y144590D02*
Y147590D01*
X550580Y185100D02*
X553580D01*
X552080Y183600D02*
Y186600D01*
X172945Y238360D02*
X175945D01*
X174445Y236860D02*
Y239860D01*
X120100Y216850D02*
X123100D01*
X121600Y215350D02*
Y218350D01*
X158200Y140650D02*
X161200D01*
X159700Y139150D02*
Y142150D01*
X228050Y168590D02*
X231050D01*
X229550Y167090D02*
Y170090D01*
X170900Y70800D02*
X173900D01*
X172400Y69300D02*
Y72300D01*
X338540Y121600D02*
X341540D01*
X340040Y120100D02*
Y123100D01*
X192490Y141920D02*
X195490D01*
X193990Y140420D02*
Y143420D01*
X338540Y108900D02*
X341540D01*
X340040Y107400D02*
Y110400D01*
X611540Y159700D02*
X614540D01*
X613040Y158200D02*
Y161200D01*
X636940Y159700D02*
X639940D01*
X638440Y158200D02*
Y161200D01*
X168360Y185270D02*
X171360D01*
X169860Y183770D02*
Y186770D01*
X338540Y96200D02*
X341540D01*
X340040Y94700D02*
Y97700D01*
X215107Y141750D02*
X218107D01*
X216607Y140250D02*
Y143250D01*
X713140Y162240D02*
X716140D01*
X714640Y160740D02*
Y163740D01*
X729650Y121600D02*
X732650D01*
X731150Y120100D02*
Y123100D01*
X634400Y185100D02*
X637400D01*
X635900Y183600D02*
Y186600D01*
X338540Y83500D02*
X341540D01*
X340040Y82000D02*
Y85000D01*
X233130Y217950D02*
X236130D01*
X234630Y216450D02*
Y219450D01*
X219160Y70800D02*
X222160D01*
X220660Y69300D02*
Y72300D01*
X484540Y180020D02*
X487540D01*
X486040Y178520D02*
Y181520D01*
X482000Y101280D02*
X485000D01*
X483500Y99780D02*
Y102780D01*
X101050Y188910D02*
X104050D01*
X102550Y187410D02*
Y190410D01*
X186140Y106360D02*
X189140D01*
X187640Y104860D02*
Y107860D01*
X264880Y116520D02*
X267880D01*
X266380Y115020D02*
Y118020D01*
X217890Y215580D02*
X220890D01*
X219390Y214080D02*
Y217080D01*
X222970Y185100D02*
X225970D01*
X224470Y183600D02*
Y186600D01*
X120100Y167320D02*
X123100D01*
X121600Y165820D02*
Y168820D01*
X774100Y908157D02*
X777100D01*
X775600Y906657D02*
Y909657D01*
X659800Y884300D02*
X662800D01*
X661300Y882800D02*
Y885800D01*
X729650Y871600D02*
X732650D01*
X731150Y870100D02*
Y873100D01*
X614080Y874140D02*
X617080D01*
X615580Y872640D02*
Y875640D01*
X713140Y912240D02*
X716140D01*
X714640Y910740D02*
Y913740D01*
X575980Y965580D02*
X578980D01*
X577480Y964080D02*
Y967080D01*
X537880Y935100D02*
X540880D01*
X539380Y933600D02*
Y936600D01*
X553120Y955420D02*
X556120D01*
X554620Y953920D02*
Y956920D01*
X484540Y930020D02*
X487540D01*
X486040Y928520D02*
Y931520D01*
X494700Y896090D02*
X497700D01*
X496200Y894590D02*
Y897590D01*
X540420Y894460D02*
X543420D01*
X541920Y892960D02*
Y895960D01*
X634400Y935100D02*
X637400D01*
X635900Y933600D02*
Y936600D01*
X636940Y909700D02*
X639940D01*
X638440Y908200D02*
Y911200D01*
X609000Y968120D02*
X612000D01*
X610500Y966620D02*
Y969620D01*
X550580Y935100D02*
X553580D01*
X552080Y933600D02*
Y936600D01*
X482000Y851280D02*
X485000D01*
X483500Y849780D02*
Y852780D01*
X461680Y863980D02*
X464680D01*
X463180Y862480D02*
Y865480D01*
X611540Y909700D02*
X614540D01*
X613040Y908200D02*
Y911200D01*
X780800Y979550D02*
X793800D01*
X787300Y973050D02*
Y986050D01*
X426200Y979550D02*
X439200D01*
X432700Y973050D02*
Y986050D01*
X774100Y658157D02*
X777100D01*
X775600Y656657D02*
Y659657D01*
X659800Y634300D02*
X662800D01*
X661300Y632800D02*
Y635800D01*
X729650Y621600D02*
X732650D01*
X731150Y620100D02*
Y623100D01*
X614080Y624140D02*
X617080D01*
X615580Y622640D02*
Y625640D01*
X713140Y662240D02*
X716140D01*
X714640Y660740D02*
Y663740D01*
X575980Y715580D02*
X578980D01*
X577480Y714080D02*
Y717080D01*
X537880Y685100D02*
X540880D01*
X539380Y683600D02*
Y686600D01*
X553120Y705420D02*
X556120D01*
X554620Y703920D02*
Y706920D01*
X484540Y680020D02*
X487540D01*
X486040Y678520D02*
Y681520D01*
X494700Y646090D02*
X497700D01*
X496200Y644590D02*
Y647590D01*
X540420Y644460D02*
X543420D01*
X541920Y642960D02*
Y645960D01*
X634400Y685100D02*
X637400D01*
X635900Y683600D02*
Y686600D01*
X636940Y659700D02*
X639940D01*
X638440Y658200D02*
Y661200D01*
X609000Y718120D02*
X612000D01*
X610500Y716620D02*
Y719620D01*
X550580Y685100D02*
X553580D01*
X552080Y683600D02*
Y686600D01*
X482000Y601280D02*
X485000D01*
X483500Y599780D02*
Y602780D01*
X461680Y613980D02*
X464680D01*
X463180Y612480D02*
Y615480D01*
X611540Y659700D02*
X614540D01*
X613040Y658200D02*
Y661200D01*
X780800Y729550D02*
X793800D01*
X787300Y723050D02*
Y736050D01*
X426200Y729550D02*
X439200D01*
X432700Y723050D02*
Y736050D01*
X774100Y408157D02*
X777100D01*
X775600Y406657D02*
Y409657D01*
X659800Y384300D02*
X662800D01*
X661300Y382800D02*
Y385800D01*
X729650Y371600D02*
X732650D01*
X731150Y370100D02*
Y373100D01*
X614080Y374140D02*
X617080D01*
X615580Y372640D02*
Y375640D01*
X713140Y412240D02*
X716140D01*
X714640Y410740D02*
Y413740D01*
X575980Y465580D02*
X578980D01*
X577480Y464080D02*
Y467080D01*
X537880Y435100D02*
X540880D01*
X539380Y433600D02*
Y436600D01*
X553120Y455420D02*
X556120D01*
X554620Y453920D02*
Y456920D01*
X484540Y430020D02*
X487540D01*
X486040Y428520D02*
Y431520D01*
X494700Y396090D02*
X497700D01*
X496200Y394590D02*
Y397590D01*
X540420Y394460D02*
X543420D01*
X541920Y392960D02*
Y395960D01*
X634400Y435100D02*
X637400D01*
X635900Y433600D02*
Y436600D01*
X636940Y409700D02*
X639940D01*
X638440Y408200D02*
Y411200D01*
X609000Y468120D02*
X612000D01*
X610500Y466620D02*
Y469620D01*
X550580Y435100D02*
X553580D01*
X552080Y433600D02*
Y436600D01*
X482000Y351280D02*
X485000D01*
X483500Y349780D02*
Y352780D01*
X461680Y363980D02*
X464680D01*
X463180Y362480D02*
Y365480D01*
X611540Y409700D02*
X614540D01*
X613040Y408200D02*
Y411200D01*
X780800Y479550D02*
X793800D01*
X787300Y473050D02*
Y486050D01*
X426200Y479550D02*
X439200D01*
X432700Y473050D02*
Y486050D01*
X780800Y229550D02*
X793800D01*
X787300Y223050D02*
Y236050D01*
X426200Y229550D02*
X439200D01*
X432700Y223050D02*
Y236050D01*
X170900Y820800D02*
X173900D01*
X172400Y819300D02*
Y822300D01*
X158200Y890650D02*
X161200D01*
X159700Y889150D02*
Y892150D01*
X120100Y966850D02*
X123100D01*
X121600Y965350D02*
Y968350D01*
X120100Y917320D02*
X123100D01*
X121600Y915820D02*
Y918820D01*
X132800Y968120D02*
X135800D01*
X134300Y966620D02*
Y969620D01*
X338540Y858900D02*
X341540D01*
X340040Y857400D02*
Y860400D01*
X338540Y846200D02*
X341540D01*
X340040Y844700D02*
Y847700D01*
X338540Y833500D02*
X341540D01*
X340040Y832000D02*
Y835000D01*
X338540Y871600D02*
X341540D01*
X340040Y870100D02*
Y873100D01*
X219160Y820800D02*
X222160D01*
X220660Y819300D02*
Y822300D01*
X219160Y833500D02*
X222160D01*
X220660Y832000D02*
Y835000D01*
X132800Y935100D02*
X135800D01*
X134300Y933600D02*
Y936600D01*
X189950Y968317D02*
X192950D01*
X191450Y966817D02*
Y969817D01*
X272500Y858900D02*
X275500D01*
X274000Y857400D02*
Y860400D01*
X216620Y856360D02*
X219620D01*
X218120Y854860D02*
Y857860D01*
X215107Y891750D02*
X218107D01*
X216607Y890250D02*
Y893250D01*
X168360Y935270D02*
X171360D01*
X169860Y933770D02*
Y936770D01*
X222970Y935100D02*
X225970D01*
X224470Y933600D02*
Y936600D01*
X192490Y891920D02*
X195490D01*
X193990Y890420D02*
Y893420D01*
X228050Y918590D02*
X231050D01*
X229550Y917090D02*
Y920090D01*
X186140Y856360D02*
X189140D01*
X187640Y854860D02*
Y857860D01*
X384260Y902080D02*
X387260D01*
X385760Y900580D02*
Y903580D01*
X384260Y924940D02*
X387260D01*
X385760Y923440D02*
Y926440D01*
X66760Y853820D02*
X69760D01*
X68260Y852320D02*
Y855320D01*
X168360Y841120D02*
X171360D01*
X169860Y839620D02*
Y842620D01*
X145500Y968120D02*
X148500D01*
X147000Y966620D02*
Y969620D01*
X74380Y985900D02*
X77380D01*
X75880Y984400D02*
Y987400D01*
X172945Y988360D02*
X175945D01*
X174445Y986860D02*
Y989860D01*
X217890Y965580D02*
X220890D01*
X219390Y964080D02*
Y967080D01*
X233130Y967950D02*
X236130D01*
X234630Y966450D02*
Y969450D01*
X229320Y843660D02*
X232320D01*
X230820Y842160D02*
Y845160D01*
X297900Y881760D02*
X300900D01*
X299400Y880260D02*
Y883260D01*
X170900Y968120D02*
X173900D01*
X172400Y966620D02*
Y969620D01*
X26200Y979550D02*
X39200D01*
X32700Y973050D02*
Y986050D01*
X93430Y931290D02*
X96430D01*
X94930Y929790D02*
Y932790D01*
X101050Y938910D02*
X104050D01*
X102550Y937410D02*
Y940410D01*
X82000Y917320D02*
X85000D01*
X83500Y915820D02*
Y918820D01*
X198840Y940180D02*
X201840D01*
X200340Y938680D02*
Y941680D01*
X264880Y866520D02*
X267880D01*
X266380Y865020D02*
Y868020D01*
X380800Y979550D02*
X393800D01*
X387300Y973050D02*
Y986050D01*
X170900Y570800D02*
X173900D01*
X172400Y569300D02*
Y572300D01*
X158200Y640650D02*
X161200D01*
X159700Y639150D02*
Y642150D01*
X120100Y716850D02*
X123100D01*
X121600Y715350D02*
Y718350D01*
X120100Y667320D02*
X123100D01*
X121600Y665820D02*
Y668820D01*
X132800Y718120D02*
X135800D01*
X134300Y716620D02*
Y719620D01*
X338540Y608900D02*
X341540D01*
X340040Y607400D02*
Y610400D01*
X338540Y596200D02*
X341540D01*
X340040Y594700D02*
Y597700D01*
X338540Y583500D02*
X341540D01*
X340040Y582000D02*
Y585000D01*
X338540Y621600D02*
X341540D01*
X340040Y620100D02*
Y623100D01*
X219160Y570800D02*
X222160D01*
X220660Y569300D02*
Y572300D01*
X219160Y583500D02*
X222160D01*
X220660Y582000D02*
Y585000D01*
X132800Y685100D02*
X135800D01*
X134300Y683600D02*
Y686600D01*
X189950Y718317D02*
X192950D01*
X191450Y716817D02*
Y719817D01*
X272500Y608900D02*
X275500D01*
X274000Y607400D02*
Y610400D01*
X216620Y606360D02*
X219620D01*
X218120Y604860D02*
Y607860D01*
X215107Y641750D02*
X218107D01*
X216607Y640250D02*
Y643250D01*
X168360Y685270D02*
X171360D01*
X169860Y683770D02*
Y686770D01*
X222970Y685100D02*
X225970D01*
X224470Y683600D02*
Y686600D01*
X192490Y641920D02*
X195490D01*
X193990Y640420D02*
Y643420D01*
X228050Y668590D02*
X231050D01*
X229550Y667090D02*
Y670090D01*
X186140Y606360D02*
X189140D01*
X187640Y604860D02*
Y607860D01*
X384260Y652080D02*
X387260D01*
X385760Y650580D02*
Y653580D01*
X384260Y674940D02*
X387260D01*
X385760Y673440D02*
Y676440D01*
X66760Y603820D02*
X69760D01*
X68260Y602320D02*
Y605320D01*
X168360Y591120D02*
X171360D01*
X169860Y589620D02*
Y592620D01*
X145500Y718120D02*
X148500D01*
X147000Y716620D02*
Y719620D01*
X74380Y735900D02*
X77380D01*
X75880Y734400D02*
Y737400D01*
X172945Y738360D02*
X175945D01*
X174445Y736860D02*
Y739860D01*
X217890Y715580D02*
X220890D01*
X219390Y714080D02*
Y717080D01*
X233130Y717950D02*
X236130D01*
X234630Y716450D02*
Y719450D01*
X229320Y593660D02*
X232320D01*
X230820Y592160D02*
Y595160D01*
X297900Y631760D02*
X300900D01*
X299400Y630260D02*
Y633260D01*
X170900Y718120D02*
X173900D01*
X172400Y716620D02*
Y719620D01*
X26200Y729550D02*
X39200D01*
X32700Y723050D02*
Y736050D01*
X93430Y681290D02*
X96430D01*
X94930Y679790D02*
Y682790D01*
X101050Y688910D02*
X104050D01*
X102550Y687410D02*
Y690410D01*
X82000Y667320D02*
X85000D01*
X83500Y665820D02*
Y668820D01*
X198840Y690180D02*
X201840D01*
X200340Y688680D02*
Y691680D01*
X264880Y616520D02*
X267880D01*
X266380Y615020D02*
Y618020D01*
X380800Y729550D02*
X393800D01*
X387300Y723050D02*
Y736050D01*
X170900Y320800D02*
X173900D01*
X172400Y319300D02*
Y322300D01*
X158200Y390650D02*
X161200D01*
X159700Y389150D02*
Y392150D01*
X120100Y466850D02*
X123100D01*
X121600Y465350D02*
Y468350D01*
X120100Y417320D02*
X123100D01*
X121600Y415820D02*
Y418820D01*
X132800Y468120D02*
X135800D01*
X134300Y466620D02*
Y469620D01*
X338540Y358900D02*
X341540D01*
X340040Y357400D02*
Y360400D01*
X338540Y346200D02*
X341540D01*
X340040Y344700D02*
Y347700D01*
X338540Y333500D02*
X341540D01*
X340040Y332000D02*
Y335000D01*
X338540Y371600D02*
X341540D01*
X340040Y370100D02*
Y373100D01*
X219160Y320800D02*
X222160D01*
X220660Y319300D02*
Y322300D01*
X219160Y333500D02*
X222160D01*
X220660Y332000D02*
Y335000D01*
X132800Y435100D02*
X135800D01*
X134300Y433600D02*
Y436600D01*
X189950Y468317D02*
X192950D01*
X191450Y466817D02*
Y469817D01*
X272500Y358900D02*
X275500D01*
X274000Y357400D02*
Y360400D01*
X216620Y356360D02*
X219620D01*
X218120Y354860D02*
Y357860D01*
X215107Y391750D02*
X218107D01*
X216607Y390250D02*
Y393250D01*
X168360Y435270D02*
X171360D01*
X169860Y433770D02*
Y436770D01*
X222970Y435100D02*
X225970D01*
X224470Y433600D02*
Y436600D01*
X192490Y391920D02*
X195490D01*
X193990Y390420D02*
Y393420D01*
X228050Y418590D02*
X231050D01*
X229550Y417090D02*
Y420090D01*
X186140Y356360D02*
X189140D01*
X187640Y354860D02*
Y357860D01*
X384260Y402080D02*
X387260D01*
X385760Y400580D02*
Y403580D01*
X384260Y424940D02*
X387260D01*
X385760Y423440D02*
Y426440D01*
X66760Y353820D02*
X69760D01*
X68260Y352320D02*
Y355320D01*
X168360Y341120D02*
X171360D01*
X169860Y339620D02*
Y342620D01*
X145500Y468120D02*
X148500D01*
X147000Y466620D02*
Y469620D01*
X74380Y485900D02*
X77380D01*
X75880Y484400D02*
Y487400D01*
X172945Y488360D02*
X175945D01*
X174445Y486860D02*
Y489860D01*
X217890Y465580D02*
X220890D01*
X219390Y464080D02*
Y467080D01*
X233130Y467950D02*
X236130D01*
X234630Y466450D02*
Y469450D01*
X229320Y343660D02*
X232320D01*
X230820Y342160D02*
Y345160D01*
X297900Y381760D02*
X300900D01*
X299400Y380260D02*
Y383260D01*
X170900Y468120D02*
X173900D01*
X172400Y466620D02*
Y469620D01*
X26200Y479550D02*
X39200D01*
X32700Y473050D02*
Y486050D01*
X93430Y431290D02*
X96430D01*
X94930Y429790D02*
Y432790D01*
X101050Y438910D02*
X104050D01*
X102550Y437410D02*
Y440410D01*
X82000Y417320D02*
X85000D01*
X83500Y415820D02*
Y418820D01*
X198840Y440180D02*
X201840D01*
X200340Y438680D02*
Y441680D01*
X264880Y366520D02*
X267880D01*
X266380Y365020D02*
Y368020D01*
X380800Y479550D02*
X393800D01*
X387300Y473050D02*
Y486050D01*
X384260Y152080D02*
X387260D01*
X385760Y150580D02*
Y153580D01*
X384260Y174940D02*
X387260D01*
X385760Y173440D02*
Y176440D01*
X26200Y229550D02*
X39200D01*
X32700Y223050D02*
Y236050D01*
X380800Y229550D02*
X393800D01*
X387300Y223050D02*
Y236050D01*
M02*
