G04*
G04 #@! TF.GenerationSoftware,Altium Limited,Altium Designer,20.2.7 (254)*
G04*
G04 Layer_Color=128*
%FSLAX44Y44*%
%MOMM*%
G71*
G04*
G04 #@! TF.SameCoordinates,9E9914D9-28FD-47AE-AA4C-24E4B2164C89*
G04*
G04*
G04 #@! TF.FilePolarity,Positive*
G04*
G01*
G75*
%ADD28R,0.5500X0.4500*%
%ADD29R,0.4500X0.5500*%
%ADD76O,1.4500X0.6000*%
D28*
X121600Y430100D02*
D03*
Y440100D02*
D03*
Y680100D02*
D03*
Y690100D02*
D03*
Y930100D02*
D03*
Y940100D02*
D03*
Y190100D02*
D03*
Y180100D02*
D03*
D29*
X291700Y402080D02*
D03*
X281700D02*
D03*
X291700Y652080D02*
D03*
X281700D02*
D03*
X291700Y902080D02*
D03*
X281700D02*
D03*
X291700Y386840D02*
D03*
X281700D02*
D03*
X291700Y636840D02*
D03*
X281700D02*
D03*
X291700Y886840D02*
D03*
X281700D02*
D03*
Y152080D02*
D03*
Y136840D02*
D03*
X291700Y152080D02*
D03*
Y136840D02*
D03*
D76*
X310250Y388110D02*
D03*
Y400810D02*
D03*
Y413510D02*
D03*
Y426210D02*
D03*
X364750Y388110D02*
D03*
Y400810D02*
D03*
Y413510D02*
D03*
Y426210D02*
D03*
X310250Y638110D02*
D03*
Y650810D02*
D03*
Y663510D02*
D03*
Y676210D02*
D03*
X364750Y638110D02*
D03*
Y650810D02*
D03*
Y663510D02*
D03*
Y676210D02*
D03*
X310250Y888110D02*
D03*
Y900810D02*
D03*
Y913510D02*
D03*
Y926210D02*
D03*
X364750Y888110D02*
D03*
Y900810D02*
D03*
Y913510D02*
D03*
Y926210D02*
D03*
X310250Y176210D02*
D03*
X364750Y138110D02*
D03*
Y176210D02*
D03*
Y163510D02*
D03*
X310250Y150810D02*
D03*
Y138110D02*
D03*
X364750Y150810D02*
D03*
X310250Y163510D02*
D03*
M02*
