G04*
G04 #@! TF.GenerationSoftware,Altium Limited,Altium Designer,20.2.7 (254)*
G04*
G04 Layer_Color=2752767*
%FSLAX44Y44*%
%MOMM*%
G71*
G04*
G04 #@! TF.SameCoordinates,9E9914D9-28FD-47AE-AA4C-24E4B2164C89*
G04*
G04*
G04 #@! TF.FilePolarity,Positive*
G04*
G01*
G75*
%ADD79C,0.0508*%
%ADD80C,0.0677*%
D79*
X760868Y543368D02*
Y547432D01*
X764932D01*
Y543368D01*
X760868D01*
X735468D02*
Y547432D01*
X739532D01*
Y543368D01*
X735468D01*
X710068D02*
Y547432D01*
X714132D01*
Y543368D01*
X710068D01*
X684668D02*
Y547432D01*
X688732D01*
Y543368D01*
X684668D01*
X659268D02*
Y547432D01*
X663332D01*
Y543368D01*
X659268D01*
X633868D02*
Y547432D01*
X637932D01*
Y543368D01*
X633868D01*
X760868Y293368D02*
Y297432D01*
X764932D01*
Y293368D01*
X760868D01*
X735468D02*
Y297432D01*
X739532D01*
Y293368D01*
X735468D01*
X710068D02*
Y297432D01*
X714132D01*
Y293368D01*
X710068D01*
X684668D02*
Y297432D01*
X688732D01*
Y293368D01*
X684668D01*
X659268D02*
Y297432D01*
X663332D01*
Y293368D01*
X659268D01*
X633868D02*
Y297432D01*
X637932D01*
Y293368D01*
X633868D01*
X760868Y793368D02*
Y797432D01*
X764932D01*
Y793368D01*
X760868D01*
X735468D02*
Y797432D01*
X739532D01*
Y793368D01*
X735468D01*
X710068D02*
Y797432D01*
X714132D01*
Y793368D01*
X710068D01*
X684668D02*
Y797432D01*
X688732D01*
Y793368D01*
X684668D01*
X659268D02*
Y797432D01*
X663332D01*
Y793368D01*
X659268D01*
X633868D02*
Y797432D01*
X637932D01*
Y793368D01*
X633868D01*
X583068Y293368D02*
Y297432D01*
X587132D01*
Y293368D01*
X583068D01*
X557668D02*
Y297432D01*
X561732D01*
Y293368D01*
X557668D01*
X532268D02*
Y297432D01*
X536332D01*
Y293368D01*
X532268D01*
X506868D02*
Y297432D01*
X510932D01*
Y293368D01*
X506868D01*
X481468D02*
Y297432D01*
X485532D01*
Y293368D01*
X481468D01*
X456068D02*
Y297432D01*
X460132D01*
Y293368D01*
X456068D01*
X583068Y543368D02*
Y547432D01*
X587132D01*
Y543368D01*
X583068D01*
X557668D02*
Y547432D01*
X561732D01*
Y543368D01*
X557668D01*
X532268D02*
Y547432D01*
X536332D01*
Y543368D01*
X532268D01*
X506868D02*
Y547432D01*
X510932D01*
Y543368D01*
X506868D01*
X481468D02*
Y547432D01*
X485532D01*
Y543368D01*
X481468D01*
X456068D02*
Y547432D01*
X460132D01*
Y543368D01*
X456068D01*
X583068Y793368D02*
Y797432D01*
X587132D01*
Y793368D01*
X583068D01*
X557668D02*
Y797432D01*
X561732D01*
Y793368D01*
X557668D01*
X532268D02*
Y797432D01*
X536332D01*
Y793368D01*
X532268D01*
X506868D02*
Y797432D01*
X510932D01*
Y793368D01*
X506868D01*
X481468D02*
Y797432D01*
X485532D01*
Y793368D01*
X481468D01*
X456068D02*
Y797432D01*
X460132D01*
Y793368D01*
X456068D01*
X360868Y293368D02*
Y297432D01*
X364932D01*
Y293368D01*
X360868D01*
X335468D02*
Y297432D01*
X339532D01*
Y293368D01*
X335468D01*
X310068D02*
Y297432D01*
X314132D01*
Y293368D01*
X310068D01*
X284668D02*
Y297432D01*
X288732D01*
Y293368D01*
X284668D01*
X259268D02*
Y297432D01*
X263332D01*
Y293368D01*
X259268D01*
X233868D02*
Y297432D01*
X237932D01*
Y293368D01*
X233868D01*
X360868Y543368D02*
Y547432D01*
X364932D01*
Y543368D01*
X360868D01*
X335468D02*
Y547432D01*
X339532D01*
Y543368D01*
X335468D01*
X310068D02*
Y547432D01*
X314132D01*
Y543368D01*
X310068D01*
X284668D02*
Y547432D01*
X288732D01*
Y543368D01*
X284668D01*
X259268D02*
Y547432D01*
X263332D01*
Y543368D01*
X259268D01*
X233868D02*
Y547432D01*
X237932D01*
Y543368D01*
X233868D01*
X360868Y793368D02*
Y797432D01*
X364932D01*
Y793368D01*
X360868D01*
X335468D02*
Y797432D01*
X339532D01*
Y793368D01*
X335468D01*
X310068D02*
Y797432D01*
X314132D01*
Y793368D01*
X310068D01*
X284668D02*
Y797432D01*
X288732D01*
Y793368D01*
X284668D01*
X259268D02*
Y797432D01*
X263332D01*
Y793368D01*
X259268D01*
X233868D02*
Y797432D01*
X237932D01*
Y793368D01*
X233868D01*
X183068Y293368D02*
Y297432D01*
X187132D01*
Y293368D01*
X183068D01*
X157668D02*
Y297432D01*
X161732D01*
Y293368D01*
X157668D01*
X132268D02*
Y297432D01*
X136332D01*
Y293368D01*
X132268D01*
X106868D02*
Y297432D01*
X110932D01*
Y293368D01*
X106868D01*
X81468D02*
Y297432D01*
X85532D01*
Y293368D01*
X81468D01*
X56068D02*
Y297432D01*
X60132D01*
Y293368D01*
X56068D01*
X183068Y543368D02*
Y547432D01*
X187132D01*
Y543368D01*
X183068D01*
X157668D02*
Y547432D01*
X161732D01*
Y543368D01*
X157668D01*
X132268D02*
Y547432D01*
X136332D01*
Y543368D01*
X132268D01*
X106868D02*
Y547432D01*
X110932D01*
Y543368D01*
X106868D01*
X81468D02*
Y547432D01*
X85532D01*
Y543368D01*
X81468D01*
X56068D02*
Y547432D01*
X60132D01*
Y543368D01*
X56068D01*
X183068Y793368D02*
Y797432D01*
X187132D01*
Y793368D01*
X183068D01*
X157668D02*
Y797432D01*
X161732D01*
Y793368D01*
X157668D01*
X132268D02*
Y797432D01*
X136332D01*
Y793368D01*
X132268D01*
X106868D02*
Y797432D01*
X110932D01*
Y793368D01*
X106868D01*
X81468D02*
Y797432D01*
X85532D01*
Y793368D01*
X81468D01*
X56068D02*
Y797432D01*
X60132D01*
Y793368D01*
X56068D01*
X45034Y445768D02*
Y449832D01*
X49098D01*
Y445768D01*
X45034D01*
X27034Y430768D02*
Y434832D01*
X31098D01*
Y430768D01*
X27034D01*
X45034Y415768D02*
Y419832D01*
X49098D01*
Y415768D01*
X45034D01*
Y695768D02*
Y699832D01*
X49098D01*
Y695768D01*
X45034D01*
X27034Y680768D02*
Y684832D01*
X31098D01*
Y680768D01*
X27034D01*
X45034Y665768D02*
Y669832D01*
X49098D01*
Y665768D01*
X45034D01*
Y945768D02*
Y949832D01*
X49098D01*
Y945768D01*
X45034D01*
X27034Y930768D02*
Y934832D01*
X31098D01*
Y930768D01*
X27034D01*
X45034Y915768D02*
Y919832D01*
X49098D01*
Y915768D01*
X45034D01*
X44814Y389648D02*
Y393712D01*
X48878D01*
Y389648D01*
X44814D01*
Y359648D02*
Y363712D01*
X48878D01*
Y359648D01*
X44814D01*
X26814Y374648D02*
Y378712D01*
X30878D01*
Y374648D01*
X26814D01*
X44814Y639648D02*
Y643712D01*
X48878D01*
Y639648D01*
X44814D01*
Y609648D02*
Y613712D01*
X48878D01*
Y609648D01*
X44814D01*
X26814Y624648D02*
Y628712D01*
X30878D01*
Y624648D01*
X26814D01*
X44814Y889648D02*
Y893712D01*
X48878D01*
Y889648D01*
X44814D01*
Y859648D02*
Y863712D01*
X48878D01*
Y859648D01*
X44814D01*
X26814Y874648D02*
Y878712D01*
X30878D01*
Y874648D01*
X26814D01*
X467400Y485468D02*
X465368Y489532D01*
X469432D01*
X467400Y485468D01*
X537400D02*
X535368Y489532D01*
X539432D01*
X537400Y485468D01*
X525368Y458468D02*
Y462532D01*
X529432D01*
Y458468D01*
X525368D01*
X475368D02*
Y462532D01*
X479432D01*
Y458468D01*
X475368D01*
X467400Y735468D02*
X465368Y739532D01*
X469432D01*
X467400Y735468D01*
X537400D02*
X535368Y739532D01*
X539432D01*
X537400Y735468D01*
X525368Y708468D02*
Y712532D01*
X529432D01*
Y708468D01*
X525368D01*
X475368D02*
Y712532D01*
X479432D01*
Y708468D01*
X475368D01*
X467400Y985468D02*
X465368Y989532D01*
X469432D01*
X467400Y985468D01*
X537400D02*
X535368Y989532D01*
X539432D01*
X537400Y985468D01*
X525368Y958468D02*
Y962532D01*
X529432D01*
Y958468D01*
X525368D01*
X475368D02*
Y962532D01*
X479432D01*
Y958468D01*
X475368D01*
X557668Y318768D02*
Y322832D01*
X561732D01*
Y318768D01*
X557668D01*
X532268D02*
Y322832D01*
X536332D01*
Y318768D01*
X532268D01*
X506868D02*
Y322832D01*
X510932D01*
Y318768D01*
X506868D01*
X481468D02*
Y322832D01*
X485532D01*
Y318768D01*
X481468D01*
X456068D02*
Y322832D01*
X460132D01*
Y318768D01*
X456068D01*
X557668Y568768D02*
Y572832D01*
X561732D01*
Y568768D01*
X557668D01*
X532268D02*
Y572832D01*
X536332D01*
Y568768D01*
X532268D01*
X506868D02*
Y572832D01*
X510932D01*
Y568768D01*
X506868D01*
X481468D02*
Y572832D01*
X485532D01*
Y568768D01*
X481468D01*
X456068D02*
Y572832D01*
X460132D01*
Y568768D01*
X456068D01*
X557668Y818768D02*
Y822832D01*
X561732D01*
Y818768D01*
X557668D01*
X532268D02*
Y822832D01*
X536332D01*
Y818768D01*
X532268D01*
X506868D02*
Y822832D01*
X510932D01*
Y818768D01*
X506868D01*
X481468D02*
Y822832D01*
X485532D01*
Y818768D01*
X481468D01*
X456068D02*
Y822832D01*
X460132D01*
Y818768D01*
X456068D01*
X760868Y344168D02*
Y348232D01*
X764932D01*
Y344168D01*
X760868D01*
X735468D02*
Y348232D01*
X739532D01*
Y344168D01*
X735468D01*
X710068D02*
Y348232D01*
X714132D01*
Y344168D01*
X710068D01*
X684668D02*
Y348232D01*
X688732D01*
Y344168D01*
X684668D01*
X659268D02*
Y348232D01*
X663332D01*
Y344168D01*
X659268D01*
X760868Y594168D02*
Y598232D01*
X764932D01*
Y594168D01*
X760868D01*
X735468D02*
Y598232D01*
X739532D01*
Y594168D01*
X735468D01*
X710068D02*
Y598232D01*
X714132D01*
Y594168D01*
X710068D01*
X684668D02*
Y598232D01*
X688732D01*
Y594168D01*
X684668D01*
X659268D02*
Y598232D01*
X663332D01*
Y594168D01*
X659268D01*
X760868Y844168D02*
Y848232D01*
X764932D01*
Y844168D01*
X760868D01*
X735468D02*
Y848232D01*
X739532D01*
Y844168D01*
X735468D01*
X710068D02*
Y848232D01*
X714132D01*
Y844168D01*
X710068D01*
X684668D02*
Y848232D01*
X688732D01*
Y844168D01*
X684668D01*
X659268D02*
Y848232D01*
X663332D01*
Y844168D01*
X659268D01*
X559700Y369568D02*
X560716Y370584D01*
X561732D01*
X560716Y371600D01*
X561732Y372616D01*
X560716D01*
X559700Y373632D01*
X558684Y372616D01*
X557668D01*
X558684Y371600D01*
X557668Y370584D01*
X558684D01*
X559700Y369568D01*
X547000D02*
X548016Y370584D01*
X549032D01*
X548016Y371600D01*
X549032Y372616D01*
X548016D01*
X547000Y373632D01*
X545984Y372616D01*
X544968D01*
X545984Y371600D01*
X544968Y370584D01*
X545984D01*
X547000Y369568D01*
X534300D02*
X535316Y370584D01*
X536332D01*
X535316Y371600D01*
X536332Y372616D01*
X535316D01*
X534300Y373632D01*
X533284Y372616D01*
X532268D01*
X533284Y371600D01*
X532268Y370584D01*
X533284D01*
X534300Y369568D01*
X521600D02*
X522616Y370584D01*
X523632D01*
X522616Y371600D01*
X523632Y372616D01*
X522616D01*
X521600Y373632D01*
X520584Y372616D01*
X519568D01*
X520584Y371600D01*
X519568Y370584D01*
X520584D01*
X521600Y369568D01*
X508900D02*
X509916Y370584D01*
X510932D01*
X509916Y371600D01*
X510932Y372616D01*
X509916D01*
X508900Y373632D01*
X507884Y372616D01*
X506868D01*
X507884Y371600D01*
X506868Y370584D01*
X507884D01*
X508900Y369568D01*
X496200D02*
X497216Y370584D01*
X498232D01*
X497216Y371600D01*
X498232Y372616D01*
X497216D01*
X496200Y373632D01*
X495184Y372616D01*
X494168D01*
X495184Y371600D01*
X494168Y370584D01*
X495184D01*
X496200Y369568D01*
X483500D02*
X484516Y370584D01*
X485532D01*
X484516Y371600D01*
X485532Y372616D01*
X484516D01*
X483500Y373632D01*
X482484Y372616D01*
X481468D01*
X482484Y371600D01*
X481468Y370584D01*
X482484D01*
X483500Y369568D01*
X559700Y619568D02*
X560716Y620584D01*
X561732D01*
X560716Y621600D01*
X561732Y622616D01*
X560716D01*
X559700Y623632D01*
X558684Y622616D01*
X557668D01*
X558684Y621600D01*
X557668Y620584D01*
X558684D01*
X559700Y619568D01*
X547000D02*
X548016Y620584D01*
X549032D01*
X548016Y621600D01*
X549032Y622616D01*
X548016D01*
X547000Y623632D01*
X545984Y622616D01*
X544968D01*
X545984Y621600D01*
X544968Y620584D01*
X545984D01*
X547000Y619568D01*
X534300D02*
X535316Y620584D01*
X536332D01*
X535316Y621600D01*
X536332Y622616D01*
X535316D01*
X534300Y623632D01*
X533284Y622616D01*
X532268D01*
X533284Y621600D01*
X532268Y620584D01*
X533284D01*
X534300Y619568D01*
X521600D02*
X522616Y620584D01*
X523632D01*
X522616Y621600D01*
X523632Y622616D01*
X522616D01*
X521600Y623632D01*
X520584Y622616D01*
X519568D01*
X520584Y621600D01*
X519568Y620584D01*
X520584D01*
X521600Y619568D01*
X508900D02*
X509916Y620584D01*
X510932D01*
X509916Y621600D01*
X510932Y622616D01*
X509916D01*
X508900Y623632D01*
X507884Y622616D01*
X506868D01*
X507884Y621600D01*
X506868Y620584D01*
X507884D01*
X508900Y619568D01*
X496200D02*
X497216Y620584D01*
X498232D01*
X497216Y621600D01*
X498232Y622616D01*
X497216D01*
X496200Y623632D01*
X495184Y622616D01*
X494168D01*
X495184Y621600D01*
X494168Y620584D01*
X495184D01*
X496200Y619568D01*
X483500D02*
X484516Y620584D01*
X485532D01*
X484516Y621600D01*
X485532Y622616D01*
X484516D01*
X483500Y623632D01*
X482484Y622616D01*
X481468D01*
X482484Y621600D01*
X481468Y620584D01*
X482484D01*
X483500Y619568D01*
X559700Y869568D02*
X560716Y870584D01*
X561732D01*
X560716Y871600D01*
X561732Y872616D01*
X560716D01*
X559700Y873632D01*
X558684Y872616D01*
X557668D01*
X558684Y871600D01*
X557668Y870584D01*
X558684D01*
X559700Y869568D01*
X547000D02*
X548016Y870584D01*
X549032D01*
X548016Y871600D01*
X549032Y872616D01*
X548016D01*
X547000Y873632D01*
X545984Y872616D01*
X544968D01*
X545984Y871600D01*
X544968Y870584D01*
X545984D01*
X547000Y869568D01*
X534300D02*
X535316Y870584D01*
X536332D01*
X535316Y871600D01*
X536332Y872616D01*
X535316D01*
X534300Y873632D01*
X533284Y872616D01*
X532268D01*
X533284Y871600D01*
X532268Y870584D01*
X533284D01*
X534300Y869568D01*
X521600D02*
X522616Y870584D01*
X523632D01*
X522616Y871600D01*
X523632Y872616D01*
X522616D01*
X521600Y873632D01*
X520584Y872616D01*
X519568D01*
X520584Y871600D01*
X519568Y870584D01*
X520584D01*
X521600Y869568D01*
X508900D02*
X509916Y870584D01*
X510932D01*
X509916Y871600D01*
X510932Y872616D01*
X509916D01*
X508900Y873632D01*
X507884Y872616D01*
X506868D01*
X507884Y871600D01*
X506868Y870584D01*
X507884D01*
X508900Y869568D01*
X496200D02*
X497216Y870584D01*
X498232D01*
X497216Y871600D01*
X498232Y872616D01*
X497216D01*
X496200Y873632D01*
X495184Y872616D01*
X494168D01*
X495184Y871600D01*
X494168Y870584D01*
X495184D01*
X496200Y869568D01*
X483500D02*
X484516Y870584D01*
X485532D01*
X484516Y871600D01*
X485532Y872616D01*
X484516D01*
X483500Y873632D01*
X482484Y872616D01*
X481468D01*
X482484Y871600D01*
X481468Y870584D01*
X482484D01*
X483500Y869568D01*
X159700Y369568D02*
X160716Y370584D01*
X161732D01*
X160716Y371600D01*
X161732Y372616D01*
X160716D01*
X159700Y373632D01*
X158684Y372616D01*
X157668D01*
X158684Y371600D01*
X157668Y370584D01*
X158684D01*
X159700Y369568D01*
X147000D02*
X148016Y370584D01*
X149032D01*
X148016Y371600D01*
X149032Y372616D01*
X148016D01*
X147000Y373632D01*
X145984Y372616D01*
X144968D01*
X145984Y371600D01*
X144968Y370584D01*
X145984D01*
X147000Y369568D01*
X134300D02*
X135316Y370584D01*
X136332D01*
X135316Y371600D01*
X136332Y372616D01*
X135316D01*
X134300Y373632D01*
X133284Y372616D01*
X132268D01*
X133284Y371600D01*
X132268Y370584D01*
X133284D01*
X134300Y369568D01*
X121600D02*
X122616Y370584D01*
X123632D01*
X122616Y371600D01*
X123632Y372616D01*
X122616D01*
X121600Y373632D01*
X120584Y372616D01*
X119568D01*
X120584Y371600D01*
X119568Y370584D01*
X120584D01*
X121600Y369568D01*
X108900D02*
X109916Y370584D01*
X110932D01*
X109916Y371600D01*
X110932Y372616D01*
X109916D01*
X108900Y373632D01*
X107884Y372616D01*
X106868D01*
X107884Y371600D01*
X106868Y370584D01*
X107884D01*
X108900Y369568D01*
X96200D02*
X97216Y370584D01*
X98232D01*
X97216Y371600D01*
X98232Y372616D01*
X97216D01*
X96200Y373632D01*
X95184Y372616D01*
X94168D01*
X95184Y371600D01*
X94168Y370584D01*
X95184D01*
X96200Y369568D01*
X83500D02*
X84516Y370584D01*
X85532D01*
X84516Y371600D01*
X85532Y372616D01*
X84516D01*
X83500Y373632D01*
X82484Y372616D01*
X81468D01*
X82484Y371600D01*
X81468Y370584D01*
X82484D01*
X83500Y369568D01*
X159700Y619568D02*
X160716Y620584D01*
X161732D01*
X160716Y621600D01*
X161732Y622616D01*
X160716D01*
X159700Y623632D01*
X158684Y622616D01*
X157668D01*
X158684Y621600D01*
X157668Y620584D01*
X158684D01*
X159700Y619568D01*
X147000D02*
X148016Y620584D01*
X149032D01*
X148016Y621600D01*
X149032Y622616D01*
X148016D01*
X147000Y623632D01*
X145984Y622616D01*
X144968D01*
X145984Y621600D01*
X144968Y620584D01*
X145984D01*
X147000Y619568D01*
X134300D02*
X135316Y620584D01*
X136332D01*
X135316Y621600D01*
X136332Y622616D01*
X135316D01*
X134300Y623632D01*
X133284Y622616D01*
X132268D01*
X133284Y621600D01*
X132268Y620584D01*
X133284D01*
X134300Y619568D01*
X121600D02*
X122616Y620584D01*
X123632D01*
X122616Y621600D01*
X123632Y622616D01*
X122616D01*
X121600Y623632D01*
X120584Y622616D01*
X119568D01*
X120584Y621600D01*
X119568Y620584D01*
X120584D01*
X121600Y619568D01*
X108900D02*
X109916Y620584D01*
X110932D01*
X109916Y621600D01*
X110932Y622616D01*
X109916D01*
X108900Y623632D01*
X107884Y622616D01*
X106868D01*
X107884Y621600D01*
X106868Y620584D01*
X107884D01*
X108900Y619568D01*
X96200D02*
X97216Y620584D01*
X98232D01*
X97216Y621600D01*
X98232Y622616D01*
X97216D01*
X96200Y623632D01*
X95184Y622616D01*
X94168D01*
X95184Y621600D01*
X94168Y620584D01*
X95184D01*
X96200Y619568D01*
X83500D02*
X84516Y620584D01*
X85532D01*
X84516Y621600D01*
X85532Y622616D01*
X84516D01*
X83500Y623632D01*
X82484Y622616D01*
X81468D01*
X82484Y621600D01*
X81468Y620584D01*
X82484D01*
X83500Y619568D01*
X159700Y869568D02*
X160716Y870584D01*
X161732D01*
X160716Y871600D01*
X161732Y872616D01*
X160716D01*
X159700Y873632D01*
X158684Y872616D01*
X157668D01*
X158684Y871600D01*
X157668Y870584D01*
X158684D01*
X159700Y869568D01*
X147000D02*
X148016Y870584D01*
X149032D01*
X148016Y871600D01*
X149032Y872616D01*
X148016D01*
X147000Y873632D01*
X145984Y872616D01*
X144968D01*
X145984Y871600D01*
X144968Y870584D01*
X145984D01*
X147000Y869568D01*
X134300D02*
X135316Y870584D01*
X136332D01*
X135316Y871600D01*
X136332Y872616D01*
X135316D01*
X134300Y873632D01*
X133284Y872616D01*
X132268D01*
X133284Y871600D01*
X132268Y870584D01*
X133284D01*
X134300Y869568D01*
X121600D02*
X122616Y870584D01*
X123632D01*
X122616Y871600D01*
X123632Y872616D01*
X122616D01*
X121600Y873632D01*
X120584Y872616D01*
X119568D01*
X120584Y871600D01*
X119568Y870584D01*
X120584D01*
X121600Y869568D01*
X108900D02*
X109916Y870584D01*
X110932D01*
X109916Y871600D01*
X110932Y872616D01*
X109916D01*
X108900Y873632D01*
X107884Y872616D01*
X106868D01*
X107884Y871600D01*
X106868Y870584D01*
X107884D01*
X108900Y869568D01*
X96200D02*
X97216Y870584D01*
X98232D01*
X97216Y871600D01*
X98232Y872616D01*
X97216D01*
X96200Y873632D01*
X95184Y872616D01*
X94168D01*
X95184Y871600D01*
X94168Y870584D01*
X95184D01*
X96200Y869568D01*
X83500D02*
X84516Y870584D01*
X85532D01*
X84516Y871600D01*
X85532Y872616D01*
X84516D01*
X83500Y873632D01*
X82484Y872616D01*
X81468D01*
X82484Y871600D01*
X81468Y870584D01*
X82484D01*
X83500Y869568D01*
X760868Y94168D02*
Y98232D01*
X764932D01*
Y94168D01*
X760868D01*
X496200Y119568D02*
X497216Y120584D01*
X498232D01*
X497216Y121600D01*
X498232Y122616D01*
X497216D01*
X496200Y123632D01*
X495184Y122616D01*
X494168D01*
X495184Y121600D01*
X494168Y120584D01*
X495184D01*
X496200Y119568D01*
X96200D02*
X97216Y120584D01*
X98232D01*
X97216Y121600D01*
X98232Y122616D01*
X97216D01*
X96200Y123632D01*
X95184Y122616D01*
X94168D01*
X95184Y121600D01*
X94168Y120584D01*
X95184D01*
X96200Y119568D01*
X659268Y94168D02*
Y98232D01*
X663332D01*
Y94168D01*
X659268D01*
X483500Y119568D02*
X484516Y120584D01*
X485532D01*
X484516Y121600D01*
X485532Y122616D01*
X484516D01*
X483500Y123632D01*
X482484Y122616D01*
X481468D01*
X482484Y121600D01*
X481468Y120584D01*
X482484D01*
X483500Y119568D01*
X310068Y43368D02*
Y47432D01*
X314132D01*
Y43368D01*
X310068D01*
X132268D02*
Y47432D01*
X136332D01*
Y43368D01*
X132268D01*
X83500Y119568D02*
X84516Y120584D01*
X85532D01*
X84516Y121600D01*
X85532Y122616D01*
X84516D01*
X83500Y123632D01*
X82484Y122616D01*
X81468D01*
X82484Y121600D01*
X81468Y120584D01*
X82484D01*
X83500Y119568D01*
X508900D02*
X509916Y120584D01*
X510932D01*
X509916Y121600D01*
X510932Y122616D01*
X509916D01*
X508900Y123632D01*
X507884Y122616D01*
X506868D01*
X507884Y121600D01*
X506868Y120584D01*
X507884D01*
X508900Y119568D01*
X108900D02*
X109916Y120584D01*
X110932D01*
X109916Y121600D01*
X110932Y122616D01*
X109916D01*
X108900Y123632D01*
X107884Y122616D01*
X106868D01*
X107884Y121600D01*
X106868Y120584D01*
X107884D01*
X108900Y119568D01*
X45034Y165768D02*
Y169832D01*
X49098D01*
Y165768D01*
X45034D01*
X44814Y139648D02*
Y143712D01*
X48878D01*
Y139648D01*
X44814D01*
X56068Y43368D02*
Y47432D01*
X60132D01*
Y43368D01*
X56068D01*
X233868D02*
Y47432D01*
X237932D01*
Y43368D01*
X233868D01*
X183068D02*
Y47432D01*
X187132D01*
Y43368D01*
X183068D01*
X559700Y119568D02*
X560716Y120584D01*
X561732D01*
X560716Y121600D01*
X561732Y122616D01*
X560716D01*
X559700Y123632D01*
X558684Y122616D01*
X557668D01*
X558684Y121600D01*
X557668Y120584D01*
X558684D01*
X559700Y119568D01*
X159700D02*
X160716Y120584D01*
X161732D01*
X160716Y121600D01*
X161732Y122616D01*
X160716D01*
X159700Y123632D01*
X158684Y122616D01*
X157668D01*
X158684Y121600D01*
X157668Y120584D01*
X158684D01*
X159700Y119568D01*
X710068Y94168D02*
Y98232D01*
X714132D01*
Y94168D01*
X710068D01*
X534300Y119568D02*
X535316Y120584D01*
X536332D01*
X535316Y121600D01*
X536332Y122616D01*
X535316D01*
X534300Y123632D01*
X533284Y122616D01*
X532268D01*
X533284Y121600D01*
X532268Y120584D01*
X533284D01*
X534300Y119568D01*
X259268Y43368D02*
Y47432D01*
X263332D01*
Y43368D01*
X259268D01*
X81468D02*
Y47432D01*
X85532D01*
Y43368D01*
X81468D01*
X45034Y195768D02*
Y199832D01*
X49098D01*
Y195768D01*
X45034D01*
X134300Y119568D02*
X135316Y120584D01*
X136332D01*
X135316Y121600D01*
X136332Y122616D01*
X135316D01*
X134300Y123632D01*
X133284Y122616D01*
X132268D01*
X133284Y121600D01*
X132268Y120584D01*
X133284D01*
X134300Y119568D01*
X284668Y43368D02*
Y47432D01*
X288732D01*
Y43368D01*
X284668D01*
X106868D02*
Y47432D01*
X110932D01*
Y43368D01*
X106868D01*
X633868D02*
Y47432D01*
X637932D01*
Y43368D01*
X633868D01*
X456068D02*
Y47432D01*
X460132D01*
Y43368D01*
X456068D01*
Y68768D02*
Y72832D01*
X460132D01*
Y68768D01*
X456068D01*
X659268Y43368D02*
Y47432D01*
X663332D01*
Y43368D01*
X659268D01*
X481468D02*
Y47432D01*
X485532D01*
Y43368D01*
X481468D01*
Y68768D02*
Y72832D01*
X485532D01*
Y68768D01*
X481468D01*
X684668Y43368D02*
Y47432D01*
X688732D01*
Y43368D01*
X684668D01*
X506868D02*
Y47432D01*
X510932D01*
Y43368D01*
X506868D01*
Y68768D02*
Y72832D01*
X510932D01*
Y68768D01*
X506868D01*
X710068Y43368D02*
Y47432D01*
X714132D01*
Y43368D01*
X710068D01*
X532268D02*
Y47432D01*
X536332D01*
Y43368D01*
X532268D01*
Y68768D02*
Y72832D01*
X536332D01*
Y68768D01*
X532268D01*
X735468Y43368D02*
Y47432D01*
X739532D01*
Y43368D01*
X735468D01*
X557668D02*
Y47432D01*
X561732D01*
Y43368D01*
X557668D01*
Y68768D02*
Y72832D01*
X561732D01*
Y68768D01*
X557668D01*
X44814Y109648D02*
Y113712D01*
X48878D01*
Y109648D01*
X44814D01*
X684668Y94168D02*
Y98232D01*
X688732D01*
Y94168D01*
X684668D01*
X521600Y119568D02*
X522616Y120584D01*
X523632D01*
X522616Y121600D01*
X523632Y122616D01*
X522616D01*
X521600Y123632D01*
X520584Y122616D01*
X519568D01*
X520584Y121600D01*
X519568Y120584D01*
X520584D01*
X521600Y119568D01*
X735468Y94168D02*
Y98232D01*
X739532D01*
Y94168D01*
X735468D01*
X547000Y119568D02*
X548016Y120584D01*
X549032D01*
X548016Y121600D01*
X549032Y122616D01*
X548016D01*
X547000Y123632D01*
X545984Y122616D01*
X544968D01*
X545984Y121600D01*
X544968Y120584D01*
X545984D01*
X547000Y119568D01*
X335468Y43368D02*
Y47432D01*
X339532D01*
Y43368D01*
X335468D01*
X157668D02*
Y47432D01*
X161732D01*
Y43368D01*
X157668D01*
X121600Y119568D02*
X122616Y120584D01*
X123632D01*
X122616Y121600D01*
X123632Y122616D01*
X122616D01*
X121600Y123632D01*
X120584Y122616D01*
X119568D01*
X120584Y121600D01*
X119568Y120584D01*
X120584D01*
X121600Y119568D01*
X147000D02*
X148016Y120584D01*
X149032D01*
X148016Y121600D01*
X149032Y122616D01*
X148016D01*
X147000Y123632D01*
X145984Y122616D01*
X144968D01*
X145984Y121600D01*
X144968Y120584D01*
X145984D01*
X147000Y119568D01*
X760868Y43368D02*
Y47432D01*
X764932D01*
Y43368D01*
X760868D01*
X583068D02*
Y47432D01*
X587132D01*
Y43368D01*
X583068D01*
X475368Y208468D02*
Y212532D01*
X479432D01*
Y208468D01*
X475368D01*
X525368D02*
Y212532D01*
X529432D01*
Y208468D01*
X525368D01*
X537400Y235468D02*
X535368Y239532D01*
X539432D01*
X537400Y235468D01*
X467400D02*
X465368Y239532D01*
X469432D01*
X467400Y235468D01*
X360868Y43368D02*
Y47432D01*
X364932D01*
Y43368D01*
X360868D01*
X27034Y180768D02*
Y184832D01*
X31098D01*
Y180768D01*
X27034D01*
X26814Y124648D02*
Y128712D01*
X30878D01*
Y124648D01*
X26814D01*
X218628Y81468D02*
X219644Y83500D01*
X218628Y85532D01*
X220660Y84516D01*
X222692Y85532D01*
X221676Y83500D01*
X222692Y81468D01*
X220660Y82484D01*
X218628Y81468D01*
X608468Y216088D02*
X609484Y218120D01*
X608468Y220152D01*
X610500Y219136D01*
X612532Y220152D01*
X611516Y218120D01*
X612532Y216088D01*
X610500Y217104D01*
X608468Y216088D01*
X552588Y203388D02*
X553604Y205420D01*
X552588Y207452D01*
X554620Y206436D01*
X556652Y207452D01*
X555636Y205420D01*
X556652Y203388D01*
X554620Y204404D01*
X552588Y203388D01*
X537348Y183068D02*
X538364Y185100D01*
X537348Y187132D01*
X539380Y186116D01*
X541412Y187132D01*
X540396Y185100D01*
X541412Y183068D01*
X539380Y184084D01*
X537348Y183068D01*
X461148Y111948D02*
X462164Y113980D01*
X461148Y116012D01*
X463180Y114996D01*
X465212Y116012D01*
X464196Y113980D01*
X465212Y111948D01*
X463180Y112964D01*
X461148Y111948D01*
X613548Y122108D02*
X614564Y124140D01*
X613548Y126172D01*
X615580Y125156D01*
X617612Y126172D01*
X616596Y124140D01*
X617612Y122108D01*
X615580Y123124D01*
X613548Y122108D01*
X167828Y89088D02*
X168844Y91120D01*
X167828Y93152D01*
X169860Y92136D01*
X171892Y93152D01*
X170876Y91120D01*
X171892Y89088D01*
X169860Y90104D01*
X167828Y89088D01*
X66228Y101788D02*
X67244Y103820D01*
X66228Y105852D01*
X68260Y104836D01*
X70292Y105852D01*
X69276Y103820D01*
X70292Y101788D01*
X68260Y102804D01*
X66228Y101788D01*
X773568Y156125D02*
X774584Y158157D01*
X773568Y160189D01*
X775600Y159173D01*
X777632Y160189D01*
X776616Y158157D01*
X777632Y156125D01*
X775600Y157141D01*
X773568Y156125D01*
X659268Y132268D02*
X660284Y134300D01*
X659268Y136332D01*
X661300Y135316D01*
X663332Y136332D01*
X662316Y134300D01*
X663332Y132268D01*
X661300Y133284D01*
X659268Y132268D01*
X144968Y216088D02*
X145984Y218120D01*
X144968Y220152D01*
X147000Y219136D01*
X149032Y220152D01*
X148016Y218120D01*
X149032Y216088D01*
X147000Y217104D01*
X144968Y216088D01*
X198308Y188148D02*
X199324Y190180D01*
X198308Y192212D01*
X200340Y191196D01*
X202372Y192212D01*
X201356Y190180D01*
X202372Y188148D01*
X200340Y189164D01*
X198308Y188148D01*
X228788Y91628D02*
X229804Y93660D01*
X228788Y95692D01*
X230820Y94676D01*
X232852Y95692D01*
X231836Y93660D01*
X232852Y91628D01*
X230820Y92644D01*
X228788Y91628D01*
X297368Y129728D02*
X298384Y131760D01*
X297368Y133792D01*
X299400Y132776D01*
X301432Y133792D01*
X300416Y131760D01*
X301432Y129728D01*
X299400Y130744D01*
X297368Y129728D01*
X216088Y104328D02*
X217104Y106360D01*
X216088Y108392D01*
X218120Y107376D01*
X220152Y108392D01*
X219136Y106360D01*
X220152Y104328D01*
X218120Y105344D01*
X216088Y104328D01*
X73848Y233868D02*
X74864Y235900D01*
X73848Y237932D01*
X75880Y236916D01*
X77912Y237932D01*
X76896Y235900D01*
X77912Y233868D01*
X75880Y234884D01*
X73848Y233868D01*
X170368Y216088D02*
X171384Y218120D01*
X170368Y220152D01*
X172400Y219136D01*
X174432Y220152D01*
X173416Y218120D01*
X174432Y216088D01*
X172400Y217104D01*
X170368Y216088D01*
X132268D02*
X133284Y218120D01*
X132268Y220152D01*
X134300Y219136D01*
X136332Y220152D01*
X135316Y218120D01*
X136332Y216088D01*
X134300Y217104D01*
X132268Y216088D01*
Y183068D02*
X133284Y185100D01*
X132268Y187132D01*
X134300Y186116D01*
X136332Y187132D01*
X135316Y185100D01*
X136332Y183068D01*
X134300Y184084D01*
X132268Y183068D01*
X189418Y216285D02*
X190434Y218317D01*
X189418Y220349D01*
X191450Y219333D01*
X193482Y220349D01*
X192466Y218317D01*
X193482Y216285D01*
X191450Y217301D01*
X189418Y216285D01*
X92898Y179258D02*
X93914Y181290D01*
X92898Y183322D01*
X94930Y182306D01*
X96962Y183322D01*
X95946Y181290D01*
X96962Y179258D01*
X94930Y180274D01*
X92898Y179258D01*
X271968Y106868D02*
X272984Y108900D01*
X271968Y110932D01*
X274000Y109916D01*
X276032Y110932D01*
X275016Y108900D01*
X276032Y106868D01*
X274000Y107884D01*
X271968Y106868D01*
X81468Y165288D02*
X82484Y167320D01*
X81468Y169352D01*
X83500Y168336D01*
X85532Y169352D01*
X84516Y167320D01*
X85532Y165288D01*
X83500Y166304D01*
X81468Y165288D01*
X575448Y213548D02*
X576464Y215580D01*
X575448Y217612D01*
X577480Y216596D01*
X579512Y217612D01*
X578496Y215580D01*
X579512Y213548D01*
X577480Y214564D01*
X575448Y213548D01*
X539888Y142428D02*
X540904Y144460D01*
X539888Y146492D01*
X541920Y145476D01*
X543952Y146492D01*
X542936Y144460D01*
X543952Y142428D01*
X541920Y143444D01*
X539888Y142428D01*
X494168Y144058D02*
X495184Y146090D01*
X494168Y148122D01*
X496200Y147106D01*
X498232Y148122D01*
X497216Y146090D01*
X498232Y144058D01*
X496200Y145074D01*
X494168Y144058D01*
X550048Y183068D02*
X551064Y185100D01*
X550048Y187132D01*
X552080Y186116D01*
X554112Y187132D01*
X553096Y185100D01*
X554112Y183068D01*
X552080Y184084D01*
X550048Y183068D01*
X172413Y236328D02*
X173429Y238360D01*
X172413Y240392D01*
X174445Y239376D01*
X176477Y240392D01*
X175461Y238360D01*
X176477Y236328D01*
X174445Y237344D01*
X172413Y236328D01*
X119568Y214818D02*
X120584Y216850D01*
X119568Y218882D01*
X121600Y217866D01*
X123632Y218882D01*
X122616Y216850D01*
X123632Y214818D01*
X121600Y215834D01*
X119568Y214818D01*
X157668Y138618D02*
X158684Y140650D01*
X157668Y142682D01*
X159700Y141666D01*
X161732Y142682D01*
X160716Y140650D01*
X161732Y138618D01*
X159700Y139634D01*
X157668Y138618D01*
X227518Y166558D02*
X228534Y168590D01*
X227518Y170622D01*
X229550Y169606D01*
X231582Y170622D01*
X230566Y168590D01*
X231582Y166558D01*
X229550Y167574D01*
X227518Y166558D01*
X170368Y68768D02*
X171384Y70800D01*
X170368Y72832D01*
X172400Y71816D01*
X174432Y72832D01*
X173416Y70800D01*
X174432Y68768D01*
X172400Y69784D01*
X170368Y68768D01*
X338008Y119568D02*
X339024Y121600D01*
X338008Y123632D01*
X340040Y122616D01*
X342072Y123632D01*
X341056Y121600D01*
X342072Y119568D01*
X340040Y120584D01*
X338008Y119568D01*
X191958Y139888D02*
X192974Y141920D01*
X191958Y143952D01*
X193990Y142936D01*
X196022Y143952D01*
X195006Y141920D01*
X196022Y139888D01*
X193990Y140904D01*
X191958Y139888D01*
X338008Y106868D02*
X339024Y108900D01*
X338008Y110932D01*
X340040Y109916D01*
X342072Y110932D01*
X341056Y108900D01*
X342072Y106868D01*
X340040Y107884D01*
X338008Y106868D01*
X611008Y157668D02*
X612024Y159700D01*
X611008Y161732D01*
X613040Y160716D01*
X615072Y161732D01*
X614056Y159700D01*
X615072Y157668D01*
X613040Y158684D01*
X611008Y157668D01*
X636408D02*
X637424Y159700D01*
X636408Y161732D01*
X638440Y160716D01*
X640472Y161732D01*
X639456Y159700D01*
X640472Y157668D01*
X638440Y158684D01*
X636408Y157668D01*
X167828Y183238D02*
X168844Y185270D01*
X167828Y187302D01*
X169860Y186286D01*
X171892Y187302D01*
X170876Y185270D01*
X171892Y183238D01*
X169860Y184254D01*
X167828Y183238D01*
X338008Y94168D02*
X339024Y96200D01*
X338008Y98232D01*
X340040Y97216D01*
X342072Y98232D01*
X341056Y96200D01*
X342072Y94168D01*
X340040Y95184D01*
X338008Y94168D01*
X214575Y139718D02*
X215591Y141750D01*
X214575Y143782D01*
X216607Y142766D01*
X218639Y143782D01*
X217623Y141750D01*
X218639Y139718D01*
X216607Y140734D01*
X214575Y139718D01*
X712608Y160208D02*
X713624Y162240D01*
X712608Y164272D01*
X714640Y163256D01*
X716672Y164272D01*
X715656Y162240D01*
X716672Y160208D01*
X714640Y161224D01*
X712608Y160208D01*
X729118Y119568D02*
X730134Y121600D01*
X729118Y123632D01*
X731150Y122616D01*
X733182Y123632D01*
X732166Y121600D01*
X733182Y119568D01*
X731150Y120584D01*
X729118Y119568D01*
X633868Y183068D02*
X634884Y185100D01*
X633868Y187132D01*
X635900Y186116D01*
X637932Y187132D01*
X636916Y185100D01*
X637932Y183068D01*
X635900Y184084D01*
X633868Y183068D01*
X338008Y81468D02*
X339024Y83500D01*
X338008Y85532D01*
X340040Y84516D01*
X342072Y85532D01*
X341056Y83500D01*
X342072Y81468D01*
X340040Y82484D01*
X338008Y81468D01*
X232598Y215918D02*
X233614Y217950D01*
X232598Y219982D01*
X234630Y218966D01*
X236662Y219982D01*
X235646Y217950D01*
X236662Y215918D01*
X234630Y216934D01*
X232598Y215918D01*
X218628Y68768D02*
X219644Y70800D01*
X218628Y72832D01*
X220660Y71816D01*
X222692Y72832D01*
X221676Y70800D01*
X222692Y68768D01*
X220660Y69784D01*
X218628Y68768D01*
X484008Y177988D02*
X485024Y180020D01*
X484008Y182052D01*
X486040Y181036D01*
X488072Y182052D01*
X487056Y180020D01*
X488072Y177988D01*
X486040Y179004D01*
X484008Y177988D01*
X481468Y99248D02*
X482484Y101280D01*
X481468Y103312D01*
X483500Y102296D01*
X485532Y103312D01*
X484516Y101280D01*
X485532Y99248D01*
X483500Y100264D01*
X481468Y99248D01*
X100518Y186878D02*
X101534Y188910D01*
X100518Y190942D01*
X102550Y189926D01*
X104582Y190942D01*
X103566Y188910D01*
X104582Y186878D01*
X102550Y187894D01*
X100518Y186878D01*
X185608Y104328D02*
X186624Y106360D01*
X185608Y108392D01*
X187640Y107376D01*
X189672Y108392D01*
X188656Y106360D01*
X189672Y104328D01*
X187640Y105344D01*
X185608Y104328D01*
X264348Y114488D02*
X265364Y116520D01*
X264348Y118552D01*
X266380Y117536D01*
X268412Y118552D01*
X267396Y116520D01*
X268412Y114488D01*
X266380Y115504D01*
X264348Y114488D01*
X217358Y213548D02*
X218374Y215580D01*
X217358Y217612D01*
X219390Y216596D01*
X221422Y217612D01*
X220406Y215580D01*
X221422Y213548D01*
X219390Y214564D01*
X217358Y213548D01*
X222438Y183068D02*
X223454Y185100D01*
X222438Y187132D01*
X224470Y186116D01*
X226502Y187132D01*
X225486Y185100D01*
X226502Y183068D01*
X224470Y184084D01*
X222438Y183068D01*
X119568Y165288D02*
X120584Y167320D01*
X119568Y169352D01*
X121600Y168336D01*
X123632Y169352D01*
X122616Y167320D01*
X123632Y165288D01*
X121600Y166304D01*
X119568Y165288D01*
X773568Y906125D02*
X774584Y908157D01*
X773568Y910189D01*
X775600Y909173D01*
X777632Y910189D01*
X776616Y908157D01*
X777632Y906125D01*
X775600Y907141D01*
X773568Y906125D01*
X659268Y882268D02*
X660284Y884300D01*
X659268Y886332D01*
X661300Y885316D01*
X663332Y886332D01*
X662316Y884300D01*
X663332Y882268D01*
X661300Y883284D01*
X659268Y882268D01*
X729118Y869568D02*
X730134Y871600D01*
X729118Y873632D01*
X731150Y872616D01*
X733182Y873632D01*
X732166Y871600D01*
X733182Y869568D01*
X731150Y870584D01*
X729118Y869568D01*
X613548Y872108D02*
X614564Y874140D01*
X613548Y876172D01*
X615580Y875156D01*
X617612Y876172D01*
X616596Y874140D01*
X617612Y872108D01*
X615580Y873124D01*
X613548Y872108D01*
X712608Y910208D02*
X713624Y912240D01*
X712608Y914272D01*
X714640Y913256D01*
X716672Y914272D01*
X715656Y912240D01*
X716672Y910208D01*
X714640Y911224D01*
X712608Y910208D01*
X575448Y963548D02*
X576464Y965580D01*
X575448Y967612D01*
X577480Y966596D01*
X579512Y967612D01*
X578496Y965580D01*
X579512Y963548D01*
X577480Y964564D01*
X575448Y963548D01*
X537348Y933068D02*
X538364Y935100D01*
X537348Y937132D01*
X539380Y936116D01*
X541412Y937132D01*
X540396Y935100D01*
X541412Y933068D01*
X539380Y934084D01*
X537348Y933068D01*
X552588Y953388D02*
X553604Y955420D01*
X552588Y957452D01*
X554620Y956436D01*
X556652Y957452D01*
X555636Y955420D01*
X556652Y953388D01*
X554620Y954404D01*
X552588Y953388D01*
X484008Y927988D02*
X485024Y930020D01*
X484008Y932052D01*
X486040Y931036D01*
X488072Y932052D01*
X487056Y930020D01*
X488072Y927988D01*
X486040Y929004D01*
X484008Y927988D01*
X494168Y894058D02*
X495184Y896090D01*
X494168Y898122D01*
X496200Y897106D01*
X498232Y898122D01*
X497216Y896090D01*
X498232Y894058D01*
X496200Y895074D01*
X494168Y894058D01*
X539888Y892428D02*
X540904Y894460D01*
X539888Y896492D01*
X541920Y895476D01*
X543952Y896492D01*
X542936Y894460D01*
X543952Y892428D01*
X541920Y893444D01*
X539888Y892428D01*
X633868Y933068D02*
X634884Y935100D01*
X633868Y937132D01*
X635900Y936116D01*
X637932Y937132D01*
X636916Y935100D01*
X637932Y933068D01*
X635900Y934084D01*
X633868Y933068D01*
X636408Y907668D02*
X637424Y909700D01*
X636408Y911732D01*
X638440Y910716D01*
X640472Y911732D01*
X639456Y909700D01*
X640472Y907668D01*
X638440Y908684D01*
X636408Y907668D01*
X608468Y966088D02*
X609484Y968120D01*
X608468Y970152D01*
X610500Y969136D01*
X612532Y970152D01*
X611516Y968120D01*
X612532Y966088D01*
X610500Y967104D01*
X608468Y966088D01*
X550048Y933068D02*
X551064Y935100D01*
X550048Y937132D01*
X552080Y936116D01*
X554112Y937132D01*
X553096Y935100D01*
X554112Y933068D01*
X552080Y934084D01*
X550048Y933068D01*
X481468Y849248D02*
X482484Y851280D01*
X481468Y853312D01*
X483500Y852296D01*
X485532Y853312D01*
X484516Y851280D01*
X485532Y849248D01*
X483500Y850264D01*
X481468Y849248D01*
X461148Y861948D02*
X462164Y863980D01*
X461148Y866012D01*
X463180Y864996D01*
X465212Y866012D01*
X464196Y863980D01*
X465212Y861948D01*
X463180Y862964D01*
X461148Y861948D01*
X611008Y907668D02*
X612024Y909700D01*
X611008Y911732D01*
X613040Y910716D01*
X615072Y911732D01*
X614056Y909700D01*
X615072Y907668D01*
X613040Y908684D01*
X611008Y907668D01*
X786284Y978534D02*
Y977518D01*
X788316D01*
Y978534D01*
X789332D01*
Y980566D01*
X788316D01*
Y981582D01*
X786284D01*
Y980566D01*
X785268D01*
Y978534D01*
X786284D01*
X431684D02*
Y977518D01*
X433716D01*
Y978534D01*
X434732D01*
Y980566D01*
X433716D01*
Y981582D01*
X431684D01*
Y980566D01*
X430668D01*
Y978534D01*
X431684D01*
X773568Y656125D02*
X774584Y658157D01*
X773568Y660189D01*
X775600Y659173D01*
X777632Y660189D01*
X776616Y658157D01*
X777632Y656125D01*
X775600Y657141D01*
X773568Y656125D01*
X659268Y632268D02*
X660284Y634300D01*
X659268Y636332D01*
X661300Y635316D01*
X663332Y636332D01*
X662316Y634300D01*
X663332Y632268D01*
X661300Y633284D01*
X659268Y632268D01*
X729118Y619568D02*
X730134Y621600D01*
X729118Y623632D01*
X731150Y622616D01*
X733182Y623632D01*
X732166Y621600D01*
X733182Y619568D01*
X731150Y620584D01*
X729118Y619568D01*
X613548Y622108D02*
X614564Y624140D01*
X613548Y626172D01*
X615580Y625156D01*
X617612Y626172D01*
X616596Y624140D01*
X617612Y622108D01*
X615580Y623124D01*
X613548Y622108D01*
X712608Y660208D02*
X713624Y662240D01*
X712608Y664272D01*
X714640Y663256D01*
X716672Y664272D01*
X715656Y662240D01*
X716672Y660208D01*
X714640Y661224D01*
X712608Y660208D01*
X575448Y713548D02*
X576464Y715580D01*
X575448Y717612D01*
X577480Y716596D01*
X579512Y717612D01*
X578496Y715580D01*
X579512Y713548D01*
X577480Y714564D01*
X575448Y713548D01*
X537348Y683068D02*
X538364Y685100D01*
X537348Y687132D01*
X539380Y686116D01*
X541412Y687132D01*
X540396Y685100D01*
X541412Y683068D01*
X539380Y684084D01*
X537348Y683068D01*
X552588Y703388D02*
X553604Y705420D01*
X552588Y707452D01*
X554620Y706436D01*
X556652Y707452D01*
X555636Y705420D01*
X556652Y703388D01*
X554620Y704404D01*
X552588Y703388D01*
X484008Y677988D02*
X485024Y680020D01*
X484008Y682052D01*
X486040Y681036D01*
X488072Y682052D01*
X487056Y680020D01*
X488072Y677988D01*
X486040Y679004D01*
X484008Y677988D01*
X494168Y644058D02*
X495184Y646090D01*
X494168Y648122D01*
X496200Y647106D01*
X498232Y648122D01*
X497216Y646090D01*
X498232Y644058D01*
X496200Y645074D01*
X494168Y644058D01*
X539888Y642428D02*
X540904Y644460D01*
X539888Y646492D01*
X541920Y645476D01*
X543952Y646492D01*
X542936Y644460D01*
X543952Y642428D01*
X541920Y643444D01*
X539888Y642428D01*
X633868Y683068D02*
X634884Y685100D01*
X633868Y687132D01*
X635900Y686116D01*
X637932Y687132D01*
X636916Y685100D01*
X637932Y683068D01*
X635900Y684084D01*
X633868Y683068D01*
X636408Y657668D02*
X637424Y659700D01*
X636408Y661732D01*
X638440Y660716D01*
X640472Y661732D01*
X639456Y659700D01*
X640472Y657668D01*
X638440Y658684D01*
X636408Y657668D01*
X608468Y716088D02*
X609484Y718120D01*
X608468Y720152D01*
X610500Y719136D01*
X612532Y720152D01*
X611516Y718120D01*
X612532Y716088D01*
X610500Y717104D01*
X608468Y716088D01*
X550048Y683068D02*
X551064Y685100D01*
X550048Y687132D01*
X552080Y686116D01*
X554112Y687132D01*
X553096Y685100D01*
X554112Y683068D01*
X552080Y684084D01*
X550048Y683068D01*
X481468Y599248D02*
X482484Y601280D01*
X481468Y603312D01*
X483500Y602296D01*
X485532Y603312D01*
X484516Y601280D01*
X485532Y599248D01*
X483500Y600264D01*
X481468Y599248D01*
X461148Y611948D02*
X462164Y613980D01*
X461148Y616012D01*
X463180Y614996D01*
X465212Y616012D01*
X464196Y613980D01*
X465212Y611948D01*
X463180Y612964D01*
X461148Y611948D01*
X611008Y657668D02*
X612024Y659700D01*
X611008Y661732D01*
X613040Y660716D01*
X615072Y661732D01*
X614056Y659700D01*
X615072Y657668D01*
X613040Y658684D01*
X611008Y657668D01*
X786284Y728534D02*
Y727518D01*
X788316D01*
Y728534D01*
X789332D01*
Y730566D01*
X788316D01*
Y731582D01*
X786284D01*
Y730566D01*
X785268D01*
Y728534D01*
X786284D01*
X431684D02*
Y727518D01*
X433716D01*
Y728534D01*
X434732D01*
Y730566D01*
X433716D01*
Y731582D01*
X431684D01*
Y730566D01*
X430668D01*
Y728534D01*
X431684D01*
X773568Y406125D02*
X774584Y408157D01*
X773568Y410189D01*
X775600Y409173D01*
X777632Y410189D01*
X776616Y408157D01*
X777632Y406125D01*
X775600Y407141D01*
X773568Y406125D01*
X659268Y382268D02*
X660284Y384300D01*
X659268Y386332D01*
X661300Y385316D01*
X663332Y386332D01*
X662316Y384300D01*
X663332Y382268D01*
X661300Y383284D01*
X659268Y382268D01*
X729118Y369568D02*
X730134Y371600D01*
X729118Y373632D01*
X731150Y372616D01*
X733182Y373632D01*
X732166Y371600D01*
X733182Y369568D01*
X731150Y370584D01*
X729118Y369568D01*
X613548Y372108D02*
X614564Y374140D01*
X613548Y376172D01*
X615580Y375156D01*
X617612Y376172D01*
X616596Y374140D01*
X617612Y372108D01*
X615580Y373124D01*
X613548Y372108D01*
X712608Y410208D02*
X713624Y412240D01*
X712608Y414272D01*
X714640Y413256D01*
X716672Y414272D01*
X715656Y412240D01*
X716672Y410208D01*
X714640Y411224D01*
X712608Y410208D01*
X575448Y463548D02*
X576464Y465580D01*
X575448Y467612D01*
X577480Y466596D01*
X579512Y467612D01*
X578496Y465580D01*
X579512Y463548D01*
X577480Y464564D01*
X575448Y463548D01*
X537348Y433068D02*
X538364Y435100D01*
X537348Y437132D01*
X539380Y436116D01*
X541412Y437132D01*
X540396Y435100D01*
X541412Y433068D01*
X539380Y434084D01*
X537348Y433068D01*
X552588Y453388D02*
X553604Y455420D01*
X552588Y457452D01*
X554620Y456436D01*
X556652Y457452D01*
X555636Y455420D01*
X556652Y453388D01*
X554620Y454404D01*
X552588Y453388D01*
X484008Y427988D02*
X485024Y430020D01*
X484008Y432052D01*
X486040Y431036D01*
X488072Y432052D01*
X487056Y430020D01*
X488072Y427988D01*
X486040Y429004D01*
X484008Y427988D01*
X494168Y394058D02*
X495184Y396090D01*
X494168Y398122D01*
X496200Y397106D01*
X498232Y398122D01*
X497216Y396090D01*
X498232Y394058D01*
X496200Y395074D01*
X494168Y394058D01*
X539888Y392428D02*
X540904Y394460D01*
X539888Y396492D01*
X541920Y395476D01*
X543952Y396492D01*
X542936Y394460D01*
X543952Y392428D01*
X541920Y393444D01*
X539888Y392428D01*
X633868Y433068D02*
X634884Y435100D01*
X633868Y437132D01*
X635900Y436116D01*
X637932Y437132D01*
X636916Y435100D01*
X637932Y433068D01*
X635900Y434084D01*
X633868Y433068D01*
X636408Y407668D02*
X637424Y409700D01*
X636408Y411732D01*
X638440Y410716D01*
X640472Y411732D01*
X639456Y409700D01*
X640472Y407668D01*
X638440Y408684D01*
X636408Y407668D01*
X608468Y466088D02*
X609484Y468120D01*
X608468Y470152D01*
X610500Y469136D01*
X612532Y470152D01*
X611516Y468120D01*
X612532Y466088D01*
X610500Y467104D01*
X608468Y466088D01*
X550048Y433068D02*
X551064Y435100D01*
X550048Y437132D01*
X552080Y436116D01*
X554112Y437132D01*
X553096Y435100D01*
X554112Y433068D01*
X552080Y434084D01*
X550048Y433068D01*
X481468Y349248D02*
X482484Y351280D01*
X481468Y353312D01*
X483500Y352296D01*
X485532Y353312D01*
X484516Y351280D01*
X485532Y349248D01*
X483500Y350264D01*
X481468Y349248D01*
X461148Y361948D02*
X462164Y363980D01*
X461148Y366012D01*
X463180Y364996D01*
X465212Y366012D01*
X464196Y363980D01*
X465212Y361948D01*
X463180Y362964D01*
X461148Y361948D01*
X611008Y407668D02*
X612024Y409700D01*
X611008Y411732D01*
X613040Y410716D01*
X615072Y411732D01*
X614056Y409700D01*
X615072Y407668D01*
X613040Y408684D01*
X611008Y407668D01*
X786284Y478534D02*
Y477518D01*
X788316D01*
Y478534D01*
X789332D01*
Y480566D01*
X788316D01*
Y481582D01*
X786284D01*
Y480566D01*
X785268D01*
Y478534D01*
X786284D01*
X431684D02*
Y477518D01*
X433716D01*
Y478534D01*
X434732D01*
Y480566D01*
X433716D01*
Y481582D01*
X431684D01*
Y480566D01*
X430668D01*
Y478534D01*
X431684D01*
X786284Y228534D02*
Y227518D01*
X788316D01*
Y228534D01*
X789332D01*
Y230566D01*
X788316D01*
Y231582D01*
X786284D01*
Y230566D01*
X785268D01*
Y228534D01*
X786284D01*
X431684D02*
Y227518D01*
X433716D01*
Y228534D01*
X434732D01*
Y230566D01*
X433716D01*
Y231582D01*
X431684D01*
Y230566D01*
X430668D01*
Y228534D01*
X431684D01*
X170368Y818768D02*
X171384Y820800D01*
X170368Y822832D01*
X172400Y821816D01*
X174432Y822832D01*
X173416Y820800D01*
X174432Y818768D01*
X172400Y819784D01*
X170368Y818768D01*
X157668Y888618D02*
X158684Y890650D01*
X157668Y892682D01*
X159700Y891666D01*
X161732Y892682D01*
X160716Y890650D01*
X161732Y888618D01*
X159700Y889634D01*
X157668Y888618D01*
X119568Y964818D02*
X120584Y966850D01*
X119568Y968882D01*
X121600Y967866D01*
X123632Y968882D01*
X122616Y966850D01*
X123632Y964818D01*
X121600Y965834D01*
X119568Y964818D01*
Y915288D02*
X120584Y917320D01*
X119568Y919352D01*
X121600Y918336D01*
X123632Y919352D01*
X122616Y917320D01*
X123632Y915288D01*
X121600Y916304D01*
X119568Y915288D01*
X132268Y966088D02*
X133284Y968120D01*
X132268Y970152D01*
X134300Y969136D01*
X136332Y970152D01*
X135316Y968120D01*
X136332Y966088D01*
X134300Y967104D01*
X132268Y966088D01*
X338008Y856868D02*
X339024Y858900D01*
X338008Y860932D01*
X340040Y859916D01*
X342072Y860932D01*
X341056Y858900D01*
X342072Y856868D01*
X340040Y857884D01*
X338008Y856868D01*
Y844168D02*
X339024Y846200D01*
X338008Y848232D01*
X340040Y847216D01*
X342072Y848232D01*
X341056Y846200D01*
X342072Y844168D01*
X340040Y845184D01*
X338008Y844168D01*
Y831468D02*
X339024Y833500D01*
X338008Y835532D01*
X340040Y834516D01*
X342072Y835532D01*
X341056Y833500D01*
X342072Y831468D01*
X340040Y832484D01*
X338008Y831468D01*
Y869568D02*
X339024Y871600D01*
X338008Y873632D01*
X340040Y872616D01*
X342072Y873632D01*
X341056Y871600D01*
X342072Y869568D01*
X340040Y870584D01*
X338008Y869568D01*
X218628Y818768D02*
X219644Y820800D01*
X218628Y822832D01*
X220660Y821816D01*
X222692Y822832D01*
X221676Y820800D01*
X222692Y818768D01*
X220660Y819784D01*
X218628Y818768D01*
Y831468D02*
X219644Y833500D01*
X218628Y835532D01*
X220660Y834516D01*
X222692Y835532D01*
X221676Y833500D01*
X222692Y831468D01*
X220660Y832484D01*
X218628Y831468D01*
X132268Y933068D02*
X133284Y935100D01*
X132268Y937132D01*
X134300Y936116D01*
X136332Y937132D01*
X135316Y935100D01*
X136332Y933068D01*
X134300Y934084D01*
X132268Y933068D01*
X189418Y966285D02*
X190434Y968317D01*
X189418Y970349D01*
X191450Y969333D01*
X193482Y970349D01*
X192466Y968317D01*
X193482Y966285D01*
X191450Y967301D01*
X189418Y966285D01*
X271968Y856868D02*
X272984Y858900D01*
X271968Y860932D01*
X274000Y859916D01*
X276032Y860932D01*
X275016Y858900D01*
X276032Y856868D01*
X274000Y857884D01*
X271968Y856868D01*
X216088Y854328D02*
X217104Y856360D01*
X216088Y858392D01*
X218120Y857376D01*
X220152Y858392D01*
X219136Y856360D01*
X220152Y854328D01*
X218120Y855344D01*
X216088Y854328D01*
X214575Y889718D02*
X215591Y891750D01*
X214575Y893782D01*
X216607Y892766D01*
X218639Y893782D01*
X217623Y891750D01*
X218639Y889718D01*
X216607Y890734D01*
X214575Y889718D01*
X167828Y933238D02*
X168844Y935270D01*
X167828Y937302D01*
X169860Y936286D01*
X171892Y937302D01*
X170876Y935270D01*
X171892Y933238D01*
X169860Y934254D01*
X167828Y933238D01*
X222438Y933068D02*
X223454Y935100D01*
X222438Y937132D01*
X224470Y936116D01*
X226502Y937132D01*
X225486Y935100D01*
X226502Y933068D01*
X224470Y934084D01*
X222438Y933068D01*
X191958Y889888D02*
X192974Y891920D01*
X191958Y893952D01*
X193990Y892936D01*
X196022Y893952D01*
X195006Y891920D01*
X196022Y889888D01*
X193990Y890904D01*
X191958Y889888D01*
X227518Y916558D02*
X228534Y918590D01*
X227518Y920622D01*
X229550Y919606D01*
X231582Y920622D01*
X230566Y918590D01*
X231582Y916558D01*
X229550Y917574D01*
X227518Y916558D01*
X185608Y854328D02*
X186624Y856360D01*
X185608Y858392D01*
X187640Y857376D01*
X189672Y858392D01*
X188656Y856360D01*
X189672Y854328D01*
X187640Y855344D01*
X185608Y854328D01*
X383728Y900048D02*
X384744Y902080D01*
X383728Y904112D01*
X385760Y903096D01*
X387792Y904112D01*
X386776Y902080D01*
X387792Y900048D01*
X385760Y901064D01*
X383728Y900048D01*
Y922908D02*
X384744Y924940D01*
X383728Y926972D01*
X385760Y925956D01*
X387792Y926972D01*
X386776Y924940D01*
X387792Y922908D01*
X385760Y923924D01*
X383728Y922908D01*
X66228Y851788D02*
X67244Y853820D01*
X66228Y855852D01*
X68260Y854836D01*
X70292Y855852D01*
X69276Y853820D01*
X70292Y851788D01*
X68260Y852804D01*
X66228Y851788D01*
X167828Y839088D02*
X168844Y841120D01*
X167828Y843152D01*
X169860Y842136D01*
X171892Y843152D01*
X170876Y841120D01*
X171892Y839088D01*
X169860Y840104D01*
X167828Y839088D01*
X144968Y966088D02*
X145984Y968120D01*
X144968Y970152D01*
X147000Y969136D01*
X149032Y970152D01*
X148016Y968120D01*
X149032Y966088D01*
X147000Y967104D01*
X144968Y966088D01*
X73848Y983868D02*
X74864Y985900D01*
X73848Y987932D01*
X75880Y986916D01*
X77912Y987932D01*
X76896Y985900D01*
X77912Y983868D01*
X75880Y984884D01*
X73848Y983868D01*
X172413Y986328D02*
X173429Y988360D01*
X172413Y990392D01*
X174445Y989376D01*
X176477Y990392D01*
X175461Y988360D01*
X176477Y986328D01*
X174445Y987344D01*
X172413Y986328D01*
X217358Y963548D02*
X218374Y965580D01*
X217358Y967612D01*
X219390Y966596D01*
X221422Y967612D01*
X220406Y965580D01*
X221422Y963548D01*
X219390Y964564D01*
X217358Y963548D01*
X232598Y965918D02*
X233614Y967950D01*
X232598Y969982D01*
X234630Y968966D01*
X236662Y969982D01*
X235646Y967950D01*
X236662Y965918D01*
X234630Y966934D01*
X232598Y965918D01*
X228788Y841628D02*
X229804Y843660D01*
X228788Y845692D01*
X230820Y844676D01*
X232852Y845692D01*
X231836Y843660D01*
X232852Y841628D01*
X230820Y842644D01*
X228788Y841628D01*
X297368Y879728D02*
X298384Y881760D01*
X297368Y883792D01*
X299400Y882776D01*
X301432Y883792D01*
X300416Y881760D01*
X301432Y879728D01*
X299400Y880744D01*
X297368Y879728D01*
X170368Y966088D02*
X171384Y968120D01*
X170368Y970152D01*
X172400Y969136D01*
X174432Y970152D01*
X173416Y968120D01*
X174432Y966088D01*
X172400Y967104D01*
X170368Y966088D01*
X31684Y978534D02*
Y977518D01*
X33716D01*
Y978534D01*
X34732D01*
Y980566D01*
X33716D01*
Y981582D01*
X31684D01*
Y980566D01*
X30668D01*
Y978534D01*
X31684D01*
X92898Y929258D02*
X93914Y931290D01*
X92898Y933322D01*
X94930Y932306D01*
X96962Y933322D01*
X95946Y931290D01*
X96962Y929258D01*
X94930Y930274D01*
X92898Y929258D01*
X100518Y936878D02*
X101534Y938910D01*
X100518Y940942D01*
X102550Y939926D01*
X104582Y940942D01*
X103566Y938910D01*
X104582Y936878D01*
X102550Y937894D01*
X100518Y936878D01*
X81468Y915288D02*
X82484Y917320D01*
X81468Y919352D01*
X83500Y918336D01*
X85532Y919352D01*
X84516Y917320D01*
X85532Y915288D01*
X83500Y916304D01*
X81468Y915288D01*
X198308Y938148D02*
X199324Y940180D01*
X198308Y942212D01*
X200340Y941196D01*
X202372Y942212D01*
X201356Y940180D01*
X202372Y938148D01*
X200340Y939164D01*
X198308Y938148D01*
X264348Y864488D02*
X265364Y866520D01*
X264348Y868552D01*
X266380Y867536D01*
X268412Y868552D01*
X267396Y866520D01*
X268412Y864488D01*
X266380Y865504D01*
X264348Y864488D01*
X386284Y978534D02*
Y977518D01*
X388316D01*
Y978534D01*
X389332D01*
Y980566D01*
X388316D01*
Y981582D01*
X386284D01*
Y980566D01*
X385268D01*
Y978534D01*
X386284D01*
X170368Y568768D02*
X171384Y570800D01*
X170368Y572832D01*
X172400Y571816D01*
X174432Y572832D01*
X173416Y570800D01*
X174432Y568768D01*
X172400Y569784D01*
X170368Y568768D01*
X157668Y638618D02*
X158684Y640650D01*
X157668Y642682D01*
X159700Y641666D01*
X161732Y642682D01*
X160716Y640650D01*
X161732Y638618D01*
X159700Y639634D01*
X157668Y638618D01*
X119568Y714818D02*
X120584Y716850D01*
X119568Y718882D01*
X121600Y717866D01*
X123632Y718882D01*
X122616Y716850D01*
X123632Y714818D01*
X121600Y715834D01*
X119568Y714818D01*
Y665288D02*
X120584Y667320D01*
X119568Y669352D01*
X121600Y668336D01*
X123632Y669352D01*
X122616Y667320D01*
X123632Y665288D01*
X121600Y666304D01*
X119568Y665288D01*
X132268Y716088D02*
X133284Y718120D01*
X132268Y720152D01*
X134300Y719136D01*
X136332Y720152D01*
X135316Y718120D01*
X136332Y716088D01*
X134300Y717104D01*
X132268Y716088D01*
X338008Y606868D02*
X339024Y608900D01*
X338008Y610932D01*
X340040Y609916D01*
X342072Y610932D01*
X341056Y608900D01*
X342072Y606868D01*
X340040Y607884D01*
X338008Y606868D01*
Y594168D02*
X339024Y596200D01*
X338008Y598232D01*
X340040Y597216D01*
X342072Y598232D01*
X341056Y596200D01*
X342072Y594168D01*
X340040Y595184D01*
X338008Y594168D01*
Y581468D02*
X339024Y583500D01*
X338008Y585532D01*
X340040Y584516D01*
X342072Y585532D01*
X341056Y583500D01*
X342072Y581468D01*
X340040Y582484D01*
X338008Y581468D01*
Y619568D02*
X339024Y621600D01*
X338008Y623632D01*
X340040Y622616D01*
X342072Y623632D01*
X341056Y621600D01*
X342072Y619568D01*
X340040Y620584D01*
X338008Y619568D01*
X218628Y568768D02*
X219644Y570800D01*
X218628Y572832D01*
X220660Y571816D01*
X222692Y572832D01*
X221676Y570800D01*
X222692Y568768D01*
X220660Y569784D01*
X218628Y568768D01*
Y581468D02*
X219644Y583500D01*
X218628Y585532D01*
X220660Y584516D01*
X222692Y585532D01*
X221676Y583500D01*
X222692Y581468D01*
X220660Y582484D01*
X218628Y581468D01*
X132268Y683068D02*
X133284Y685100D01*
X132268Y687132D01*
X134300Y686116D01*
X136332Y687132D01*
X135316Y685100D01*
X136332Y683068D01*
X134300Y684084D01*
X132268Y683068D01*
X189418Y716285D02*
X190434Y718317D01*
X189418Y720349D01*
X191450Y719333D01*
X193482Y720349D01*
X192466Y718317D01*
X193482Y716285D01*
X191450Y717301D01*
X189418Y716285D01*
X271968Y606868D02*
X272984Y608900D01*
X271968Y610932D01*
X274000Y609916D01*
X276032Y610932D01*
X275016Y608900D01*
X276032Y606868D01*
X274000Y607884D01*
X271968Y606868D01*
X216088Y604328D02*
X217104Y606360D01*
X216088Y608392D01*
X218120Y607376D01*
X220152Y608392D01*
X219136Y606360D01*
X220152Y604328D01*
X218120Y605344D01*
X216088Y604328D01*
X214575Y639718D02*
X215591Y641750D01*
X214575Y643782D01*
X216607Y642766D01*
X218639Y643782D01*
X217623Y641750D01*
X218639Y639718D01*
X216607Y640734D01*
X214575Y639718D01*
X167828Y683238D02*
X168844Y685270D01*
X167828Y687302D01*
X169860Y686286D01*
X171892Y687302D01*
X170876Y685270D01*
X171892Y683238D01*
X169860Y684254D01*
X167828Y683238D01*
X222438Y683068D02*
X223454Y685100D01*
X222438Y687132D01*
X224470Y686116D01*
X226502Y687132D01*
X225486Y685100D01*
X226502Y683068D01*
X224470Y684084D01*
X222438Y683068D01*
X191958Y639888D02*
X192974Y641920D01*
X191958Y643952D01*
X193990Y642936D01*
X196022Y643952D01*
X195006Y641920D01*
X196022Y639888D01*
X193990Y640904D01*
X191958Y639888D01*
X227518Y666558D02*
X228534Y668590D01*
X227518Y670622D01*
X229550Y669606D01*
X231582Y670622D01*
X230566Y668590D01*
X231582Y666558D01*
X229550Y667574D01*
X227518Y666558D01*
X185608Y604328D02*
X186624Y606360D01*
X185608Y608392D01*
X187640Y607376D01*
X189672Y608392D01*
X188656Y606360D01*
X189672Y604328D01*
X187640Y605344D01*
X185608Y604328D01*
X383728Y650048D02*
X384744Y652080D01*
X383728Y654112D01*
X385760Y653096D01*
X387792Y654112D01*
X386776Y652080D01*
X387792Y650048D01*
X385760Y651064D01*
X383728Y650048D01*
Y672908D02*
X384744Y674940D01*
X383728Y676972D01*
X385760Y675956D01*
X387792Y676972D01*
X386776Y674940D01*
X387792Y672908D01*
X385760Y673924D01*
X383728Y672908D01*
X66228Y601788D02*
X67244Y603820D01*
X66228Y605852D01*
X68260Y604836D01*
X70292Y605852D01*
X69276Y603820D01*
X70292Y601788D01*
X68260Y602804D01*
X66228Y601788D01*
X167828Y589088D02*
X168844Y591120D01*
X167828Y593152D01*
X169860Y592136D01*
X171892Y593152D01*
X170876Y591120D01*
X171892Y589088D01*
X169860Y590104D01*
X167828Y589088D01*
X144968Y716088D02*
X145984Y718120D01*
X144968Y720152D01*
X147000Y719136D01*
X149032Y720152D01*
X148016Y718120D01*
X149032Y716088D01*
X147000Y717104D01*
X144968Y716088D01*
X73848Y733868D02*
X74864Y735900D01*
X73848Y737932D01*
X75880Y736916D01*
X77912Y737932D01*
X76896Y735900D01*
X77912Y733868D01*
X75880Y734884D01*
X73848Y733868D01*
X172413Y736328D02*
X173429Y738360D01*
X172413Y740392D01*
X174445Y739376D01*
X176477Y740392D01*
X175461Y738360D01*
X176477Y736328D01*
X174445Y737344D01*
X172413Y736328D01*
X217358Y713548D02*
X218374Y715580D01*
X217358Y717612D01*
X219390Y716596D01*
X221422Y717612D01*
X220406Y715580D01*
X221422Y713548D01*
X219390Y714564D01*
X217358Y713548D01*
X232598Y715918D02*
X233614Y717950D01*
X232598Y719982D01*
X234630Y718966D01*
X236662Y719982D01*
X235646Y717950D01*
X236662Y715918D01*
X234630Y716934D01*
X232598Y715918D01*
X228788Y591628D02*
X229804Y593660D01*
X228788Y595692D01*
X230820Y594676D01*
X232852Y595692D01*
X231836Y593660D01*
X232852Y591628D01*
X230820Y592644D01*
X228788Y591628D01*
X297368Y629728D02*
X298384Y631760D01*
X297368Y633792D01*
X299400Y632776D01*
X301432Y633792D01*
X300416Y631760D01*
X301432Y629728D01*
X299400Y630744D01*
X297368Y629728D01*
X170368Y716088D02*
X171384Y718120D01*
X170368Y720152D01*
X172400Y719136D01*
X174432Y720152D01*
X173416Y718120D01*
X174432Y716088D01*
X172400Y717104D01*
X170368Y716088D01*
X31684Y728534D02*
Y727518D01*
X33716D01*
Y728534D01*
X34732D01*
Y730566D01*
X33716D01*
Y731582D01*
X31684D01*
Y730566D01*
X30668D01*
Y728534D01*
X31684D01*
X92898Y679258D02*
X93914Y681290D01*
X92898Y683322D01*
X94930Y682306D01*
X96962Y683322D01*
X95946Y681290D01*
X96962Y679258D01*
X94930Y680274D01*
X92898Y679258D01*
X100518Y686878D02*
X101534Y688910D01*
X100518Y690942D01*
X102550Y689926D01*
X104582Y690942D01*
X103566Y688910D01*
X104582Y686878D01*
X102550Y687894D01*
X100518Y686878D01*
X81468Y665288D02*
X82484Y667320D01*
X81468Y669352D01*
X83500Y668336D01*
X85532Y669352D01*
X84516Y667320D01*
X85532Y665288D01*
X83500Y666304D01*
X81468Y665288D01*
X198308Y688148D02*
X199324Y690180D01*
X198308Y692212D01*
X200340Y691196D01*
X202372Y692212D01*
X201356Y690180D01*
X202372Y688148D01*
X200340Y689164D01*
X198308Y688148D01*
X264348Y614488D02*
X265364Y616520D01*
X264348Y618552D01*
X266380Y617536D01*
X268412Y618552D01*
X267396Y616520D01*
X268412Y614488D01*
X266380Y615504D01*
X264348Y614488D01*
X386284Y728534D02*
Y727518D01*
X388316D01*
Y728534D01*
X389332D01*
Y730566D01*
X388316D01*
Y731582D01*
X386284D01*
Y730566D01*
X385268D01*
Y728534D01*
X386284D01*
X170368Y318768D02*
X171384Y320800D01*
X170368Y322832D01*
X172400Y321816D01*
X174432Y322832D01*
X173416Y320800D01*
X174432Y318768D01*
X172400Y319784D01*
X170368Y318768D01*
X157668Y388618D02*
X158684Y390650D01*
X157668Y392682D01*
X159700Y391666D01*
X161732Y392682D01*
X160716Y390650D01*
X161732Y388618D01*
X159700Y389634D01*
X157668Y388618D01*
X119568Y464818D02*
X120584Y466850D01*
X119568Y468882D01*
X121600Y467866D01*
X123632Y468882D01*
X122616Y466850D01*
X123632Y464818D01*
X121600Y465834D01*
X119568Y464818D01*
Y415288D02*
X120584Y417320D01*
X119568Y419352D01*
X121600Y418336D01*
X123632Y419352D01*
X122616Y417320D01*
X123632Y415288D01*
X121600Y416304D01*
X119568Y415288D01*
X132268Y466088D02*
X133284Y468120D01*
X132268Y470152D01*
X134300Y469136D01*
X136332Y470152D01*
X135316Y468120D01*
X136332Y466088D01*
X134300Y467104D01*
X132268Y466088D01*
X338008Y356868D02*
X339024Y358900D01*
X338008Y360932D01*
X340040Y359916D01*
X342072Y360932D01*
X341056Y358900D01*
X342072Y356868D01*
X340040Y357884D01*
X338008Y356868D01*
Y344168D02*
X339024Y346200D01*
X338008Y348232D01*
X340040Y347216D01*
X342072Y348232D01*
X341056Y346200D01*
X342072Y344168D01*
X340040Y345184D01*
X338008Y344168D01*
Y331468D02*
X339024Y333500D01*
X338008Y335532D01*
X340040Y334516D01*
X342072Y335532D01*
X341056Y333500D01*
X342072Y331468D01*
X340040Y332484D01*
X338008Y331468D01*
Y369568D02*
X339024Y371600D01*
X338008Y373632D01*
X340040Y372616D01*
X342072Y373632D01*
X341056Y371600D01*
X342072Y369568D01*
X340040Y370584D01*
X338008Y369568D01*
X218628Y318768D02*
X219644Y320800D01*
X218628Y322832D01*
X220660Y321816D01*
X222692Y322832D01*
X221676Y320800D01*
X222692Y318768D01*
X220660Y319784D01*
X218628Y318768D01*
Y331468D02*
X219644Y333500D01*
X218628Y335532D01*
X220660Y334516D01*
X222692Y335532D01*
X221676Y333500D01*
X222692Y331468D01*
X220660Y332484D01*
X218628Y331468D01*
X132268Y433068D02*
X133284Y435100D01*
X132268Y437132D01*
X134300Y436116D01*
X136332Y437132D01*
X135316Y435100D01*
X136332Y433068D01*
X134300Y434084D01*
X132268Y433068D01*
X189418Y466285D02*
X190434Y468317D01*
X189418Y470349D01*
X191450Y469333D01*
X193482Y470349D01*
X192466Y468317D01*
X193482Y466285D01*
X191450Y467301D01*
X189418Y466285D01*
X271968Y356868D02*
X272984Y358900D01*
X271968Y360932D01*
X274000Y359916D01*
X276032Y360932D01*
X275016Y358900D01*
X276032Y356868D01*
X274000Y357884D01*
X271968Y356868D01*
X216088Y354328D02*
X217104Y356360D01*
X216088Y358392D01*
X218120Y357376D01*
X220152Y358392D01*
X219136Y356360D01*
X220152Y354328D01*
X218120Y355344D01*
X216088Y354328D01*
X214575Y389718D02*
X215591Y391750D01*
X214575Y393782D01*
X216607Y392766D01*
X218639Y393782D01*
X217623Y391750D01*
X218639Y389718D01*
X216607Y390734D01*
X214575Y389718D01*
X167828Y433238D02*
X168844Y435270D01*
X167828Y437302D01*
X169860Y436286D01*
X171892Y437302D01*
X170876Y435270D01*
X171892Y433238D01*
X169860Y434254D01*
X167828Y433238D01*
X222438Y433068D02*
X223454Y435100D01*
X222438Y437132D01*
X224470Y436116D01*
X226502Y437132D01*
X225486Y435100D01*
X226502Y433068D01*
X224470Y434084D01*
X222438Y433068D01*
X191958Y389888D02*
X192974Y391920D01*
X191958Y393952D01*
X193990Y392936D01*
X196022Y393952D01*
X195006Y391920D01*
X196022Y389888D01*
X193990Y390904D01*
X191958Y389888D01*
X227518Y416558D02*
X228534Y418590D01*
X227518Y420622D01*
X229550Y419606D01*
X231582Y420622D01*
X230566Y418590D01*
X231582Y416558D01*
X229550Y417574D01*
X227518Y416558D01*
X185608Y354328D02*
X186624Y356360D01*
X185608Y358392D01*
X187640Y357376D01*
X189672Y358392D01*
X188656Y356360D01*
X189672Y354328D01*
X187640Y355344D01*
X185608Y354328D01*
X383728Y400048D02*
X384744Y402080D01*
X383728Y404112D01*
X385760Y403096D01*
X387792Y404112D01*
X386776Y402080D01*
X387792Y400048D01*
X385760Y401064D01*
X383728Y400048D01*
Y422908D02*
X384744Y424940D01*
X383728Y426972D01*
X385760Y425956D01*
X387792Y426972D01*
X386776Y424940D01*
X387792Y422908D01*
X385760Y423924D01*
X383728Y422908D01*
X66228Y351788D02*
X67244Y353820D01*
X66228Y355852D01*
X68260Y354836D01*
X70292Y355852D01*
X69276Y353820D01*
X70292Y351788D01*
X68260Y352804D01*
X66228Y351788D01*
X167828Y339088D02*
X168844Y341120D01*
X167828Y343152D01*
X169860Y342136D01*
X171892Y343152D01*
X170876Y341120D01*
X171892Y339088D01*
X169860Y340104D01*
X167828Y339088D01*
X144968Y466088D02*
X145984Y468120D01*
X144968Y470152D01*
X147000Y469136D01*
X149032Y470152D01*
X148016Y468120D01*
X149032Y466088D01*
X147000Y467104D01*
X144968Y466088D01*
X73848Y483868D02*
X74864Y485900D01*
X73848Y487932D01*
X75880Y486916D01*
X77912Y487932D01*
X76896Y485900D01*
X77912Y483868D01*
X75880Y484884D01*
X73848Y483868D01*
X172413Y486328D02*
X173429Y488360D01*
X172413Y490392D01*
X174445Y489376D01*
X176477Y490392D01*
X175461Y488360D01*
X176477Y486328D01*
X174445Y487344D01*
X172413Y486328D01*
X217358Y463548D02*
X218374Y465580D01*
X217358Y467612D01*
X219390Y466596D01*
X221422Y467612D01*
X220406Y465580D01*
X221422Y463548D01*
X219390Y464564D01*
X217358Y463548D01*
X232598Y465918D02*
X233614Y467950D01*
X232598Y469982D01*
X234630Y468966D01*
X236662Y469982D01*
X235646Y467950D01*
X236662Y465918D01*
X234630Y466934D01*
X232598Y465918D01*
X228788Y341628D02*
X229804Y343660D01*
X228788Y345692D01*
X230820Y344676D01*
X232852Y345692D01*
X231836Y343660D01*
X232852Y341628D01*
X230820Y342644D01*
X228788Y341628D01*
X297368Y379728D02*
X298384Y381760D01*
X297368Y383792D01*
X299400Y382776D01*
X301432Y383792D01*
X300416Y381760D01*
X301432Y379728D01*
X299400Y380744D01*
X297368Y379728D01*
X170368Y466088D02*
X171384Y468120D01*
X170368Y470152D01*
X172400Y469136D01*
X174432Y470152D01*
X173416Y468120D01*
X174432Y466088D01*
X172400Y467104D01*
X170368Y466088D01*
X31684Y478534D02*
Y477518D01*
X33716D01*
Y478534D01*
X34732D01*
Y480566D01*
X33716D01*
Y481582D01*
X31684D01*
Y480566D01*
X30668D01*
Y478534D01*
X31684D01*
X92898Y429258D02*
X93914Y431290D01*
X92898Y433322D01*
X94930Y432306D01*
X96962Y433322D01*
X95946Y431290D01*
X96962Y429258D01*
X94930Y430274D01*
X92898Y429258D01*
X100518Y436878D02*
X101534Y438910D01*
X100518Y440942D01*
X102550Y439926D01*
X104582Y440942D01*
X103566Y438910D01*
X104582Y436878D01*
X102550Y437894D01*
X100518Y436878D01*
X81468Y415288D02*
X82484Y417320D01*
X81468Y419352D01*
X83500Y418336D01*
X85532Y419352D01*
X84516Y417320D01*
X85532Y415288D01*
X83500Y416304D01*
X81468Y415288D01*
X198308Y438148D02*
X199324Y440180D01*
X198308Y442212D01*
X200340Y441196D01*
X202372Y442212D01*
X201356Y440180D01*
X202372Y438148D01*
X200340Y439164D01*
X198308Y438148D01*
X264348Y364488D02*
X265364Y366520D01*
X264348Y368552D01*
X266380Y367536D01*
X268412Y368552D01*
X267396Y366520D01*
X268412Y364488D01*
X266380Y365504D01*
X264348Y364488D01*
X386284Y478534D02*
Y477518D01*
X388316D01*
Y478534D01*
X389332D01*
Y480566D01*
X388316D01*
Y481582D01*
X386284D01*
Y480566D01*
X385268D01*
Y478534D01*
X386284D01*
X383728Y150048D02*
X384744Y152080D01*
X383728Y154112D01*
X385760Y153096D01*
X387792Y154112D01*
X386776Y152080D01*
X387792Y150048D01*
X385760Y151064D01*
X383728Y150048D01*
Y172908D02*
X384744Y174940D01*
X383728Y176972D01*
X385760Y175956D01*
X387792Y176972D01*
X386776Y174940D01*
X387792Y172908D01*
X385760Y173924D01*
X383728Y172908D01*
X31684Y228534D02*
Y227518D01*
X33716D01*
Y228534D01*
X34732D01*
Y230566D01*
X33716D01*
Y231582D01*
X31684D01*
Y230566D01*
X30668D01*
Y228534D01*
X31684D01*
X386284D02*
Y227518D01*
X388316D01*
Y228534D01*
X389332D01*
Y230566D01*
X388316D01*
Y231582D01*
X386284D01*
Y230566D01*
X385268D01*
Y228534D01*
X386284D01*
D80*
X574432Y389380D02*
G03*
X574432Y389380I-2032J0D01*
G01*
Y407160D02*
G03*
X574432Y407160I-2032J0D01*
G01*
Y639380D02*
G03*
X574432Y639380I-2032J0D01*
G01*
Y657160D02*
G03*
X574432Y657160I-2032J0D01*
G01*
Y889380D02*
G03*
X574432Y889380I-2032J0D01*
G01*
Y907160D02*
G03*
X574432Y907160I-2032J0D01*
G01*
Y157160D02*
G03*
X574432Y157160I-2032J0D01*
G01*
Y139380D02*
G03*
X574432Y139380I-2032J0D01*
G01*
M02*
