G04*
G04 #@! TF.GenerationSoftware,Altium Limited,Altium Designer,20.2.7 (254)*
G04*
G04 Layer_Color=16711935*
%FSLAX44Y44*%
%MOMM*%
G71*
G04*
G04 #@! TF.SameCoordinates,9E9914D9-28FD-47AE-AA4C-24E4B2164C89*
G04*
G04*
G04 #@! TF.FilePolarity,Negative*
G04*
G01*
G75*
%ADD50R,0.7532X0.6532*%
%ADD51R,0.6532X0.7532*%
%ADD60C,1.7032*%
%ADD61C,1.2032*%
G04:AMPARAMS|DCode=62|XSize=1.4032mm|YSize=1.8032mm|CornerRadius=0.4016mm|HoleSize=0mm|Usage=FLASHONLY|Rotation=180.000|XOffset=0mm|YOffset=0mm|HoleType=Round|Shape=RoundedRectangle|*
%AMROUNDEDRECTD62*
21,1,1.4032,1.0000,0,0,180.0*
21,1,0.6000,1.8032,0,0,180.0*
1,1,0.8032,-0.3000,0.5000*
1,1,0.8032,0.3000,0.5000*
1,1,0.8032,0.3000,-0.5000*
1,1,0.8032,-0.3000,-0.5000*
%
%ADD62ROUNDEDRECTD62*%
%ADD63C,1.5032*%
%ADD64C,1.0032*%
%ADD65C,0.8032*%
%ADD66C,1.6032*%
%ADD78O,1.6532X0.8032*%
D50*
X121600Y430100D02*
D03*
Y440100D02*
D03*
Y680100D02*
D03*
Y690100D02*
D03*
Y930100D02*
D03*
Y940100D02*
D03*
Y190100D02*
D03*
Y180100D02*
D03*
D51*
X291700Y402080D02*
D03*
X281700D02*
D03*
X291700Y652080D02*
D03*
X281700D02*
D03*
X291700Y902080D02*
D03*
X281700D02*
D03*
X291700Y386840D02*
D03*
X281700D02*
D03*
X291700Y636840D02*
D03*
X281700D02*
D03*
X291700Y886840D02*
D03*
X281700D02*
D03*
Y152080D02*
D03*
Y136840D02*
D03*
X291700Y152080D02*
D03*
Y136840D02*
D03*
D60*
X762900Y545400D02*
D03*
X737500D02*
D03*
X712100D02*
D03*
X686700D02*
D03*
X661300D02*
D03*
X635900D02*
D03*
X762900Y295400D02*
D03*
X737500D02*
D03*
X712100D02*
D03*
X686700D02*
D03*
X661300D02*
D03*
X635900D02*
D03*
X762900Y795400D02*
D03*
X737500D02*
D03*
X712100D02*
D03*
X686700D02*
D03*
X661300D02*
D03*
X635900D02*
D03*
X585100Y295400D02*
D03*
X559700D02*
D03*
X534300D02*
D03*
X508900D02*
D03*
X483500D02*
D03*
X458100D02*
D03*
X585100Y545400D02*
D03*
X559700D02*
D03*
X534300D02*
D03*
X508900D02*
D03*
X483500D02*
D03*
X458100D02*
D03*
X585100Y795400D02*
D03*
X559700D02*
D03*
X534300D02*
D03*
X508900D02*
D03*
X483500D02*
D03*
X458100D02*
D03*
X362900Y295400D02*
D03*
X337500D02*
D03*
X312100D02*
D03*
X286700D02*
D03*
X261300D02*
D03*
X235900D02*
D03*
X362900Y545400D02*
D03*
X337500D02*
D03*
X312100D02*
D03*
X286700D02*
D03*
X261300D02*
D03*
X235900D02*
D03*
X362900Y795400D02*
D03*
X337500D02*
D03*
X312100D02*
D03*
X286700D02*
D03*
X261300D02*
D03*
X235900D02*
D03*
X185100Y295400D02*
D03*
X159700D02*
D03*
X134300D02*
D03*
X108900D02*
D03*
X83500D02*
D03*
X58100D02*
D03*
X185100Y545400D02*
D03*
X159700D02*
D03*
X134300D02*
D03*
X108900D02*
D03*
X83500D02*
D03*
X58100D02*
D03*
X185100Y795400D02*
D03*
X159700D02*
D03*
X134300D02*
D03*
X108900D02*
D03*
X83500D02*
D03*
X58100D02*
D03*
X47066Y447800D02*
D03*
X29066Y432800D02*
D03*
X47066Y417800D02*
D03*
Y697800D02*
D03*
X29066Y682800D02*
D03*
X47066Y667800D02*
D03*
Y947800D02*
D03*
X29066Y932800D02*
D03*
X47066Y917800D02*
D03*
X46846Y391680D02*
D03*
Y361680D02*
D03*
X28846Y376680D02*
D03*
X46846Y641680D02*
D03*
Y611680D02*
D03*
X28846Y626680D02*
D03*
X46846Y891680D02*
D03*
Y861680D02*
D03*
X28846Y876680D02*
D03*
X559700Y320800D02*
D03*
X534300D02*
D03*
X508900D02*
D03*
X483500D02*
D03*
X458100D02*
D03*
X559700Y570800D02*
D03*
X534300D02*
D03*
X508900D02*
D03*
X483500D02*
D03*
X458100D02*
D03*
X559700Y820800D02*
D03*
X534300D02*
D03*
X508900D02*
D03*
X483500D02*
D03*
X458100D02*
D03*
X762900Y346200D02*
D03*
X737500D02*
D03*
X712100D02*
D03*
X686700D02*
D03*
X661300D02*
D03*
X762900Y596200D02*
D03*
X737500D02*
D03*
X712100D02*
D03*
X686700D02*
D03*
X661300D02*
D03*
X762900Y846200D02*
D03*
X737500D02*
D03*
X712100D02*
D03*
X686700D02*
D03*
X661300D02*
D03*
X762900Y96200D02*
D03*
X661300D02*
D03*
X312100Y45400D02*
D03*
X134300D02*
D03*
X47066Y167800D02*
D03*
X46846Y141680D02*
D03*
X58100Y45400D02*
D03*
X235900D02*
D03*
X185100D02*
D03*
X712100Y96200D02*
D03*
X261300Y45400D02*
D03*
X83500D02*
D03*
X47066Y197800D02*
D03*
X286700Y45400D02*
D03*
X108900D02*
D03*
X635900D02*
D03*
X458100D02*
D03*
Y70800D02*
D03*
X661300Y45400D02*
D03*
X483500D02*
D03*
Y70800D02*
D03*
X686700Y45400D02*
D03*
X508900D02*
D03*
Y70800D02*
D03*
X712100Y45400D02*
D03*
X534300D02*
D03*
Y70800D02*
D03*
X737500Y45400D02*
D03*
X559700D02*
D03*
Y70800D02*
D03*
X46846Y111680D02*
D03*
X686700Y96200D02*
D03*
X737500D02*
D03*
X337500Y45400D02*
D03*
X159700D02*
D03*
X762900D02*
D03*
X585100D02*
D03*
X362900D02*
D03*
X29066Y182800D02*
D03*
X28846Y126680D02*
D03*
D61*
X572400Y389380D02*
D03*
Y407160D02*
D03*
Y639380D02*
D03*
Y657160D02*
D03*
Y889380D02*
D03*
Y907160D02*
D03*
Y157160D02*
D03*
Y139380D02*
D03*
D62*
X467400Y487500D02*
D03*
X537400D02*
D03*
X467400Y737500D02*
D03*
X537400D02*
D03*
X467400Y987500D02*
D03*
X537400D02*
D03*
Y237500D02*
D03*
X467400D02*
D03*
D63*
X527400Y460500D02*
D03*
X477400D02*
D03*
X527400Y710500D02*
D03*
X477400D02*
D03*
X527400Y960500D02*
D03*
X477400D02*
D03*
Y210500D02*
D03*
X527400D02*
D03*
D64*
X559700Y371600D02*
D03*
X547000D02*
D03*
X534300D02*
D03*
X521600D02*
D03*
X508900D02*
D03*
X496200D02*
D03*
X483500D02*
D03*
X559700Y621600D02*
D03*
X547000D02*
D03*
X534300D02*
D03*
X521600D02*
D03*
X508900D02*
D03*
X496200D02*
D03*
X483500D02*
D03*
X559700Y871600D02*
D03*
X547000D02*
D03*
X534300D02*
D03*
X521600D02*
D03*
X508900D02*
D03*
X496200D02*
D03*
X483500D02*
D03*
X159700Y371600D02*
D03*
X147000D02*
D03*
X134300D02*
D03*
X121600D02*
D03*
X108900D02*
D03*
X96200D02*
D03*
X83500D02*
D03*
X159700Y621600D02*
D03*
X147000D02*
D03*
X134300D02*
D03*
X121600D02*
D03*
X108900D02*
D03*
X96200D02*
D03*
X83500D02*
D03*
X159700Y871600D02*
D03*
X147000D02*
D03*
X134300D02*
D03*
X121600D02*
D03*
X108900D02*
D03*
X96200D02*
D03*
X83500D02*
D03*
X496200Y121600D02*
D03*
X96200D02*
D03*
X483500D02*
D03*
X83500D02*
D03*
X508900D02*
D03*
X108900D02*
D03*
X559700D02*
D03*
X159700D02*
D03*
X534300D02*
D03*
X134300D02*
D03*
X521600D02*
D03*
X547000D02*
D03*
X121600D02*
D03*
X147000D02*
D03*
D65*
X220660Y83500D02*
D03*
X610500Y218120D02*
D03*
X554620Y205420D02*
D03*
X539380Y185100D02*
D03*
X463180Y113980D02*
D03*
X615580Y124140D02*
D03*
X169860Y91120D02*
D03*
X68260Y103820D02*
D03*
X775600Y158157D02*
D03*
X661300Y134300D02*
D03*
X147000Y218120D02*
D03*
X200340Y190180D02*
D03*
X230820Y93660D02*
D03*
X299400Y131760D02*
D03*
X218120Y106360D02*
D03*
X75880Y235900D02*
D03*
X172400Y218120D02*
D03*
X134300D02*
D03*
Y185100D02*
D03*
X191450Y218317D02*
D03*
X94930Y181290D02*
D03*
X274000Y108900D02*
D03*
X83500Y167320D02*
D03*
X577480Y215580D02*
D03*
X541920Y144460D02*
D03*
X496200Y146090D02*
D03*
X552080Y185100D02*
D03*
X174445Y238360D02*
D03*
X121600Y216850D02*
D03*
X159700Y140650D02*
D03*
X229550Y168590D02*
D03*
X172400Y70800D02*
D03*
X340040Y121600D02*
D03*
X193990Y141920D02*
D03*
X340040Y108900D02*
D03*
X613040Y159700D02*
D03*
X638440D02*
D03*
X169860Y185270D02*
D03*
X340040Y96200D02*
D03*
X216607Y141750D02*
D03*
X714640Y162240D02*
D03*
X731150Y121600D02*
D03*
X635900Y185100D02*
D03*
X340040Y83500D02*
D03*
X234630Y217950D02*
D03*
X220660Y70800D02*
D03*
X486040Y180020D02*
D03*
X483500Y101280D02*
D03*
X102550Y188910D02*
D03*
X187640Y106360D02*
D03*
X266380Y116520D02*
D03*
X219390Y215580D02*
D03*
X224470Y185100D02*
D03*
X121600Y167320D02*
D03*
X775600Y908157D02*
D03*
X661300Y884300D02*
D03*
X731150Y871600D02*
D03*
X615580Y874140D02*
D03*
X714640Y912240D02*
D03*
X577480Y965580D02*
D03*
X539380Y935100D02*
D03*
X554620Y955420D02*
D03*
X486040Y930020D02*
D03*
X496200Y896090D02*
D03*
X541920Y894460D02*
D03*
X635900Y935100D02*
D03*
X638440Y909700D02*
D03*
X610500Y968120D02*
D03*
X552080Y935100D02*
D03*
X483500Y851280D02*
D03*
X463180Y863980D02*
D03*
X613040Y909700D02*
D03*
X775600Y658157D02*
D03*
X661300Y634300D02*
D03*
X731150Y621600D02*
D03*
X615580Y624140D02*
D03*
X714640Y662240D02*
D03*
X577480Y715580D02*
D03*
X539380Y685100D02*
D03*
X554620Y705420D02*
D03*
X486040Y680020D02*
D03*
X496200Y646090D02*
D03*
X541920Y644460D02*
D03*
X635900Y685100D02*
D03*
X638440Y659700D02*
D03*
X610500Y718120D02*
D03*
X552080Y685100D02*
D03*
X483500Y601280D02*
D03*
X463180Y613980D02*
D03*
X613040Y659700D02*
D03*
X775600Y408157D02*
D03*
X661300Y384300D02*
D03*
X731150Y371600D02*
D03*
X615580Y374140D02*
D03*
X714640Y412240D02*
D03*
X577480Y465580D02*
D03*
X539380Y435100D02*
D03*
X554620Y455420D02*
D03*
X486040Y430020D02*
D03*
X496200Y396090D02*
D03*
X541920Y394460D02*
D03*
X635900Y435100D02*
D03*
X638440Y409700D02*
D03*
X610500Y468120D02*
D03*
X552080Y435100D02*
D03*
X483500Y351280D02*
D03*
X463180Y363980D02*
D03*
X613040Y409700D02*
D03*
X172400Y820800D02*
D03*
X159700Y890650D02*
D03*
X121600Y966850D02*
D03*
Y917320D02*
D03*
X134300Y968120D02*
D03*
X340040Y858900D02*
D03*
Y846200D02*
D03*
Y833500D02*
D03*
Y871600D02*
D03*
X220660Y820800D02*
D03*
Y833500D02*
D03*
X134300Y935100D02*
D03*
X191450Y968317D02*
D03*
X274000Y858900D02*
D03*
X218120Y856360D02*
D03*
X216607Y891750D02*
D03*
X169860Y935270D02*
D03*
X224470Y935100D02*
D03*
X193990Y891920D02*
D03*
X229550Y918590D02*
D03*
X187640Y856360D02*
D03*
X385760Y902080D02*
D03*
Y924940D02*
D03*
X68260Y853820D02*
D03*
X169860Y841120D02*
D03*
X147000Y968120D02*
D03*
X75880Y985900D02*
D03*
X174445Y988360D02*
D03*
X219390Y965580D02*
D03*
X234630Y967950D02*
D03*
X230820Y843660D02*
D03*
X299400Y881760D02*
D03*
X172400Y968120D02*
D03*
X94930Y931290D02*
D03*
X102550Y938910D02*
D03*
X83500Y917320D02*
D03*
X200340Y940180D02*
D03*
X266380Y866520D02*
D03*
X172400Y570800D02*
D03*
X159700Y640650D02*
D03*
X121600Y716850D02*
D03*
Y667320D02*
D03*
X134300Y718120D02*
D03*
X340040Y608900D02*
D03*
Y596200D02*
D03*
Y583500D02*
D03*
Y621600D02*
D03*
X220660Y570800D02*
D03*
Y583500D02*
D03*
X134300Y685100D02*
D03*
X191450Y718317D02*
D03*
X274000Y608900D02*
D03*
X218120Y606360D02*
D03*
X216607Y641750D02*
D03*
X169860Y685270D02*
D03*
X224470Y685100D02*
D03*
X193990Y641920D02*
D03*
X229550Y668590D02*
D03*
X187640Y606360D02*
D03*
X385760Y652080D02*
D03*
Y674940D02*
D03*
X68260Y603820D02*
D03*
X169860Y591120D02*
D03*
X147000Y718120D02*
D03*
X75880Y735900D02*
D03*
X174445Y738360D02*
D03*
X219390Y715580D02*
D03*
X234630Y717950D02*
D03*
X230820Y593660D02*
D03*
X299400Y631760D02*
D03*
X172400Y718120D02*
D03*
X94930Y681290D02*
D03*
X102550Y688910D02*
D03*
X83500Y667320D02*
D03*
X200340Y690180D02*
D03*
X266380Y616520D02*
D03*
X172400Y320800D02*
D03*
X159700Y390650D02*
D03*
X121600Y466850D02*
D03*
Y417320D02*
D03*
X134300Y468120D02*
D03*
X340040Y358900D02*
D03*
Y346200D02*
D03*
Y333500D02*
D03*
Y371600D02*
D03*
X220660Y320800D02*
D03*
Y333500D02*
D03*
X134300Y435100D02*
D03*
X191450Y468317D02*
D03*
X274000Y358900D02*
D03*
X218120Y356360D02*
D03*
X216607Y391750D02*
D03*
X169860Y435270D02*
D03*
X224470Y435100D02*
D03*
X193990Y391920D02*
D03*
X229550Y418590D02*
D03*
X187640Y356360D02*
D03*
X385760Y402080D02*
D03*
Y424940D02*
D03*
X68260Y353820D02*
D03*
X169860Y341120D02*
D03*
X147000Y468120D02*
D03*
X75880Y485900D02*
D03*
X174445Y488360D02*
D03*
X219390Y465580D02*
D03*
X234630Y467950D02*
D03*
X230820Y343660D02*
D03*
X299400Y381760D02*
D03*
X172400Y468120D02*
D03*
X94930Y431290D02*
D03*
X102550Y438910D02*
D03*
X83500Y417320D02*
D03*
X200340Y440180D02*
D03*
X266380Y366520D02*
D03*
X385760Y152080D02*
D03*
Y174940D02*
D03*
D66*
X787300Y979550D02*
D03*
X432700D02*
D03*
X787300Y729550D02*
D03*
X432700D02*
D03*
X787300Y479550D02*
D03*
X432700D02*
D03*
X787300Y229550D02*
D03*
X432700D02*
D03*
X32700Y979550D02*
D03*
X387300D02*
D03*
X32700Y729550D02*
D03*
X387300D02*
D03*
X32700Y479550D02*
D03*
X387300D02*
D03*
X32700Y229550D02*
D03*
X387300D02*
D03*
D78*
X310250Y388110D02*
D03*
Y400810D02*
D03*
Y413510D02*
D03*
Y426210D02*
D03*
X364750Y388110D02*
D03*
Y400810D02*
D03*
Y413510D02*
D03*
Y426210D02*
D03*
X310250Y638110D02*
D03*
Y650810D02*
D03*
Y663510D02*
D03*
Y676210D02*
D03*
X364750Y638110D02*
D03*
Y650810D02*
D03*
Y663510D02*
D03*
Y676210D02*
D03*
X310250Y888110D02*
D03*
Y900810D02*
D03*
Y913510D02*
D03*
Y926210D02*
D03*
X364750Y888110D02*
D03*
Y900810D02*
D03*
Y913510D02*
D03*
Y926210D02*
D03*
X310250Y176210D02*
D03*
X364750Y138110D02*
D03*
Y176210D02*
D03*
Y163510D02*
D03*
X310250Y150810D02*
D03*
Y138110D02*
D03*
X364750Y150810D02*
D03*
X310250Y163510D02*
D03*
M02*
