M48
;Layer_Color=9474304
;FILE_FORMAT=4:4
METRIC,LZ
;TYPE=PLATED
T1F00S00C0.3000
T2F00S00C0.4000
T3F00S00C0.5000
T5F00S00C0.7000
T6F00S00C1.3000
%
T01
X0006826Y0010382
X0016986Y0009112
X001724Y000708
X0022066
Y000835
X0023082Y0009366
X0021812Y0010636
X0018764
X0019399Y0014192
X00216607Y0014175
X001597Y0014065
X0026638Y0011652
X00274Y001089
X002994Y0013176
X0034004Y001216
Y001089
Y000962
Y000835
X0046318Y0011398
X004835Y0010128
X0061558Y0012414
X006613Y001343
X0073115Y001216
X0071464Y0016224
X007756Y00158157
X0063844Y001597
X0061304
X006359Y001851
X006105Y0021812
X0057748Y0021558
X0055462Y0020542
X0055208Y001851
X0054192Y0014446
Y0039446
X0055208Y004351
X0055462Y0045542
X0057748Y0046558
X006105Y0046812
X006359Y004351
X0063844Y004097
X0061304
X0061558Y0037414
X006613Y003843
X0071464Y0041224
X0073115Y003716
X007756Y00408157
X0053938Y004351
X0048604Y0043002
X004962Y0039609
X004835Y0035128
X0046318Y0036398
X0038576Y0040208
Y0042494
X0034004Y003716
Y003589
Y003462
Y003335
X002994Y0038176
X00274Y003589
X0026638Y0036652
X0021812Y0035636
X0022066Y003335
Y003208
X0023082Y0034366
X0018764Y0035636
X0016986Y0034112
X001724Y003208
X001597Y0039065
X0019399Y0039192
X00216607Y0039175
X0022955Y0041859
X0022447Y004351
X0020034Y0044018
X0016986Y0043527
X001724Y0046812
X0019145Y00468317
X0021939Y0046558
X0023463Y0046795
X00174445Y0048836
X00147Y0046812
Y0021812
X001724
X0019145Y00218317
X0021939Y0021558
X0023463Y0021795
X0022447Y001851
X0022955Y0016859
X0020034Y0019018
X0016986Y0018527
X00174445Y0023836
X0038576Y0017494
Y0015208
X004962Y0014609
X0048604Y0018002
X0053938Y001851
X001343
X001216Y0016732
X000835
X0009493Y0018129
X0010255Y0018891
X001216Y0021685
X001343Y0021812
X0007588Y002359
X0006826Y0035382
X000835Y0041732
X0009493Y0043129
X0010255Y0043891
X001343Y004351
X001216Y0041732
Y0046685
X001343Y0046812
X0007588Y004859
X0006826Y0060382
X000835Y0066732
X0009493Y0068129
X0010255Y0068891
X001343Y006851
X001216Y0066732
Y0071685
X001343Y0071812
X0007588Y007359
X0006826Y0085382
X000835Y0091732
X0009493Y0093129
X001216Y0091732
X001343Y009351
X0016986Y0093527
X001597Y0089065
X0019399Y0089192
X00216607Y0089175
X0021812Y0085636
X0022066Y008335
Y008208
X0023082Y0084366
X0018764Y0085636
X0016986Y0084112
X001724Y008208
X00174445Y0073836
X001724Y0071812
X0019145Y00718317
X0021939Y0071558
X0023463Y0071795
X0022447Y006851
X0022955Y0066859
X00216607Y0064175
X0019399Y0064192
X001597Y0064065
X0016986Y0068527
X0020034Y0069018
X00147Y0071812
X0016986Y0059112
X001724Y005708
X0022066
Y005835
X0023082Y0059366
X0021812Y0060636
X0018764
X00274Y006089
X0026638Y0061652
X002994Y0063176
X0034004Y006216
Y006089
Y005962
Y005835
X0038576Y0065208
Y0067494
X0048604Y0068002
X004962Y0064609
X004835Y0060128
X0046318Y0061398
X0053938Y006851
X004835Y0085128
X0046318Y0086398
X004962Y0089609
X0048604Y0093002
X0053938Y009351
X0038576Y0092494
Y0090208
X0034004Y008716
Y008589
Y008462
Y008335
X002994Y0088176
X00274Y008589
X0026638Y0086652
X0022955Y0091859
X0022447Y009351
X0055208
X0054192Y0089446
X0061304Y009097
X0063844
X006359Y009351
X006613Y008843
X0061558Y0087414
X0073115Y008716
X0071464Y0091224
X007756Y00908157
Y00658157
X0071464Y0066224
X0073115Y006216
X006613Y006343
X0063844Y006597
X0061304
X0061558Y0062414
X006359Y006851
X006105Y0071812
X0057748Y0071558
X0055462Y0070542
X0055208Y006851
X0054192Y0064446
X0055462Y0095542
X0057748Y0096558
X006105Y0096812
X0023463Y0096795
X0021939Y0096558
X0019145Y00968317
X001724Y0096812
X00174445Y0098836
X00147Y0096812
X0020034Y0094018
X001343Y0096812
X001216Y0096685
X0010255Y0093891
X0007588Y009859
T02
X005724Y0013938
Y0015716
Y0038938
Y0040716
Y0063938
Y0065716
Y0088938
Y0090716
T03
X000835Y001216
X000962
X001089
X001216
X001343
X00147
X001597
X004835
X004962
X005089
X005216
X005343
X00547
X005597
Y003716
X00547
X005343
X005216
X005089
X004962
X004835
X001597
X00147
X001343
X001216
X001089
X000962
X000835
Y006216
X000962
X001089
X001216
X001343
Y008716
X001216
X001089
X000962
X000835
X00147
X001597
Y006216
X00147
X004835
X004962
X005089
X005216
X005343
Y008716
X005216
X005089
X004962
X004835
X00547
X005597
Y006216
X00547
T05
X000581Y000454
X000835
X001089
X001343
X00046846Y0011168
Y0014168
X00028846Y0012668
X001597Y000454
X001851
X002359
X002613
X002867
X003121
X003375
X003629
X004581
Y000708
X004835
Y000454
X005089
Y000708
X005343
Y000454
X005597
Y000708
X005851Y000454
X006359
X006613
X006867
X007121
X007375
X007629
Y000962
X007375
X007121
X006867
X006613
Y002954
X006867
X007121
X007375
X007629
Y003462
X007375
X007121
X006867
X006613
X006359Y002954
X005851
X005597
Y003208
X005343
Y002954
X005089
X004835
X004581
Y003208
X004835
X005089
X005274Y002105
X004774
X003629Y002954
X003375
X003121
X002867
X002613
X002359
X001851
X001597
X004774Y004605
X005274
X00047066Y004478
Y004178
X00046846Y0039168
Y0036168
X00028846Y0037668
X00029066Y004328
X000581Y002954
X000835
X001089
X001343
X00047066Y001978
Y001678
X00029066Y001828
X000581Y005454
X000835
X001089
X001343
X00046846Y0061168
Y0064168
X00047066Y006678
Y006978
X00029066Y006828
X00028846Y0062668
X000581Y007954
X000835
X001089
X001343
X00046846Y0086168
Y0089168
X00047066Y009178
X00029066Y009328
X00028846Y0087668
X001597Y007954
X001851
X002359
X002613
X002867
X003121
X003375
X003629
X004581
X004835
X005089
X005343
Y008208
X005089
X004835
X004581
X004774Y007105
X005274
X005343Y005708
Y005454
X005089
X004835
X004581
Y005708
X004835
X005089
X003629Y005454
X003375
X003121
X002867
X002613
X002359
X001851
X001597
X005597
X005851
X006359
X006613
X006867
X007121
X007375
X007629
Y005962
X007375
X007121
X006867
X006613
X005597Y005708
Y007954
X005851
X006359
X006613
X006867
X007121
X007375
X007629
Y008462
X007375
X007121
X006867
X006613
X005597Y008208
X005274Y009605
X004774
X00047066Y009478
T06
X007873Y0022955
Y0047955
X004327
X003873
Y0022955
X004327
X000327
Y0047955
Y0072955
X003873
X004327
X007873
Y0097955
X004327
X003873
X000327
M30
