G04*
G04 #@! TF.GenerationSoftware,Altium Limited,Altium Designer,20.2.7 (254)*
G04*
G04 Layer_Color=8388736*
%FSLAX44Y44*%
%MOMM*%
G71*
G04*
G04 #@! TF.SameCoordinates,9E9914D9-28FD-47AE-AA4C-24E4B2164C89*
G04*
G04*
G04 #@! TF.FilePolarity,Negative*
G04*
G01*
G75*
%ADD38R,1.5032X1.1032*%
%ADD39R,0.6532X1.1032*%
%ADD40R,1.1032X0.6532*%
%ADD41R,1.1032X1.5032*%
%ADD42R,0.8032X1.1532*%
%ADD43R,1.1032X0.8032*%
%ADD44R,1.1532X0.8032*%
%ADD45O,2.0032X0.8032*%
%ADD46O,0.8032X1.6532*%
%ADD47R,1.4032X1.7272*%
%ADD48R,0.7532X1.7272*%
%ADD49R,3.2032X5.2032*%
%ADD50R,0.7532X0.6532*%
%ADD51R,0.6532X0.7532*%
G04:AMPARAMS|DCode=52|XSize=2.2032mm|YSize=1.7272mm|CornerRadius=0mm|HoleSize=0mm|Usage=FLASHONLY|Rotation=160.000|XOffset=0mm|YOffset=0mm|HoleType=Round|Shape=Rectangle|*
%AMROTATEDRECTD52*
4,1,4,1.3305,0.4348,0.7398,-1.1883,-1.3305,-0.4348,-0.7398,1.1883,1.3305,0.4348,0.0*
%
%ADD52ROTATEDRECTD52*%

%ADD53R,2.3532X2.7032*%
%ADD54R,1.2032X1.9532*%
%ADD55R,1.9532X1.2032*%
%ADD56R,0.6032X1.5532*%
%ADD57R,1.7272X0.7532*%
%ADD58R,1.4032X1.2032*%
%ADD59R,6.2032X3.2032*%
%ADD60C,1.7032*%
%ADD61C,1.2032*%
G04:AMPARAMS|DCode=62|XSize=1.4032mm|YSize=1.8032mm|CornerRadius=0.4016mm|HoleSize=0mm|Usage=FLASHONLY|Rotation=180.000|XOffset=0mm|YOffset=0mm|HoleType=Round|Shape=RoundedRectangle|*
%AMROUNDEDRECTD62*
21,1,1.4032,1.0000,0,0,180.0*
21,1,0.6000,1.8032,0,0,180.0*
1,1,0.8032,-0.3000,0.5000*
1,1,0.8032,0.3000,0.5000*
1,1,0.8032,0.3000,-0.5000*
1,1,0.8032,-0.3000,-0.5000*
%
%ADD62ROUNDEDRECTD62*%
%ADD63C,1.5032*%
%ADD64C,1.0032*%
%ADD65C,0.8032*%
%ADD66C,1.6032*%
D38*
X775600Y377950D02*
D03*
Y396450D02*
D03*
Y627950D02*
D03*
Y646450D02*
D03*
Y877950D02*
D03*
Y896450D02*
D03*
X496200Y410610D02*
D03*
Y429110D02*
D03*
Y660610D02*
D03*
Y679110D02*
D03*
Y910610D02*
D03*
Y929110D02*
D03*
X597800Y368700D02*
D03*
Y387200D02*
D03*
Y618700D02*
D03*
Y637200D02*
D03*
Y868700D02*
D03*
Y887200D02*
D03*
X712100Y375050D02*
D03*
Y393550D02*
D03*
Y625050D02*
D03*
Y643550D02*
D03*
Y875050D02*
D03*
Y893550D02*
D03*
X597800Y118700D02*
D03*
X775600Y127950D02*
D03*
X496200Y160610D02*
D03*
X712100Y125050D02*
D03*
X775600Y146450D02*
D03*
X496200Y179110D02*
D03*
X712100Y143550D02*
D03*
X597800Y137200D02*
D03*
D39*
X513850Y435100D02*
D03*
X529350D02*
D03*
X513850Y685100D02*
D03*
X529350D02*
D03*
X513850Y935100D02*
D03*
X529350D02*
D03*
Y185100D02*
D03*
X513850D02*
D03*
D40*
X554620Y412110D02*
D03*
Y427610D02*
D03*
Y662110D02*
D03*
Y677610D02*
D03*
Y912110D02*
D03*
Y927610D02*
D03*
Y162110D02*
D03*
Y177610D02*
D03*
D41*
X695950Y371600D02*
D03*
X677450D02*
D03*
X695950Y621600D02*
D03*
X677450D02*
D03*
X695950Y871600D02*
D03*
X677450D02*
D03*
X145370Y485900D02*
D03*
X163870D02*
D03*
X145370Y735900D02*
D03*
X163870D02*
D03*
X145370Y985900D02*
D03*
X163870D02*
D03*
X624830Y424940D02*
D03*
X606330D02*
D03*
X624830Y674940D02*
D03*
X606330D02*
D03*
X624830Y924940D02*
D03*
X606330D02*
D03*
X695950Y390650D02*
D03*
X677450D02*
D03*
X695950Y640650D02*
D03*
X677450D02*
D03*
X695950Y890650D02*
D03*
X677450D02*
D03*
Y121600D02*
D03*
Y140650D02*
D03*
X695950Y121600D02*
D03*
X163870Y235900D02*
D03*
X145370D02*
D03*
X606330Y174940D02*
D03*
X695950Y140650D02*
D03*
X624830Y174940D02*
D03*
D42*
X586980Y426680D02*
D03*
X567980D02*
D03*
Y453680D02*
D03*
X577480D02*
D03*
X586980D02*
D03*
Y676680D02*
D03*
X567980D02*
D03*
Y703680D02*
D03*
X577480D02*
D03*
X586980D02*
D03*
Y926680D02*
D03*
X567980D02*
D03*
Y953680D02*
D03*
X577480D02*
D03*
X586980D02*
D03*
X733900Y410500D02*
D03*
X743400D02*
D03*
X752900D02*
D03*
Y383500D02*
D03*
X743400D02*
D03*
X733900D02*
D03*
Y660500D02*
D03*
X743400D02*
D03*
X752900D02*
D03*
Y633500D02*
D03*
X743400D02*
D03*
X733900D02*
D03*
Y910500D02*
D03*
X743400D02*
D03*
X752900D02*
D03*
Y883500D02*
D03*
X743400D02*
D03*
X733900D02*
D03*
X77150Y314450D02*
D03*
X58150D02*
D03*
Y341450D02*
D03*
X67650D02*
D03*
X77150D02*
D03*
Y564450D02*
D03*
X58150D02*
D03*
Y591450D02*
D03*
X67650D02*
D03*
X77150D02*
D03*
Y814450D02*
D03*
X58150D02*
D03*
Y841450D02*
D03*
X67650D02*
D03*
X77150D02*
D03*
Y64450D02*
D03*
X567980Y203680D02*
D03*
X58150Y64450D02*
D03*
X67650Y91450D02*
D03*
X577480Y203680D02*
D03*
X743400Y133500D02*
D03*
X58150Y91450D02*
D03*
X752900Y160500D02*
D03*
X743400D02*
D03*
X586980Y203680D02*
D03*
X567980Y176680D02*
D03*
X586980D02*
D03*
X733900Y133500D02*
D03*
X752900D02*
D03*
X733900Y160500D02*
D03*
X77150Y91450D02*
D03*
D43*
X535640Y409700D02*
D03*
X512640Y400200D02*
D03*
Y419200D02*
D03*
X535640Y659700D02*
D03*
X512640Y650200D02*
D03*
Y669200D02*
D03*
X535640Y909700D02*
D03*
X512640Y900200D02*
D03*
Y919200D02*
D03*
X647400Y384300D02*
D03*
X624400Y374800D02*
D03*
Y393800D02*
D03*
X647400Y634300D02*
D03*
X624400Y624800D02*
D03*
Y643800D02*
D03*
X647400Y884300D02*
D03*
X624400Y874800D02*
D03*
Y893800D02*
D03*
X512640Y150200D02*
D03*
X535640Y159700D02*
D03*
X624400Y124800D02*
D03*
X512640Y169200D02*
D03*
X647400Y134300D02*
D03*
X624400Y143800D02*
D03*
D44*
X211300Y340460D02*
D03*
Y321460D02*
D03*
X184300D02*
D03*
Y330960D02*
D03*
Y340460D02*
D03*
X211300Y590460D02*
D03*
Y571460D02*
D03*
X184300D02*
D03*
Y580960D02*
D03*
Y590460D02*
D03*
X211300Y840460D02*
D03*
Y821460D02*
D03*
X184300D02*
D03*
Y830960D02*
D03*
Y840460D02*
D03*
X211300Y90460D02*
D03*
X184300Y71460D02*
D03*
X211300D02*
D03*
X184300Y80960D02*
D03*
Y90460D02*
D03*
D45*
X248160Y367790D02*
D03*
Y355090D02*
D03*
Y342390D02*
D03*
Y329690D02*
D03*
X320160Y367790D02*
D03*
Y355090D02*
D03*
Y342390D02*
D03*
Y329690D02*
D03*
X248160Y617790D02*
D03*
Y605090D02*
D03*
Y592390D02*
D03*
Y579690D02*
D03*
X320160Y617790D02*
D03*
Y605090D02*
D03*
Y592390D02*
D03*
Y579690D02*
D03*
X248160Y867790D02*
D03*
Y855090D02*
D03*
Y842390D02*
D03*
Y829690D02*
D03*
X320160Y867790D02*
D03*
Y855090D02*
D03*
Y842390D02*
D03*
Y829690D02*
D03*
X248160Y79690D02*
D03*
X320160Y105090D02*
D03*
Y117790D02*
D03*
X248160D02*
D03*
Y105090D02*
D03*
Y92390D02*
D03*
X320160Y79690D02*
D03*
Y92390D02*
D03*
D46*
X280350Y456000D02*
D03*
X267650D02*
D03*
X254950D02*
D03*
X242250D02*
D03*
X229550D02*
D03*
X216850D02*
D03*
X204150D02*
D03*
X191450D02*
D03*
X280350Y401500D02*
D03*
X267650D02*
D03*
X254950D02*
D03*
X242250D02*
D03*
X229550D02*
D03*
X216850D02*
D03*
X204150D02*
D03*
X191450D02*
D03*
X280350Y706000D02*
D03*
X267650D02*
D03*
X254950D02*
D03*
X242250D02*
D03*
X229550D02*
D03*
X216850D02*
D03*
X204150D02*
D03*
X191450D02*
D03*
X280350Y651500D02*
D03*
X267650D02*
D03*
X254950D02*
D03*
X242250D02*
D03*
X229550D02*
D03*
X216850D02*
D03*
X204150D02*
D03*
X191450D02*
D03*
X280350Y956000D02*
D03*
X267650D02*
D03*
X254950D02*
D03*
X242250D02*
D03*
X229550D02*
D03*
X216850D02*
D03*
X204150D02*
D03*
X191450D02*
D03*
X280350Y901500D02*
D03*
X267650D02*
D03*
X254950D02*
D03*
X242250D02*
D03*
X229550D02*
D03*
X216850D02*
D03*
X204150D02*
D03*
X191450D02*
D03*
X172400Y456000D02*
D03*
X159700D02*
D03*
X147000D02*
D03*
X134300D02*
D03*
X121600D02*
D03*
X108900D02*
D03*
X96200D02*
D03*
X83500D02*
D03*
X172400Y401500D02*
D03*
X159700D02*
D03*
X147000D02*
D03*
X134300D02*
D03*
X121600D02*
D03*
X108900D02*
D03*
X96200D02*
D03*
X83500D02*
D03*
X172400Y706000D02*
D03*
X159700D02*
D03*
X147000D02*
D03*
X134300D02*
D03*
X121600D02*
D03*
X108900D02*
D03*
X96200D02*
D03*
X83500D02*
D03*
X172400Y651500D02*
D03*
X159700D02*
D03*
X147000D02*
D03*
X134300D02*
D03*
X121600D02*
D03*
X108900D02*
D03*
X96200D02*
D03*
X83500D02*
D03*
X172400Y956000D02*
D03*
X159700D02*
D03*
X147000D02*
D03*
X134300D02*
D03*
X121600D02*
D03*
X108900D02*
D03*
X96200D02*
D03*
X83500D02*
D03*
X172400Y901500D02*
D03*
X159700D02*
D03*
X147000D02*
D03*
X134300D02*
D03*
X121600D02*
D03*
X108900D02*
D03*
X96200D02*
D03*
X83500D02*
D03*
X191450Y206000D02*
D03*
X134300D02*
D03*
X83500D02*
D03*
X96200D02*
D03*
X83500Y151500D02*
D03*
X96200D02*
D03*
X242250Y206000D02*
D03*
X121600Y151500D02*
D03*
X229550Y206000D02*
D03*
X204150Y151500D02*
D03*
X108900Y206000D02*
D03*
X254950Y151500D02*
D03*
X267650D02*
D03*
X280350D02*
D03*
X147000D02*
D03*
X159700D02*
D03*
X172400D02*
D03*
X121600Y206000D02*
D03*
X191450Y151500D02*
D03*
X216850D02*
D03*
X147000Y206000D02*
D03*
X229550Y151500D02*
D03*
X204150Y206000D02*
D03*
X216850D02*
D03*
X280350D02*
D03*
X267650D02*
D03*
X254950D02*
D03*
X108900Y151500D02*
D03*
X134300D02*
D03*
X242250D02*
D03*
X172400Y206000D02*
D03*
X159700D02*
D03*
D47*
X582240Y483360D02*
D03*
X562240D02*
D03*
X582240Y733360D02*
D03*
X562240D02*
D03*
X582240Y983360D02*
D03*
X562240D02*
D03*
Y233360D02*
D03*
X582240D02*
D03*
D48*
X610500Y447800D02*
D03*
X623200D02*
D03*
X610500Y697800D02*
D03*
X623200D02*
D03*
X610500Y947800D02*
D03*
X623200D02*
D03*
X610500Y197800D02*
D03*
X623200D02*
D03*
D49*
X756940Y470660D02*
D03*
X701940D02*
D03*
X756940Y720660D02*
D03*
X701940D02*
D03*
X756940Y970660D02*
D03*
X701940D02*
D03*
X756940Y220660D02*
D03*
X701940D02*
D03*
D50*
X585100Y417240D02*
D03*
Y407240D02*
D03*
Y667240D02*
D03*
Y657240D02*
D03*
Y917240D02*
D03*
Y907240D02*
D03*
X96200Y391840D02*
D03*
Y381840D02*
D03*
Y641840D02*
D03*
Y631840D02*
D03*
Y891840D02*
D03*
Y881840D02*
D03*
X31430Y338580D02*
D03*
Y328580D02*
D03*
Y588580D02*
D03*
Y578580D02*
D03*
Y838580D02*
D03*
Y828580D02*
D03*
X182560Y478360D02*
D03*
Y488360D02*
D03*
Y728360D02*
D03*
Y738360D02*
D03*
Y978360D02*
D03*
Y988360D02*
D03*
X96200Y131840D02*
D03*
Y141840D02*
D03*
X31430Y78580D02*
D03*
X182560Y238360D02*
D03*
X585100Y157240D02*
D03*
Y167240D02*
D03*
X182560Y228360D02*
D03*
X31430Y88580D02*
D03*
D51*
X501280Y351280D02*
D03*
X491280D02*
D03*
X501280Y601280D02*
D03*
X491280D02*
D03*
X501280Y851280D02*
D03*
X491280D02*
D03*
X526600Y351280D02*
D03*
X516600D02*
D03*
X526600Y601280D02*
D03*
X516600D02*
D03*
X526600Y851280D02*
D03*
X516600D02*
D03*
X289160Y313180D02*
D03*
X279160D02*
D03*
X289160Y563180D02*
D03*
X279160D02*
D03*
X289160Y813180D02*
D03*
X279160D02*
D03*
Y63180D02*
D03*
X501280Y101280D02*
D03*
X516600D02*
D03*
X526600D02*
D03*
X491280D02*
D03*
X289160Y63180D02*
D03*
D52*
X369250Y454150D02*
D03*
X303472Y478091D02*
D03*
X369250Y704150D02*
D03*
X303472Y728091D02*
D03*
X369250Y954150D02*
D03*
X303472Y978091D02*
D03*
Y228091D02*
D03*
X369250Y204150D02*
D03*
D53*
X661300Y479290D02*
D03*
Y446790D02*
D03*
Y729290D02*
D03*
Y696790D02*
D03*
Y979290D02*
D03*
Y946790D02*
D03*
Y196790D02*
D03*
Y229290D02*
D03*
D54*
X91400Y485900D02*
D03*
X126400D02*
D03*
X91400Y735900D02*
D03*
X126400D02*
D03*
X91400Y985900D02*
D03*
X126400D02*
D03*
Y235900D02*
D03*
X91400D02*
D03*
D55*
X473340Y394740D02*
D03*
Y429740D02*
D03*
Y644740D02*
D03*
Y679740D02*
D03*
Y894740D02*
D03*
Y929740D02*
D03*
Y144740D02*
D03*
Y179740D02*
D03*
D56*
X515400Y460500D02*
D03*
X489400D02*
D03*
X495900D02*
D03*
X502400D02*
D03*
X508900D02*
D03*
X515400Y710500D02*
D03*
X489400D02*
D03*
X495900D02*
D03*
X502400D02*
D03*
X508900D02*
D03*
X515400Y960500D02*
D03*
X489400D02*
D03*
X495900D02*
D03*
X502400D02*
D03*
X508900D02*
D03*
X489400Y210500D02*
D03*
X515400D02*
D03*
X508900D02*
D03*
X502400D02*
D03*
X495900D02*
D03*
D57*
X345120Y358900D02*
D03*
Y346200D02*
D03*
Y333500D02*
D03*
Y320800D02*
D03*
Y371600D02*
D03*
Y608900D02*
D03*
Y596200D02*
D03*
Y583500D02*
D03*
Y570800D02*
D03*
Y621600D02*
D03*
Y858900D02*
D03*
Y846200D02*
D03*
Y833500D02*
D03*
Y820800D02*
D03*
Y871600D02*
D03*
Y83500D02*
D03*
Y121600D02*
D03*
Y108900D02*
D03*
Y96200D02*
D03*
Y70800D02*
D03*
D58*
X373060Y402080D02*
D03*
Y424940D02*
D03*
Y652080D02*
D03*
Y674940D02*
D03*
Y902080D02*
D03*
Y924940D02*
D03*
Y152080D02*
D03*
Y174940D02*
D03*
D59*
X323060Y413510D02*
D03*
Y663510D02*
D03*
Y913510D02*
D03*
Y163510D02*
D03*
D60*
X762900Y545400D02*
D03*
X737500D02*
D03*
X712100D02*
D03*
X686700D02*
D03*
X661300D02*
D03*
X635900D02*
D03*
X762900Y295400D02*
D03*
X737500D02*
D03*
X712100D02*
D03*
X686700D02*
D03*
X661300D02*
D03*
X635900D02*
D03*
X762900Y795400D02*
D03*
X737500D02*
D03*
X712100D02*
D03*
X686700D02*
D03*
X661300D02*
D03*
X635900D02*
D03*
X585100Y295400D02*
D03*
X559700D02*
D03*
X534300D02*
D03*
X508900D02*
D03*
X483500D02*
D03*
X458100D02*
D03*
X585100Y545400D02*
D03*
X559700D02*
D03*
X534300D02*
D03*
X508900D02*
D03*
X483500D02*
D03*
X458100D02*
D03*
X585100Y795400D02*
D03*
X559700D02*
D03*
X534300D02*
D03*
X508900D02*
D03*
X483500D02*
D03*
X458100D02*
D03*
X362900Y295400D02*
D03*
X337500D02*
D03*
X312100D02*
D03*
X286700D02*
D03*
X261300D02*
D03*
X235900D02*
D03*
X362900Y545400D02*
D03*
X337500D02*
D03*
X312100D02*
D03*
X286700D02*
D03*
X261300D02*
D03*
X235900D02*
D03*
X362900Y795400D02*
D03*
X337500D02*
D03*
X312100D02*
D03*
X286700D02*
D03*
X261300D02*
D03*
X235900D02*
D03*
X185100Y295400D02*
D03*
X159700D02*
D03*
X134300D02*
D03*
X108900D02*
D03*
X83500D02*
D03*
X58100D02*
D03*
X185100Y545400D02*
D03*
X159700D02*
D03*
X134300D02*
D03*
X108900D02*
D03*
X83500D02*
D03*
X58100D02*
D03*
X185100Y795400D02*
D03*
X159700D02*
D03*
X134300D02*
D03*
X108900D02*
D03*
X83500D02*
D03*
X58100D02*
D03*
X47066Y447800D02*
D03*
X29066Y432800D02*
D03*
X47066Y417800D02*
D03*
Y697800D02*
D03*
X29066Y682800D02*
D03*
X47066Y667800D02*
D03*
Y947800D02*
D03*
X29066Y932800D02*
D03*
X47066Y917800D02*
D03*
X46846Y391680D02*
D03*
Y361680D02*
D03*
X28846Y376680D02*
D03*
X46846Y641680D02*
D03*
Y611680D02*
D03*
X28846Y626680D02*
D03*
X46846Y891680D02*
D03*
Y861680D02*
D03*
X28846Y876680D02*
D03*
X559700Y320800D02*
D03*
X534300D02*
D03*
X508900D02*
D03*
X483500D02*
D03*
X458100D02*
D03*
X559700Y570800D02*
D03*
X534300D02*
D03*
X508900D02*
D03*
X483500D02*
D03*
X458100D02*
D03*
X559700Y820800D02*
D03*
X534300D02*
D03*
X508900D02*
D03*
X483500D02*
D03*
X458100D02*
D03*
X762900Y346200D02*
D03*
X737500D02*
D03*
X712100D02*
D03*
X686700D02*
D03*
X661300D02*
D03*
X762900Y596200D02*
D03*
X737500D02*
D03*
X712100D02*
D03*
X686700D02*
D03*
X661300D02*
D03*
X762900Y846200D02*
D03*
X737500D02*
D03*
X712100D02*
D03*
X686700D02*
D03*
X661300D02*
D03*
X762900Y96200D02*
D03*
X661300D02*
D03*
X312100Y45400D02*
D03*
X134300D02*
D03*
X47066Y167800D02*
D03*
X46846Y141680D02*
D03*
X58100Y45400D02*
D03*
X235900D02*
D03*
X185100D02*
D03*
X712100Y96200D02*
D03*
X261300Y45400D02*
D03*
X83500D02*
D03*
X47066Y197800D02*
D03*
X286700Y45400D02*
D03*
X108900D02*
D03*
X635900D02*
D03*
X458100D02*
D03*
Y70800D02*
D03*
X661300Y45400D02*
D03*
X483500D02*
D03*
Y70800D02*
D03*
X686700Y45400D02*
D03*
X508900D02*
D03*
Y70800D02*
D03*
X712100Y45400D02*
D03*
X534300D02*
D03*
Y70800D02*
D03*
X737500Y45400D02*
D03*
X559700D02*
D03*
Y70800D02*
D03*
X46846Y111680D02*
D03*
X686700Y96200D02*
D03*
X737500D02*
D03*
X337500Y45400D02*
D03*
X159700D02*
D03*
X762900D02*
D03*
X585100D02*
D03*
X362900D02*
D03*
X29066Y182800D02*
D03*
X28846Y126680D02*
D03*
D61*
X572400Y389380D02*
D03*
Y407160D02*
D03*
Y639380D02*
D03*
Y657160D02*
D03*
Y889380D02*
D03*
Y907160D02*
D03*
Y157160D02*
D03*
Y139380D02*
D03*
D62*
X467400Y487500D02*
D03*
X537400D02*
D03*
X467400Y737500D02*
D03*
X537400D02*
D03*
X467400Y987500D02*
D03*
X537400D02*
D03*
Y237500D02*
D03*
X467400D02*
D03*
D63*
X527400Y460500D02*
D03*
X477400D02*
D03*
X527400Y710500D02*
D03*
X477400D02*
D03*
X527400Y960500D02*
D03*
X477400D02*
D03*
Y210500D02*
D03*
X527400D02*
D03*
D64*
X559700Y371600D02*
D03*
X547000D02*
D03*
X534300D02*
D03*
X521600D02*
D03*
X508900D02*
D03*
X496200D02*
D03*
X483500D02*
D03*
X559700Y621600D02*
D03*
X547000D02*
D03*
X534300D02*
D03*
X521600D02*
D03*
X508900D02*
D03*
X496200D02*
D03*
X483500D02*
D03*
X559700Y871600D02*
D03*
X547000D02*
D03*
X534300D02*
D03*
X521600D02*
D03*
X508900D02*
D03*
X496200D02*
D03*
X483500D02*
D03*
X159700Y371600D02*
D03*
X147000D02*
D03*
X134300D02*
D03*
X121600D02*
D03*
X108900D02*
D03*
X96200D02*
D03*
X83500D02*
D03*
X159700Y621600D02*
D03*
X147000D02*
D03*
X134300D02*
D03*
X121600D02*
D03*
X108900D02*
D03*
X96200D02*
D03*
X83500D02*
D03*
X159700Y871600D02*
D03*
X147000D02*
D03*
X134300D02*
D03*
X121600D02*
D03*
X108900D02*
D03*
X96200D02*
D03*
X83500D02*
D03*
X496200Y121600D02*
D03*
X96200D02*
D03*
X483500D02*
D03*
X83500D02*
D03*
X508900D02*
D03*
X108900D02*
D03*
X559700D02*
D03*
X159700D02*
D03*
X534300D02*
D03*
X134300D02*
D03*
X521600D02*
D03*
X547000D02*
D03*
X121600D02*
D03*
X147000D02*
D03*
D65*
X220660Y83500D02*
D03*
X610500Y218120D02*
D03*
X554620Y205420D02*
D03*
X539380Y185100D02*
D03*
X463180Y113980D02*
D03*
X615580Y124140D02*
D03*
X169860Y91120D02*
D03*
X68260Y103820D02*
D03*
X775600Y158157D02*
D03*
X661300Y134300D02*
D03*
X147000Y218120D02*
D03*
X200340Y190180D02*
D03*
X230820Y93660D02*
D03*
X299400Y131760D02*
D03*
X218120Y106360D02*
D03*
X75880Y235900D02*
D03*
X172400Y218120D02*
D03*
X134300D02*
D03*
Y185100D02*
D03*
X191450Y218317D02*
D03*
X94930Y181290D02*
D03*
X274000Y108900D02*
D03*
X83500Y167320D02*
D03*
X577480Y215580D02*
D03*
X541920Y144460D02*
D03*
X496200Y146090D02*
D03*
X552080Y185100D02*
D03*
X174445Y238360D02*
D03*
X121600Y216850D02*
D03*
X159700Y140650D02*
D03*
X229550Y168590D02*
D03*
X172400Y70800D02*
D03*
X340040Y121600D02*
D03*
X193990Y141920D02*
D03*
X340040Y108900D02*
D03*
X613040Y159700D02*
D03*
X638440D02*
D03*
X169860Y185270D02*
D03*
X340040Y96200D02*
D03*
X216607Y141750D02*
D03*
X714640Y162240D02*
D03*
X731150Y121600D02*
D03*
X635900Y185100D02*
D03*
X340040Y83500D02*
D03*
X234630Y217950D02*
D03*
X220660Y70800D02*
D03*
X486040Y180020D02*
D03*
X483500Y101280D02*
D03*
X102550Y188910D02*
D03*
X187640Y106360D02*
D03*
X266380Y116520D02*
D03*
X219390Y215580D02*
D03*
X224470Y185100D02*
D03*
X121600Y167320D02*
D03*
X775600Y908157D02*
D03*
X661300Y884300D02*
D03*
X731150Y871600D02*
D03*
X615580Y874140D02*
D03*
X714640Y912240D02*
D03*
X577480Y965580D02*
D03*
X539380Y935100D02*
D03*
X554620Y955420D02*
D03*
X486040Y930020D02*
D03*
X496200Y896090D02*
D03*
X541920Y894460D02*
D03*
X635900Y935100D02*
D03*
X638440Y909700D02*
D03*
X610500Y968120D02*
D03*
X552080Y935100D02*
D03*
X483500Y851280D02*
D03*
X463180Y863980D02*
D03*
X613040Y909700D02*
D03*
X775600Y658157D02*
D03*
X661300Y634300D02*
D03*
X731150Y621600D02*
D03*
X615580Y624140D02*
D03*
X714640Y662240D02*
D03*
X577480Y715580D02*
D03*
X539380Y685100D02*
D03*
X554620Y705420D02*
D03*
X486040Y680020D02*
D03*
X496200Y646090D02*
D03*
X541920Y644460D02*
D03*
X635900Y685100D02*
D03*
X638440Y659700D02*
D03*
X610500Y718120D02*
D03*
X552080Y685100D02*
D03*
X483500Y601280D02*
D03*
X463180Y613980D02*
D03*
X613040Y659700D02*
D03*
X775600Y408157D02*
D03*
X661300Y384300D02*
D03*
X731150Y371600D02*
D03*
X615580Y374140D02*
D03*
X714640Y412240D02*
D03*
X577480Y465580D02*
D03*
X539380Y435100D02*
D03*
X554620Y455420D02*
D03*
X486040Y430020D02*
D03*
X496200Y396090D02*
D03*
X541920Y394460D02*
D03*
X635900Y435100D02*
D03*
X638440Y409700D02*
D03*
X610500Y468120D02*
D03*
X552080Y435100D02*
D03*
X483500Y351280D02*
D03*
X463180Y363980D02*
D03*
X613040Y409700D02*
D03*
X172400Y820800D02*
D03*
X159700Y890650D02*
D03*
X121600Y966850D02*
D03*
Y917320D02*
D03*
X134300Y968120D02*
D03*
X340040Y858900D02*
D03*
Y846200D02*
D03*
Y833500D02*
D03*
Y871600D02*
D03*
X220660Y820800D02*
D03*
Y833500D02*
D03*
X134300Y935100D02*
D03*
X191450Y968317D02*
D03*
X274000Y858900D02*
D03*
X218120Y856360D02*
D03*
X216607Y891750D02*
D03*
X169860Y935270D02*
D03*
X224470Y935100D02*
D03*
X193990Y891920D02*
D03*
X229550Y918590D02*
D03*
X187640Y856360D02*
D03*
X385760Y902080D02*
D03*
Y924940D02*
D03*
X68260Y853820D02*
D03*
X169860Y841120D02*
D03*
X147000Y968120D02*
D03*
X75880Y985900D02*
D03*
X174445Y988360D02*
D03*
X219390Y965580D02*
D03*
X234630Y967950D02*
D03*
X230820Y843660D02*
D03*
X299400Y881760D02*
D03*
X172400Y968120D02*
D03*
X94930Y931290D02*
D03*
X102550Y938910D02*
D03*
X83500Y917320D02*
D03*
X200340Y940180D02*
D03*
X266380Y866520D02*
D03*
X172400Y570800D02*
D03*
X159700Y640650D02*
D03*
X121600Y716850D02*
D03*
Y667320D02*
D03*
X134300Y718120D02*
D03*
X340040Y608900D02*
D03*
Y596200D02*
D03*
Y583500D02*
D03*
Y621600D02*
D03*
X220660Y570800D02*
D03*
Y583500D02*
D03*
X134300Y685100D02*
D03*
X191450Y718317D02*
D03*
X274000Y608900D02*
D03*
X218120Y606360D02*
D03*
X216607Y641750D02*
D03*
X169860Y685270D02*
D03*
X224470Y685100D02*
D03*
X193990Y641920D02*
D03*
X229550Y668590D02*
D03*
X187640Y606360D02*
D03*
X385760Y652080D02*
D03*
Y674940D02*
D03*
X68260Y603820D02*
D03*
X169860Y591120D02*
D03*
X147000Y718120D02*
D03*
X75880Y735900D02*
D03*
X174445Y738360D02*
D03*
X219390Y715580D02*
D03*
X234630Y717950D02*
D03*
X230820Y593660D02*
D03*
X299400Y631760D02*
D03*
X172400Y718120D02*
D03*
X94930Y681290D02*
D03*
X102550Y688910D02*
D03*
X83500Y667320D02*
D03*
X200340Y690180D02*
D03*
X266380Y616520D02*
D03*
X172400Y320800D02*
D03*
X159700Y390650D02*
D03*
X121600Y466850D02*
D03*
Y417320D02*
D03*
X134300Y468120D02*
D03*
X340040Y358900D02*
D03*
Y346200D02*
D03*
Y333500D02*
D03*
Y371600D02*
D03*
X220660Y320800D02*
D03*
Y333500D02*
D03*
X134300Y435100D02*
D03*
X191450Y468317D02*
D03*
X274000Y358900D02*
D03*
X218120Y356360D02*
D03*
X216607Y391750D02*
D03*
X169860Y435270D02*
D03*
X224470Y435100D02*
D03*
X193990Y391920D02*
D03*
X229550Y418590D02*
D03*
X187640Y356360D02*
D03*
X385760Y402080D02*
D03*
Y424940D02*
D03*
X68260Y353820D02*
D03*
X169860Y341120D02*
D03*
X147000Y468120D02*
D03*
X75880Y485900D02*
D03*
X174445Y488360D02*
D03*
X219390Y465580D02*
D03*
X234630Y467950D02*
D03*
X230820Y343660D02*
D03*
X299400Y381760D02*
D03*
X172400Y468120D02*
D03*
X94930Y431290D02*
D03*
X102550Y438910D02*
D03*
X83500Y417320D02*
D03*
X200340Y440180D02*
D03*
X266380Y366520D02*
D03*
X385760Y152080D02*
D03*
Y174940D02*
D03*
D66*
X787300Y979550D02*
D03*
X432700D02*
D03*
X787300Y729550D02*
D03*
X432700D02*
D03*
X787300Y479550D02*
D03*
X432700D02*
D03*
X787300Y229550D02*
D03*
X432700D02*
D03*
X32700Y979550D02*
D03*
X387300D02*
D03*
X32700Y729550D02*
D03*
X387300D02*
D03*
X32700Y479550D02*
D03*
X387300D02*
D03*
X32700Y229550D02*
D03*
X387300D02*
D03*
M02*
