G04*
G04 #@! TF.GenerationSoftware,Altium Limited,Altium Designer,20.2.7 (254)*
G04*
G04 Layer_Color=128*
%FSLAX44Y44*%
%MOMM*%
G71*
G04*
G04 #@! TF.SameCoordinates,3F6D61D9-3C31-45EE-8EE8-91028D45584F*
G04*
G04*
G04 #@! TF.FilePolarity,Positive*
G04*
G01*
G75*
%ADD35C,0.0508*%
D35*
X23346Y121680D02*
X30346D01*
X26846Y118180D02*
Y125180D01*
X23346Y91680D02*
X30346D01*
X26846Y88180D02*
Y95180D01*
X5346Y106680D02*
X12346D01*
X8846Y103180D02*
Y110180D01*
X23566Y177800D02*
X30566D01*
X27066Y174300D02*
Y181300D01*
X5566Y162800D02*
X12566D01*
X9066Y159300D02*
Y166300D01*
X23566Y147800D02*
X30566D01*
X27066Y144300D02*
Y151300D01*
X137200Y101600D02*
X142200D01*
X139700Y99100D02*
Y104100D01*
X124500Y101600D02*
X129500D01*
X127000Y99100D02*
Y104100D01*
X111800Y101600D02*
X116800D01*
X114300Y99100D02*
Y104100D01*
X99100Y101600D02*
X104100D01*
X101600Y99100D02*
Y104100D01*
X86400Y101600D02*
X91400D01*
X88900Y99100D02*
Y104100D01*
X73700Y101600D02*
X78700D01*
X76200Y99100D02*
Y104100D01*
X61000Y101600D02*
X66000D01*
X63500Y99100D02*
Y104100D01*
X161600Y25400D02*
X168600D01*
X165100Y21900D02*
Y28900D01*
X136200Y25400D02*
X143200D01*
X139700Y21900D02*
Y28900D01*
X110800Y25400D02*
X117800D01*
X114300Y21900D02*
Y28900D01*
X85400Y25400D02*
X92400D01*
X88900Y21900D02*
Y28900D01*
X60000Y25400D02*
X67000D01*
X63500Y21900D02*
Y28900D01*
X34600Y25400D02*
X41600D01*
X38100Y21900D02*
Y28900D01*
X339400Y25400D02*
X346400D01*
X342900Y21900D02*
Y28900D01*
X314000Y25400D02*
X321000D01*
X317500Y21900D02*
Y28900D01*
X288600Y25400D02*
X295600D01*
X292100Y21900D02*
Y28900D01*
X263200Y25400D02*
X270200D01*
X266700Y21900D02*
Y28900D01*
X237800Y25400D02*
X244800D01*
X241300Y21900D02*
Y28900D01*
X212400Y25400D02*
X219400D01*
X215900Y21900D02*
Y28900D01*
X361800Y209550D02*
X374800D01*
X368300Y203050D02*
Y216050D01*
X244880Y96520D02*
X247880D01*
X246380Y95020D02*
Y98020D01*
X178840Y170180D02*
X181840D01*
X180340Y168680D02*
Y171680D01*
X62000Y147320D02*
X65000D01*
X63500Y145820D02*
Y148820D01*
X81050Y168910D02*
X84050D01*
X82550Y167410D02*
Y170410D01*
X73430Y161290D02*
X76430D01*
X74930Y159790D02*
Y162790D01*
X6200Y209550D02*
X19200D01*
X12700Y203050D02*
Y216050D01*
X150900Y198120D02*
X153900D01*
X152400Y196620D02*
Y199620D01*
X277900Y111760D02*
X280900D01*
X279400Y110260D02*
Y113260D01*
X209320Y73660D02*
X212320D01*
X210820Y72160D02*
Y75160D01*
X213130Y197950D02*
X216130D01*
X214630Y196450D02*
Y199450D01*
X197890Y195580D02*
X200890D01*
X199390Y194080D02*
Y197080D01*
X152945Y218360D02*
X155945D01*
X154445Y216860D02*
Y219860D01*
X54380Y215900D02*
X57380D01*
X55880Y214400D02*
Y217400D01*
X125500Y198120D02*
X128500D01*
X127000Y196620D02*
Y199620D01*
X148360Y71120D02*
X151360D01*
X149860Y69620D02*
Y72620D01*
X46760Y83820D02*
X49760D01*
X48260Y82320D02*
Y85320D01*
X364260Y154940D02*
X367260D01*
X365760Y153440D02*
Y156440D01*
X364260Y132080D02*
X367260D01*
X365760Y130580D02*
Y133580D01*
X166140Y86360D02*
X169140D01*
X167640Y84860D02*
Y87860D01*
X208050Y148590D02*
X211050D01*
X209550Y147090D02*
Y150090D01*
X172490Y121920D02*
X175490D01*
X173990Y120420D02*
Y123420D01*
X202970Y165100D02*
X205970D01*
X204470Y163600D02*
Y166600D01*
X148360Y165270D02*
X151360D01*
X149860Y163770D02*
Y166770D01*
X195107Y121750D02*
X198107D01*
X196607Y120250D02*
Y123250D01*
X196620Y86360D02*
X199620D01*
X198120Y84860D02*
Y87860D01*
X252500Y88900D02*
X255500D01*
X254000Y87400D02*
Y90400D01*
X169950Y198317D02*
X172950D01*
X171450Y196817D02*
Y199817D01*
X112800Y165100D02*
X115800D01*
X114300Y163600D02*
Y166600D01*
X199160Y63500D02*
X202160D01*
X200660Y62000D02*
Y65000D01*
X199160Y50800D02*
X202160D01*
X200660Y49300D02*
Y52300D01*
X318540Y101600D02*
X321540D01*
X320040Y100100D02*
Y103100D01*
X318540Y63500D02*
X321540D01*
X320040Y62000D02*
Y65000D01*
X318540Y76200D02*
X321540D01*
X320040Y74700D02*
Y77700D01*
X318540Y88900D02*
X321540D01*
X320040Y87400D02*
Y90400D01*
X112800Y198120D02*
X115800D01*
X114300Y196620D02*
Y199620D01*
X100100Y147320D02*
X103100D01*
X101600Y145820D02*
Y148820D01*
X100100Y196850D02*
X103100D01*
X101600Y195350D02*
Y198350D01*
X138200Y120650D02*
X141200D01*
X139700Y119150D02*
Y122150D01*
X150900Y50800D02*
X153900D01*
X152400Y49300D02*
Y52300D01*
M02*
