G04*
G04 #@! TF.GenerationSoftware,Altium Limited,Altium Designer,20.2.7 (254)*
G04*
G04 Layer_Color=2752767*
%FSLAX44Y44*%
%MOMM*%
G71*
G04*
G04 #@! TF.SameCoordinates,3F6D61D9-3C31-45EE-8EE8-91028D45584F*
G04*
G04*
G04 #@! TF.FilePolarity,Positive*
G04*
G01*
G75*
%ADD35C,0.0508*%
%ADD36C,0.0677*%
D35*
X24814Y119648D02*
Y123712D01*
X28878D01*
Y119648D01*
X24814D01*
Y89648D02*
Y93712D01*
X28878D01*
Y89648D01*
X24814D01*
X6814Y104648D02*
Y108712D01*
X10878D01*
Y104648D01*
X6814D01*
X25034Y175768D02*
Y179832D01*
X29098D01*
Y175768D01*
X25034D01*
X7034Y160768D02*
Y164832D01*
X11098D01*
Y160768D01*
X7034D01*
X25034Y145768D02*
Y149832D01*
X29098D01*
Y145768D01*
X25034D01*
X163068Y23368D02*
Y27432D01*
X167132D01*
Y23368D01*
X163068D01*
X137668D02*
Y27432D01*
X141732D01*
Y23368D01*
X137668D01*
X112268D02*
Y27432D01*
X116332D01*
Y23368D01*
X112268D01*
X86868D02*
Y27432D01*
X90932D01*
Y23368D01*
X86868D01*
X61468D02*
Y27432D01*
X65532D01*
Y23368D01*
X61468D01*
X36068D02*
Y27432D01*
X40132D01*
Y23368D01*
X36068D01*
X340868D02*
Y27432D01*
X344932D01*
Y23368D01*
X340868D01*
X315468D02*
Y27432D01*
X319532D01*
Y23368D01*
X315468D01*
X290068D02*
Y27432D01*
X294132D01*
Y23368D01*
X290068D01*
X264668D02*
Y27432D01*
X268732D01*
Y23368D01*
X264668D01*
X239268D02*
Y27432D01*
X243332D01*
Y23368D01*
X239268D01*
X213868D02*
Y27432D01*
X217932D01*
Y23368D01*
X213868D01*
X368300Y207518D02*
X366268Y211582D01*
X370332D01*
X368300Y207518D01*
X246380Y94488D02*
X247396Y95504D01*
X248412D01*
X247396Y96520D01*
X248412Y97536D01*
X247396D01*
X246380Y98552D01*
X245364Y97536D01*
X244348D01*
X245364Y96520D01*
X244348Y95504D01*
X245364D01*
X246380Y94488D01*
X180340Y168148D02*
X181356Y169164D01*
X182372D01*
X181356Y170180D01*
X182372Y171196D01*
X181356D01*
X180340Y172212D01*
X179324Y171196D01*
X178308D01*
X179324Y170180D01*
X178308Y169164D01*
X179324D01*
X180340Y168148D01*
X63500Y145288D02*
X64516Y146304D01*
X65532D01*
X64516Y147320D01*
X65532Y148336D01*
X64516D01*
X63500Y149352D01*
X62484Y148336D01*
X61468D01*
X62484Y147320D01*
X61468Y146304D01*
X62484D01*
X63500Y145288D01*
X82550Y166878D02*
X83566Y167894D01*
X84582D01*
X83566Y168910D01*
X84582Y169926D01*
X83566D01*
X82550Y170942D01*
X81534Y169926D01*
X80518D01*
X81534Y168910D01*
X80518Y167894D01*
X81534D01*
X82550Y166878D01*
X74930Y159258D02*
X75946Y160274D01*
X76962D01*
X75946Y161290D01*
X76962Y162306D01*
X75946D01*
X74930Y163322D01*
X73914Y162306D01*
X72898D01*
X73914Y161290D01*
X72898Y160274D01*
X73914D01*
X74930Y159258D01*
X12700Y207518D02*
X10668Y211582D01*
X14732D01*
X12700Y207518D01*
X152400Y196088D02*
X153416Y197104D01*
X154432D01*
X153416Y198120D01*
X154432Y199136D01*
X153416D01*
X152400Y200152D01*
X151384Y199136D01*
X150368D01*
X151384Y198120D01*
X150368Y197104D01*
X151384D01*
X152400Y196088D01*
X279400Y109728D02*
X280416Y110744D01*
X281432D01*
X280416Y111760D01*
X281432Y112776D01*
X280416D01*
X279400Y113792D01*
X278384Y112776D01*
X277368D01*
X278384Y111760D01*
X277368Y110744D01*
X278384D01*
X279400Y109728D01*
X210820Y71628D02*
X211836Y72644D01*
X212852D01*
X211836Y73660D01*
X212852Y74676D01*
X211836D01*
X210820Y75692D01*
X209804Y74676D01*
X208788D01*
X209804Y73660D01*
X208788Y72644D01*
X209804D01*
X210820Y71628D01*
X214630Y195918D02*
X215646Y196934D01*
X216662D01*
X215646Y197950D01*
X216662Y198966D01*
X215646D01*
X214630Y199982D01*
X213614Y198966D01*
X212598D01*
X213614Y197950D01*
X212598Y196934D01*
X213614D01*
X214630Y195918D01*
X199390Y193548D02*
X200406Y194564D01*
X201422D01*
X200406Y195580D01*
X201422Y196596D01*
X200406D01*
X199390Y197612D01*
X198374Y196596D01*
X197358D01*
X198374Y195580D01*
X197358Y194564D01*
X198374D01*
X199390Y193548D01*
X154445Y216328D02*
X155461Y217344D01*
X156477D01*
X155461Y218360D01*
X156477Y219376D01*
X155461D01*
X154445Y220392D01*
X153429Y219376D01*
X152413D01*
X153429Y218360D01*
X152413Y217344D01*
X153429D01*
X154445Y216328D01*
X55880Y213868D02*
X56896Y214884D01*
X57912D01*
X56896Y215900D01*
X57912Y216916D01*
X56896D01*
X55880Y217932D01*
X54864Y216916D01*
X53848D01*
X54864Y215900D01*
X53848Y214884D01*
X54864D01*
X55880Y213868D01*
X127000Y196088D02*
X128016Y197104D01*
X129032D01*
X128016Y198120D01*
X129032Y199136D01*
X128016D01*
X127000Y200152D01*
X125984Y199136D01*
X124968D01*
X125984Y198120D01*
X124968Y197104D01*
X125984D01*
X127000Y196088D01*
X149860Y69088D02*
X150876Y70104D01*
X151892D01*
X150876Y71120D01*
X151892Y72136D01*
X150876D01*
X149860Y73152D01*
X148844Y72136D01*
X147828D01*
X148844Y71120D01*
X147828Y70104D01*
X148844D01*
X149860Y69088D01*
X48260Y81788D02*
X49276Y82804D01*
X50292D01*
X49276Y83820D01*
X50292Y84836D01*
X49276D01*
X48260Y85852D01*
X47244Y84836D01*
X46228D01*
X47244Y83820D01*
X46228Y82804D01*
X47244D01*
X48260Y81788D01*
X365760Y152908D02*
X366776Y153924D01*
X367792D01*
X366776Y154940D01*
X367792Y155956D01*
X366776D01*
X365760Y156972D01*
X364744Y155956D01*
X363728D01*
X364744Y154940D01*
X363728Y153924D01*
X364744D01*
X365760Y152908D01*
Y130048D02*
X366776Y131064D01*
X367792D01*
X366776Y132080D01*
X367792Y133096D01*
X366776D01*
X365760Y134112D01*
X364744Y133096D01*
X363728D01*
X364744Y132080D01*
X363728Y131064D01*
X364744D01*
X365760Y130048D01*
X167640Y84328D02*
X168656Y85344D01*
X169672D01*
X168656Y86360D01*
X169672Y87376D01*
X168656D01*
X167640Y88392D01*
X166624Y87376D01*
X165608D01*
X166624Y86360D01*
X165608Y85344D01*
X166624D01*
X167640Y84328D01*
X209550Y146558D02*
X210566Y147574D01*
X211582D01*
X210566Y148590D01*
X211582Y149606D01*
X210566D01*
X209550Y150622D01*
X208534Y149606D01*
X207518D01*
X208534Y148590D01*
X207518Y147574D01*
X208534D01*
X209550Y146558D01*
X173990Y119888D02*
X175006Y120904D01*
X176022D01*
X175006Y121920D01*
X176022Y122936D01*
X175006D01*
X173990Y123952D01*
X172974Y122936D01*
X171958D01*
X172974Y121920D01*
X171958Y120904D01*
X172974D01*
X173990Y119888D01*
X204470Y163068D02*
X205486Y164084D01*
X206502D01*
X205486Y165100D01*
X206502Y166116D01*
X205486D01*
X204470Y167132D01*
X203454Y166116D01*
X202438D01*
X203454Y165100D01*
X202438Y164084D01*
X203454D01*
X204470Y163068D01*
X149860Y163238D02*
X150876Y164254D01*
X151892D01*
X150876Y165270D01*
X151892Y166286D01*
X150876D01*
X149860Y167302D01*
X148844Y166286D01*
X147828D01*
X148844Y165270D01*
X147828Y164254D01*
X148844D01*
X149860Y163238D01*
X196607Y119718D02*
X197623Y120734D01*
X198639D01*
X197623Y121750D01*
X198639Y122766D01*
X197623D01*
X196607Y123782D01*
X195591Y122766D01*
X194575D01*
X195591Y121750D01*
X194575Y120734D01*
X195591D01*
X196607Y119718D01*
X198120Y84328D02*
X199136Y85344D01*
X200152D01*
X199136Y86360D01*
X200152Y87376D01*
X199136D01*
X198120Y88392D01*
X197104Y87376D01*
X196088D01*
X197104Y86360D01*
X196088Y85344D01*
X197104D01*
X198120Y84328D01*
X254000Y86868D02*
X255016Y87884D01*
X256032D01*
X255016Y88900D01*
X256032Y89916D01*
X255016D01*
X254000Y90932D01*
X252984Y89916D01*
X251968D01*
X252984Y88900D01*
X251968Y87884D01*
X252984D01*
X254000Y86868D01*
X171450Y196285D02*
X172466Y197301D01*
X173482D01*
X172466Y198317D01*
X173482Y199333D01*
X172466D01*
X171450Y200349D01*
X170434Y199333D01*
X169418D01*
X170434Y198317D01*
X169418Y197301D01*
X170434D01*
X171450Y196285D01*
X114300Y163068D02*
X115316Y164084D01*
X116332D01*
X115316Y165100D01*
X116332Y166116D01*
X115316D01*
X114300Y167132D01*
X113284Y166116D01*
X112268D01*
X113284Y165100D01*
X112268Y164084D01*
X113284D01*
X114300Y163068D01*
X200660Y61468D02*
X201676Y62484D01*
X202692D01*
X201676Y63500D01*
X202692Y64516D01*
X201676D01*
X200660Y65532D01*
X199644Y64516D01*
X198628D01*
X199644Y63500D01*
X198628Y62484D01*
X199644D01*
X200660Y61468D01*
Y48768D02*
X201676Y49784D01*
X202692D01*
X201676Y50800D01*
X202692Y51816D01*
X201676D01*
X200660Y52832D01*
X199644Y51816D01*
X198628D01*
X199644Y50800D01*
X198628Y49784D01*
X199644D01*
X200660Y48768D01*
X320040Y99568D02*
X321056Y100584D01*
X322072D01*
X321056Y101600D01*
X322072Y102616D01*
X321056D01*
X320040Y103632D01*
X319024Y102616D01*
X318008D01*
X319024Y101600D01*
X318008Y100584D01*
X319024D01*
X320040Y99568D01*
Y61468D02*
X321056Y62484D01*
X322072D01*
X321056Y63500D01*
X322072Y64516D01*
X321056D01*
X320040Y65532D01*
X319024Y64516D01*
X318008D01*
X319024Y63500D01*
X318008Y62484D01*
X319024D01*
X320040Y61468D01*
Y74168D02*
X321056Y75184D01*
X322072D01*
X321056Y76200D01*
X322072Y77216D01*
X321056D01*
X320040Y78232D01*
X319024Y77216D01*
X318008D01*
X319024Y76200D01*
X318008Y75184D01*
X319024D01*
X320040Y74168D01*
Y86868D02*
X321056Y87884D01*
X322072D01*
X321056Y88900D01*
X322072Y89916D01*
X321056D01*
X320040Y90932D01*
X319024Y89916D01*
X318008D01*
X319024Y88900D01*
X318008Y87884D01*
X319024D01*
X320040Y86868D01*
X114300Y196088D02*
X115316Y197104D01*
X116332D01*
X115316Y198120D01*
X116332Y199136D01*
X115316D01*
X114300Y200152D01*
X113284Y199136D01*
X112268D01*
X113284Y198120D01*
X112268Y197104D01*
X113284D01*
X114300Y196088D01*
X101600Y145288D02*
X102616Y146304D01*
X103632D01*
X102616Y147320D01*
X103632Y148336D01*
X102616D01*
X101600Y149352D01*
X100584Y148336D01*
X99568D01*
X100584Y147320D01*
X99568Y146304D01*
X100584D01*
X101600Y145288D01*
Y194818D02*
X102616Y195834D01*
X103632D01*
X102616Y196850D01*
X103632Y197866D01*
X102616D01*
X101600Y198882D01*
X100584Y197866D01*
X99568D01*
X100584Y196850D01*
X99568Y195834D01*
X100584D01*
X101600Y194818D01*
X139700Y118618D02*
X140716Y119634D01*
X141732D01*
X140716Y120650D01*
X141732Y121666D01*
X140716D01*
X139700Y122682D01*
X138684Y121666D01*
X137668D01*
X138684Y120650D01*
X137668Y119634D01*
X138684D01*
X139700Y118618D01*
X152400Y48768D02*
X153416Y49784D01*
X154432D01*
X153416Y50800D01*
X154432Y51816D01*
X153416D01*
X152400Y52832D01*
X151384Y51816D01*
X150368D01*
X151384Y50800D01*
X150368Y49784D01*
X151384D01*
X152400Y48768D01*
D36*
X141732Y101600D02*
G03*
X141732Y101600I-2032J0D01*
G01*
X129032D02*
G03*
X129032Y101600I-2032J0D01*
G01*
X116332D02*
G03*
X116332Y101600I-2032J0D01*
G01*
X103632D02*
G03*
X103632Y101600I-2032J0D01*
G01*
X90932D02*
G03*
X90932Y101600I-2032J0D01*
G01*
X78232D02*
G03*
X78232Y101600I-2032J0D01*
G01*
X65532D02*
G03*
X65532Y101600I-2032J0D01*
G01*
M02*
