G04*
G04 #@! TF.GenerationSoftware,Altium Limited,Altium Designer,20.2.7 (254)*
G04*
G04 Layer_Physical_Order=1*
G04 Layer_Color=255*
%FSLAX44Y44*%
%MOMM*%
G71*
G04*
G04 #@! TF.SameCoordinates,3F6D61D9-3C31-45EE-8EE8-91028D45584F*
G04*
G04*
G04 #@! TF.FilePolarity,Positive*
G04*
G01*
G75*
G04:AMPARAMS|DCode=15|XSize=2mm|YSize=1.524mm|CornerRadius=0mm|HoleSize=0mm|Usage=FLASHONLY|Rotation=160.000|XOffset=0mm|YOffset=0mm|HoleType=Round|Shape=Rectangle|*
%AMROTATEDRECTD15*
4,1,4,1.2003,0.3740,0.6791,-1.0581,-1.2003,-0.3740,-0.6791,1.0581,1.2003,0.3740,0.0*
%
%ADD15ROTATEDRECTD15*%

%ADD16R,0.5500X0.4500*%
%ADD17R,0.6000X0.9500*%
%ADD18R,1.2000X1.0000*%
%ADD19R,6.0000X3.0000*%
%ADD20R,0.9500X0.6000*%
%ADD21O,1.8000X0.6000*%
%ADD22R,0.4500X0.5500*%
%ADD23R,1.5240X0.5500*%
%ADD24R,0.9000X1.3000*%
%ADD25R,1.0000X1.7500*%
%ADD26O,0.6000X1.4500*%
%ADD27C,0.4000*%
%ADD28C,0.8000*%
%ADD29C,1.5000*%
%ADD30C,0.8000*%
%ADD31C,1.4000*%
%ADD32C,0.6000*%
D15*
X349250Y184150D02*
D03*
X283472Y208091D02*
D03*
D16*
X76200Y121840D02*
D03*
Y111840D02*
D03*
X11430Y68580D02*
D03*
Y58580D02*
D03*
X162560Y208360D02*
D03*
Y218360D02*
D03*
D17*
X57150Y44450D02*
D03*
X38150D02*
D03*
Y71450D02*
D03*
X47650D02*
D03*
X57150D02*
D03*
D18*
X353060Y132080D02*
D03*
Y154940D02*
D03*
D19*
X303060Y143510D02*
D03*
D20*
X191300Y70460D02*
D03*
Y51460D02*
D03*
X164300D02*
D03*
Y60960D02*
D03*
Y70460D02*
D03*
D21*
X228160Y97790D02*
D03*
Y85090D02*
D03*
Y72390D02*
D03*
Y59690D02*
D03*
X300160Y97790D02*
D03*
Y85090D02*
D03*
Y72390D02*
D03*
Y59690D02*
D03*
D22*
X269160Y43180D02*
D03*
X259160D02*
D03*
D23*
X325120Y88900D02*
D03*
Y76200D02*
D03*
Y63500D02*
D03*
Y50800D02*
D03*
Y101600D02*
D03*
D24*
X125370Y215900D02*
D03*
X143870D02*
D03*
D25*
X71400D02*
D03*
X106400D02*
D03*
D26*
X260350Y186000D02*
D03*
X247650D02*
D03*
X234950D02*
D03*
X222250D02*
D03*
X209550D02*
D03*
X196850D02*
D03*
X184150D02*
D03*
X171450D02*
D03*
X260350Y131500D02*
D03*
X247650D02*
D03*
X234950D02*
D03*
X222250D02*
D03*
X209550D02*
D03*
X196850D02*
D03*
X184150D02*
D03*
X171450D02*
D03*
X152400Y186000D02*
D03*
X139700D02*
D03*
X127000D02*
D03*
X114300D02*
D03*
X101600D02*
D03*
X88900D02*
D03*
X76200D02*
D03*
X63500D02*
D03*
X152400Y131500D02*
D03*
X139700D02*
D03*
X127000D02*
D03*
X114300D02*
D03*
X101600D02*
D03*
X88900D02*
D03*
X76200D02*
D03*
X63500D02*
D03*
D27*
X289560Y168910D02*
X302260Y181610D01*
X346710D02*
X349250Y184150D01*
X302260Y181610D02*
X346710D01*
X247650Y168910D02*
X289560D01*
X183040Y213360D02*
X272740D01*
X283148Y202951D01*
X11430Y77470D02*
X25640Y91680D01*
X11430Y68580D02*
Y77470D01*
X25640Y91680D02*
X26846D01*
X36746Y157480D02*
X66040D01*
X76200Y147320D01*
X27066Y147800D02*
X36746Y157480D01*
X49926Y200660D02*
X97114D01*
X27066Y177800D02*
X49926Y200660D01*
X26846Y121680D02*
X27940Y122774D01*
X27066Y147800D02*
X27940Y146926D01*
Y122774D02*
Y146926D01*
X76200Y131500D02*
Y147320D01*
Y121840D02*
Y131500D01*
X11430Y58580D02*
X11930D01*
X19050Y51460D01*
Y50600D02*
Y51460D01*
X240413Y72773D02*
X246380Y78740D01*
Y96520D01*
X184150Y173990D02*
Y186000D01*
X180340Y170180D02*
Y170180D01*
X184150Y173990D01*
X182547Y157310D02*
X236050D01*
X162560Y177297D02*
X182547Y157310D01*
X162560Y177297D02*
Y208360D01*
X63500Y131500D02*
Y147320D01*
X76200Y175260D02*
Y186000D01*
Y175260D02*
X82550Y168910D01*
X88900Y182291D02*
X97201Y173990D01*
X88900Y182291D02*
Y186000D01*
X110490Y161290D02*
X114300Y165100D01*
X63500Y173396D02*
X75606Y161290D01*
X110490D01*
X63500Y173396D02*
Y186000D01*
X152400D02*
Y198120D01*
X271590Y119570D02*
X279400Y111760D01*
X224403Y119570D02*
X271590D01*
X210820Y73660D02*
Y73750D01*
X196850Y186000D02*
Y190791D01*
X198912Y192853D01*
Y195102D01*
X199390Y195580D01*
X209550Y186000D02*
Y190791D01*
X214152Y195393D01*
Y197472D01*
X214630Y197950D01*
X302260Y142240D02*
Y144780D01*
X146330Y218360D02*
X162560D01*
X55880Y215900D02*
X71400D01*
X127000Y198120D02*
Y214270D01*
X126617Y191174D02*
X127000Y190791D01*
X126617Y197737D02*
X127000Y198120D01*
X126617Y191174D02*
Y197737D01*
X125370Y215900D02*
X127000Y214270D01*
X210820Y88043D02*
Y88043D01*
X220184Y97407D02*
X227777D01*
X210820Y88043D02*
X220184Y97407D01*
X201347Y78570D02*
X210820Y88043D01*
X149860Y71120D02*
Y96520D01*
X48260Y72060D02*
Y83820D01*
X47650Y71450D02*
X48260Y72060D01*
X353060Y132080D02*
X365760D01*
X353060Y154940D02*
X365760D01*
X139700Y101600D02*
X140097Y101997D01*
X149860Y96520D02*
X160020Y106680D01*
X157480Y92907D02*
X159823Y95250D01*
X178553D01*
X157480Y80913D02*
Y92907D01*
X159823Y78570D02*
X201347D01*
X157480Y80913D02*
X159823Y78570D01*
X145177Y101997D02*
X161375Y118195D01*
X140097Y101997D02*
X145177D01*
X161375Y118195D02*
Y166285D01*
X160020Y106680D02*
X173990D01*
X198120Y87989D02*
X216621Y106490D01*
X198120Y86360D02*
Y87989D01*
X216621Y106490D02*
X254190D01*
X222250Y121723D02*
X224403Y119570D01*
X254190Y106490D02*
X288290Y72390D01*
X167640Y86360D02*
X182880D01*
X127000Y82550D02*
X148590Y60960D01*
X127000Y82550D02*
Y101600D01*
X148590Y60960D02*
X164300D01*
X114300Y76200D02*
Y101600D01*
X63500Y83820D02*
Y101600D01*
X69850Y58900D02*
Y77470D01*
X63500Y83820D02*
X69850Y77470D01*
X209550Y148590D02*
X221569D01*
X233409Y136750D02*
X234950Y135209D01*
X221569Y148590D02*
X233409Y136750D01*
X233409D01*
X234950Y131500D02*
Y135209D01*
X236050Y157310D02*
X247650Y168910D01*
X173990Y121920D02*
X174782Y122712D01*
Y123377D01*
X171450Y126709D02*
Y131500D01*
Y126709D02*
X174782Y123377D01*
X222250Y174679D02*
Y186000D01*
X212671Y165100D02*
X222250Y174679D01*
X204470Y165100D02*
X212671D01*
X153670Y173990D02*
X161375Y166285D01*
X97201Y173990D02*
X153670D01*
X115300Y138160D02*
X142240Y165100D01*
X149690D01*
X149860Y165270D01*
X196728Y131378D02*
X196850Y131500D01*
X196728Y121872D02*
Y131378D01*
X196607Y121750D02*
X196728Y121872D01*
X183767Y116457D02*
Y131117D01*
X173990Y106680D02*
X183767Y116457D01*
X178553Y95250D02*
X195063Y111760D01*
X182880Y86360D02*
X209550Y113030D01*
X195063Y111760D02*
X198120D01*
X227507Y84437D02*
X228160Y85090D01*
X221507Y84437D02*
X227507D01*
X210820Y73750D02*
X221507Y84437D01*
X228160Y72390D02*
X228543Y72773D01*
X240413D01*
X257810Y113030D02*
X285750Y85090D01*
X209550Y113030D02*
X257810D01*
X222250Y121723D02*
Y131500D01*
X209167Y122807D02*
Y131117D01*
X198120Y111760D02*
X209167Y122807D01*
X227777Y97407D02*
X228160Y97790D01*
X209167Y131117D02*
X209550Y131500D01*
X242415Y51435D02*
X250670Y43180D01*
X234160Y59690D02*
X242415Y51435D01*
X254000Y63020D02*
Y88900D01*
X242415Y51435D02*
X254000Y63020D01*
X288290Y72390D02*
X300160D01*
X285750Y85090D02*
X300160D01*
X301336Y97790D02*
X306701D01*
X300160D02*
X301336D01*
X302260Y98714D01*
X11903Y68580D02*
X12153Y68830D01*
X11430Y68580D02*
X11903D01*
X106400Y215900D02*
X125370D01*
X143870D02*
X146330Y218360D01*
X247650Y168910D02*
Y186000D01*
X171928Y202248D02*
X183040Y213360D01*
X171928Y198795D02*
Y202248D01*
X171450Y198317D02*
X171928Y198795D01*
X115300Y137291D02*
Y138160D01*
X114300Y136291D02*
X115300Y137291D01*
X114300Y131500D02*
Y136291D01*
X269160Y43180D02*
X303880D01*
X311500Y50800D01*
X250670Y43180D02*
X259160D01*
X228160Y59690D02*
X234160D01*
X183767Y131117D02*
X184150Y131500D01*
X191960Y71120D02*
X199580Y63500D01*
X191300Y70460D02*
X191960Y71120D01*
X199580Y63500D02*
X200660D01*
X199772Y51130D02*
X200660Y50242D01*
X191300Y51460D02*
X191630Y51130D01*
X199772D01*
X200660Y50242D02*
Y50800D01*
X174600Y51460D02*
X188130Y37930D01*
X228770D01*
X241300Y25400D01*
X300160Y59690D02*
X305619D01*
X310511Y101600D02*
X320040D01*
X306701Y97790D02*
X310511Y101600D01*
X311500Y50800D02*
X325120D01*
X306543Y55757D02*
X311500Y50800D01*
X306543Y55757D02*
Y58766D01*
X305619Y59690D02*
X306543Y58766D01*
X164300Y51460D02*
X174600D01*
X163970Y51130D02*
X164300Y51460D01*
X152730Y51130D02*
X163970D01*
X152400Y50800D02*
X152730Y51130D01*
X127000Y101600D02*
Y107950D01*
X93980Y111760D02*
X123190D01*
X88900Y116840D02*
X93980Y111760D01*
X88900Y116840D02*
Y131500D01*
X123190Y111760D02*
X127000Y107950D01*
X114300Y186000D02*
Y198120D01*
X171450Y186000D02*
Y198317D01*
X101600Y131500D02*
Y147320D01*
X97114Y200660D02*
X100924Y196850D01*
X101600D01*
X76200Y101600D02*
Y111840D01*
X10930Y58580D02*
X11430D01*
X10680Y58330D02*
X10930Y58580D01*
X101600Y186000D02*
Y196850D01*
X139700Y120650D02*
Y131500D01*
Y50800D02*
X152400D01*
X114300Y76200D02*
X139700Y50800D01*
Y25400D02*
Y38100D01*
X101600Y76200D02*
X139700Y38100D01*
X101600Y76200D02*
Y101600D01*
X266700Y25400D02*
X267100Y25800D01*
X44450Y6350D02*
X63500Y25400D01*
X31750Y6350D02*
X44450D01*
X19050Y19050D02*
X31750Y6350D01*
X19050Y19050D02*
Y50600D01*
X38150Y69700D01*
Y71450D01*
X114300Y25400D02*
Y44450D01*
X69850Y58900D02*
X99850D01*
X114300Y44450D01*
X57150D02*
Y46200D01*
X69850Y58900D01*
X38150Y71450D02*
X39150Y72450D01*
X38125Y44425D02*
X38150Y44450D01*
X38125Y25425D02*
Y44425D01*
X38100Y25400D02*
X38125Y25425D01*
X304800Y12700D02*
X317500Y25400D01*
X152400Y12700D02*
X304800D01*
X139700Y25400D02*
X152400Y12700D01*
X165100Y25400D02*
X215900D01*
D28*
X302260Y142240D02*
X311794D01*
X265036D02*
X302260D01*
Y98714D02*
Y142240D01*
X260350Y131500D02*
Y137554D01*
X265036Y142240D01*
X247650Y131500D02*
X260350D01*
X247650Y186000D02*
X260350D01*
X234950D02*
X247650D01*
X234950Y131500D02*
X247650D01*
X139700D02*
X152400D01*
X139700Y186000D02*
X152400D01*
X127000Y131500D02*
X139700D01*
D29*
X26846Y121680D02*
D03*
Y91680D02*
D03*
X8846Y106680D02*
D03*
X27066Y177800D02*
D03*
X9066Y162800D02*
D03*
X27066Y147800D02*
D03*
X165100Y25400D02*
D03*
X139700D02*
D03*
X114300D02*
D03*
X88900D02*
D03*
X63500D02*
D03*
X38100D02*
D03*
X342900D02*
D03*
X317500D02*
D03*
X292100D02*
D03*
X266700D02*
D03*
X241300D02*
D03*
X215900D02*
D03*
D30*
X139700Y101600D02*
D03*
X127000D02*
D03*
X114300D02*
D03*
X101600D02*
D03*
X88900D02*
D03*
X76200D02*
D03*
X63500D02*
D03*
D31*
X368300Y209550D02*
D03*
X12700D02*
D03*
D32*
X246380Y96520D02*
D03*
X180340Y170180D02*
D03*
X63500Y147320D02*
D03*
X82550Y168910D02*
D03*
X74930Y161290D02*
D03*
X152400Y198120D02*
D03*
X279400Y111760D02*
D03*
X210820Y73660D02*
D03*
X214630Y197950D02*
D03*
X199390Y195580D02*
D03*
X154445Y218360D02*
D03*
X55880Y215900D02*
D03*
X127000Y198120D02*
D03*
X149860Y71120D02*
D03*
X48260Y83820D02*
D03*
X365760Y154940D02*
D03*
Y132080D02*
D03*
X167640Y86360D02*
D03*
X209550Y148590D02*
D03*
X173990Y121920D02*
D03*
X204470Y165100D02*
D03*
X149860Y165270D02*
D03*
X196607Y121750D02*
D03*
X198120Y86360D02*
D03*
X254000Y88900D02*
D03*
X171450Y198317D02*
D03*
X114300Y165100D02*
D03*
X200660Y63500D02*
D03*
Y50800D02*
D03*
X320040Y101600D02*
D03*
Y63500D02*
D03*
Y76200D02*
D03*
Y88900D02*
D03*
X114300Y198120D02*
D03*
X101600Y147320D02*
D03*
Y196850D02*
D03*
X139700Y120650D02*
D03*
X152400Y50800D02*
D03*
M02*
