G04*
G04 #@! TF.GenerationSoftware,Altium Limited,Altium Designer,20.2.7 (254)*
G04*
G04 Layer_Color=65535*
%FSLAX44Y44*%
%MOMM*%
G71*
G04*
G04 #@! TF.SameCoordinates,3F6D61D9-3C31-45EE-8EE8-91028D45584F*
G04*
G04*
G04 #@! TF.FilePolarity,Positive*
G04*
G01*
G75*
%ADD10C,0.2500*%
%ADD11C,0.6000*%
%ADD12C,0.2000*%
%ADD13C,0.1500*%
%ADD14R,0.5500X1.5500*%
D10*
X66900Y71450D02*
G03*
X66900Y71450I-1250J0D01*
G01*
X165550Y78960D02*
G03*
X165550Y78960I-1250J0D01*
G01*
X301410Y51190D02*
G03*
X301410Y51190I-1250J0D01*
G01*
X164200Y131500D02*
G03*
X164200Y131500I-1250J0D01*
G01*
X56250D02*
G03*
X56250Y131500I-1250J0D01*
G01*
D11*
X280160Y61740D02*
G03*
X280160Y61740I-3000J0D01*
G01*
X178900Y152750D02*
G03*
X178900Y152750I-3000J0D01*
G01*
X70950D02*
G03*
X70950Y152750I-3000J0D01*
G01*
D12*
X33150Y52950D02*
X62150D01*
X33150Y62950D02*
X62150D01*
X33150Y52950D02*
Y62950D01*
X62150Y52950D02*
Y62950D01*
X182800Y46460D02*
Y75460D01*
X172800Y46460D02*
Y75460D01*
Y46460D02*
X182800D01*
X172800Y75460D02*
X182800D01*
X241160Y105740D02*
X287160D01*
X241160Y51740D02*
X287160D01*
X241160D02*
Y105740D01*
X287160Y51740D02*
Y105740D01*
X325120Y38100D02*
X370120D01*
Y114300D01*
X325120D02*
X370120D01*
X292978Y196315D02*
X333554Y181546D01*
X292978Y196315D02*
X298190Y210636D01*
X338766Y195867D01*
X333554Y181546D02*
X338766Y195867D01*
X133620Y221400D02*
X135620D01*
X133620Y210400D02*
X135620D01*
X97400Y208150D02*
Y223650D01*
X80400D02*
X97400D01*
X80400Y208150D02*
X97400D01*
X265900Y142750D02*
Y174750D01*
X165900Y142750D02*
Y174750D01*
X265900D01*
X165900Y142750D02*
X265900D01*
X157950D02*
Y174750D01*
X57950Y142750D02*
Y174750D01*
X157950D01*
X57950Y142750D02*
X157950D01*
D13*
X370423Y135225D02*
X370399Y139223D01*
X371399Y139229D01*
X375421Y135254D01*
X376421Y135260D01*
X376397Y139259D01*
X375362Y145251D02*
X371363Y145227D01*
X370369Y144221D01*
X370381Y142222D01*
X371387Y141228D01*
X375385Y141252D01*
X376379Y142258D01*
X376367Y144257D01*
X374374Y143246D02*
X376361Y145257D01*
X376367Y144257D02*
X375362Y145251D01*
X376349Y147256D02*
X376337Y149256D01*
X376343Y148256D01*
X370345Y148220D01*
X371351Y147226D01*
X60583Y89359D02*
X64581Y83361D01*
Y89359D02*
X60583Y83361D01*
X70579Y88359D02*
X69580Y89359D01*
X67580D01*
X66581Y88359D01*
Y87360D01*
X67580Y86360D01*
X69580D01*
X70579Y85360D01*
Y84361D01*
X69580Y83361D01*
X67580D01*
X66581Y84361D01*
X72579Y88359D02*
X73578Y89359D01*
X75578D01*
X76577Y88359D01*
Y87360D01*
X75578Y86360D01*
X76577Y85360D01*
Y84361D01*
X75578Y83361D01*
X73578D01*
X72579Y84361D01*
Y85360D01*
X73578Y86360D01*
X72579Y87360D01*
Y88359D01*
X73578Y86360D02*
X75578D01*
X355223Y33479D02*
X359221Y27481D01*
Y33479D02*
X355223Y27481D01*
X365219Y32479D02*
X364220Y33479D01*
X362220D01*
X361221Y32479D01*
Y31480D01*
X362220Y30480D01*
X364220D01*
X365219Y29480D01*
Y28481D01*
X364220Y27481D01*
X362220D01*
X361221Y28481D01*
X367219Y33479D02*
X371217D01*
Y32479D01*
X367219Y28481D01*
Y27481D01*
X78363Y203659D02*
Y199660D01*
X80362Y197661D01*
X82361Y199660D01*
Y203659D01*
X84361D02*
Y197661D01*
X87360D01*
X88359Y198661D01*
Y202659D01*
X87360Y203659D01*
X84361D01*
X94357Y197661D02*
X90359D01*
X94357Y201660D01*
Y202659D01*
X93358Y203659D01*
X91358D01*
X90359Y202659D01*
X320676Y180460D02*
X320079Y181741D01*
X318200Y182425D01*
X316918Y181827D01*
X316576Y180888D01*
X317174Y179607D01*
X319053Y178923D01*
X319650Y177642D01*
X319308Y176702D01*
X318027Y176105D01*
X316148Y176789D01*
X315551Y178070D01*
X322897Y180715D02*
X320845Y175079D01*
X323408Y176274D01*
X324603Y173711D01*
X326654Y179348D01*
X328191Y177724D02*
X329472Y178322D01*
X331351Y177638D01*
X331949Y176357D01*
X331607Y175417D01*
X330325Y174820D01*
X329386Y175162D01*
X330325Y174820D01*
X330923Y173539D01*
X330581Y172599D01*
X329300Y172002D01*
X327421Y172686D01*
X326823Y173967D01*
X175761Y206380D02*
X169763Y206345D01*
X169745Y209343D01*
X170739Y210349D01*
X172738Y210361D01*
X173743Y209367D01*
X173761Y206368D01*
X173749Y208368D02*
X175737Y210379D01*
X170727Y212348D02*
X169721Y213342D01*
X169709Y215341D01*
X170703Y216347D01*
X171702Y216353D01*
X172708Y215359D01*
X172714Y214360D01*
X172708Y215359D01*
X173702Y216365D01*
X174701Y216371D01*
X175707Y215377D01*
X175719Y213378D01*
X174725Y212372D01*
X175689Y218376D02*
X175677Y220375D01*
X175683Y219376D01*
X169685Y219340D01*
X170691Y218346D01*
X238383Y40181D02*
Y46179D01*
X241382D01*
X242381Y45179D01*
Y43180D01*
X241382Y42180D01*
X238383D01*
X240382D02*
X242381Y40181D01*
X244381Y45179D02*
X245380Y46179D01*
X247380D01*
X248379Y45179D01*
Y44180D01*
X247380Y43180D01*
X246380D01*
X247380D01*
X248379Y42180D01*
Y41181D01*
X247380Y40181D01*
X245380D01*
X244381Y41181D01*
X250379Y45179D02*
X251378Y46179D01*
X253378D01*
X254377Y45179D01*
Y41181D01*
X253378Y40181D01*
X251378D01*
X250379Y41181D01*
Y45179D01*
X24427Y55444D02*
X18430Y55565D01*
X18491Y58563D01*
X19510Y59542D01*
X21509Y59502D01*
X22489Y58482D01*
X22428Y55484D01*
X22468Y57483D02*
X24508Y59442D01*
X24629Y65438D02*
X24548Y61441D01*
X20631Y65519D01*
X19631Y65539D01*
X18612Y64560D01*
X18571Y62561D01*
X19551Y61541D01*
X18672Y67558D02*
X18753Y71556D01*
X19753Y71536D01*
X23670Y67457D01*
X24669Y67437D01*
X83443Y113841D02*
Y119839D01*
X86442D01*
X87441Y118839D01*
Y116840D01*
X86442Y115840D01*
X83443D01*
X85442D02*
X87441Y113841D01*
X93439D02*
X89441D01*
X93439Y117840D01*
Y118839D01*
X92440Y119839D01*
X90440D01*
X89441Y118839D01*
X99437Y119839D02*
X97438Y118839D01*
X95439Y116840D01*
Y114841D01*
X96438Y113841D01*
X98438D01*
X99437Y114841D01*
Y115840D01*
X98438Y116840D01*
X95439D01*
X50348Y108840D02*
X56346Y108845D01*
X56343Y111844D01*
X55343Y112843D01*
X51344Y112840D01*
X50345Y111839D01*
X50348Y108840D01*
X50343Y114838D02*
X56341Y114843D01*
X56338Y117842D01*
X55338Y118841D01*
X51339Y118838D01*
X50340Y117837D01*
X50343Y114838D01*
X55336Y120840D02*
X56335Y121841D01*
X56333Y123840D01*
X55333Y124839D01*
X51334Y124836D01*
X50335Y123835D01*
X50337Y121836D01*
X51337Y120837D01*
X52337Y120838D01*
X53336Y121838D01*
X53333Y124837D01*
X159600Y108828D02*
X165598Y108857D01*
X165583Y111856D01*
X164579Y112851D01*
X160580Y112832D01*
X159585Y111827D01*
X159600Y108828D01*
X159571Y114826D02*
X165569Y114855D01*
X165554Y117854D01*
X164550Y118849D01*
X160551Y118830D01*
X159556Y117825D01*
X159571Y114826D01*
X160541Y120829D02*
X159537Y121824D01*
X159527Y123823D01*
X160522Y124828D01*
X161521Y124832D01*
X162526Y123838D01*
X163521Y124842D01*
X164520Y124847D01*
X165525Y123852D01*
X165535Y121853D01*
X164540Y120848D01*
X163540Y120843D01*
X162536Y121838D01*
X161541Y120834D01*
X160541Y120829D01*
X162536Y121838D02*
X162526Y123838D01*
X240923Y117299D02*
Y111301D01*
X243922D01*
X244921Y112301D01*
Y116299D01*
X243922Y117299D01*
X240923D01*
X246921D02*
Y111301D01*
X249920D01*
X250919Y112301D01*
Y116299D01*
X249920Y117299D01*
X246921D01*
X252919D02*
X256917D01*
Y116299D01*
X252919Y112301D01*
Y111301D01*
X68203Y58879D02*
Y52881D01*
X71202D01*
X72201Y53881D01*
Y57879D01*
X71202Y58879D01*
X68203D01*
X74201D02*
Y52881D01*
X77200D01*
X78199Y53881D01*
Y57879D01*
X77200Y58879D01*
X74201D01*
X84197D02*
X82198Y57879D01*
X80199Y55880D01*
Y53881D01*
X81198Y52881D01*
X83198D01*
X84197Y53881D01*
Y54880D01*
X83198Y55880D01*
X80199D01*
X172343Y41099D02*
Y35101D01*
X175342D01*
X176341Y36101D01*
Y40099D01*
X175342Y41099D01*
X172343D01*
X178341D02*
Y35101D01*
X181340D01*
X182339Y36101D01*
Y40099D01*
X181340Y41099D01*
X178341D01*
X188337D02*
X184339D01*
Y38100D01*
X186338Y39100D01*
X187338D01*
X188337Y38100D01*
Y36101D01*
X187338Y35101D01*
X185338D01*
X184339Y36101D01*
X136160Y205199D02*
X135161Y206199D01*
X133161D01*
X132162Y205199D01*
Y201201D01*
X133161Y200201D01*
X135161D01*
X136160Y201201D01*
X138160Y206199D02*
X142158D01*
Y205199D01*
X138160Y201201D01*
Y200201D01*
D14*
X94650Y215900D02*
D03*
M02*
