G04*
G04 #@! TF.GenerationSoftware,Altium Limited,Altium Designer,20.2.7 (254)*
G04*
G04 Layer_Color=128*
%FSLAX44Y44*%
%MOMM*%
G71*
G04*
G04 #@! TF.SameCoordinates,A1B70DDC-6B92-404E-A971-D8F3348E60A3*
G04*
G04*
G04 #@! TF.FilePolarity,Positive*
G04*
G01*
G75*
%ADD38C,0.0508*%
D38*
X150400Y119380D02*
X154400D01*
X152400Y117380D02*
Y121380D01*
X150400Y137160D02*
X154400D01*
X152400Y135160D02*
Y139160D01*
X137200Y101600D02*
X142200D01*
X139700Y99100D02*
Y104100D01*
X124500Y101600D02*
X129500D01*
X127000Y99100D02*
Y104100D01*
X111800Y101600D02*
X116800D01*
X114300Y99100D02*
Y104100D01*
X99100Y101600D02*
X104100D01*
X101600Y99100D02*
Y104100D01*
X86400Y101600D02*
X91400D01*
X88900Y99100D02*
Y104100D01*
X73700Y101600D02*
X78700D01*
X76200Y99100D02*
Y104100D01*
X61000Y101600D02*
X66000D01*
X63500Y99100D02*
Y104100D01*
X339400Y76200D02*
X346400D01*
X342900Y72700D02*
Y79700D01*
X314000Y76200D02*
X321000D01*
X317500Y72700D02*
Y79700D01*
X288600Y76200D02*
X295600D01*
X292100Y72700D02*
Y79700D01*
X263200Y76200D02*
X270200D01*
X266700Y72700D02*
Y79700D01*
X237800Y76200D02*
X244800D01*
X241300Y72700D02*
Y79700D01*
X42400Y217500D02*
X52400D01*
X47400Y212500D02*
Y222500D01*
X112400Y217500D02*
X122400D01*
X117400Y212500D02*
Y222500D01*
X103900Y190500D02*
X110900D01*
X107400Y187000D02*
Y194000D01*
X53900Y190500D02*
X60900D01*
X57400Y187000D02*
Y194000D01*
X136200Y50800D02*
X143200D01*
X139700Y47300D02*
Y54300D01*
X110800Y50800D02*
X117800D01*
X114300Y47300D02*
Y54300D01*
X85400Y50800D02*
X92400D01*
X88900Y47300D02*
Y54300D01*
X60000Y50800D02*
X67000D01*
X63500Y47300D02*
Y54300D01*
X34600Y50800D02*
X41600D01*
X38100Y47300D02*
Y54300D01*
X339400Y25400D02*
X346400D01*
X342900Y21900D02*
Y28900D01*
X314000Y25400D02*
X321000D01*
X317500Y21900D02*
Y28900D01*
X288600Y25400D02*
X295600D01*
X292100Y21900D02*
Y28900D01*
X263200Y25400D02*
X270200D01*
X266700Y21900D02*
Y28900D01*
X237800Y25400D02*
X244800D01*
X241300Y21900D02*
Y28900D01*
X212400Y25400D02*
X219400D01*
X215900Y21900D02*
Y28900D01*
X161600Y25400D02*
X168600D01*
X165100Y21900D02*
Y28900D01*
X136200Y25400D02*
X143200D01*
X139700Y21900D02*
Y28900D01*
X110800Y25400D02*
X117800D01*
X114300Y21900D02*
Y28900D01*
X85400Y25400D02*
X92400D01*
X88900Y21900D02*
Y28900D01*
X60000Y25400D02*
X67000D01*
X63500Y21900D02*
Y28900D01*
X34600Y25400D02*
X41600D01*
X38100Y21900D02*
Y28900D01*
X6200Y209550D02*
X19200D01*
X12700Y203050D02*
Y216050D01*
X361800Y209550D02*
X374800D01*
X368300Y203050D02*
Y216050D01*
X191540Y139700D02*
X194540D01*
X193040Y138200D02*
Y141200D01*
X41680Y93980D02*
X44680D01*
X43180Y92480D02*
Y95480D01*
X62000Y81280D02*
X65000D01*
X63500Y79780D02*
Y82780D01*
X130580Y165100D02*
X133580D01*
X132080Y163600D02*
Y166600D01*
X189000Y198120D02*
X192000D01*
X190500Y196620D02*
Y199620D01*
X216940Y139700D02*
X219940D01*
X218440Y138200D02*
Y141200D01*
X214400Y165100D02*
X217400D01*
X215900Y163600D02*
Y166600D01*
X120420Y124460D02*
X123420D01*
X121920Y122960D02*
Y125960D01*
X74700Y126090D02*
X77700D01*
X76200Y124590D02*
Y127590D01*
X64540Y160020D02*
X67540D01*
X66040Y158520D02*
Y161520D01*
X133120Y185420D02*
X136120D01*
X134620Y183920D02*
Y186920D01*
X117880Y165100D02*
X120880D01*
X119380Y163600D02*
Y166600D01*
X155980Y195580D02*
X158980D01*
X157480Y194080D02*
Y197080D01*
X293140Y142240D02*
X296140D01*
X294640Y140740D02*
Y143740D01*
X194080Y104140D02*
X197080D01*
X195580Y102640D02*
Y105640D01*
X309650Y101600D02*
X312650D01*
X311150Y100100D02*
Y103100D01*
X239800Y114300D02*
X242800D01*
X241300Y112800D02*
Y115800D01*
X354100Y138157D02*
X357100D01*
X355600Y136657D02*
Y139657D01*
M02*
