G04*
G04 #@! TF.GenerationSoftware,Altium Limited,Altium Designer,20.2.7 (254)*
G04*
G04 Layer_Physical_Order=1*
G04 Layer_Color=255*
%FSLAX44Y44*%
%MOMM*%
G71*
G04*
G04 #@! TF.SameCoordinates,A1B70DDC-6B92-404E-A971-D8F3348E60A3*
G04*
G04*
G04 #@! TF.FilePolarity,Positive*
G04*
G01*
G75*
%ADD14R,1.3000X0.9000*%
%ADD15R,0.4500X0.5500*%
%ADD16R,0.5500X1.5240*%
%ADD17R,0.5500X0.4500*%
%ADD18R,0.6000X0.9500*%
%ADD19R,0.4500X0.9000*%
%ADD20R,0.9000X0.6000*%
%ADD21R,0.9000X1.3000*%
%ADD22R,0.9000X0.4500*%
%ADD23R,1.7500X1.0000*%
%ADD24R,3.0000X5.0000*%
%ADD25R,2.1500X2.5000*%
%ADD26R,0.4000X1.3500*%
%ADD27R,1.2000X1.5240*%
%ADD28C,0.6000*%
%ADD29C,0.4000*%
%ADD30C,1.0000*%
%ADD31C,0.8000*%
%ADD32C,1.5000*%
G04:AMPARAMS|DCode=33|XSize=1.2mm|YSize=1.6mm|CornerRadius=0.3mm|HoleSize=0mm|Usage=FLASHONLY|Rotation=180.000|XOffset=0mm|YOffset=0mm|HoleType=Round|Shape=RoundedRectangle|*
%AMROUNDEDRECTD33*
21,1,1.2000,1.0000,0,0,180.0*
21,1,0.6000,1.6000,0,0,180.0*
1,1,0.6000,-0.3000,0.5000*
1,1,0.6000,0.3000,0.5000*
1,1,0.6000,0.3000,-0.5000*
1,1,0.6000,-0.3000,-0.5000*
%
%ADD33ROUNDEDRECTD33*%
%ADD34C,1.3000*%
%ADD35C,1.4000*%
%ADD36C,0.6000*%
D14*
X76200Y140610D02*
D03*
Y159110D02*
D03*
X177800Y98700D02*
D03*
Y117200D02*
D03*
X292100Y105050D02*
D03*
Y123550D02*
D03*
X355600Y107950D02*
D03*
Y126450D02*
D03*
D15*
X81280Y81280D02*
D03*
X71280D02*
D03*
X106600D02*
D03*
X96600D02*
D03*
D16*
X190500Y177800D02*
D03*
X203200D02*
D03*
D17*
X165100Y147240D02*
D03*
Y137240D02*
D03*
D18*
X166980Y156680D02*
D03*
X147980D02*
D03*
Y183680D02*
D03*
X157480D02*
D03*
X166980D02*
D03*
X313900Y140500D02*
D03*
X323400D02*
D03*
X332900D02*
D03*
Y113500D02*
D03*
X323400D02*
D03*
X313900D02*
D03*
D19*
X93850Y165100D02*
D03*
X109350D02*
D03*
D20*
X115640Y139700D02*
D03*
X92640Y130200D02*
D03*
Y149200D02*
D03*
X227400Y114300D02*
D03*
X204400Y104800D02*
D03*
Y123800D02*
D03*
D21*
X204830Y154940D02*
D03*
X186330D02*
D03*
X275950Y101600D02*
D03*
X257450D02*
D03*
X275950Y120650D02*
D03*
X257450D02*
D03*
D22*
X134620Y142110D02*
D03*
Y157610D02*
D03*
D23*
X53340Y124740D02*
D03*
Y159740D02*
D03*
D24*
X336940Y200660D02*
D03*
X281940D02*
D03*
D25*
X241300Y209290D02*
D03*
Y176790D02*
D03*
D26*
X95400Y190500D02*
D03*
X69400D02*
D03*
X75900D02*
D03*
X82400D02*
D03*
X88900D02*
D03*
D27*
X162240Y213360D02*
D03*
X142240D02*
D03*
D28*
X332900Y196620D02*
X336940Y200660D01*
X332900Y140500D02*
Y196620D01*
X248920Y209290D02*
X291083D01*
X281940Y200660D02*
Y203200D01*
Y154940D02*
Y200660D01*
Y154940D02*
X294640Y142240D01*
X241300Y135285D02*
X252435Y124150D01*
X241300Y135285D02*
Y176790D01*
X257450Y120650D02*
Y122650D01*
X255950Y124150D02*
X257450Y122650D01*
X252435Y124150D02*
X255950D01*
D29*
X332900Y140500D02*
X353257D01*
X204830Y157480D02*
X206790Y159440D01*
X210240D02*
X215900Y165100D01*
X206790Y159440D02*
X210240D01*
X193040Y139700D02*
Y139700D01*
X177800Y117200D02*
X178697Y118097D01*
Y125357D01*
X193040Y139700D01*
X76200Y114300D02*
X93240D01*
X58420D02*
X76200D01*
X52867Y108747D02*
X58420Y114300D01*
X76200Y101600D02*
Y114300D01*
X52867Y76673D02*
Y108747D01*
X63500Y66040D02*
X198120D01*
X52867Y76673D02*
X63500Y66040D01*
X43180Y116660D02*
X51260Y124740D01*
X43180Y93980D02*
Y116660D01*
X63500Y81280D02*
X71280D01*
X96350D02*
Y81408D01*
X88900D02*
X96350D01*
X81280D02*
X88900D01*
X93240Y114300D02*
Y129600D01*
Y114300D02*
X127000D01*
X92640Y130200D02*
X93240Y129600D01*
X132370Y157610D02*
X134620D01*
X132120Y157860D02*
X132370Y157610D01*
X132120Y157860D02*
Y165060D01*
X132080Y165100D02*
X132120Y165060D01*
X190500Y182880D02*
Y198120D01*
X189750Y182130D02*
X190500Y182880D01*
X218440Y129540D02*
Y139700D01*
X212700Y123800D02*
X218440Y129540D01*
X147320Y154800D02*
Y165100D01*
X98892Y175430D02*
X136990D01*
X147320Y165100D01*
X157480Y183680D02*
Y195580D01*
Y181140D02*
Y183680D01*
X180340Y157480D02*
X186330D01*
X177800Y160020D02*
X180340Y157480D01*
X177800Y160020D02*
Y181337D01*
X166980Y183680D02*
X175457D01*
X177800Y181337D01*
X109220Y124460D02*
X121920D01*
X104140Y129540D02*
Y146857D01*
Y129540D02*
X109220Y124460D01*
X127000Y114300D02*
X134620Y121920D01*
Y142110D01*
X76200Y126090D02*
Y138327D01*
X165100Y147240D02*
X165600D01*
X165850Y147490D01*
Y147990D01*
X165980Y148120D01*
Y155680D01*
X166980Y156680D01*
X152400Y137160D02*
X152440Y137200D01*
X165060D01*
X165100Y137240D01*
X147980Y154140D02*
Y156680D01*
Y143204D02*
Y154140D01*
Y143204D02*
X152400Y138784D01*
Y137160D02*
Y138784D01*
X114300Y83752D02*
Y101600D01*
X111957Y81408D02*
X114300Y83752D01*
X108813Y81408D02*
X111957D01*
X88900Y81408D02*
Y101600D01*
X145620Y185250D02*
X147980Y182890D01*
X194993Y105800D02*
X203400D01*
X114365Y140700D02*
Y165100D01*
X134790Y185250D02*
X145620D01*
X53340Y159740D02*
X53620Y160020D01*
X66040D01*
X71743Y175260D02*
X85940D01*
X69400Y177603D02*
X71743Y175260D01*
X69400Y177603D02*
Y190500D01*
X92640Y149200D02*
X101797D01*
X104140Y146857D01*
X63500Y159880D02*
X73520D01*
X147980Y181140D02*
Y182890D01*
X134620Y185420D02*
X134790Y185250D01*
X114365Y165100D02*
X119380D01*
X109350D02*
X114365D01*
X115365Y139700D02*
X115640D01*
X114365Y140700D02*
X115365Y139700D01*
X95400Y178922D02*
X98892Y175430D01*
X95400Y178922D02*
Y190500D01*
X114300Y101600D02*
X114993Y102293D01*
X93850Y165100D02*
Y167350D01*
X85940Y175260D02*
X93850Y167350D01*
X92640Y149200D02*
Y161640D01*
X93850Y162850D01*
Y165100D01*
X73520Y159880D02*
X73660Y160020D01*
X51260Y124740D02*
X53340D01*
X142240Y198120D02*
Y213360D01*
X144780Y195580D02*
X157480D01*
X142240Y198120D02*
X144780Y195580D01*
X257450Y101600D02*
Y122650D01*
X203200Y182880D02*
Y208280D01*
X162240Y213360D02*
X198120D01*
X203200Y208280D01*
X164600Y147240D02*
X165100D01*
X177440Y99060D02*
X177800Y98700D01*
X143220Y99060D02*
X177440D01*
X140680Y101600D02*
X143220Y99060D01*
X139700Y101600D02*
X140680D01*
X166855Y154015D02*
X166980Y154140D01*
X322580Y55880D02*
X342900Y76200D01*
X208280Y55880D02*
X322580D01*
X198120Y66040D02*
X208280Y55880D01*
X294640Y48260D02*
X317500Y25400D01*
X139700Y50800D02*
X141307Y49193D01*
X145310D01*
X146243Y48260D01*
X294640D01*
X127000Y91440D02*
X142240Y76200D01*
X127000Y91440D02*
Y101600D01*
X142240Y76200D02*
X218440D01*
X231140Y63500D01*
X311150Y102276D02*
X312900Y104026D01*
X311150Y101600D02*
Y102276D01*
X312900Y104026D02*
Y112500D01*
X304800Y63500D02*
X317500Y76200D01*
X231140Y63500D02*
X304800D01*
X204400Y123800D02*
X212700D01*
X203400Y105800D02*
X204400Y104800D01*
X355600Y126450D02*
Y138157D01*
X353257Y140500D02*
X355600Y138157D01*
X227400Y114300D02*
X241300D01*
X323850Y92968D02*
Y103493D01*
X292100Y76200D02*
Y90625D01*
X321507D02*
X323850Y92968D01*
X292100Y90625D02*
X321507D01*
X292100D02*
Y105050D01*
X275950Y101600D02*
Y102550D01*
X278450Y105050D01*
X292100D01*
X297993Y126050D02*
X298943Y127000D01*
X294600Y126050D02*
X297993D01*
X298943Y127000D02*
X330200D01*
X292100Y123550D02*
X294600Y126050D01*
X275950Y120650D02*
X289825D01*
X323850Y103493D02*
X325743Y101600D01*
X323400Y103943D02*
X323850Y103493D01*
X332900Y113500D02*
Y124300D01*
X330200Y127000D02*
X332900Y124300D01*
X312900Y112500D02*
X313900Y113500D01*
X325743Y101600D02*
X353257D01*
X355600Y103943D01*
X323400D02*
Y113500D01*
X241300Y76200D02*
Y99257D01*
X243643Y101600D02*
X257450D01*
X241300Y99257D02*
X243643Y101600D01*
X323400Y140500D02*
X332900D01*
X38100Y25400D02*
X58420Y5080D01*
X195580D02*
X215900Y25400D01*
X58420Y5080D02*
X195580D01*
X228600Y38100D02*
X241300Y25400D01*
X203200Y38100D02*
X228600D01*
X177800Y12700D02*
X203200Y38100D01*
X76200Y12700D02*
X177800D01*
X63500Y25400D02*
X76200Y12700D01*
X139700Y25400D02*
Y50800D01*
X114300Y25400D02*
Y50800D01*
X88900Y25400D02*
Y50800D01*
X63500Y25400D02*
Y50800D01*
X38100Y25400D02*
Y50800D01*
D30*
X152400Y119380D02*
D03*
Y137160D02*
D03*
D31*
X139700Y101600D02*
D03*
X127000D02*
D03*
X114300D02*
D03*
X101600D02*
D03*
X88900D02*
D03*
X76200D02*
D03*
X63500D02*
D03*
D32*
X342900Y76200D02*
D03*
X317500D02*
D03*
X292100D02*
D03*
X266700D02*
D03*
X241300D02*
D03*
X139700Y50800D02*
D03*
X114300D02*
D03*
X88900D02*
D03*
X63500D02*
D03*
X38100D02*
D03*
X342900Y25400D02*
D03*
X317500D02*
D03*
X292100D02*
D03*
X266700D02*
D03*
X241300D02*
D03*
X215900D02*
D03*
X165100D02*
D03*
X139700D02*
D03*
X114300D02*
D03*
X88900D02*
D03*
X63500D02*
D03*
X38100D02*
D03*
D33*
X47400Y217500D02*
D03*
X117400D02*
D03*
D34*
X107400Y190500D02*
D03*
X57400D02*
D03*
D35*
X12700Y209550D02*
D03*
X368300D02*
D03*
D36*
X193040Y139700D02*
D03*
X43180Y93980D02*
D03*
X63500Y81280D02*
D03*
X132080Y165100D02*
D03*
X190500Y198120D02*
D03*
X218440Y139700D02*
D03*
X215900Y165100D02*
D03*
X121920Y124460D02*
D03*
X76200Y126090D02*
D03*
X66040Y160020D02*
D03*
X134620Y185420D02*
D03*
X119380Y165100D02*
D03*
X157480Y195580D02*
D03*
X294640Y142240D02*
D03*
X195580Y104140D02*
D03*
X311150Y101600D02*
D03*
X241300Y114300D02*
D03*
X355600Y138157D02*
D03*
M02*
