G04*
G04 #@! TF.GenerationSoftware,Altium Limited,Altium Designer,20.2.7 (254)*
G04*
G04 Layer_Physical_Order=2*
G04 Layer_Color=16711680*
%FSLAX44Y44*%
%MOMM*%
G71*
G04*
G04 #@! TF.SameCoordinates,A1B70DDC-6B92-404E-A971-D8F3348E60A3*
G04*
G04*
G04 #@! TF.FilePolarity,Positive*
G04*
G01*
G75*
%ADD29C,0.4000*%
%ADD30C,1.0000*%
%ADD31C,0.8000*%
%ADD32C,1.5000*%
G04:AMPARAMS|DCode=33|XSize=1.2mm|YSize=1.6mm|CornerRadius=0.3mm|HoleSize=0mm|Usage=FLASHONLY|Rotation=180.000|XOffset=0mm|YOffset=0mm|HoleType=Round|Shape=RoundedRectangle|*
%AMROUNDEDRECTD33*
21,1,1.2000,1.0000,0,0,180.0*
21,1,0.6000,1.6000,0,0,180.0*
1,1,0.6000,-0.3000,0.5000*
1,1,0.6000,0.3000,0.5000*
1,1,0.6000,0.3000,-0.5000*
1,1,0.6000,-0.3000,-0.5000*
%
%ADD33ROUNDEDRECTD33*%
%ADD34C,1.3000*%
%ADD35C,1.4000*%
%ADD36C,0.6000*%
%ADD37C,0.3000*%
G36*
X381000Y0D02*
X0D01*
Y228600D01*
X41272D01*
X41657Y227330D01*
X40406Y226494D01*
X39181Y224662D01*
X38751Y222500D01*
Y212500D01*
X39181Y210338D01*
X40406Y208506D01*
X42238Y207281D01*
X44400Y206852D01*
X50400D01*
X52562Y207281D01*
X54394Y208506D01*
X55619Y210338D01*
X56048Y212500D01*
Y222500D01*
X55619Y224662D01*
X54394Y226494D01*
X53143Y227330D01*
X53528Y228600D01*
X111272D01*
X111657Y227330D01*
X110406Y226494D01*
X109181Y224662D01*
X108751Y222500D01*
Y212500D01*
X109181Y210338D01*
X110406Y208506D01*
X112238Y207281D01*
X114400Y206852D01*
X120400D01*
X122562Y207281D01*
X124394Y208506D01*
X125619Y210338D01*
X126048Y212500D01*
Y222500D01*
X125619Y224662D01*
X124394Y226494D01*
X123143Y227330D01*
X123528Y228600D01*
X381000D01*
Y0D01*
D02*
G37*
%LPC*%
G36*
X203200Y225609D02*
X203200Y225609D01*
X139700D01*
X139700Y225609D01*
X137929Y225257D01*
X136427Y224253D01*
X136427Y224253D01*
X131347Y219173D01*
X130343Y217671D01*
X129991Y215900D01*
X129991Y215900D01*
Y188914D01*
X129166Y187679D01*
X128717Y185420D01*
X129166Y183161D01*
X129858Y182125D01*
X118577Y170844D01*
X117121Y170554D01*
X115886Y169729D01*
X106058D01*
X99793Y175993D01*
X98292Y176997D01*
X96520Y177349D01*
X96520Y177349D01*
X55880D01*
X55880Y177349D01*
X54109Y176997D01*
X52607Y175993D01*
X52607Y175993D01*
X39907Y163293D01*
X38903Y161791D01*
X38551Y160020D01*
X38551Y160020D01*
Y97474D01*
X37726Y96239D01*
X37277Y93980D01*
X37726Y91721D01*
X39006Y89806D01*
X39061Y89769D01*
Y81280D01*
X39374Y79704D01*
X40267Y78367D01*
X52967Y65667D01*
X54304Y64774D01*
X55880Y64461D01*
X177800D01*
X179376Y64774D01*
X180713Y65667D01*
X198493Y83447D01*
X199386Y84784D01*
X199699Y86360D01*
Y99929D01*
X199754Y99966D01*
X200831Y101577D01*
X202246Y101958D01*
X230917Y73287D01*
X231916Y72620D01*
X232530Y71137D01*
X234139Y69039D01*
X236237Y67430D01*
X238679Y66418D01*
X241300Y66073D01*
X243921Y66418D01*
X246363Y67430D01*
X248461Y69039D01*
X250070Y71137D01*
X251082Y73579D01*
X251427Y76200D01*
X251082Y78821D01*
X250070Y81263D01*
X248461Y83361D01*
X248177Y83578D01*
X248585Y84781D01*
X252294D01*
X257309Y79765D01*
X256918Y78821D01*
X256573Y76200D01*
X256918Y73579D01*
X257930Y71137D01*
X259539Y69039D01*
X261637Y67430D01*
X264079Y66418D01*
X266700Y66073D01*
X269321Y66418D01*
X271763Y67430D01*
X273861Y69039D01*
X275470Y71137D01*
X276482Y73579D01*
X276827Y76200D01*
X276482Y78821D01*
X275470Y81263D01*
X273861Y83361D01*
X271763Y84970D01*
X269321Y85982D01*
X266700Y86327D01*
X264079Y85982D01*
X263135Y85590D01*
X256913Y91813D01*
X255576Y92706D01*
X254000Y93019D01*
X235386D01*
X231857Y96549D01*
X232482Y97719D01*
X233680Y97481D01*
X264994D01*
X282710Y79765D01*
X282318Y78821D01*
X282141Y77470D01*
X290830D01*
Y86159D01*
X289479Y85982D01*
X288535Y85590D01*
X269613Y104513D01*
X268276Y105406D01*
X266700Y105719D01*
X235386D01*
X208653Y132453D01*
X207316Y133346D01*
X205740Y133659D01*
X197042D01*
X196636Y134900D01*
X197305Y135581D01*
X214229D01*
X214266Y135526D01*
X216181Y134246D01*
X218440Y133797D01*
X220699Y134246D01*
X222614Y135526D01*
X223894Y137441D01*
X224343Y139700D01*
X223894Y141959D01*
X222614Y143874D01*
X220699Y145154D01*
X218440Y145603D01*
X216181Y145154D01*
X214266Y143874D01*
X214229Y143819D01*
X197251D01*
X197214Y143874D01*
X195299Y145154D01*
X193040Y145603D01*
X190781Y145154D01*
X188866Y143874D01*
X187586Y141959D01*
X187137Y139700D01*
X187586Y137441D01*
X188866Y135526D01*
X189758Y134929D01*
X189373Y133659D01*
X177687D01*
X167189Y144157D01*
Y190697D01*
X167189Y190697D01*
X166837Y192468D01*
X165833Y193970D01*
X165833Y193970D01*
X163175Y196628D01*
X162934Y197839D01*
X161654Y199754D01*
X159739Y201034D01*
X158750Y201231D01*
Y195580D01*
X156210D01*
Y201231D01*
X155221Y201034D01*
X153306Y199754D01*
X153219Y199625D01*
X151949Y200010D01*
Y203651D01*
X186070D01*
X186455Y202381D01*
X186326Y202294D01*
X185046Y200379D01*
X184597Y198120D01*
X185046Y195861D01*
X185871Y194626D01*
Y162560D01*
X185871Y162560D01*
X186223Y160789D01*
X187227Y159287D01*
X197387Y149127D01*
X197387Y149127D01*
X198889Y148123D01*
X200660Y147771D01*
X228797D01*
X228797Y147771D01*
X230568Y148123D01*
X232070Y149127D01*
X234413Y151470D01*
X234413Y151470D01*
X235417Y152972D01*
X235769Y154743D01*
Y193040D01*
X235769Y193040D01*
X235417Y194811D01*
X234413Y196313D01*
X234413Y196313D01*
X206473Y224253D01*
X204971Y225257D01*
X203200Y225609D01*
D02*
G37*
G36*
X107400Y199870D02*
X104975Y199551D01*
X102715Y198615D01*
X100774Y197126D01*
X99285Y195185D01*
X98349Y192925D01*
X98030Y190500D01*
X98349Y188075D01*
X99285Y185815D01*
X100774Y183874D01*
X102715Y182385D01*
X104975Y181449D01*
X107400Y181130D01*
X109825Y181449D01*
X112085Y182385D01*
X114026Y183874D01*
X115515Y185815D01*
X116451Y188075D01*
X116770Y190500D01*
X116451Y192925D01*
X115515Y195185D01*
X114026Y197126D01*
X112085Y198615D01*
X109825Y199551D01*
X107400Y199870D01*
D02*
G37*
G36*
X57400D02*
X54975Y199551D01*
X52715Y198615D01*
X50774Y197126D01*
X49285Y195185D01*
X48349Y192925D01*
X48030Y190500D01*
X48349Y188075D01*
X49285Y185815D01*
X50774Y183874D01*
X52715Y182385D01*
X54975Y181449D01*
X57400Y181130D01*
X59825Y181449D01*
X62085Y182385D01*
X64026Y183874D01*
X65515Y185815D01*
X66451Y188075D01*
X66770Y190500D01*
X66451Y192925D01*
X65515Y195185D01*
X64026Y197126D01*
X62085Y198615D01*
X59825Y199551D01*
X57400Y199870D01*
D02*
G37*
G36*
X335007Y162869D02*
X273050D01*
X271474Y162556D01*
X270137Y161663D01*
X238387Y129913D01*
X237494Y128576D01*
X237181Y127000D01*
Y118511D01*
X237126Y118474D01*
X235846Y116559D01*
X235397Y114300D01*
X235846Y112041D01*
X237126Y110126D01*
X239041Y108846D01*
X241300Y108397D01*
X243559Y108846D01*
X245474Y110126D01*
X246754Y112041D01*
X247203Y114300D01*
X246754Y116559D01*
X245474Y118474D01*
X245419Y118511D01*
Y125294D01*
X274756Y154631D01*
X333301D01*
X349710Y138222D01*
X349697Y138157D01*
X350146Y135898D01*
X351426Y133982D01*
X353341Y132703D01*
X355600Y132253D01*
X357859Y132703D01*
X359774Y133982D01*
X361054Y135898D01*
X361503Y138157D01*
X361054Y140416D01*
X359774Y142331D01*
X357859Y143611D01*
X355600Y144060D01*
X355535Y144047D01*
X337920Y161663D01*
X336583Y162556D01*
X335007Y162869D01*
D02*
G37*
G36*
X294640Y148143D02*
X292381Y147694D01*
X290466Y146414D01*
X289186Y144499D01*
X288737Y142240D01*
X289186Y139981D01*
X290466Y138066D01*
X292381Y136786D01*
X294640Y136337D01*
X294705Y136349D01*
X306361Y124693D01*
Y104855D01*
X305696Y103859D01*
X305247Y101600D01*
X305696Y99341D01*
X306976Y97426D01*
X308891Y96146D01*
X311150Y95697D01*
X313409Y96146D01*
X315324Y97426D01*
X316604Y99341D01*
X317053Y101600D01*
X316604Y103859D01*
X315324Y105774D01*
X314599Y106259D01*
Y126400D01*
X314286Y127976D01*
X313393Y129312D01*
X300530Y142175D01*
X300543Y142240D01*
X300094Y144499D01*
X298814Y146414D01*
X296899Y147694D01*
X294640Y148143D01*
D02*
G37*
G36*
X293370Y86159D02*
Y77470D01*
X302059D01*
X301882Y78821D01*
X300870Y81263D01*
X299261Y83361D01*
X297163Y84970D01*
X294721Y85982D01*
X293370Y86159D01*
D02*
G37*
G36*
X302059Y74930D02*
X293370D01*
Y66241D01*
X294721Y66418D01*
X297163Y67430D01*
X299261Y69039D01*
X300870Y71137D01*
X301882Y73579D01*
X302059Y74930D01*
D02*
G37*
G36*
X290830D02*
X282141D01*
X282318Y73579D01*
X283330Y71137D01*
X284939Y69039D01*
X287037Y67430D01*
X289479Y66418D01*
X290830Y66241D01*
Y74930D01*
D02*
G37*
G36*
X342900Y86327D02*
X340279Y85982D01*
X337837Y84970D01*
X335739Y83361D01*
X334130Y81263D01*
X333118Y78821D01*
X332773Y76200D01*
X333118Y73579D01*
X334130Y71137D01*
X335739Y69039D01*
X337837Y67430D01*
X340279Y66418D01*
X342900Y66073D01*
X345521Y66418D01*
X347963Y67430D01*
X350061Y69039D01*
X351670Y71137D01*
X352682Y73579D01*
X353027Y76200D01*
X352682Y78821D01*
X351670Y81263D01*
X350061Y83361D01*
X347963Y84970D01*
X345521Y85982D01*
X342900Y86327D01*
D02*
G37*
G36*
X317500D02*
X314879Y85982D01*
X312437Y84970D01*
X310339Y83361D01*
X308730Y81263D01*
X307718Y78821D01*
X307373Y76200D01*
X307718Y73579D01*
X308730Y71137D01*
X310339Y69039D01*
X312437Y67430D01*
X314879Y66418D01*
X317500Y66073D01*
X320121Y66418D01*
X322563Y67430D01*
X324661Y69039D01*
X326270Y71137D01*
X327282Y73579D01*
X327627Y76200D01*
X327282Y78821D01*
X326270Y81263D01*
X324661Y83361D01*
X322563Y84970D01*
X320121Y85982D01*
X317500Y86327D01*
D02*
G37*
G36*
X139700Y60927D02*
X137079Y60582D01*
X134637Y59570D01*
X132539Y57961D01*
X130930Y55863D01*
X129918Y53421D01*
X129573Y50800D01*
X129918Y48179D01*
X130930Y45737D01*
X132539Y43639D01*
X132823Y43422D01*
X132415Y42219D01*
X121585D01*
X121177Y43422D01*
X121461Y43639D01*
X123070Y45737D01*
X124082Y48179D01*
X124427Y50800D01*
X124082Y53421D01*
X123070Y55863D01*
X121461Y57961D01*
X119363Y59570D01*
X116921Y60582D01*
X114300Y60927D01*
X111679Y60582D01*
X109237Y59570D01*
X107139Y57961D01*
X105530Y55863D01*
X104518Y53421D01*
X104173Y50800D01*
X104518Y48179D01*
X105530Y45737D01*
X107139Y43639D01*
X107423Y43422D01*
X107015Y42219D01*
X101600D01*
X100024Y41906D01*
X98687Y41013D01*
X92465Y34790D01*
X91521Y35182D01*
X88900Y35527D01*
X86279Y35182D01*
X83837Y34170D01*
X81739Y32561D01*
X80130Y30463D01*
X79118Y28021D01*
X78773Y25400D01*
X79118Y22779D01*
X80130Y20337D01*
X81739Y18239D01*
X83837Y16630D01*
X86279Y15618D01*
X88900Y15273D01*
X91521Y15618D01*
X93963Y16630D01*
X96061Y18239D01*
X97670Y20337D01*
X98682Y22779D01*
X99027Y25400D01*
X98682Y28021D01*
X98291Y28965D01*
X103306Y33981D01*
X107015D01*
X107423Y32778D01*
X107139Y32561D01*
X105530Y30463D01*
X104518Y28021D01*
X104173Y25400D01*
X104518Y22779D01*
X105530Y20337D01*
X107139Y18239D01*
X109237Y16630D01*
X111679Y15618D01*
X114300Y15273D01*
X116921Y15618D01*
X117865Y16010D01*
X124087Y9787D01*
X125424Y8894D01*
X127000Y8581D01*
X279400D01*
X280976Y8894D01*
X282313Y9787D01*
X288535Y16010D01*
X289479Y15618D01*
X292100Y15273D01*
X294721Y15618D01*
X297163Y16630D01*
X299261Y18239D01*
X300870Y20337D01*
X301882Y22779D01*
X302227Y25400D01*
X301882Y28021D01*
X300870Y30463D01*
X299261Y32561D01*
X297163Y34170D01*
X294721Y35182D01*
X292100Y35527D01*
X289479Y35182D01*
X287037Y34170D01*
X284939Y32561D01*
X283330Y30463D01*
X282318Y28021D01*
X281973Y25400D01*
X282318Y22779D01*
X282710Y21835D01*
X277694Y16819D01*
X273985D01*
X273577Y18022D01*
X273861Y18239D01*
X275470Y20337D01*
X276482Y22779D01*
X276827Y25400D01*
X276482Y28021D01*
X275470Y30463D01*
X273861Y32561D01*
X271763Y34170D01*
X269321Y35182D01*
X266700Y35527D01*
X264079Y35182D01*
X263135Y34790D01*
X256913Y41013D01*
X255576Y41906D01*
X254000Y42219D01*
X146985D01*
X146577Y43422D01*
X146861Y43639D01*
X148470Y45737D01*
X149482Y48179D01*
X149827Y50800D01*
X149482Y53421D01*
X148470Y55863D01*
X146861Y57961D01*
X144763Y59570D01*
X142321Y60582D01*
X139700Y60927D01*
D02*
G37*
G36*
X88900D02*
X86279Y60582D01*
X83837Y59570D01*
X81739Y57961D01*
X80130Y55863D01*
X79118Y53421D01*
X78773Y50800D01*
X79118Y48179D01*
X80130Y45737D01*
X81739Y43639D01*
X83837Y42030D01*
X86279Y41018D01*
X88900Y40673D01*
X91521Y41018D01*
X93963Y42030D01*
X96061Y43639D01*
X97670Y45737D01*
X98682Y48179D01*
X99027Y50800D01*
X98682Y53421D01*
X97670Y55863D01*
X96061Y57961D01*
X93963Y59570D01*
X91521Y60582D01*
X88900Y60927D01*
D02*
G37*
G36*
X63500D02*
X60879Y60582D01*
X58437Y59570D01*
X56339Y57961D01*
X54730Y55863D01*
X53718Y53421D01*
X53373Y50800D01*
X53718Y48179D01*
X54730Y45737D01*
X56339Y43639D01*
X58437Y42030D01*
X60879Y41018D01*
X63500Y40673D01*
X66121Y41018D01*
X68563Y42030D01*
X70661Y43639D01*
X72270Y45737D01*
X73282Y48179D01*
X73627Y50800D01*
X73282Y53421D01*
X72270Y55863D01*
X70661Y57961D01*
X68563Y59570D01*
X66121Y60582D01*
X63500Y60927D01*
D02*
G37*
G36*
X38100D02*
X35479Y60582D01*
X33037Y59570D01*
X30939Y57961D01*
X29330Y55863D01*
X28318Y53421D01*
X27973Y50800D01*
X28318Y48179D01*
X29330Y45737D01*
X30939Y43639D01*
X33037Y42030D01*
X35479Y41018D01*
X38100Y40673D01*
X40721Y41018D01*
X43163Y42030D01*
X45261Y43639D01*
X46870Y45737D01*
X47882Y48179D01*
X48227Y50800D01*
X47882Y53421D01*
X46870Y55863D01*
X45261Y57961D01*
X43163Y59570D01*
X40721Y60582D01*
X38100Y60927D01*
D02*
G37*
G36*
X342900Y35527D02*
X340279Y35182D01*
X337837Y34170D01*
X335739Y32561D01*
X334130Y30463D01*
X333118Y28021D01*
X332773Y25400D01*
X333118Y22779D01*
X334130Y20337D01*
X335739Y18239D01*
X337837Y16630D01*
X340279Y15618D01*
X342900Y15273D01*
X345521Y15618D01*
X347963Y16630D01*
X350061Y18239D01*
X351670Y20337D01*
X352682Y22779D01*
X353027Y25400D01*
X352682Y28021D01*
X351670Y30463D01*
X350061Y32561D01*
X347963Y34170D01*
X345521Y35182D01*
X342900Y35527D01*
D02*
G37*
G36*
X317500D02*
X314879Y35182D01*
X312437Y34170D01*
X310339Y32561D01*
X308730Y30463D01*
X307718Y28021D01*
X307373Y25400D01*
X307718Y22779D01*
X308730Y20337D01*
X310339Y18239D01*
X312437Y16630D01*
X314879Y15618D01*
X317500Y15273D01*
X320121Y15618D01*
X322563Y16630D01*
X324661Y18239D01*
X326270Y20337D01*
X327282Y22779D01*
X327627Y25400D01*
X327282Y28021D01*
X326270Y30463D01*
X324661Y32561D01*
X322563Y34170D01*
X320121Y35182D01*
X317500Y35527D01*
D02*
G37*
G36*
X63500D02*
X60879Y35182D01*
X58437Y34170D01*
X56339Y32561D01*
X54730Y30463D01*
X53718Y28021D01*
X53373Y25400D01*
X53718Y22779D01*
X54730Y20337D01*
X56339Y18239D01*
X58437Y16630D01*
X60879Y15618D01*
X63500Y15273D01*
X66121Y15618D01*
X68563Y16630D01*
X70661Y18239D01*
X72270Y20337D01*
X73282Y22779D01*
X73627Y25400D01*
X73282Y28021D01*
X72270Y30463D01*
X70661Y32561D01*
X68563Y34170D01*
X66121Y35182D01*
X63500Y35527D01*
D02*
G37*
G36*
X38100D02*
X35479Y35182D01*
X33037Y34170D01*
X30939Y32561D01*
X29330Y30463D01*
X28318Y28021D01*
X27973Y25400D01*
X28318Y22779D01*
X29330Y20337D01*
X30939Y18239D01*
X33037Y16630D01*
X35479Y15618D01*
X38100Y15273D01*
X40721Y15618D01*
X43163Y16630D01*
X45261Y18239D01*
X46870Y20337D01*
X47882Y22779D01*
X48227Y25400D01*
X47882Y28021D01*
X46870Y30463D01*
X45261Y32561D01*
X43163Y34170D01*
X40721Y35182D01*
X38100Y35527D01*
D02*
G37*
%LPD*%
G36*
X100867Y161827D02*
X102369Y160823D01*
X104140Y160471D01*
X104140Y160471D01*
X115886D01*
X117121Y159646D01*
X118091Y159453D01*
X118450Y158652D01*
X118549Y158067D01*
X117643Y156711D01*
X117291Y154940D01*
X117291Y154940D01*
Y127954D01*
X116466Y126719D01*
X116176Y125262D01*
X113030Y122116D01*
X104873Y130273D01*
X103371Y131277D01*
X101600Y131629D01*
X101600Y131629D01*
X78878D01*
X78878Y131629D01*
X78455Y131545D01*
X77470Y131741D01*
Y126090D01*
Y120439D01*
X78459Y120636D01*
X80374Y121916D01*
X80679Y122371D01*
X99683D01*
X109671Y112383D01*
Y106292D01*
X109636Y106264D01*
X108652Y104983D01*
X107971Y104893D01*
X107929D01*
X107248Y104983D01*
X106264Y106264D01*
X104898Y107313D01*
X103307Y107972D01*
X101600Y108196D01*
X99893Y107972D01*
X98302Y107313D01*
X96936Y106264D01*
X95952Y104983D01*
X95271Y104893D01*
X95230D01*
X94548Y104983D01*
X93564Y106264D01*
X92198Y107313D01*
X90607Y107972D01*
X88900Y108196D01*
X87193Y107972D01*
X85602Y107313D01*
X84236Y106264D01*
X83252Y104983D01*
X82570Y104893D01*
X82529D01*
X81848Y104983D01*
X80864Y106264D01*
X79498Y107313D01*
X77907Y107972D01*
X76200Y108196D01*
X74493Y107972D01*
X72902Y107313D01*
X71536Y106264D01*
X70552Y104983D01*
X69871Y104893D01*
X69830D01*
X69148Y104983D01*
X68164Y106264D01*
X66798Y107313D01*
X65207Y107972D01*
X63500Y108196D01*
X63153Y108151D01*
X62560Y109354D01*
X66576Y113370D01*
X66576Y113370D01*
X69313Y116107D01*
X69313Y116107D01*
X70317Y117609D01*
X70669Y119380D01*
X70669Y119380D01*
Y121660D01*
X71939Y122045D01*
X72026Y121916D01*
X73941Y120636D01*
X74930Y120439D01*
Y126090D01*
Y131741D01*
X73941Y131544D01*
X72026Y130264D01*
X71939Y130135D01*
X70669Y130520D01*
Y156526D01*
X71494Y157761D01*
X71943Y160020D01*
X71494Y162279D01*
X70214Y164194D01*
X68299Y165474D01*
X66040Y165923D01*
X63781Y165474D01*
X61866Y164194D01*
X60586Y162279D01*
X60137Y160020D01*
X60586Y157761D01*
X61411Y156526D01*
Y121297D01*
X60030Y119916D01*
X60030Y119916D01*
X60030Y119916D01*
X50067Y109953D01*
X49063Y108451D01*
X47809Y108655D01*
Y158103D01*
X57797Y168091D01*
X94603D01*
X100867Y161827D01*
D02*
G37*
G36*
X131879Y157631D02*
X132531Y157209D01*
Y124460D01*
X132531Y124460D01*
X132883Y122689D01*
X133887Y121187D01*
X138127Y116947D01*
X138127Y116947D01*
X139629Y115943D01*
X141400Y115591D01*
X145808D01*
X145814Y115577D01*
X147022Y114002D01*
X148597Y112794D01*
X150432Y112034D01*
X152400Y111775D01*
X154368Y112034D01*
X156202Y112794D01*
X157778Y114002D01*
X158986Y115577D01*
X159746Y117412D01*
X160981Y117204D01*
Y100766D01*
X155774Y95559D01*
X144657D01*
X144226Y96829D01*
X144364Y96936D01*
X145413Y98302D01*
X146072Y99893D01*
X146296Y101600D01*
X146072Y103307D01*
X145413Y104898D01*
X144364Y106264D01*
X142998Y107313D01*
X141407Y107972D01*
X139700Y108196D01*
X137993Y107972D01*
X136402Y107313D01*
X135036Y106264D01*
X134052Y104983D01*
X133371Y104893D01*
X133329D01*
X132648Y104983D01*
X131664Y106264D01*
X130298Y107313D01*
X128707Y107972D01*
X127000Y108196D01*
X125293Y107972D01*
X123702Y107313D01*
X122336Y106264D01*
X121352Y104983D01*
X120670Y104893D01*
X120630D01*
X119948Y104983D01*
X118964Y106264D01*
X118929Y106292D01*
Y114300D01*
X118929Y114300D01*
X118929Y114300D01*
Y114923D01*
X122723Y118716D01*
X124179Y119006D01*
X126094Y120286D01*
X127374Y122201D01*
X127571Y123190D01*
X121920D01*
Y125730D01*
X127571D01*
X127374Y126719D01*
X126549Y127954D01*
Y153023D01*
X131293Y157767D01*
X131879Y157631D01*
D02*
G37*
D29*
X53340Y91440D02*
X63500Y81280D01*
X53340Y91440D02*
Y106680D01*
X43180Y160020D02*
X55880Y172720D01*
X43180Y93980D02*
Y160020D01*
X63303Y116643D02*
X63303D01*
X66040Y119380D02*
Y160020D01*
X63303Y116643D02*
X66040Y119380D01*
X53340Y106680D02*
X63303Y116643D01*
X121920Y154940D02*
X132080Y165100D01*
X121920Y124460D02*
Y154940D01*
X151560Y120220D02*
X152400Y119380D01*
X141400Y120220D02*
X151560D01*
X137160Y124460D02*
Y157480D01*
Y124460D02*
X141400Y120220D01*
X137160Y157480D02*
X147320Y167640D01*
X200660Y152400D02*
X228797D01*
X203200Y220980D02*
X231140Y193040D01*
Y154743D02*
Y193040D01*
X228797Y152400D02*
X231140Y154743D01*
X134620Y185420D02*
Y215900D01*
X139700Y220980D02*
X203200D01*
X134620Y215900D02*
X139700Y220980D01*
X198120Y208280D02*
X215900Y190500D01*
Y165100D02*
Y190500D01*
X147320Y205937D02*
X149663Y208280D01*
X147320Y167640D02*
Y205937D01*
X149663Y208280D02*
X198120D01*
X190500Y162560D02*
Y198120D01*
Y162560D02*
X200660Y152400D01*
X157480Y195580D02*
X157677D01*
X162560Y190697D01*
X114300Y116840D02*
X121920Y124460D01*
X114300Y114300D02*
Y116840D01*
X101600Y127000D02*
X114300Y114300D01*
X78878Y127000D02*
X101600D01*
X76200Y126090D02*
X76678Y126568D01*
X78446D02*
X78878Y127000D01*
X76678Y126568D02*
X78446D01*
X55880Y172720D02*
X96520D01*
X104140Y165100D02*
X119380D01*
X96520Y172720D02*
X104140Y165100D01*
X134620Y180340D02*
Y185420D01*
X119380Y165100D02*
X134620Y180340D01*
X162560Y142240D02*
Y190697D01*
Y142240D02*
X175260Y129540D01*
X114300Y101600D02*
Y114300D01*
D30*
X152400Y119380D02*
D03*
Y137160D02*
D03*
D31*
X139700Y101600D02*
D03*
X127000D02*
D03*
X114300D02*
D03*
X101600D02*
D03*
X88900D02*
D03*
X76200D02*
D03*
X63500D02*
D03*
D32*
X342900Y76200D02*
D03*
X317500D02*
D03*
X292100D02*
D03*
X266700D02*
D03*
X241300D02*
D03*
X139700Y50800D02*
D03*
X114300D02*
D03*
X88900D02*
D03*
X63500D02*
D03*
X38100D02*
D03*
X342900Y25400D02*
D03*
X317500D02*
D03*
X292100D02*
D03*
X266700D02*
D03*
X241300D02*
D03*
X215900D02*
D03*
X165100D02*
D03*
X139700D02*
D03*
X114300D02*
D03*
X88900D02*
D03*
X63500D02*
D03*
X38100D02*
D03*
D33*
X47400Y217500D02*
D03*
X117400D02*
D03*
D34*
X107400Y190500D02*
D03*
X57400D02*
D03*
D35*
X12700Y209550D02*
D03*
X368300D02*
D03*
D36*
X193040Y139700D02*
D03*
X43180Y93980D02*
D03*
X63500Y81280D02*
D03*
X132080Y165100D02*
D03*
X190500Y198120D02*
D03*
X218440Y139700D02*
D03*
X215900Y165100D02*
D03*
X121920Y124460D02*
D03*
X76200Y126090D02*
D03*
X66040Y160020D02*
D03*
X134620Y185420D02*
D03*
X119380Y165100D02*
D03*
X157480Y195580D02*
D03*
X294640Y142240D02*
D03*
X195580Y104140D02*
D03*
X311150Y101600D02*
D03*
X241300Y114300D02*
D03*
X355600Y138157D02*
D03*
D37*
X310480Y101600D02*
Y126400D01*
X55880Y68580D02*
X177800D01*
X43180Y81280D02*
Y93980D01*
Y81280D02*
X55880Y68580D01*
X193040Y139700D02*
X218440D01*
X294703Y142177D02*
X310480Y126400D01*
X195730Y114300D02*
X233830Y76200D01*
X241300D01*
X182880Y121920D02*
X200660D01*
X233680Y88900D02*
X254000D01*
X200660Y121920D02*
X233680Y88900D01*
X165100Y83820D02*
X175260Y93980D01*
Y114300D02*
X182880Y121920D01*
X175260Y93980D02*
Y114300D01*
X102290Y93290D02*
X111760Y83820D01*
X165100D01*
X88900Y76200D02*
X172720D01*
X63500Y101600D02*
X88900Y76200D01*
X172720D02*
X185420Y88900D01*
X177800Y68580D02*
X195580Y86360D01*
X190500Y114300D02*
X195730D01*
X195580Y86360D02*
Y104140D01*
X185420Y109220D02*
X190500Y114300D01*
X185420Y88900D02*
Y109220D01*
X165100Y119380D02*
X175260Y129540D01*
X205740D02*
X233680Y101600D01*
X175260Y129540D02*
X205740D01*
X254000Y88900D02*
X266700Y76200D01*
Y101600D02*
X292100Y76200D01*
X233680Y101600D02*
X266700D01*
X114990Y93290D02*
Y100910D01*
X116840Y91440D02*
X157480D01*
X114300Y101600D02*
X114990Y100910D01*
Y93290D02*
X116840Y91440D01*
X157480D02*
X165100Y99060D01*
X101600Y101600D02*
X102290Y100910D01*
Y93290D02*
Y100910D01*
X165100Y99060D02*
Y119380D01*
X335007Y158750D02*
X355600Y138157D01*
X273050Y158750D02*
X335007D01*
X241300Y114300D02*
Y127000D01*
X273050Y158750D01*
X279400Y12700D02*
X292100Y25400D01*
X127000Y12700D02*
X279400D01*
X114300Y25400D02*
X127000Y12700D01*
X254000Y38100D02*
X266700Y25400D01*
X101600Y38100D02*
X254000D01*
X88900Y25400D02*
X101600Y38100D01*
M02*
