G04*
G04 #@! TF.GenerationSoftware,Altium Limited,Altium Designer,20.2.7 (254)*
G04*
G04 Layer_Color=16711935*
%FSLAX44Y44*%
%MOMM*%
G71*
G04*
G04 #@! TF.SameCoordinates,E2930A79-BBFB-44DC-8FC5-9A75561AB175*
G04*
G04*
G04 #@! TF.FilePolarity,Negative*
G04*
G01*
G75*
%ADD20R,0.7532X0.6532*%
%ADD23R,1.5032X1.1032*%
%ADD24C,1.7032*%
%ADD25C,0.8032*%
G04:AMPARAMS|DCode=34|XSize=0.7532mm|YSize=0.6532mm|CornerRadius=0mm|HoleSize=0mm|Usage=FLASHONLY|Rotation=135.000|XOffset=0mm|YOffset=0mm|HoleType=Round|Shape=Rectangle|*
%AMROTATEDRECTD34*
4,1,4,0.4972,-0.0354,0.0354,-0.4972,-0.4972,0.0354,-0.0354,0.4972,0.4972,-0.0354,0.0*
%
%ADD34ROTATEDRECTD34*%

%ADD35R,1.1032X0.8032*%
%ADD36R,0.8032X1.1032*%
D20*
X103740Y530240D02*
D03*
Y540240D02*
D03*
X164700Y530240D02*
D03*
Y540240D02*
D03*
X225660Y530240D02*
D03*
Y540240D02*
D03*
X286620Y530240D02*
D03*
Y540240D02*
D03*
X347580Y530240D02*
D03*
Y540240D02*
D03*
X103740Y365240D02*
D03*
Y375240D02*
D03*
X164700Y365240D02*
D03*
Y375240D02*
D03*
X225660Y365240D02*
D03*
Y375240D02*
D03*
X286620Y365240D02*
D03*
Y375240D02*
D03*
X347580Y365240D02*
D03*
Y375240D02*
D03*
X103740Y200240D02*
D03*
Y210240D02*
D03*
X164700Y200240D02*
D03*
Y210240D02*
D03*
X225660Y200240D02*
D03*
Y210240D02*
D03*
X286620Y200240D02*
D03*
Y210240D02*
D03*
X347580Y200240D02*
D03*
Y210240D02*
D03*
X103740Y35240D02*
D03*
Y45240D02*
D03*
X164700Y35240D02*
D03*
Y45240D02*
D03*
X225660Y35240D02*
D03*
Y45240D02*
D03*
X286620Y35240D02*
D03*
Y45240D02*
D03*
X347580Y35240D02*
D03*
Y45240D02*
D03*
D23*
X108820Y553930D02*
D03*
Y572430D02*
D03*
X169780Y553930D02*
D03*
Y572430D02*
D03*
X230740Y553930D02*
D03*
Y572430D02*
D03*
X291700D02*
D03*
Y553930D02*
D03*
X352660D02*
D03*
Y572430D02*
D03*
X108820Y388930D02*
D03*
Y407430D02*
D03*
X169780Y388930D02*
D03*
Y407430D02*
D03*
X230740Y388930D02*
D03*
Y407430D02*
D03*
X291700D02*
D03*
Y388930D02*
D03*
X352660D02*
D03*
Y407430D02*
D03*
X108820Y223930D02*
D03*
Y242430D02*
D03*
X169780Y223930D02*
D03*
Y242430D02*
D03*
X230740Y223930D02*
D03*
Y242430D02*
D03*
X291700D02*
D03*
Y223930D02*
D03*
X352660D02*
D03*
Y242430D02*
D03*
X108820Y58930D02*
D03*
Y77430D02*
D03*
X169780Y58930D02*
D03*
Y77430D02*
D03*
X230740Y58930D02*
D03*
Y77430D02*
D03*
X291700D02*
D03*
Y58930D02*
D03*
X352660D02*
D03*
Y77430D02*
D03*
D24*
X261300Y642000D02*
D03*
X286700D02*
D03*
X312100D02*
D03*
X337500D02*
D03*
X362900D02*
D03*
X58100Y616600D02*
D03*
X83500D02*
D03*
X108900D02*
D03*
X134300D02*
D03*
X159700D02*
D03*
X261300Y477000D02*
D03*
X286700D02*
D03*
X312100D02*
D03*
X337500D02*
D03*
X362900D02*
D03*
X58100Y451600D02*
D03*
X83500D02*
D03*
X108900D02*
D03*
X134300D02*
D03*
X159700D02*
D03*
X261300Y312000D02*
D03*
X286700D02*
D03*
X312100D02*
D03*
X337500D02*
D03*
X362900D02*
D03*
X58100Y286600D02*
D03*
X83500D02*
D03*
X108900D02*
D03*
X134300D02*
D03*
X159700D02*
D03*
X261300Y147000D02*
D03*
X286700D02*
D03*
X312100D02*
D03*
X337500D02*
D03*
X362900D02*
D03*
X58100Y121600D02*
D03*
X83500D02*
D03*
X108900D02*
D03*
X134300D02*
D03*
X159700D02*
D03*
D25*
X129140Y544730D02*
D03*
X378060Y535240D02*
D03*
X373060Y596280D02*
D03*
X64450D02*
D03*
X44130Y525160D02*
D03*
Y568340D02*
D03*
X52690Y556910D02*
D03*
X183830Y531510D02*
D03*
X309938Y544405D02*
D03*
X247330Y539034D02*
D03*
X312100Y614060D02*
D03*
X70800Y520080D02*
D03*
X53020Y596280D02*
D03*
X141920Y520080D02*
D03*
X129140Y379730D02*
D03*
X378060Y370240D02*
D03*
X373060Y431280D02*
D03*
X64450D02*
D03*
X44130Y360160D02*
D03*
Y403340D02*
D03*
X52690Y391910D02*
D03*
X183830Y366510D02*
D03*
X309938Y379405D02*
D03*
X247330Y374034D02*
D03*
X312100Y449060D02*
D03*
X70800Y355080D02*
D03*
X53020Y431280D02*
D03*
X141920Y355080D02*
D03*
X129140Y214730D02*
D03*
X378060Y205240D02*
D03*
X373060Y266280D02*
D03*
X64450D02*
D03*
X44130Y195160D02*
D03*
Y238340D02*
D03*
X52690Y226910D02*
D03*
X183830Y201510D02*
D03*
X309938Y214405D02*
D03*
X247330Y209034D02*
D03*
X312100Y284060D02*
D03*
X70800Y190080D02*
D03*
X53020Y266280D02*
D03*
X141920Y190080D02*
D03*
X129140Y49730D02*
D03*
X378060Y40240D02*
D03*
X373060Y101280D02*
D03*
X64450D02*
D03*
X44130Y30160D02*
D03*
Y73340D02*
D03*
X52690Y61910D02*
D03*
X183830Y36510D02*
D03*
X309938Y49405D02*
D03*
X247330Y44034D02*
D03*
X312100Y119060D02*
D03*
X70800Y25080D02*
D03*
X53020Y101280D02*
D03*
X141920Y25080D02*
D03*
D34*
X72344Y628304D02*
D03*
X79415Y635376D02*
D03*
X92664Y625765D02*
D03*
X99735Y632836D02*
D03*
X168864Y625765D02*
D03*
X175935Y632836D02*
D03*
X150535D02*
D03*
X143464Y625765D02*
D03*
X125135Y632836D02*
D03*
X118064Y625765D02*
D03*
X72344Y463304D02*
D03*
X79415Y470376D02*
D03*
X92664Y460765D02*
D03*
X99735Y467836D02*
D03*
X168864Y460765D02*
D03*
X175935Y467836D02*
D03*
X150535D02*
D03*
X143464Y460764D02*
D03*
X125135Y467836D02*
D03*
X118064Y460764D02*
D03*
X72344Y298305D02*
D03*
X79415Y305375D02*
D03*
X92664Y295765D02*
D03*
X99735Y302836D02*
D03*
X168864Y295765D02*
D03*
X175935Y302836D02*
D03*
X150535D02*
D03*
X143464Y295765D02*
D03*
X125135Y302836D02*
D03*
X118064Y295765D02*
D03*
X72344Y133305D02*
D03*
X79415Y140375D02*
D03*
X92664Y130765D02*
D03*
X99735Y137836D02*
D03*
X168864Y130765D02*
D03*
X175935Y137836D02*
D03*
X150535D02*
D03*
X143464Y130765D02*
D03*
X125135Y137836D02*
D03*
X118064Y130765D02*
D03*
D35*
X91000Y544020D02*
D03*
X68000Y553520D02*
D03*
Y534520D02*
D03*
X151960Y544020D02*
D03*
X128960Y553520D02*
D03*
Y534520D02*
D03*
X212920Y544020D02*
D03*
X189920Y553520D02*
D03*
Y534520D02*
D03*
X273880Y544020D02*
D03*
X250880Y553520D02*
D03*
Y534520D02*
D03*
X334840Y544020D02*
D03*
X311840Y553520D02*
D03*
Y534520D02*
D03*
X91000Y379020D02*
D03*
X68000Y388520D02*
D03*
Y369520D02*
D03*
X151960Y379020D02*
D03*
X128960Y388520D02*
D03*
Y369520D02*
D03*
X212920Y379020D02*
D03*
X189920Y388520D02*
D03*
Y369520D02*
D03*
X273880Y379020D02*
D03*
X250880Y388520D02*
D03*
Y369520D02*
D03*
X334840Y379020D02*
D03*
X311840Y388520D02*
D03*
Y369520D02*
D03*
X91000Y214020D02*
D03*
X68000Y223520D02*
D03*
Y204520D02*
D03*
X151960Y214020D02*
D03*
X128960Y223520D02*
D03*
Y204520D02*
D03*
X212920Y214020D02*
D03*
X189920Y223520D02*
D03*
Y204520D02*
D03*
X273880Y214020D02*
D03*
X250880Y223520D02*
D03*
Y204520D02*
D03*
X334840Y214020D02*
D03*
X311840Y223520D02*
D03*
Y204520D02*
D03*
X91000Y49020D02*
D03*
X68000Y58520D02*
D03*
Y39520D02*
D03*
X151960Y49020D02*
D03*
X128960Y58520D02*
D03*
Y39520D02*
D03*
X212920Y49020D02*
D03*
X189920Y58520D02*
D03*
Y39520D02*
D03*
X273880Y49020D02*
D03*
X250880Y58520D02*
D03*
Y39520D02*
D03*
X334840Y49020D02*
D03*
X311840Y58520D02*
D03*
Y39520D02*
D03*
D36*
X78340Y592460D02*
D03*
X68840Y569460D02*
D03*
X87840D02*
D03*
X139300Y592460D02*
D03*
X129800Y569460D02*
D03*
X148800D02*
D03*
X200260Y592460D02*
D03*
X190760Y569460D02*
D03*
X209760D02*
D03*
X261220Y592460D02*
D03*
X251720Y569460D02*
D03*
X270720D02*
D03*
X322180Y592460D02*
D03*
X312680Y569460D02*
D03*
X331680D02*
D03*
X78340Y427460D02*
D03*
X68840Y404460D02*
D03*
X87840D02*
D03*
X139300Y427460D02*
D03*
X129800Y404460D02*
D03*
X148800D02*
D03*
X200260Y427460D02*
D03*
X190760Y404460D02*
D03*
X209760D02*
D03*
X261220Y427460D02*
D03*
X251720Y404460D02*
D03*
X270720D02*
D03*
X322180Y427460D02*
D03*
X312680Y404460D02*
D03*
X331680D02*
D03*
X78340Y262460D02*
D03*
X68840Y239460D02*
D03*
X87840D02*
D03*
X139300Y262460D02*
D03*
X129800Y239460D02*
D03*
X148800D02*
D03*
X200260Y262460D02*
D03*
X190760Y239460D02*
D03*
X209760D02*
D03*
X261220Y262460D02*
D03*
X251720Y239460D02*
D03*
X270720D02*
D03*
X322180Y262460D02*
D03*
X312680Y239460D02*
D03*
X331680D02*
D03*
X78340Y97460D02*
D03*
X68840Y74460D02*
D03*
X87840D02*
D03*
X139300Y97460D02*
D03*
X129800Y74460D02*
D03*
X148800D02*
D03*
X200260Y97460D02*
D03*
X190760Y74460D02*
D03*
X209760D02*
D03*
X261220Y97460D02*
D03*
X251720Y74460D02*
D03*
X270720D02*
D03*
X322180Y97460D02*
D03*
X312680Y74460D02*
D03*
X331680D02*
D03*
M02*
