G04*
G04 #@! TF.GenerationSoftware,Altium Limited,Altium Designer,20.2.7 (254)*
G04*
G04 Layer_Color=128*
%FSLAX44Y44*%
%MOMM*%
G71*
G04*
G04 #@! TF.SameCoordinates,E2930A79-BBFB-44DC-8FC5-9A75561AB175*
G04*
G04*
G04 #@! TF.FilePolarity,Positive*
G04*
G01*
G75*
%ADD15R,0.5500X0.4500*%
%ADD18R,1.3000X0.9000*%
G04:AMPARAMS|DCode=31|XSize=0.55mm|YSize=0.45mm|CornerRadius=0mm|HoleSize=0mm|Usage=FLASHONLY|Rotation=135.000|XOffset=0mm|YOffset=0mm|HoleType=Round|Shape=Rectangle|*
%AMROTATEDRECTD31*
4,1,4,0.3536,-0.0354,0.0354,-0.3536,-0.3536,0.0354,-0.0354,0.3536,0.3536,-0.0354,0.0*
%
%ADD31ROTATEDRECTD31*%

%ADD32R,0.9000X0.6000*%
%ADD33R,0.6000X0.9000*%
D15*
X103740Y530240D02*
D03*
Y540240D02*
D03*
X164700Y530240D02*
D03*
Y540240D02*
D03*
X225660Y530240D02*
D03*
Y540240D02*
D03*
X286620Y530240D02*
D03*
Y540240D02*
D03*
X347580Y530240D02*
D03*
Y540240D02*
D03*
X103740Y365240D02*
D03*
Y375240D02*
D03*
X164700Y365240D02*
D03*
Y375240D02*
D03*
X225660Y365240D02*
D03*
Y375240D02*
D03*
X286620Y365240D02*
D03*
Y375240D02*
D03*
X347580Y365240D02*
D03*
Y375240D02*
D03*
X103740Y200240D02*
D03*
Y210240D02*
D03*
X164700Y200240D02*
D03*
Y210240D02*
D03*
X225660Y200240D02*
D03*
Y210240D02*
D03*
X286620Y200240D02*
D03*
Y210240D02*
D03*
X347580Y200240D02*
D03*
Y210240D02*
D03*
X103740Y35240D02*
D03*
Y45240D02*
D03*
X164700Y35240D02*
D03*
Y45240D02*
D03*
X225660Y35240D02*
D03*
Y45240D02*
D03*
X286620Y35240D02*
D03*
Y45240D02*
D03*
X347580Y35240D02*
D03*
Y45240D02*
D03*
D18*
X108820Y553930D02*
D03*
Y572430D02*
D03*
X169780Y553930D02*
D03*
Y572430D02*
D03*
X230740Y553930D02*
D03*
Y572430D02*
D03*
X291700D02*
D03*
Y553930D02*
D03*
X352660D02*
D03*
Y572430D02*
D03*
X108820Y388930D02*
D03*
Y407430D02*
D03*
X169780Y388930D02*
D03*
Y407430D02*
D03*
X230740Y388930D02*
D03*
Y407430D02*
D03*
X291700D02*
D03*
Y388930D02*
D03*
X352660D02*
D03*
Y407430D02*
D03*
X108820Y223930D02*
D03*
Y242430D02*
D03*
X169780Y223930D02*
D03*
Y242430D02*
D03*
X230740Y223930D02*
D03*
Y242430D02*
D03*
X291700D02*
D03*
Y223930D02*
D03*
X352660D02*
D03*
Y242430D02*
D03*
X108820Y58930D02*
D03*
Y77430D02*
D03*
X169780Y58930D02*
D03*
Y77430D02*
D03*
X230740Y58930D02*
D03*
Y77430D02*
D03*
X291700D02*
D03*
Y58930D02*
D03*
X352660D02*
D03*
Y77430D02*
D03*
D31*
X72344Y628304D02*
D03*
X79415Y635376D02*
D03*
X92664Y625765D02*
D03*
X99735Y632836D02*
D03*
X168864Y625765D02*
D03*
X175935Y632836D02*
D03*
X150535D02*
D03*
X143464Y625765D02*
D03*
X125135Y632836D02*
D03*
X118064Y625765D02*
D03*
X72344Y463304D02*
D03*
X79415Y470376D02*
D03*
X92664Y460765D02*
D03*
X99735Y467836D02*
D03*
X168864Y460765D02*
D03*
X175935Y467836D02*
D03*
X150535D02*
D03*
X143464Y460764D02*
D03*
X125135Y467836D02*
D03*
X118064Y460764D02*
D03*
X72344Y298305D02*
D03*
X79415Y305375D02*
D03*
X92664Y295765D02*
D03*
X99735Y302836D02*
D03*
X168864Y295765D02*
D03*
X175935Y302836D02*
D03*
X150535D02*
D03*
X143464Y295765D02*
D03*
X125135Y302836D02*
D03*
X118064Y295765D02*
D03*
X72344Y133305D02*
D03*
X79415Y140375D02*
D03*
X92664Y130765D02*
D03*
X99735Y137836D02*
D03*
X168864Y130765D02*
D03*
X175935Y137836D02*
D03*
X150535D02*
D03*
X143464Y130765D02*
D03*
X125135Y137836D02*
D03*
X118064Y130765D02*
D03*
D32*
X91000Y544020D02*
D03*
X68000Y553520D02*
D03*
Y534520D02*
D03*
X151960Y544020D02*
D03*
X128960Y553520D02*
D03*
Y534520D02*
D03*
X212920Y544020D02*
D03*
X189920Y553520D02*
D03*
Y534520D02*
D03*
X273880Y544020D02*
D03*
X250880Y553520D02*
D03*
Y534520D02*
D03*
X334840Y544020D02*
D03*
X311840Y553520D02*
D03*
Y534520D02*
D03*
X91000Y379020D02*
D03*
X68000Y388520D02*
D03*
Y369520D02*
D03*
X151960Y379020D02*
D03*
X128960Y388520D02*
D03*
Y369520D02*
D03*
X212920Y379020D02*
D03*
X189920Y388520D02*
D03*
Y369520D02*
D03*
X273880Y379020D02*
D03*
X250880Y388520D02*
D03*
Y369520D02*
D03*
X334840Y379020D02*
D03*
X311840Y388520D02*
D03*
Y369520D02*
D03*
X91000Y214020D02*
D03*
X68000Y223520D02*
D03*
Y204520D02*
D03*
X151960Y214020D02*
D03*
X128960Y223520D02*
D03*
Y204520D02*
D03*
X212920Y214020D02*
D03*
X189920Y223520D02*
D03*
Y204520D02*
D03*
X273880Y214020D02*
D03*
X250880Y223520D02*
D03*
Y204520D02*
D03*
X334840Y214020D02*
D03*
X311840Y223520D02*
D03*
Y204520D02*
D03*
X91000Y49020D02*
D03*
X68000Y58520D02*
D03*
Y39520D02*
D03*
X151960Y49020D02*
D03*
X128960Y58520D02*
D03*
Y39520D02*
D03*
X212920Y49020D02*
D03*
X189920Y58520D02*
D03*
Y39520D02*
D03*
X273880Y49020D02*
D03*
X250880Y58520D02*
D03*
Y39520D02*
D03*
X334840Y49020D02*
D03*
X311840Y58520D02*
D03*
Y39520D02*
D03*
D33*
X78340Y592460D02*
D03*
X68840Y569460D02*
D03*
X87840D02*
D03*
X139300Y592460D02*
D03*
X129800Y569460D02*
D03*
X148800D02*
D03*
X200260Y592460D02*
D03*
X190760Y569460D02*
D03*
X209760D02*
D03*
X261220Y592460D02*
D03*
X251720Y569460D02*
D03*
X270720D02*
D03*
X322180Y592460D02*
D03*
X312680Y569460D02*
D03*
X331680D02*
D03*
X78340Y427460D02*
D03*
X68840Y404460D02*
D03*
X87840D02*
D03*
X139300Y427460D02*
D03*
X129800Y404460D02*
D03*
X148800D02*
D03*
X200260Y427460D02*
D03*
X190760Y404460D02*
D03*
X209760D02*
D03*
X261220Y427460D02*
D03*
X251720Y404460D02*
D03*
X270720D02*
D03*
X322180Y427460D02*
D03*
X312680Y404460D02*
D03*
X331680D02*
D03*
X78340Y262460D02*
D03*
X68840Y239460D02*
D03*
X87840D02*
D03*
X139300Y262460D02*
D03*
X129800Y239460D02*
D03*
X148800D02*
D03*
X200260Y262460D02*
D03*
X190760Y239460D02*
D03*
X209760D02*
D03*
X261220Y262460D02*
D03*
X251720Y239460D02*
D03*
X270720D02*
D03*
X322180Y262460D02*
D03*
X312680Y239460D02*
D03*
X331680D02*
D03*
X78340Y97460D02*
D03*
X68840Y74460D02*
D03*
X87840D02*
D03*
X139300Y97460D02*
D03*
X129800Y74460D02*
D03*
X148800D02*
D03*
X200260Y97460D02*
D03*
X190760Y74460D02*
D03*
X209760D02*
D03*
X261220Y97460D02*
D03*
X251720Y74460D02*
D03*
X270720D02*
D03*
X322180Y97460D02*
D03*
X312680Y74460D02*
D03*
X331680D02*
D03*
M02*
