G04*
G04 #@! TF.GenerationSoftware,Altium Limited,Altium Designer,20.2.7 (254)*
G04*
G04 Layer_Color=32896*
%FSLAX44Y44*%
%MOMM*%
G71*
G04*
G04 #@! TF.SameCoordinates,E2930A79-BBFB-44DC-8FC5-9A75561AB175*
G04*
G04*
G04 #@! TF.FilePolarity,Positive*
G04*
G01*
G75*
%ADD11C,0.2500*%
%ADD12C,0.2000*%
%ADD13C,0.1500*%
D11*
X69250Y526020D02*
G03*
X69250Y526020I-1250J0D01*
G01*
X97590Y569460D02*
G03*
X97590Y569460I-1250J0D01*
G01*
X130210Y526020D02*
G03*
X130210Y526020I-1250J0D01*
G01*
X158550Y569460D02*
G03*
X158550Y569460I-1250J0D01*
G01*
X191170Y526020D02*
G03*
X191170Y526020I-1250J0D01*
G01*
X219510Y569460D02*
G03*
X219510Y569460I-1250J0D01*
G01*
X252130Y526020D02*
G03*
X252130Y526020I-1250J0D01*
G01*
X280470Y569460D02*
G03*
X280470Y569460I-1250J0D01*
G01*
X313090Y526020D02*
G03*
X313090Y526020I-1250J0D01*
G01*
X341430Y569460D02*
G03*
X341430Y569460I-1250J0D01*
G01*
X69250Y361020D02*
G03*
X69250Y361020I-1250J0D01*
G01*
X97590Y404460D02*
G03*
X97590Y404460I-1250J0D01*
G01*
X130210Y361020D02*
G03*
X130210Y361020I-1250J0D01*
G01*
X158550Y404460D02*
G03*
X158550Y404460I-1250J0D01*
G01*
X191170Y361020D02*
G03*
X191170Y361020I-1250J0D01*
G01*
X219510Y404460D02*
G03*
X219510Y404460I-1250J0D01*
G01*
X252130Y361020D02*
G03*
X252130Y361020I-1250J0D01*
G01*
X280470Y404460D02*
G03*
X280470Y404460I-1250J0D01*
G01*
X313090Y361020D02*
G03*
X313090Y361020I-1250J0D01*
G01*
X341430Y404460D02*
G03*
X341430Y404460I-1250J0D01*
G01*
X69250Y196020D02*
G03*
X69250Y196020I-1250J0D01*
G01*
X97590Y239460D02*
G03*
X97590Y239460I-1250J0D01*
G01*
X130210Y196020D02*
G03*
X130210Y196020I-1250J0D01*
G01*
X158550Y239460D02*
G03*
X158550Y239460I-1250J0D01*
G01*
X191170Y196020D02*
G03*
X191170Y196020I-1250J0D01*
G01*
X219510Y239460D02*
G03*
X219510Y239460I-1250J0D01*
G01*
X252130Y196020D02*
G03*
X252130Y196020I-1250J0D01*
G01*
X280470Y239460D02*
G03*
X280470Y239460I-1250J0D01*
G01*
X313090Y196020D02*
G03*
X313090Y196020I-1250J0D01*
G01*
X341430Y239460D02*
G03*
X341430Y239460I-1250J0D01*
G01*
X69250Y31020D02*
G03*
X69250Y31020I-1250J0D01*
G01*
X97590Y74460D02*
G03*
X97590Y74460I-1250J0D01*
G01*
X130210Y31020D02*
G03*
X130210Y31020I-1250J0D01*
G01*
X158550Y74460D02*
G03*
X158550Y74460I-1250J0D01*
G01*
X191170Y31020D02*
G03*
X191170Y31020I-1250J0D01*
G01*
X219510Y74460D02*
G03*
X219510Y74460I-1250J0D01*
G01*
X252130Y31020D02*
G03*
X252130Y31020I-1250J0D01*
G01*
X280470Y74460D02*
G03*
X280470Y74460I-1250J0D01*
G01*
X313090Y31020D02*
G03*
X313090Y31020I-1250J0D01*
G01*
X341430Y74460D02*
G03*
X341430Y74460I-1250J0D01*
G01*
D12*
X114320Y562180D02*
Y564180D01*
X103320Y562180D02*
Y564180D01*
X175280Y562180D02*
Y564180D01*
X164280Y562180D02*
Y564180D01*
X236240Y562180D02*
Y564180D01*
X225240Y562180D02*
Y564180D01*
X286200Y562180D02*
Y564180D01*
X297200Y562180D02*
Y564180D01*
X358160Y562180D02*
Y564180D01*
X347160Y562180D02*
Y564180D01*
X86500Y551020D02*
Y559020D01*
X76500D02*
X86500D01*
Y529020D02*
Y537020D01*
X76500Y529020D02*
X86500D01*
X63340Y587960D02*
X71340D01*
X63340Y577960D02*
Y587960D01*
X85340D02*
X93340D01*
Y577960D02*
Y587960D01*
X147460Y551020D02*
Y559020D01*
X137460D02*
X147460D01*
Y529020D02*
Y537020D01*
X137460Y529020D02*
X147460D01*
X124300Y587960D02*
X132300D01*
X124300Y577960D02*
Y587960D01*
X146300D02*
X154300D01*
Y577960D02*
Y587960D01*
X208420Y551020D02*
Y559020D01*
X198420D02*
X208420D01*
Y529020D02*
Y537020D01*
X198420Y529020D02*
X208420D01*
X185260Y587960D02*
X193260D01*
X185260Y577960D02*
Y587960D01*
X207260D02*
X215260D01*
Y577960D02*
Y587960D01*
X269380Y551020D02*
Y559020D01*
X259380D02*
X269380D01*
Y529020D02*
Y537020D01*
X259380Y529020D02*
X269380D01*
X246220Y587960D02*
X254220D01*
X246220Y577960D02*
Y587960D01*
X268220D02*
X276220D01*
Y577960D02*
Y587960D01*
X330340Y551020D02*
Y559020D01*
X320340D02*
X330340D01*
Y529020D02*
Y537020D01*
X320340Y529020D02*
X330340D01*
X307180Y587960D02*
X315180D01*
X307180Y577960D02*
Y587960D01*
X329180D02*
X337180D01*
Y577960D02*
Y587960D01*
X114320Y397180D02*
Y399180D01*
X103320Y397180D02*
Y399180D01*
X175280Y397180D02*
Y399180D01*
X164280Y397180D02*
Y399180D01*
X236240Y397180D02*
Y399180D01*
X225240Y397180D02*
Y399180D01*
X286200Y397180D02*
Y399180D01*
X297200Y397180D02*
Y399180D01*
X358160Y397180D02*
Y399180D01*
X347160Y397180D02*
Y399180D01*
X86500Y386020D02*
Y394020D01*
X76500D02*
X86500D01*
Y364020D02*
Y372020D01*
X76500Y364020D02*
X86500D01*
X63340Y422960D02*
X71340D01*
X63340Y412960D02*
Y422960D01*
X85340D02*
X93340D01*
Y412960D02*
Y422960D01*
X147460Y386020D02*
Y394020D01*
X137460D02*
X147460D01*
Y364020D02*
Y372020D01*
X137460Y364020D02*
X147460D01*
X124300Y422960D02*
X132300D01*
X124300Y412960D02*
Y422960D01*
X146300D02*
X154300D01*
Y412960D02*
Y422960D01*
X208420Y386020D02*
Y394020D01*
X198420D02*
X208420D01*
Y364020D02*
Y372020D01*
X198420Y364020D02*
X208420D01*
X185260Y422960D02*
X193260D01*
X185260Y412960D02*
Y422960D01*
X207260D02*
X215260D01*
Y412960D02*
Y422960D01*
X269380Y386020D02*
Y394020D01*
X259380D02*
X269380D01*
Y364020D02*
Y372020D01*
X259380Y364020D02*
X269380D01*
X246220Y422960D02*
X254220D01*
X246220Y412960D02*
Y422960D01*
X268220D02*
X276220D01*
Y412960D02*
Y422960D01*
X330340Y386020D02*
Y394020D01*
X320340D02*
X330340D01*
Y364020D02*
Y372020D01*
X320340Y364020D02*
X330340D01*
X307180Y422960D02*
X315180D01*
X307180Y412960D02*
Y422960D01*
X329180D02*
X337180D01*
Y412960D02*
Y422960D01*
X114320Y232180D02*
Y234180D01*
X103320Y232180D02*
Y234180D01*
X175280Y232180D02*
Y234180D01*
X164280Y232180D02*
Y234180D01*
X236240Y232180D02*
Y234180D01*
X225240Y232180D02*
Y234180D01*
X286200Y232180D02*
Y234180D01*
X297200Y232180D02*
Y234180D01*
X358160Y232180D02*
Y234180D01*
X347160Y232180D02*
Y234180D01*
X86500Y221020D02*
Y229020D01*
X76500D02*
X86500D01*
Y199020D02*
Y207020D01*
X76500Y199020D02*
X86500D01*
X63340Y257960D02*
X71340D01*
X63340Y247960D02*
Y257960D01*
X85340D02*
X93340D01*
Y247960D02*
Y257960D01*
X147460Y221020D02*
Y229020D01*
X137460D02*
X147460D01*
Y199020D02*
Y207020D01*
X137460Y199020D02*
X147460D01*
X124300Y257960D02*
X132300D01*
X124300Y247960D02*
Y257960D01*
X146300D02*
X154300D01*
Y247960D02*
Y257960D01*
X208420Y221020D02*
Y229020D01*
X198420D02*
X208420D01*
Y199020D02*
Y207020D01*
X198420Y199020D02*
X208420D01*
X185260Y257960D02*
X193260D01*
X185260Y247960D02*
Y257960D01*
X207260D02*
X215260D01*
Y247960D02*
Y257960D01*
X269380Y221020D02*
Y229020D01*
X259380D02*
X269380D01*
Y199020D02*
Y207020D01*
X259380Y199020D02*
X269380D01*
X246220Y257960D02*
X254220D01*
X246220Y247960D02*
Y257960D01*
X268220D02*
X276220D01*
Y247960D02*
Y257960D01*
X330340Y221020D02*
Y229020D01*
X320340D02*
X330340D01*
Y199020D02*
Y207020D01*
X320340Y199020D02*
X330340D01*
X307180Y257960D02*
X315180D01*
X307180Y247960D02*
Y257960D01*
X329180D02*
X337180D01*
Y247960D02*
Y257960D01*
X114320Y67180D02*
Y69180D01*
X103320Y67180D02*
Y69180D01*
X175280Y67180D02*
Y69180D01*
X164280Y67180D02*
Y69180D01*
X236240Y67180D02*
Y69180D01*
X225240Y67180D02*
Y69180D01*
X286200Y67180D02*
Y69180D01*
X297200Y67180D02*
Y69180D01*
X358160Y67180D02*
Y69180D01*
X347160Y67180D02*
Y69180D01*
X86500Y56020D02*
Y64020D01*
X76500D02*
X86500D01*
Y34020D02*
Y42020D01*
X76500Y34020D02*
X86500D01*
X63340Y92960D02*
X71340D01*
X63340Y82960D02*
Y92960D01*
X85340D02*
X93340D01*
Y82960D02*
Y92960D01*
X147460Y56020D02*
Y64020D01*
X137460D02*
X147460D01*
Y34020D02*
Y42020D01*
X137460Y34020D02*
X147460D01*
X124300Y92960D02*
X132300D01*
X124300Y82960D02*
Y92960D01*
X146300D02*
X154300D01*
Y82960D02*
Y92960D01*
X208420Y56020D02*
Y64020D01*
X198420D02*
X208420D01*
Y34020D02*
Y42020D01*
X198420Y34020D02*
X208420D01*
X185260Y92960D02*
X193260D01*
X185260Y82960D02*
Y92960D01*
X207260D02*
X215260D01*
Y82960D02*
Y92960D01*
X269380Y56020D02*
Y64020D01*
X259380D02*
X269380D01*
Y34020D02*
Y42020D01*
X259380Y34020D02*
X269380D01*
X246220Y92960D02*
X254220D01*
X246220Y82960D02*
Y92960D01*
X268220D02*
X276220D01*
Y82960D02*
Y92960D01*
X330340Y56020D02*
Y64020D01*
X320340D02*
X330340D01*
Y34020D02*
Y42020D01*
X320340Y34020D02*
X330340D01*
X307180Y92960D02*
X315180D01*
X307180Y82960D02*
Y92960D01*
X329180D02*
X337180D01*
Y82960D02*
Y92960D01*
D13*
X112899Y583121D02*
Y589119D01*
X109900D01*
X108900Y588119D01*
Y586120D01*
X109900Y585120D01*
X112899D01*
X110899D02*
X108900Y583121D01*
X106901D02*
X104901D01*
X105901D01*
Y589119D01*
X106901Y588119D01*
X116979Y537778D02*
X110981D01*
Y534779D01*
X111981Y533780D01*
X113980D01*
X114980Y534779D01*
Y537778D01*
Y535779D02*
X116979Y533780D01*
X111981Y531780D02*
X110981Y530781D01*
Y528781D01*
X111981Y527782D01*
X112980D01*
X113980Y528781D01*
Y529781D01*
Y528781D01*
X114980Y527782D01*
X115979D01*
X116979Y528781D01*
Y530781D01*
X115979Y531780D01*
X93578Y639001D02*
Y644999D01*
X90579D01*
X89580Y643999D01*
Y642000D01*
X90579Y641000D01*
X93578D01*
X91579D02*
X89580Y639001D01*
X84581D02*
Y644999D01*
X87580Y642000D01*
X83582D01*
X174858Y583121D02*
Y589119D01*
X171859D01*
X170860Y588119D01*
Y586120D01*
X171859Y585120D01*
X174858D01*
X172859D02*
X170860Y583121D01*
X164862Y589119D02*
X166861Y588119D01*
X168860Y586120D01*
Y584121D01*
X167861Y583121D01*
X165861D01*
X164862Y584121D01*
Y585120D01*
X165861Y586120D01*
X168860D01*
X177939Y537778D02*
X171941D01*
Y534779D01*
X172941Y533780D01*
X174940D01*
X175940Y534779D01*
Y537778D01*
Y535779D02*
X177939Y533780D01*
X171941Y531780D02*
Y527782D01*
X172941D01*
X176939Y531780D01*
X177939D01*
X111358Y639001D02*
Y644999D01*
X108359D01*
X107360Y643999D01*
Y642000D01*
X108359Y641000D01*
X111358D01*
X109359D02*
X107360Y639001D01*
X105360Y643999D02*
X104361Y644999D01*
X102361D01*
X101362Y643999D01*
Y643000D01*
X102361Y642000D01*
X101362Y641000D01*
Y640001D01*
X102361Y639001D01*
X104361D01*
X105360Y640001D01*
Y641000D01*
X104361Y642000D01*
X105360Y643000D01*
Y643999D01*
X104361Y642000D02*
X102361D01*
X238358Y583121D02*
Y589119D01*
X235359D01*
X234360Y588119D01*
Y586120D01*
X235359Y585120D01*
X238358D01*
X236359D02*
X234360Y583121D01*
X232360Y584121D02*
X231361Y583121D01*
X229361D01*
X228362Y584121D01*
Y588119D01*
X229361Y589119D01*
X231361D01*
X232360Y588119D01*
Y587120D01*
X231361Y586120D01*
X228362D01*
X238899Y542818D02*
X232901D01*
Y539818D01*
X233901Y538819D01*
X235900D01*
X236900Y539818D01*
Y542818D01*
Y540818D02*
X238899Y538819D01*
Y536819D02*
Y534820D01*
Y535820D01*
X232901D01*
X233901Y536819D01*
Y531821D02*
X232901Y530821D01*
Y528822D01*
X233901Y527822D01*
X237899D01*
X238899Y528822D01*
Y530821D01*
X237899Y531821D01*
X233901D01*
X301818Y580581D02*
Y586579D01*
X298818D01*
X297819Y585579D01*
Y583580D01*
X298818Y582580D01*
X301818D01*
X299818D02*
X297819Y580581D01*
X295819D02*
X293820D01*
X294820D01*
Y586579D01*
X295819Y585579D01*
X290821D02*
X289821Y586579D01*
X287822D01*
X286822Y585579D01*
Y584580D01*
X287822Y583580D01*
X288822D01*
X287822D01*
X286822Y582580D01*
Y581581D01*
X287822Y580581D01*
X289821D01*
X290821Y581581D01*
X299859Y542818D02*
X293861D01*
Y539818D01*
X294861Y538819D01*
X296860D01*
X297860Y539818D01*
Y542818D01*
Y540818D02*
X299859Y538819D01*
Y536819D02*
Y534820D01*
Y535820D01*
X293861D01*
X294861Y536819D01*
X299859Y528822D02*
X293861D01*
X296860Y531821D01*
Y527822D01*
X362778Y580581D02*
Y586579D01*
X359779D01*
X358779Y585579D01*
Y583580D01*
X359779Y582580D01*
X362778D01*
X360778D02*
X358779Y580581D01*
X356780D02*
X354780D01*
X355780D01*
Y586579D01*
X356780Y585579D01*
X347782Y586579D02*
X349782Y585579D01*
X351781Y583580D01*
Y581581D01*
X350782Y580581D01*
X348782D01*
X347782Y581581D01*
Y582580D01*
X348782Y583580D01*
X351781D01*
X360819Y542818D02*
X354821D01*
Y539818D01*
X355821Y538819D01*
X357820D01*
X358820Y539818D01*
Y542818D01*
Y540818D02*
X360819Y538819D01*
Y536819D02*
Y534820D01*
Y535820D01*
X354821D01*
X355821Y536819D01*
X354821Y531821D02*
Y527822D01*
X355821D01*
X359819Y531821D01*
X360819D01*
X192598Y639001D02*
Y644999D01*
X189599D01*
X188599Y643999D01*
Y642000D01*
X189599Y641000D01*
X192598D01*
X190598D02*
X188599Y639001D01*
X186600D02*
X184600D01*
X185600D01*
Y644999D01*
X186600Y643999D01*
X181601D02*
X180602Y644999D01*
X178602D01*
X177602Y643999D01*
Y643000D01*
X178602Y642000D01*
X177602Y641000D01*
Y640001D01*
X178602Y639001D01*
X180602D01*
X181601Y640001D01*
Y641000D01*
X180602Y642000D01*
X181601Y643000D01*
Y643999D01*
X180602Y642000D02*
X178602D01*
X95578Y523079D02*
Y519080D01*
X93578Y517081D01*
X91579Y519080D01*
Y523079D01*
X89580D02*
X85581D01*
X87580D01*
Y517081D01*
X83582D02*
X81582D01*
X82582D01*
Y523079D01*
X83582Y522079D01*
X101657Y604359D02*
Y600360D01*
X99658Y598361D01*
X97659Y600360D01*
Y604359D01*
X95659D02*
X91661D01*
X93660D01*
Y598361D01*
X85663D02*
X89661D01*
X85663Y602360D01*
Y603359D01*
X86662Y604359D01*
X88662D01*
X89661Y603359D01*
X165157Y523079D02*
Y519080D01*
X163158Y517081D01*
X161159Y519080D01*
Y523079D01*
X159159D02*
X155161D01*
X157160D01*
Y517081D01*
X153161Y522079D02*
X152162Y523079D01*
X150162D01*
X149163Y522079D01*
Y521080D01*
X150162Y520080D01*
X151162D01*
X150162D01*
X149163Y519080D01*
Y518081D01*
X150162Y517081D01*
X152162D01*
X153161Y518081D01*
X162617Y604359D02*
Y600360D01*
X160618Y598361D01*
X158619Y600360D01*
Y604359D01*
X156619D02*
X152621D01*
X154620D01*
Y598361D01*
X147622D02*
Y604359D01*
X150621Y601360D01*
X146623D01*
X223577Y523079D02*
Y519080D01*
X221578Y517081D01*
X219579Y519080D01*
Y523079D01*
X217579D02*
X213581D01*
X215580D01*
Y517081D01*
X207583Y523079D02*
X211581D01*
Y520080D01*
X209582Y521080D01*
X208582D01*
X207583Y520080D01*
Y518081D01*
X208582Y517081D01*
X210582D01*
X211581Y518081D01*
X226117Y604359D02*
Y600360D01*
X224118Y598361D01*
X222119Y600360D01*
Y604359D01*
X220119D02*
X216121D01*
X218120D01*
Y598361D01*
X210123Y604359D02*
X212122Y603359D01*
X214121Y601360D01*
Y599361D01*
X213122Y598361D01*
X211122D01*
X210123Y599361D01*
Y600360D01*
X211122Y601360D01*
X214121D01*
X284537Y523079D02*
Y519080D01*
X282538Y517081D01*
X280539Y519080D01*
Y523079D01*
X278539D02*
X274541D01*
X276540D01*
Y517081D01*
X272541Y523079D02*
X268543D01*
Y522079D01*
X272541Y518081D01*
Y517081D01*
X289617Y604359D02*
Y600360D01*
X287618Y598361D01*
X285619Y600360D01*
Y604359D01*
X283619D02*
X279621D01*
X281620D01*
Y598361D01*
X277621Y603359D02*
X276622Y604359D01*
X274622D01*
X273623Y603359D01*
Y602360D01*
X274622Y601360D01*
X273623Y600360D01*
Y599361D01*
X274622Y598361D01*
X276622D01*
X277621Y599361D01*
Y600360D01*
X276622Y601360D01*
X277621Y602360D01*
Y603359D01*
X276622Y601360D02*
X274622D01*
X345497Y523079D02*
Y519080D01*
X343498Y517081D01*
X341499Y519080D01*
Y523079D01*
X339499D02*
X335501D01*
X337500D01*
Y517081D01*
X333501Y518081D02*
X332502Y517081D01*
X330502D01*
X329503Y518081D01*
Y522079D01*
X330502Y523079D01*
X332502D01*
X333501Y522079D01*
Y521080D01*
X332502Y520080D01*
X329503D01*
X355617Y604359D02*
Y600360D01*
X353617Y598361D01*
X351618Y600360D01*
Y604359D01*
X349618D02*
X345620D01*
X347619D01*
Y598361D01*
X343620D02*
X341621D01*
X342621D01*
Y604359D01*
X343620Y603359D01*
X338622D02*
X337622Y604359D01*
X335623D01*
X334623Y603359D01*
Y599361D01*
X335623Y598361D01*
X337622D01*
X338622Y599361D01*
Y603359D01*
X167198Y639001D02*
Y644999D01*
X164198D01*
X163199Y643999D01*
Y642000D01*
X164198Y641000D01*
X167198D01*
X165198D02*
X163199Y639001D01*
X161199D02*
X159200D01*
X160200D01*
Y644999D01*
X161199Y643999D01*
X152202Y644999D02*
X156201D01*
Y642000D01*
X154202Y643000D01*
X153202D01*
X152202Y642000D01*
Y640001D01*
X153202Y639001D01*
X155202D01*
X156201Y640001D01*
X140798Y639001D02*
Y644999D01*
X137799D01*
X136799Y643999D01*
Y642000D01*
X137799Y641000D01*
X140798D01*
X138799D02*
X136799Y639001D01*
X134800D02*
X132801D01*
X133800D01*
Y644999D01*
X134800Y643999D01*
X129802Y639001D02*
X127802D01*
X128802D01*
Y644999D01*
X129802Y643999D01*
X112899Y418121D02*
Y424119D01*
X109900D01*
X108900Y423119D01*
Y421120D01*
X109900Y420120D01*
X112899D01*
X110899D02*
X108900Y418121D01*
X106901D02*
X104901D01*
X105901D01*
Y424119D01*
X106901Y423119D01*
X116979Y372778D02*
X110981D01*
Y369779D01*
X111981Y368780D01*
X113980D01*
X114980Y369779D01*
Y372778D01*
Y370779D02*
X116979Y368780D01*
X111981Y366780D02*
X110981Y365781D01*
Y363781D01*
X111981Y362782D01*
X112980D01*
X113980Y363781D01*
Y364781D01*
Y363781D01*
X114980Y362782D01*
X115979D01*
X116979Y363781D01*
Y365781D01*
X115979Y366780D01*
X93578Y474001D02*
Y479999D01*
X90579D01*
X89580Y478999D01*
Y477000D01*
X90579Y476000D01*
X93578D01*
X91579D02*
X89580Y474001D01*
X84581D02*
Y479999D01*
X87580Y477000D01*
X83582D01*
X174858Y418121D02*
Y424119D01*
X171859D01*
X170860Y423119D01*
Y421120D01*
X171859Y420120D01*
X174858D01*
X172859D02*
X170860Y418121D01*
X164862Y424119D02*
X166861Y423119D01*
X168860Y421120D01*
Y419121D01*
X167861Y418121D01*
X165861D01*
X164862Y419121D01*
Y420120D01*
X165861Y421120D01*
X168860D01*
X177939Y372778D02*
X171941D01*
Y369779D01*
X172941Y368780D01*
X174940D01*
X175940Y369779D01*
Y372778D01*
Y370779D02*
X177939Y368780D01*
X171941Y366780D02*
Y362782D01*
X172941D01*
X176939Y366780D01*
X177939D01*
X111358Y474001D02*
Y479999D01*
X108359D01*
X107360Y478999D01*
Y477000D01*
X108359Y476000D01*
X111358D01*
X109359D02*
X107360Y474001D01*
X105360Y478999D02*
X104361Y479999D01*
X102361D01*
X101362Y478999D01*
Y478000D01*
X102361Y477000D01*
X101362Y476000D01*
Y475001D01*
X102361Y474001D01*
X104361D01*
X105360Y475001D01*
Y476000D01*
X104361Y477000D01*
X105360Y478000D01*
Y478999D01*
X104361Y477000D02*
X102361D01*
X238358Y418121D02*
Y424119D01*
X235359D01*
X234360Y423119D01*
Y421120D01*
X235359Y420120D01*
X238358D01*
X236359D02*
X234360Y418121D01*
X232360Y419121D02*
X231361Y418121D01*
X229361D01*
X228362Y419121D01*
Y423119D01*
X229361Y424119D01*
X231361D01*
X232360Y423119D01*
Y422120D01*
X231361Y421120D01*
X228362D01*
X238899Y377817D02*
X232901D01*
Y374818D01*
X233901Y373819D01*
X235900D01*
X236900Y374818D01*
Y377817D01*
Y375818D02*
X238899Y373819D01*
Y371819D02*
Y369820D01*
Y370820D01*
X232901D01*
X233901Y371819D01*
Y366821D02*
X232901Y365821D01*
Y363822D01*
X233901Y362822D01*
X237899D01*
X238899Y363822D01*
Y365821D01*
X237899Y366821D01*
X233901D01*
X301818Y415581D02*
Y421579D01*
X298818D01*
X297819Y420579D01*
Y418580D01*
X298818Y417580D01*
X301818D01*
X299818D02*
X297819Y415581D01*
X295819D02*
X293820D01*
X294820D01*
Y421579D01*
X295819Y420579D01*
X290821D02*
X289821Y421579D01*
X287822D01*
X286822Y420579D01*
Y419580D01*
X287822Y418580D01*
X288822D01*
X287822D01*
X286822Y417580D01*
Y416581D01*
X287822Y415581D01*
X289821D01*
X290821Y416581D01*
X299859Y377817D02*
X293861D01*
Y374818D01*
X294861Y373819D01*
X296860D01*
X297860Y374818D01*
Y377817D01*
Y375818D02*
X299859Y373819D01*
Y371819D02*
Y369820D01*
Y370820D01*
X293861D01*
X294861Y371819D01*
X299859Y363822D02*
X293861D01*
X296860Y366821D01*
Y362822D01*
X362778Y415581D02*
Y421579D01*
X359779D01*
X358779Y420579D01*
Y418580D01*
X359779Y417580D01*
X362778D01*
X360778D02*
X358779Y415581D01*
X356780D02*
X354780D01*
X355780D01*
Y421579D01*
X356780Y420579D01*
X347782Y421579D02*
X349782Y420579D01*
X351781Y418580D01*
Y416581D01*
X350782Y415581D01*
X348782D01*
X347782Y416581D01*
Y417580D01*
X348782Y418580D01*
X351781D01*
X360819Y377817D02*
X354821D01*
Y374818D01*
X355821Y373819D01*
X357820D01*
X358820Y374818D01*
Y377817D01*
Y375818D02*
X360819Y373819D01*
Y371819D02*
Y369820D01*
Y370820D01*
X354821D01*
X355821Y371819D01*
X354821Y366821D02*
Y362822D01*
X355821D01*
X359819Y366821D01*
X360819D01*
X192598Y474001D02*
Y479999D01*
X189599D01*
X188599Y478999D01*
Y477000D01*
X189599Y476000D01*
X192598D01*
X190598D02*
X188599Y474001D01*
X186600D02*
X184600D01*
X185600D01*
Y479999D01*
X186600Y478999D01*
X181601D02*
X180602Y479999D01*
X178602D01*
X177602Y478999D01*
Y478000D01*
X178602Y477000D01*
X177602Y476000D01*
Y475001D01*
X178602Y474001D01*
X180602D01*
X181601Y475001D01*
Y476000D01*
X180602Y477000D01*
X181601Y478000D01*
Y478999D01*
X180602Y477000D02*
X178602D01*
X95578Y358079D02*
Y354080D01*
X93578Y352081D01*
X91579Y354080D01*
Y358079D01*
X89580D02*
X85581D01*
X87580D01*
Y352081D01*
X83582D02*
X81582D01*
X82582D01*
Y358079D01*
X83582Y357079D01*
X101657Y439359D02*
Y435360D01*
X99658Y433361D01*
X97659Y435360D01*
Y439359D01*
X95659D02*
X91661D01*
X93660D01*
Y433361D01*
X85663D02*
X89661D01*
X85663Y437360D01*
Y438359D01*
X86662Y439359D01*
X88662D01*
X89661Y438359D01*
X165157Y358079D02*
Y354080D01*
X163158Y352081D01*
X161159Y354080D01*
Y358079D01*
X159159D02*
X155161D01*
X157160D01*
Y352081D01*
X153161Y357079D02*
X152162Y358079D01*
X150162D01*
X149163Y357079D01*
Y356080D01*
X150162Y355080D01*
X151162D01*
X150162D01*
X149163Y354080D01*
Y353081D01*
X150162Y352081D01*
X152162D01*
X153161Y353081D01*
X162617Y439359D02*
Y435360D01*
X160618Y433361D01*
X158619Y435360D01*
Y439359D01*
X156619D02*
X152621D01*
X154620D01*
Y433361D01*
X147622D02*
Y439359D01*
X150621Y436360D01*
X146623D01*
X223577Y358079D02*
Y354080D01*
X221578Y352081D01*
X219579Y354080D01*
Y358079D01*
X217579D02*
X213581D01*
X215580D01*
Y352081D01*
X207583Y358079D02*
X211581D01*
Y355080D01*
X209582Y356080D01*
X208582D01*
X207583Y355080D01*
Y353081D01*
X208582Y352081D01*
X210582D01*
X211581Y353081D01*
X226117Y439359D02*
Y435360D01*
X224118Y433361D01*
X222119Y435360D01*
Y439359D01*
X220119D02*
X216121D01*
X218120D01*
Y433361D01*
X210123Y439359D02*
X212122Y438359D01*
X214121Y436360D01*
Y434361D01*
X213122Y433361D01*
X211122D01*
X210123Y434361D01*
Y435360D01*
X211122Y436360D01*
X214121D01*
X284537Y358079D02*
Y354080D01*
X282538Y352081D01*
X280539Y354080D01*
Y358079D01*
X278539D02*
X274541D01*
X276540D01*
Y352081D01*
X272541Y358079D02*
X268543D01*
Y357079D01*
X272541Y353081D01*
Y352081D01*
X289617Y439359D02*
Y435360D01*
X287618Y433361D01*
X285619Y435360D01*
Y439359D01*
X283619D02*
X279621D01*
X281620D01*
Y433361D01*
X277621Y438359D02*
X276622Y439359D01*
X274622D01*
X273623Y438359D01*
Y437360D01*
X274622Y436360D01*
X273623Y435360D01*
Y434361D01*
X274622Y433361D01*
X276622D01*
X277621Y434361D01*
Y435360D01*
X276622Y436360D01*
X277621Y437360D01*
Y438359D01*
X276622Y436360D02*
X274622D01*
X345497Y358079D02*
Y354080D01*
X343498Y352081D01*
X341499Y354080D01*
Y358079D01*
X339499D02*
X335501D01*
X337500D01*
Y352081D01*
X333501Y353081D02*
X332502Y352081D01*
X330502D01*
X329503Y353081D01*
Y357079D01*
X330502Y358079D01*
X332502D01*
X333501Y357079D01*
Y356080D01*
X332502Y355080D01*
X329503D01*
X355617Y439359D02*
Y435360D01*
X353617Y433361D01*
X351618Y435360D01*
Y439359D01*
X349618D02*
X345620D01*
X347619D01*
Y433361D01*
X343620D02*
X341621D01*
X342621D01*
Y439359D01*
X343620Y438359D01*
X338622D02*
X337622Y439359D01*
X335623D01*
X334623Y438359D01*
Y434361D01*
X335623Y433361D01*
X337622D01*
X338622Y434361D01*
Y438359D01*
X167198Y474001D02*
Y479999D01*
X164198D01*
X163199Y478999D01*
Y477000D01*
X164198Y476000D01*
X167198D01*
X165198D02*
X163199Y474001D01*
X161199D02*
X159200D01*
X160200D01*
Y479999D01*
X161199Y478999D01*
X152202Y479999D02*
X156201D01*
Y477000D01*
X154202Y478000D01*
X153202D01*
X152202Y477000D01*
Y475001D01*
X153202Y474001D01*
X155202D01*
X156201Y475001D01*
X140798Y474001D02*
Y479999D01*
X137799D01*
X136799Y478999D01*
Y477000D01*
X137799Y476000D01*
X140798D01*
X138799D02*
X136799Y474001D01*
X134800D02*
X132801D01*
X133800D01*
Y479999D01*
X134800Y478999D01*
X129802Y474001D02*
X127802D01*
X128802D01*
Y479999D01*
X129802Y478999D01*
X112899Y253121D02*
Y259119D01*
X109900D01*
X108900Y258119D01*
Y256120D01*
X109900Y255120D01*
X112899D01*
X110899D02*
X108900Y253121D01*
X106901D02*
X104901D01*
X105901D01*
Y259119D01*
X106901Y258119D01*
X116979Y207778D02*
X110981D01*
Y204779D01*
X111981Y203780D01*
X113980D01*
X114980Y204779D01*
Y207778D01*
Y205779D02*
X116979Y203780D01*
X111981Y201780D02*
X110981Y200781D01*
Y198781D01*
X111981Y197782D01*
X112980D01*
X113980Y198781D01*
Y199781D01*
Y198781D01*
X114980Y197782D01*
X115979D01*
X116979Y198781D01*
Y200781D01*
X115979Y201780D01*
X93578Y309001D02*
Y314999D01*
X90579D01*
X89580Y313999D01*
Y312000D01*
X90579Y311000D01*
X93578D01*
X91579D02*
X89580Y309001D01*
X84581D02*
Y314999D01*
X87580Y312000D01*
X83582D01*
X174858Y253121D02*
Y259119D01*
X171859D01*
X170860Y258119D01*
Y256120D01*
X171859Y255120D01*
X174858D01*
X172859D02*
X170860Y253121D01*
X164862Y259119D02*
X166861Y258119D01*
X168860Y256120D01*
Y254121D01*
X167861Y253121D01*
X165861D01*
X164862Y254121D01*
Y255120D01*
X165861Y256120D01*
X168860D01*
X177939Y207778D02*
X171941D01*
Y204779D01*
X172941Y203780D01*
X174940D01*
X175940Y204779D01*
Y207778D01*
Y205779D02*
X177939Y203780D01*
X171941Y201780D02*
Y197782D01*
X172941D01*
X176939Y201780D01*
X177939D01*
X111358Y309001D02*
Y314999D01*
X108359D01*
X107360Y313999D01*
Y312000D01*
X108359Y311000D01*
X111358D01*
X109359D02*
X107360Y309001D01*
X105360Y313999D02*
X104361Y314999D01*
X102361D01*
X101362Y313999D01*
Y313000D01*
X102361Y312000D01*
X101362Y311000D01*
Y310001D01*
X102361Y309001D01*
X104361D01*
X105360Y310001D01*
Y311000D01*
X104361Y312000D01*
X105360Y313000D01*
Y313999D01*
X104361Y312000D02*
X102361D01*
X238358Y253121D02*
Y259119D01*
X235359D01*
X234360Y258119D01*
Y256120D01*
X235359Y255120D01*
X238358D01*
X236359D02*
X234360Y253121D01*
X232360Y254121D02*
X231361Y253121D01*
X229361D01*
X228362Y254121D01*
Y258119D01*
X229361Y259119D01*
X231361D01*
X232360Y258119D01*
Y257120D01*
X231361Y256120D01*
X228362D01*
X238899Y212817D02*
X232901D01*
Y209818D01*
X233901Y208819D01*
X235900D01*
X236900Y209818D01*
Y212817D01*
Y210818D02*
X238899Y208819D01*
Y206819D02*
Y204820D01*
Y205820D01*
X232901D01*
X233901Y206819D01*
Y201821D02*
X232901Y200821D01*
Y198822D01*
X233901Y197822D01*
X237899D01*
X238899Y198822D01*
Y200821D01*
X237899Y201821D01*
X233901D01*
X301818Y250581D02*
Y256579D01*
X298818D01*
X297819Y255579D01*
Y253580D01*
X298818Y252580D01*
X301818D01*
X299818D02*
X297819Y250581D01*
X295819D02*
X293820D01*
X294820D01*
Y256579D01*
X295819Y255579D01*
X290821D02*
X289821Y256579D01*
X287822D01*
X286822Y255579D01*
Y254580D01*
X287822Y253580D01*
X288822D01*
X287822D01*
X286822Y252580D01*
Y251581D01*
X287822Y250581D01*
X289821D01*
X290821Y251581D01*
X299859Y212817D02*
X293861D01*
Y209818D01*
X294861Y208819D01*
X296860D01*
X297860Y209818D01*
Y212817D01*
Y210818D02*
X299859Y208819D01*
Y206819D02*
Y204820D01*
Y205820D01*
X293861D01*
X294861Y206819D01*
X299859Y198822D02*
X293861D01*
X296860Y201821D01*
Y197822D01*
X362778Y250581D02*
Y256579D01*
X359779D01*
X358779Y255579D01*
Y253580D01*
X359779Y252580D01*
X362778D01*
X360778D02*
X358779Y250581D01*
X356780D02*
X354780D01*
X355780D01*
Y256579D01*
X356780Y255579D01*
X347782Y256579D02*
X349782Y255579D01*
X351781Y253580D01*
Y251581D01*
X350782Y250581D01*
X348782D01*
X347782Y251581D01*
Y252580D01*
X348782Y253580D01*
X351781D01*
X360819Y212817D02*
X354821D01*
Y209818D01*
X355821Y208819D01*
X357820D01*
X358820Y209818D01*
Y212817D01*
Y210818D02*
X360819Y208819D01*
Y206819D02*
Y204820D01*
Y205820D01*
X354821D01*
X355821Y206819D01*
X354821Y201821D02*
Y197822D01*
X355821D01*
X359819Y201821D01*
X360819D01*
X192598Y309001D02*
Y314999D01*
X189599D01*
X188599Y313999D01*
Y312000D01*
X189599Y311000D01*
X192598D01*
X190598D02*
X188599Y309001D01*
X186600D02*
X184600D01*
X185600D01*
Y314999D01*
X186600Y313999D01*
X181601D02*
X180602Y314999D01*
X178602D01*
X177602Y313999D01*
Y313000D01*
X178602Y312000D01*
X177602Y311000D01*
Y310001D01*
X178602Y309001D01*
X180602D01*
X181601Y310001D01*
Y311000D01*
X180602Y312000D01*
X181601Y313000D01*
Y313999D01*
X180602Y312000D02*
X178602D01*
X95578Y193079D02*
Y189080D01*
X93578Y187081D01*
X91579Y189080D01*
Y193079D01*
X89580D02*
X85581D01*
X87580D01*
Y187081D01*
X83582D02*
X81582D01*
X82582D01*
Y193079D01*
X83582Y192079D01*
X101657Y274359D02*
Y270360D01*
X99658Y268361D01*
X97659Y270360D01*
Y274359D01*
X95659D02*
X91661D01*
X93660D01*
Y268361D01*
X85663D02*
X89661D01*
X85663Y272360D01*
Y273359D01*
X86662Y274359D01*
X88662D01*
X89661Y273359D01*
X165157Y193079D02*
Y189080D01*
X163158Y187081D01*
X161159Y189080D01*
Y193079D01*
X159159D02*
X155161D01*
X157160D01*
Y187081D01*
X153161Y192079D02*
X152162Y193079D01*
X150162D01*
X149163Y192079D01*
Y191080D01*
X150162Y190080D01*
X151162D01*
X150162D01*
X149163Y189080D01*
Y188081D01*
X150162Y187081D01*
X152162D01*
X153161Y188081D01*
X162617Y274359D02*
Y270360D01*
X160618Y268361D01*
X158619Y270360D01*
Y274359D01*
X156619D02*
X152621D01*
X154620D01*
Y268361D01*
X147622D02*
Y274359D01*
X150621Y271360D01*
X146623D01*
X223577Y193079D02*
Y189080D01*
X221578Y187081D01*
X219579Y189080D01*
Y193079D01*
X217579D02*
X213581D01*
X215580D01*
Y187081D01*
X207583Y193079D02*
X211581D01*
Y190080D01*
X209582Y191080D01*
X208582D01*
X207583Y190080D01*
Y188081D01*
X208582Y187081D01*
X210582D01*
X211581Y188081D01*
X226117Y274359D02*
Y270360D01*
X224118Y268361D01*
X222119Y270360D01*
Y274359D01*
X220119D02*
X216121D01*
X218120D01*
Y268361D01*
X210123Y274359D02*
X212122Y273359D01*
X214121Y271360D01*
Y269361D01*
X213122Y268361D01*
X211122D01*
X210123Y269361D01*
Y270360D01*
X211122Y271360D01*
X214121D01*
X284537Y193079D02*
Y189080D01*
X282538Y187081D01*
X280539Y189080D01*
Y193079D01*
X278539D02*
X274541D01*
X276540D01*
Y187081D01*
X272541Y193079D02*
X268543D01*
Y192079D01*
X272541Y188081D01*
Y187081D01*
X289617Y274359D02*
Y270360D01*
X287618Y268361D01*
X285619Y270360D01*
Y274359D01*
X283619D02*
X279621D01*
X281620D01*
Y268361D01*
X277621Y273359D02*
X276622Y274359D01*
X274622D01*
X273623Y273359D01*
Y272360D01*
X274622Y271360D01*
X273623Y270360D01*
Y269361D01*
X274622Y268361D01*
X276622D01*
X277621Y269361D01*
Y270360D01*
X276622Y271360D01*
X277621Y272360D01*
Y273359D01*
X276622Y271360D02*
X274622D01*
X345497Y193079D02*
Y189080D01*
X343498Y187081D01*
X341499Y189080D01*
Y193079D01*
X339499D02*
X335501D01*
X337500D01*
Y187081D01*
X333501Y188081D02*
X332502Y187081D01*
X330502D01*
X329503Y188081D01*
Y192079D01*
X330502Y193079D01*
X332502D01*
X333501Y192079D01*
Y191080D01*
X332502Y190080D01*
X329503D01*
X355617Y274359D02*
Y270360D01*
X353617Y268361D01*
X351618Y270360D01*
Y274359D01*
X349618D02*
X345620D01*
X347619D01*
Y268361D01*
X343620D02*
X341621D01*
X342621D01*
Y274359D01*
X343620Y273359D01*
X338622D02*
X337622Y274359D01*
X335623D01*
X334623Y273359D01*
Y269361D01*
X335623Y268361D01*
X337622D01*
X338622Y269361D01*
Y273359D01*
X167198Y309001D02*
Y314999D01*
X164198D01*
X163199Y313999D01*
Y312000D01*
X164198Y311000D01*
X167198D01*
X165198D02*
X163199Y309001D01*
X161199D02*
X159200D01*
X160200D01*
Y314999D01*
X161199Y313999D01*
X152202Y314999D02*
X156201D01*
Y312000D01*
X154202Y313000D01*
X153202D01*
X152202Y312000D01*
Y310001D01*
X153202Y309001D01*
X155202D01*
X156201Y310001D01*
X140798Y309001D02*
Y314999D01*
X137799D01*
X136799Y313999D01*
Y312000D01*
X137799Y311000D01*
X140798D01*
X138799D02*
X136799Y309001D01*
X134800D02*
X132801D01*
X133800D01*
Y314999D01*
X134800Y313999D01*
X129802Y309001D02*
X127802D01*
X128802D01*
Y314999D01*
X129802Y313999D01*
X112899Y88121D02*
Y94119D01*
X109900D01*
X108900Y93119D01*
Y91120D01*
X109900Y90120D01*
X112899D01*
X110899D02*
X108900Y88121D01*
X106901D02*
X104901D01*
X105901D01*
Y94119D01*
X106901Y93119D01*
X116979Y42778D02*
X110981D01*
Y39779D01*
X111981Y38780D01*
X113980D01*
X114980Y39779D01*
Y42778D01*
Y40779D02*
X116979Y38780D01*
X111981Y36780D02*
X110981Y35781D01*
Y33781D01*
X111981Y32782D01*
X112980D01*
X113980Y33781D01*
Y34781D01*
Y33781D01*
X114980Y32782D01*
X115979D01*
X116979Y33781D01*
Y35781D01*
X115979Y36780D01*
X93578Y144001D02*
Y149999D01*
X90579D01*
X89580Y148999D01*
Y147000D01*
X90579Y146000D01*
X93578D01*
X91579D02*
X89580Y144001D01*
X84581D02*
Y149999D01*
X87580Y147000D01*
X83582D01*
X174858Y88121D02*
Y94119D01*
X171859D01*
X170860Y93119D01*
Y91120D01*
X171859Y90120D01*
X174858D01*
X172859D02*
X170860Y88121D01*
X164862Y94119D02*
X166861Y93119D01*
X168860Y91120D01*
Y89121D01*
X167861Y88121D01*
X165861D01*
X164862Y89121D01*
Y90120D01*
X165861Y91120D01*
X168860D01*
X177939Y42778D02*
X171941D01*
Y39779D01*
X172941Y38780D01*
X174940D01*
X175940Y39779D01*
Y42778D01*
Y40779D02*
X177939Y38780D01*
X171941Y36780D02*
Y32782D01*
X172941D01*
X176939Y36780D01*
X177939D01*
X111358Y144001D02*
Y149999D01*
X108359D01*
X107360Y148999D01*
Y147000D01*
X108359Y146000D01*
X111358D01*
X109359D02*
X107360Y144001D01*
X105360Y148999D02*
X104361Y149999D01*
X102361D01*
X101362Y148999D01*
Y148000D01*
X102361Y147000D01*
X101362Y146000D01*
Y145001D01*
X102361Y144001D01*
X104361D01*
X105360Y145001D01*
Y146000D01*
X104361Y147000D01*
X105360Y148000D01*
Y148999D01*
X104361Y147000D02*
X102361D01*
X238358Y88121D02*
Y94119D01*
X235359D01*
X234360Y93119D01*
Y91120D01*
X235359Y90120D01*
X238358D01*
X236359D02*
X234360Y88121D01*
X232360Y89121D02*
X231361Y88121D01*
X229361D01*
X228362Y89121D01*
Y93119D01*
X229361Y94119D01*
X231361D01*
X232360Y93119D01*
Y92120D01*
X231361Y91120D01*
X228362D01*
X238899Y47818D02*
X232901D01*
Y44819D01*
X233901Y43819D01*
X235900D01*
X236900Y44819D01*
Y47818D01*
Y45818D02*
X238899Y43819D01*
Y41820D02*
Y39820D01*
Y40820D01*
X232901D01*
X233901Y41820D01*
Y36821D02*
X232901Y35821D01*
Y33822D01*
X233901Y32822D01*
X237899D01*
X238899Y33822D01*
Y35821D01*
X237899Y36821D01*
X233901D01*
X301818Y85581D02*
Y91579D01*
X298818D01*
X297819Y90579D01*
Y88580D01*
X298818Y87580D01*
X301818D01*
X299818D02*
X297819Y85581D01*
X295819D02*
X293820D01*
X294820D01*
Y91579D01*
X295819Y90579D01*
X290821D02*
X289821Y91579D01*
X287822D01*
X286822Y90579D01*
Y89580D01*
X287822Y88580D01*
X288822D01*
X287822D01*
X286822Y87580D01*
Y86581D01*
X287822Y85581D01*
X289821D01*
X290821Y86581D01*
X299859Y47818D02*
X293861D01*
Y44819D01*
X294861Y43819D01*
X296860D01*
X297860Y44819D01*
Y47818D01*
Y45818D02*
X299859Y43819D01*
Y41820D02*
Y39820D01*
Y40820D01*
X293861D01*
X294861Y41820D01*
X299859Y33822D02*
X293861D01*
X296860Y36821D01*
Y32822D01*
X362778Y85581D02*
Y91579D01*
X359779D01*
X358779Y90579D01*
Y88580D01*
X359779Y87580D01*
X362778D01*
X360778D02*
X358779Y85581D01*
X356780D02*
X354780D01*
X355780D01*
Y91579D01*
X356780Y90579D01*
X347782Y91579D02*
X349782Y90579D01*
X351781Y88580D01*
Y86581D01*
X350782Y85581D01*
X348782D01*
X347782Y86581D01*
Y87580D01*
X348782Y88580D01*
X351781D01*
X360819Y47818D02*
X354821D01*
Y44819D01*
X355821Y43819D01*
X357820D01*
X358820Y44819D01*
Y47818D01*
Y45818D02*
X360819Y43819D01*
Y41820D02*
Y39820D01*
Y40820D01*
X354821D01*
X355821Y41820D01*
X354821Y36821D02*
Y32822D01*
X355821D01*
X359819Y36821D01*
X360819D01*
X192598Y144001D02*
Y149999D01*
X189599D01*
X188599Y148999D01*
Y147000D01*
X189599Y146000D01*
X192598D01*
X190598D02*
X188599Y144001D01*
X186600D02*
X184600D01*
X185600D01*
Y149999D01*
X186600Y148999D01*
X181601D02*
X180602Y149999D01*
X178602D01*
X177602Y148999D01*
Y148000D01*
X178602Y147000D01*
X177602Y146000D01*
Y145001D01*
X178602Y144001D01*
X180602D01*
X181601Y145001D01*
Y146000D01*
X180602Y147000D01*
X181601Y148000D01*
Y148999D01*
X180602Y147000D02*
X178602D01*
X95578Y28079D02*
Y24080D01*
X93578Y22081D01*
X91579Y24080D01*
Y28079D01*
X89580D02*
X85581D01*
X87580D01*
Y22081D01*
X83582D02*
X81582D01*
X82582D01*
Y28079D01*
X83582Y27079D01*
X101657Y109359D02*
Y105360D01*
X99658Y103361D01*
X97659Y105360D01*
Y109359D01*
X95659D02*
X91661D01*
X93660D01*
Y103361D01*
X85663D02*
X89661D01*
X85663Y107360D01*
Y108359D01*
X86662Y109359D01*
X88662D01*
X89661Y108359D01*
X165157Y28079D02*
Y24080D01*
X163158Y22081D01*
X161159Y24080D01*
Y28079D01*
X159159D02*
X155161D01*
X157160D01*
Y22081D01*
X153161Y27079D02*
X152162Y28079D01*
X150162D01*
X149163Y27079D01*
Y26080D01*
X150162Y25080D01*
X151162D01*
X150162D01*
X149163Y24080D01*
Y23081D01*
X150162Y22081D01*
X152162D01*
X153161Y23081D01*
X162617Y109359D02*
Y105360D01*
X160618Y103361D01*
X158619Y105360D01*
Y109359D01*
X156619D02*
X152621D01*
X154620D01*
Y103361D01*
X147622D02*
Y109359D01*
X150621Y106360D01*
X146623D01*
X223577Y28079D02*
Y24080D01*
X221578Y22081D01*
X219579Y24080D01*
Y28079D01*
X217579D02*
X213581D01*
X215580D01*
Y22081D01*
X207583Y28079D02*
X211581D01*
Y25080D01*
X209582Y26080D01*
X208582D01*
X207583Y25080D01*
Y23081D01*
X208582Y22081D01*
X210582D01*
X211581Y23081D01*
X226117Y109359D02*
Y105360D01*
X224118Y103361D01*
X222119Y105360D01*
Y109359D01*
X220119D02*
X216121D01*
X218120D01*
Y103361D01*
X210123Y109359D02*
X212122Y108359D01*
X214121Y106360D01*
Y104361D01*
X213122Y103361D01*
X211122D01*
X210123Y104361D01*
Y105360D01*
X211122Y106360D01*
X214121D01*
X284537Y28079D02*
Y24080D01*
X282538Y22081D01*
X280539Y24080D01*
Y28079D01*
X278539D02*
X274541D01*
X276540D01*
Y22081D01*
X272541Y28079D02*
X268543D01*
Y27079D01*
X272541Y23081D01*
Y22081D01*
X289617Y109359D02*
Y105360D01*
X287618Y103361D01*
X285619Y105360D01*
Y109359D01*
X283619D02*
X279621D01*
X281620D01*
Y103361D01*
X277621Y108359D02*
X276622Y109359D01*
X274622D01*
X273623Y108359D01*
Y107360D01*
X274622Y106360D01*
X273623Y105360D01*
Y104361D01*
X274622Y103361D01*
X276622D01*
X277621Y104361D01*
Y105360D01*
X276622Y106360D01*
X277621Y107360D01*
Y108359D01*
X276622Y106360D02*
X274622D01*
X345497Y28079D02*
Y24080D01*
X343498Y22081D01*
X341499Y24080D01*
Y28079D01*
X339499D02*
X335501D01*
X337500D01*
Y22081D01*
X333501Y23081D02*
X332502Y22081D01*
X330502D01*
X329503Y23081D01*
Y27079D01*
X330502Y28079D01*
X332502D01*
X333501Y27079D01*
Y26080D01*
X332502Y25080D01*
X329503D01*
X355617Y109359D02*
Y105360D01*
X353617Y103361D01*
X351618Y105360D01*
Y109359D01*
X349618D02*
X345620D01*
X347619D01*
Y103361D01*
X343620D02*
X341621D01*
X342621D01*
Y109359D01*
X343620Y108359D01*
X338622D02*
X337622Y109359D01*
X335623D01*
X334623Y108359D01*
Y104361D01*
X335623Y103361D01*
X337622D01*
X338622Y104361D01*
Y108359D01*
X167198Y144001D02*
Y149999D01*
X164198D01*
X163199Y148999D01*
Y147000D01*
X164198Y146000D01*
X167198D01*
X165198D02*
X163199Y144001D01*
X161199D02*
X159200D01*
X160200D01*
Y149999D01*
X161199Y148999D01*
X152202Y149999D02*
X156201D01*
Y147000D01*
X154202Y148000D01*
X153202D01*
X152202Y147000D01*
Y145001D01*
X153202Y144001D01*
X155202D01*
X156201Y145001D01*
X140798Y144001D02*
Y149999D01*
X137799D01*
X136799Y148999D01*
Y147000D01*
X137799Y146000D01*
X140798D01*
X138799D02*
X136799Y144001D01*
X134800D02*
X132801D01*
X133800D01*
Y149999D01*
X134800Y148999D01*
X129802Y144001D02*
X127802D01*
X128802D01*
Y149999D01*
X129802Y148999D01*
M02*
