G04*
G04 #@! TF.GenerationSoftware,Altium Limited,Altium Designer,20.2.7 (254)*
G04*
G04 Layer_Physical_Order=2*
G04 Layer_Color=16711680*
%FSLAX44Y44*%
%MOMM*%
G71*
G04*
G04 #@! TF.SameCoordinates,E2930A79-BBFB-44DC-8FC5-9A75561AB175*
G04*
G04*
G04 #@! TF.FilePolarity,Positive*
G04*
G01*
G75*
%ADD15R,0.5500X0.4500*%
%ADD18R,1.3000X0.9000*%
%ADD26C,0.5000*%
%ADD27C,0.4000*%
%ADD28C,0.3000*%
%ADD29C,1.5000*%
%ADD30C,0.6000*%
G04:AMPARAMS|DCode=31|XSize=0.55mm|YSize=0.45mm|CornerRadius=0mm|HoleSize=0mm|Usage=FLASHONLY|Rotation=135.000|XOffset=0mm|YOffset=0mm|HoleType=Round|Shape=Rectangle|*
%AMROTATEDRECTD31*
4,1,4,0.3536,-0.0354,0.0354,-0.3536,-0.3536,0.0354,-0.0354,0.3536,0.3536,-0.0354,0.0*
%
%ADD31ROTATEDRECTD31*%

%ADD32R,0.9000X0.6000*%
%ADD33R,0.6000X0.9000*%
D15*
X103740Y530240D02*
D03*
Y540240D02*
D03*
X164700Y530240D02*
D03*
Y540240D02*
D03*
X225660Y530240D02*
D03*
Y540240D02*
D03*
X286620Y530240D02*
D03*
Y540240D02*
D03*
X347580Y530240D02*
D03*
Y540240D02*
D03*
X103740Y365240D02*
D03*
Y375240D02*
D03*
X164700Y365240D02*
D03*
Y375240D02*
D03*
X225660Y365240D02*
D03*
Y375240D02*
D03*
X286620Y365240D02*
D03*
Y375240D02*
D03*
X347580Y365240D02*
D03*
Y375240D02*
D03*
X103740Y200240D02*
D03*
Y210240D02*
D03*
X164700Y200240D02*
D03*
Y210240D02*
D03*
X225660Y200240D02*
D03*
Y210240D02*
D03*
X286620Y200240D02*
D03*
Y210240D02*
D03*
X347580Y200240D02*
D03*
Y210240D02*
D03*
X103740Y35240D02*
D03*
Y45240D02*
D03*
X164700Y35240D02*
D03*
Y45240D02*
D03*
X225660Y35240D02*
D03*
Y45240D02*
D03*
X286620Y35240D02*
D03*
Y45240D02*
D03*
X347580Y35240D02*
D03*
Y45240D02*
D03*
D18*
X108820Y553930D02*
D03*
Y572430D02*
D03*
X169780Y553930D02*
D03*
Y572430D02*
D03*
X230740Y553930D02*
D03*
Y572430D02*
D03*
X291700D02*
D03*
Y553930D02*
D03*
X352660D02*
D03*
Y572430D02*
D03*
X108820Y388930D02*
D03*
Y407430D02*
D03*
X169780Y388930D02*
D03*
Y407430D02*
D03*
X230740Y388930D02*
D03*
Y407430D02*
D03*
X291700D02*
D03*
Y388930D02*
D03*
X352660D02*
D03*
Y407430D02*
D03*
X108820Y223930D02*
D03*
Y242430D02*
D03*
X169780Y223930D02*
D03*
Y242430D02*
D03*
X230740Y223930D02*
D03*
Y242430D02*
D03*
X291700D02*
D03*
Y223930D02*
D03*
X352660D02*
D03*
Y242430D02*
D03*
X108820Y58930D02*
D03*
Y77430D02*
D03*
X169780Y58930D02*
D03*
Y77430D02*
D03*
X230740Y58930D02*
D03*
Y77430D02*
D03*
X291700D02*
D03*
Y58930D02*
D03*
X352660D02*
D03*
Y77430D02*
D03*
D26*
X167780Y553930D02*
X169780D01*
X164700Y550850D02*
X167780Y553930D01*
X163175Y544020D02*
X164700Y545545D01*
X151960Y544020D02*
X163175D01*
X164700Y540240D02*
Y545545D01*
Y550850D01*
X228740Y553930D02*
X230740D01*
X225660Y550850D02*
X228740Y553930D01*
X224635Y544520D02*
X225660Y545545D01*
X213420Y544520D02*
X224635D01*
X212920Y544020D02*
X213420Y544520D01*
X225660Y540240D02*
Y545545D01*
Y550850D01*
X289700Y553930D02*
X291700D01*
X286620Y550850D02*
X289700Y553930D01*
X285095Y544020D02*
X286620Y545545D01*
X273880Y544020D02*
X285095D01*
X286620Y540240D02*
Y545545D01*
Y550850D01*
X350660Y553930D02*
X352660D01*
X347580Y550850D02*
X350660Y553930D01*
X346055Y544020D02*
X347580Y545545D01*
X334840Y544020D02*
X346055D01*
X347580Y540240D02*
Y545545D01*
Y550850D01*
X103740D02*
X106820Y553930D01*
X108820D01*
X103740Y545545D02*
Y550850D01*
Y540240D02*
Y545545D01*
X102215Y544020D02*
X103740Y545545D01*
X91000Y544020D02*
X102215D01*
X167780Y388930D02*
X169780D01*
X164700Y385850D02*
X167780Y388930D01*
X163175Y379020D02*
X164700Y380545D01*
X151960Y379020D02*
X163175D01*
X164700Y375240D02*
Y380545D01*
Y385850D01*
X228740Y388930D02*
X230740D01*
X225660Y385850D02*
X228740Y388930D01*
X224635Y379520D02*
X225660Y380545D01*
X213420Y379520D02*
X224635D01*
X212920Y379020D02*
X213420Y379520D01*
X225660Y375240D02*
Y380545D01*
Y385850D01*
X289700Y388930D02*
X291700D01*
X286620Y385850D02*
X289700Y388930D01*
X285095Y379020D02*
X286620Y380545D01*
X273880Y379020D02*
X285095D01*
X286620Y375240D02*
Y380545D01*
Y385850D01*
X350660Y388930D02*
X352660D01*
X347580Y385850D02*
X350660Y388930D01*
X346055Y379020D02*
X347580Y380545D01*
X334840Y379020D02*
X346055D01*
X347580Y375240D02*
Y380545D01*
Y385850D01*
X103740D02*
X106820Y388930D01*
X108820D01*
X103740Y380545D02*
Y385850D01*
Y375240D02*
Y380545D01*
X102215Y379020D02*
X103740Y380545D01*
X91000Y379020D02*
X102215D01*
X167780Y223930D02*
X169780D01*
X164700Y220850D02*
X167780Y223930D01*
X163175Y214020D02*
X164700Y215545D01*
X151960Y214020D02*
X163175D01*
X164700Y210240D02*
Y215545D01*
Y220850D01*
X228740Y223930D02*
X230740D01*
X225660Y220850D02*
X228740Y223930D01*
X224635Y214520D02*
X225660Y215545D01*
X213420Y214520D02*
X224635D01*
X212920Y214020D02*
X213420Y214520D01*
X225660Y210240D02*
Y215545D01*
Y220850D01*
X289700Y223930D02*
X291700D01*
X286620Y220850D02*
X289700Y223930D01*
X285095Y214020D02*
X286620Y215545D01*
X273880Y214020D02*
X285095D01*
X286620Y210240D02*
Y215545D01*
Y220850D01*
X350660Y223930D02*
X352660D01*
X347580Y220850D02*
X350660Y223930D01*
X346055Y214020D02*
X347580Y215545D01*
X334840Y214020D02*
X346055D01*
X347580Y210240D02*
Y215545D01*
Y220850D01*
X103740D02*
X106820Y223930D01*
X108820D01*
X103740Y215545D02*
Y220850D01*
Y210240D02*
Y215545D01*
X102215Y214020D02*
X103740Y215545D01*
X91000Y214020D02*
X102215D01*
X167780Y58930D02*
X169780D01*
X164700Y55850D02*
X167780Y58930D01*
X163175Y49020D02*
X164700Y50545D01*
X151960Y49020D02*
X163175D01*
X164700Y45240D02*
Y50545D01*
Y55850D01*
X228740Y58930D02*
X230740D01*
X225660Y55850D02*
X228740Y58930D01*
X224635Y49520D02*
X225660Y50545D01*
X213420Y49520D02*
X224635D01*
X212920Y49020D02*
X213420Y49520D01*
X225660Y45240D02*
Y50545D01*
Y55850D01*
X289700Y58930D02*
X291700D01*
X286620Y55850D02*
X289700Y58930D01*
X285095Y49020D02*
X286620Y50545D01*
X273880Y49020D02*
X285095D01*
X286620Y45240D02*
Y50545D01*
Y55850D01*
X350660Y58930D02*
X352660D01*
X347580Y55850D02*
X350660Y58930D01*
X346055Y49020D02*
X347580Y50545D01*
X334840Y49020D02*
X346055D01*
X347580Y45240D02*
Y50545D01*
Y55850D01*
X103740D02*
X106820Y58930D01*
X108820D01*
X103740Y50545D02*
Y55850D01*
Y45240D02*
Y50545D01*
X102215Y49020D02*
X103740Y50545D01*
X91000Y49020D02*
X102215D01*
D27*
X378060Y536040D02*
X383140Y541120D01*
Y621760D01*
X362900Y642000D02*
X383140Y621760D01*
X108820Y579203D02*
X110577Y580960D01*
X108820Y572430D02*
Y579203D01*
X168023Y574187D02*
Y580960D01*
X228983Y574187D02*
Y580960D01*
X190760Y569460D02*
Y580300D01*
X168023Y580960D02*
X190100D01*
X228983D01*
X129800Y569460D02*
Y580300D01*
X110577Y580960D02*
X129140D01*
X168023D01*
X68840Y579203D02*
X70597Y580960D01*
X68840Y569460D02*
Y579203D01*
X289943Y574187D02*
Y580960D01*
X251720Y569460D02*
Y580300D01*
X228983Y580960D02*
X251060D01*
X289943D01*
X352660Y572430D02*
Y580960D01*
X312680Y569460D02*
Y580300D01*
X289943Y580960D02*
X312020D01*
X352660D01*
X350317Y603900D02*
X352660Y601557D01*
X261300Y642000D02*
X299400Y603900D01*
X352660Y580960D02*
Y601557D01*
X70597Y580960D02*
X108820D01*
X299400Y603900D02*
X350317D01*
X108820Y580960D02*
X110577D01*
X141980Y520140D02*
Y523950D01*
X141920Y520080D02*
X141980Y520140D01*
X378060Y371040D02*
X383140Y376120D01*
Y456760D01*
X362900Y477000D02*
X383140Y456760D01*
X108820Y414203D02*
X110577Y415960D01*
X108820Y407430D02*
Y414203D01*
X168023Y409187D02*
Y415960D01*
X228983Y409187D02*
Y415960D01*
X190760Y404460D02*
Y415300D01*
X168023Y415960D02*
X190100D01*
X228983D01*
X129800Y404460D02*
Y415300D01*
X110577Y415960D02*
X129140D01*
X168023D01*
X68840Y414203D02*
X70597Y415960D01*
X68840Y404460D02*
Y414203D01*
X289943Y409187D02*
Y415960D01*
X251720Y404460D02*
Y415300D01*
X228983Y415960D02*
X251060D01*
X289943D01*
X352660Y407430D02*
Y415960D01*
X312680Y404460D02*
Y415300D01*
X289943Y415960D02*
X312020D01*
X352660D01*
X350317Y438900D02*
X352660Y436557D01*
X261300Y477000D02*
X299400Y438900D01*
X352660Y415960D02*
Y436557D01*
X70597Y415960D02*
X108820D01*
X299400Y438900D02*
X350317D01*
X108820Y415960D02*
X110577D01*
X141980Y355140D02*
Y358950D01*
X141920Y355080D02*
X141980Y355140D01*
X378060Y206040D02*
X383140Y211120D01*
Y291760D01*
X362900Y312000D02*
X383140Y291760D01*
X108820Y249203D02*
X110577Y250960D01*
X108820Y242430D02*
Y249203D01*
X168023Y244187D02*
Y250960D01*
X228983Y244187D02*
Y250960D01*
X190760Y239460D02*
Y250300D01*
X168023Y250960D02*
X190100D01*
X228983D01*
X129800Y239460D02*
Y250300D01*
X110577Y250960D02*
X129140D01*
X168023D01*
X68840Y249203D02*
X70597Y250960D01*
X68840Y239460D02*
Y249203D01*
X289943Y244187D02*
Y250960D01*
X251720Y239460D02*
Y250300D01*
X228983Y250960D02*
X251060D01*
X289943D01*
X352660Y242430D02*
Y250960D01*
X312680Y239460D02*
Y250300D01*
X289943Y250960D02*
X312020D01*
X352660D01*
X350317Y273900D02*
X352660Y271557D01*
X261300Y312000D02*
X299400Y273900D01*
X352660Y250960D02*
Y271557D01*
X70597Y250960D02*
X108820D01*
X299400Y273900D02*
X350317D01*
X108820Y250960D02*
X110577D01*
X141980Y190140D02*
Y193950D01*
X141920Y190080D02*
X141980Y190140D01*
X378060Y41040D02*
X383140Y46120D01*
Y126760D01*
X362900Y147000D02*
X383140Y126760D01*
X108820Y84203D02*
X110577Y85960D01*
X108820Y77430D02*
Y84203D01*
X168023Y79187D02*
Y85960D01*
X228983Y79187D02*
Y85960D01*
X190760Y74460D02*
Y85300D01*
X168023Y85960D02*
X190100D01*
X228983D01*
X129800Y74460D02*
Y85300D01*
X110577Y85960D02*
X129140D01*
X168023D01*
X68840Y84203D02*
X70597Y85960D01*
X68840Y74460D02*
Y84203D01*
X289943Y79187D02*
Y85960D01*
X251720Y74460D02*
Y85300D01*
X228983Y85960D02*
X251060D01*
X289943D01*
X352660Y77430D02*
Y85960D01*
X312680Y74460D02*
Y85300D01*
X289943Y85960D02*
X312020D01*
X352660D01*
X350317Y108900D02*
X352660Y106557D01*
X261300Y147000D02*
X299400Y108900D01*
X352660Y85960D02*
Y106557D01*
X70597Y85960D02*
X108820D01*
X299400Y108900D02*
X350317D01*
X108820Y85960D02*
X110577D01*
X141980Y25140D02*
Y28950D01*
X141920Y25080D02*
X141980Y25140D01*
D28*
X207800Y530240D02*
X225660D01*
X202800Y535240D02*
Y550480D01*
Y535240D02*
X207800Y530240D01*
X263760Y535240D02*
X268760Y530240D01*
X286620D01*
X263760Y535240D02*
Y550480D01*
X324720Y537780D02*
X332260Y530240D01*
X347580D01*
X324720Y537780D02*
Y550480D01*
X68000Y553520D02*
X69500Y552020D01*
X74260D01*
X75794Y550486D01*
X82460Y539347D02*
Y550480D01*
X76920Y537052D02*
X90022Y523950D01*
X75794Y550486D02*
X76920Y549360D01*
Y537052D02*
Y549360D01*
X82460Y539347D02*
X91567Y530240D01*
X103740D01*
X90022Y523950D02*
X112770D01*
X127460Y553520D02*
X128960D01*
X143420Y539347D02*
Y550480D01*
Y539347D02*
X143420Y539347D01*
Y536200D02*
X149380Y530240D01*
X143420Y536200D02*
Y539347D01*
X149380Y530240D02*
X164700D01*
X186920Y550520D02*
Y552020D01*
X188420Y553520D01*
X189920D01*
X128960Y534520D02*
X129140Y534700D01*
Y544730D01*
X125600Y552020D02*
X125960D01*
X118980Y530160D02*
Y545400D01*
X125960Y552020D02*
X127460Y553520D01*
X118980Y545400D02*
X125600Y552020D01*
X199904Y523700D02*
X231900D01*
X199655Y523950D02*
X199904Y523700D01*
X171190Y523950D02*
X199655D01*
X247880Y552020D02*
X249380Y553520D01*
X250880D01*
X302240Y548320D02*
X305940Y552020D01*
X310340D01*
X311840Y553520D01*
X301860Y547377D02*
X302240Y547757D01*
X301860Y534767D02*
Y547377D01*
X302240Y547757D02*
Y548320D01*
X159700Y616600D02*
X266300D01*
X290793Y523700D02*
X301860Y534767D01*
X356360Y523700D02*
X362820Y530160D01*
Y540320D01*
X290793Y523700D02*
X356360D01*
X378060Y535240D02*
Y536040D01*
X82460Y550480D02*
X87840Y555860D01*
Y569460D01*
X143420Y550480D02*
X148800Y555860D01*
Y569460D01*
X168023Y574187D02*
X169780Y572430D01*
X83500Y616600D02*
X107640Y592460D01*
X139300D01*
X202800Y550480D02*
X209760Y557440D01*
Y569460D01*
X228983Y574187D02*
X230740Y572430D01*
X190100Y580960D02*
X190760Y580300D01*
X129140Y580960D02*
X129800Y580300D01*
X198920Y591120D02*
X200260Y592460D01*
X108900Y616600D02*
X124220Y601280D01*
X263760Y550480D02*
X271380Y558100D01*
Y568800D01*
X270720Y569460D02*
X271380Y568800D01*
X289943Y574187D02*
X291700Y572430D01*
X251060Y580960D02*
X251720Y580300D01*
X324720Y550480D02*
X331680Y557440D01*
Y569460D01*
X312020Y580960D02*
X312680Y580300D01*
X266300Y616600D02*
X290440Y592460D01*
X322180D01*
X149460Y601280D02*
X159620Y591120D01*
X198920D01*
X124220Y601280D02*
X149460D01*
X247320Y606360D02*
X258220Y595460D01*
X259720D01*
X261220Y593960D01*
Y592460D02*
Y593960D01*
X141920Y608980D02*
X150830D01*
X134300Y616600D02*
X141920Y608980D01*
X150830D02*
X158530Y601280D01*
X367520Y545020D02*
Y581040D01*
X362820Y540320D02*
X367520Y545020D01*
X335040Y619060D02*
X350280D01*
X339299Y635121D02*
Y640201D01*
X337500Y642000D02*
X339299Y640201D01*
Y635121D02*
X347660Y626760D01*
X373060Y596280D02*
Y608980D01*
X355280Y626760D02*
X373060Y608980D01*
X347660Y626760D02*
X355280D01*
X83500Y616600D02*
X92664Y625765D01*
X108900Y616600D02*
X118064Y625765D01*
X118064D01*
X134300Y616600D02*
X143464Y625765D01*
X159700Y616600D02*
X168864Y625765D01*
Y625765D01*
X99735Y632836D02*
X108900Y642000D01*
X238440D02*
X251140Y654700D01*
X125135Y632836D02*
X134300Y642000D01*
X108900D02*
X134300D01*
X150535Y632836D02*
X159700Y642000D01*
X134300D02*
X159700D01*
X175935Y632836D02*
X185100Y642000D01*
X159700D02*
X185100D01*
X238440D01*
X86040D02*
X108900D01*
X79415Y635376D02*
X86040Y642000D01*
X58100Y616600D02*
X59370D01*
X71179Y628409D01*
X72240D01*
X72344Y628304D01*
X251140Y654700D02*
X299400D01*
X312100Y642000D01*
X335040Y619060D01*
X318047D02*
X335040D01*
X76840Y593960D02*
X78340Y592460D01*
X61910Y616600D02*
X76840Y601670D01*
Y593960D02*
Y601670D01*
X58100Y616600D02*
X61910D01*
X44130Y525160D02*
Y536440D01*
X61210Y553520D01*
X68000D01*
X171490Y526317D02*
Y535090D01*
X171190Y526017D02*
X171490Y526317D01*
Y535090D02*
X186920Y550520D01*
X171190Y523950D02*
Y526017D01*
X309938Y536020D02*
Y544405D01*
Y536020D02*
X311438Y534520D01*
X311840D01*
X231900Y523700D02*
X233360Y525160D01*
X247880Y552020D02*
Y552020D01*
X233360Y525160D02*
Y537500D01*
X247880Y552020D01*
X250478Y534520D02*
X250880D01*
X247330Y537668D02*
Y539034D01*
Y537668D02*
X250478Y534520D01*
X362900Y585660D02*
Y606440D01*
Y585660D02*
X367520Y581040D01*
X350280Y619060D02*
X362900Y606440D01*
X312100Y614060D02*
X313047D01*
X318047Y619060D01*
X70800Y520080D02*
Y531720D01*
X68000Y534520D02*
X70800Y531720D01*
X57160Y603570D02*
X64450Y596280D01*
X44130Y568340D02*
Y597700D01*
X50000Y603570D01*
X57160D01*
X52690Y595950D02*
X53020Y596280D01*
X52690Y556910D02*
Y595950D01*
X112770Y523950D02*
X118980Y530160D01*
X231900Y523700D02*
X290793D01*
X112770Y523950D02*
X141980D01*
X171190D01*
X182480Y601280D02*
X187560Y606360D01*
X247320D01*
X158530Y601280D02*
X182480D01*
X207800Y365240D02*
X225660D01*
X202800Y370240D02*
Y385480D01*
Y370240D02*
X207800Y365240D01*
X263760Y370240D02*
X268760Y365240D01*
X286620D01*
X263760Y370240D02*
Y385480D01*
X324720Y372780D02*
X332260Y365240D01*
X347580D01*
X324720Y372780D02*
Y385480D01*
X68000Y388520D02*
X69500Y387020D01*
X74260D01*
X75794Y385486D01*
X82460Y374347D02*
Y385480D01*
X76920Y372052D02*
X90022Y358950D01*
X75794Y385486D02*
X76920Y384360D01*
Y372052D02*
Y384360D01*
X82460Y374347D02*
X91567Y365240D01*
X103740D01*
X90022Y358950D02*
X112770D01*
X127460Y388520D02*
X128960D01*
X143420Y374347D02*
Y385480D01*
Y374347D02*
X143420Y374347D01*
Y371200D02*
X149380Y365240D01*
X143420Y371200D02*
Y374347D01*
X149380Y365240D02*
X164700D01*
X186920Y385520D02*
Y387020D01*
X188420Y388520D01*
X189920D01*
X128960Y369520D02*
X129140Y369700D01*
Y379730D01*
X125600Y387020D02*
X125960D01*
X118980Y365160D02*
Y380400D01*
X125960Y387020D02*
X127460Y388520D01*
X118980Y380400D02*
X125600Y387020D01*
X199904Y358700D02*
X231900D01*
X199655Y358950D02*
X199904Y358700D01*
X171190Y358950D02*
X199655D01*
X247880Y387020D02*
X249380Y388520D01*
X250880D01*
X302240Y383320D02*
X305940Y387020D01*
X310340D01*
X311840Y388520D01*
X301860Y382377D02*
X302240Y382757D01*
X301860Y369767D02*
Y382377D01*
X302240Y382757D02*
Y383320D01*
X159700Y451600D02*
X266300D01*
X290793Y358700D02*
X301860Y369767D01*
X356360Y358700D02*
X362820Y365160D01*
Y375320D01*
X290793Y358700D02*
X356360D01*
X378060Y370240D02*
Y371040D01*
X82460Y385480D02*
X87840Y390860D01*
Y404460D01*
X143420Y385480D02*
X148800Y390860D01*
Y404460D01*
X168023Y409187D02*
X169780Y407430D01*
X83500Y451600D02*
X107640Y427460D01*
X139300D01*
X202800Y385480D02*
X209760Y392440D01*
Y404460D01*
X228983Y409187D02*
X230740Y407430D01*
X190100Y415960D02*
X190760Y415300D01*
X129140Y415960D02*
X129800Y415300D01*
X198920Y426120D02*
X200260Y427460D01*
X108900Y451600D02*
X124220Y436280D01*
X263760Y385480D02*
X271380Y393100D01*
Y403800D01*
X270720Y404460D02*
X271380Y403800D01*
X289943Y409187D02*
X291700Y407430D01*
X251060Y415960D02*
X251720Y415300D01*
X324720Y385480D02*
X331680Y392440D01*
Y404460D01*
X312020Y415960D02*
X312680Y415300D01*
X266300Y451600D02*
X290440Y427460D01*
X322180D01*
X149460Y436280D02*
X159620Y426120D01*
X198920D01*
X124220Y436280D02*
X149460D01*
X247320Y441360D02*
X258220Y430460D01*
X259720D01*
X261220Y428960D01*
Y427460D02*
Y428960D01*
X141920Y443980D02*
X150830D01*
X134300Y451600D02*
X141920Y443980D01*
X150830D02*
X158530Y436280D01*
X367520Y380020D02*
Y416040D01*
X362820Y375320D02*
X367520Y380020D01*
X335040Y454060D02*
X350280D01*
X339299Y470121D02*
Y475201D01*
X337500Y477000D02*
X339299Y475201D01*
Y470121D02*
X347660Y461760D01*
X373060Y431280D02*
Y443980D01*
X355280Y461760D02*
X373060Y443980D01*
X347660Y461760D02*
X355280D01*
X83500Y451600D02*
X92664Y460765D01*
X108900Y451600D02*
X118064Y460764D01*
X118064D01*
X134300Y451600D02*
X143464Y460764D01*
X159700Y451600D02*
X168864Y460764D01*
Y460765D01*
X99735Y467836D02*
X108900Y477000D01*
X238440D02*
X251140Y489700D01*
X125135Y467836D02*
X134300Y477000D01*
X108900D02*
X134300D01*
X150535Y467836D02*
X159700Y477000D01*
X134300D02*
X159700D01*
X175935Y467836D02*
X185100Y477000D01*
X159700D02*
X185100D01*
X238440D01*
X86040D02*
X108900D01*
X79415Y470376D02*
X86040Y477000D01*
X58100Y451600D02*
X59370D01*
X71179Y463409D01*
X72240D01*
X72344Y463304D01*
X251140Y489700D02*
X299400D01*
X312100Y477000D01*
X335040Y454060D01*
X318047D02*
X335040D01*
X76840Y428960D02*
X78340Y427460D01*
X61910Y451600D02*
X76840Y436670D01*
Y428960D02*
Y436670D01*
X58100Y451600D02*
X61910D01*
X44130Y360160D02*
Y371440D01*
X61210Y388520D01*
X68000D01*
X171490Y361316D02*
Y370090D01*
X171190Y361017D02*
X171490Y361316D01*
Y370090D02*
X186920Y385520D01*
X171190Y358950D02*
Y361017D01*
X309938Y371020D02*
Y379405D01*
Y371020D02*
X311438Y369520D01*
X311840D01*
X231900Y358700D02*
X233360Y360160D01*
X247880Y387020D02*
Y387020D01*
X233360Y360160D02*
Y372500D01*
X247880Y387020D01*
X250478Y369520D02*
X250880D01*
X247330Y372668D02*
Y374034D01*
Y372668D02*
X250478Y369520D01*
X362900Y420660D02*
Y441440D01*
Y420660D02*
X367520Y416040D01*
X350280Y454060D02*
X362900Y441440D01*
X312100Y449060D02*
X313047D01*
X318047Y454060D01*
X70800Y355080D02*
Y366720D01*
X68000Y369520D02*
X70800Y366720D01*
X57160Y438570D02*
X64450Y431280D01*
X44130Y403340D02*
Y432700D01*
X50000Y438570D01*
X57160D01*
X52690Y430950D02*
X53020Y431280D01*
X52690Y391910D02*
Y430950D01*
X112770Y358950D02*
X118980Y365160D01*
X231900Y358700D02*
X290793D01*
X112770Y358950D02*
X141980D01*
X171190D01*
X182480Y436280D02*
X187560Y441360D01*
X247320D01*
X158530Y436280D02*
X182480D01*
X207800Y200240D02*
X225660D01*
X202800Y205240D02*
Y220480D01*
Y205240D02*
X207800Y200240D01*
X263760Y205240D02*
X268760Y200240D01*
X286620D01*
X263760Y205240D02*
Y220480D01*
X324720Y207780D02*
X332260Y200240D01*
X347580D01*
X324720Y207780D02*
Y220480D01*
X68000Y223520D02*
X69500Y222020D01*
X74260D01*
X75794Y220486D01*
X82460Y209347D02*
Y220480D01*
X76920Y207052D02*
X90022Y193950D01*
X75794Y220486D02*
X76920Y219360D01*
Y207052D02*
Y219360D01*
X82460Y209347D02*
X91567Y200240D01*
X103740D01*
X90022Y193950D02*
X112770D01*
X127460Y223520D02*
X128960D01*
X143420Y209347D02*
Y220480D01*
Y209347D02*
X143420Y209347D01*
Y206200D02*
X149380Y200240D01*
X143420Y206200D02*
Y209347D01*
X149380Y200240D02*
X164700D01*
X186920Y220520D02*
Y222020D01*
X188420Y223520D01*
X189920D01*
X128960Y204520D02*
X129140Y204700D01*
Y214730D01*
X125600Y222020D02*
X125960D01*
X118980Y200160D02*
Y215400D01*
X125960Y222020D02*
X127460Y223520D01*
X118980Y215400D02*
X125600Y222020D01*
X199904Y193700D02*
X231900D01*
X199655Y193950D02*
X199904Y193700D01*
X171190Y193950D02*
X199655D01*
X247880Y222020D02*
X249380Y223520D01*
X250880D01*
X302240Y218320D02*
X305940Y222020D01*
X310340D01*
X311840Y223520D01*
X301860Y217377D02*
X302240Y217757D01*
X301860Y204767D02*
Y217377D01*
X302240Y217757D02*
Y218320D01*
X159700Y286600D02*
X266300D01*
X290793Y193700D02*
X301860Y204767D01*
X356360Y193700D02*
X362820Y200160D01*
Y210320D01*
X290793Y193700D02*
X356360D01*
X378060Y205240D02*
Y206040D01*
X82460Y220480D02*
X87840Y225860D01*
Y239460D01*
X143420Y220480D02*
X148800Y225860D01*
Y239460D01*
X168023Y244187D02*
X169780Y242430D01*
X83500Y286600D02*
X107640Y262460D01*
X139300D01*
X202800Y220480D02*
X209760Y227440D01*
Y239460D01*
X228983Y244187D02*
X230740Y242430D01*
X190100Y250960D02*
X190760Y250300D01*
X129140Y250960D02*
X129800Y250300D01*
X198920Y261120D02*
X200260Y262460D01*
X108900Y286600D02*
X124220Y271280D01*
X263760Y220480D02*
X271380Y228100D01*
Y238800D01*
X270720Y239460D02*
X271380Y238800D01*
X289943Y244187D02*
X291700Y242430D01*
X251060Y250960D02*
X251720Y250300D01*
X324720Y220480D02*
X331680Y227440D01*
Y239460D01*
X312020Y250960D02*
X312680Y250300D01*
X266300Y286600D02*
X290440Y262460D01*
X322180D01*
X149460Y271280D02*
X159620Y261120D01*
X198920D01*
X124220Y271280D02*
X149460D01*
X247320Y276360D02*
X258220Y265460D01*
X259720D01*
X261220Y263960D01*
Y262460D02*
Y263960D01*
X141920Y278980D02*
X150830D01*
X134300Y286600D02*
X141920Y278980D01*
X150830D02*
X158530Y271280D01*
X367520Y215020D02*
Y251040D01*
X362820Y210320D02*
X367520Y215020D01*
X335040Y289060D02*
X350280D01*
X339299Y305121D02*
Y310201D01*
X337500Y312000D02*
X339299Y310201D01*
Y305121D02*
X347660Y296760D01*
X373060Y266280D02*
Y278980D01*
X355280Y296760D02*
X373060Y278980D01*
X347660Y296760D02*
X355280D01*
X83500Y286600D02*
X92664Y295765D01*
X108900Y286600D02*
X118064Y295765D01*
X118064D01*
X134300Y286600D02*
X143464Y295765D01*
X159700Y286600D02*
X168864Y295765D01*
Y295765D01*
X99735Y302836D02*
X108900Y312000D01*
X238440D02*
X251140Y324700D01*
X125135Y302836D02*
X134300Y312000D01*
X108900D02*
X134300D01*
X150535Y302836D02*
X159700Y312000D01*
X134300D02*
X159700D01*
X175935Y302836D02*
X185100Y312000D01*
X159700D02*
X185100D01*
X238440D01*
X86040D02*
X108900D01*
X79415Y305375D02*
X86040Y312000D01*
X58100Y286600D02*
X59370D01*
X71179Y298409D01*
X72240D01*
X72344Y298305D01*
X251140Y324700D02*
X299400D01*
X312100Y312000D01*
X335040Y289060D01*
X318047D02*
X335040D01*
X76840Y263960D02*
X78340Y262460D01*
X61910Y286600D02*
X76840Y271670D01*
Y263960D02*
Y271670D01*
X58100Y286600D02*
X61910D01*
X44130Y195160D02*
Y206440D01*
X61210Y223520D01*
X68000D01*
X171490Y196317D02*
Y205090D01*
X171190Y196017D02*
X171490Y196317D01*
Y205090D02*
X186920Y220520D01*
X171190Y193950D02*
Y196017D01*
X309938Y206020D02*
Y214405D01*
Y206020D02*
X311438Y204520D01*
X311840D01*
X231900Y193700D02*
X233360Y195160D01*
X247880Y222020D02*
Y222020D01*
X233360Y195160D02*
Y207500D01*
X247880Y222020D01*
X250478Y204520D02*
X250880D01*
X247330Y207668D02*
Y209034D01*
Y207668D02*
X250478Y204520D01*
X362900Y255660D02*
Y276440D01*
Y255660D02*
X367520Y251040D01*
X350280Y289060D02*
X362900Y276440D01*
X312100Y284060D02*
X313047D01*
X318047Y289060D01*
X70800Y190080D02*
Y201720D01*
X68000Y204520D02*
X70800Y201720D01*
X57160Y273570D02*
X64450Y266280D01*
X44130Y238340D02*
Y267700D01*
X50000Y273570D01*
X57160D01*
X52690Y265950D02*
X53020Y266280D01*
X52690Y226910D02*
Y265950D01*
X112770Y193950D02*
X118980Y200160D01*
X231900Y193700D02*
X290793D01*
X112770Y193950D02*
X141980D01*
X171190D01*
X182480Y271280D02*
X187560Y276360D01*
X247320D01*
X158530Y271280D02*
X182480D01*
X207800Y35240D02*
X225660D01*
X202800Y40240D02*
Y55480D01*
Y40240D02*
X207800Y35240D01*
X263760Y40240D02*
X268760Y35240D01*
X286620D01*
X263760Y40240D02*
Y55480D01*
X324720Y42780D02*
X332260Y35240D01*
X347580D01*
X324720Y42780D02*
Y55480D01*
X68000Y58520D02*
X69500Y57020D01*
X74260D01*
X75794Y55486D01*
X82460Y44347D02*
Y55480D01*
X76920Y42052D02*
X90022Y28950D01*
X75794Y55486D02*
X76920Y54360D01*
Y42052D02*
Y54360D01*
X82460Y44347D02*
X91567Y35240D01*
X103740D01*
X90022Y28950D02*
X112770D01*
X127460Y58520D02*
X128960D01*
X143420Y44347D02*
Y55480D01*
Y44347D02*
X143420Y44347D01*
Y41200D02*
X149380Y35240D01*
X143420Y41200D02*
Y44347D01*
X149380Y35240D02*
X164700D01*
X186920Y55520D02*
Y57020D01*
X188420Y58520D01*
X189920D01*
X128960Y39520D02*
X129140Y39700D01*
Y49730D01*
X125600Y57020D02*
X125960D01*
X118980Y35160D02*
Y50400D01*
X125960Y57020D02*
X127460Y58520D01*
X118980Y50400D02*
X125600Y57020D01*
X199904Y28700D02*
X231900D01*
X199655Y28950D02*
X199904Y28700D01*
X171190Y28950D02*
X199655D01*
X247880Y57020D02*
X249380Y58520D01*
X250880D01*
X302240Y53320D02*
X305940Y57020D01*
X310340D01*
X311840Y58520D01*
X301860Y52377D02*
X302240Y52757D01*
X301860Y39767D02*
Y52377D01*
X302240Y52757D02*
Y53320D01*
X159700Y121600D02*
X266300D01*
X290793Y28700D02*
X301860Y39767D01*
X356360Y28700D02*
X362820Y35160D01*
Y45320D01*
X290793Y28700D02*
X356360D01*
X378060Y40240D02*
Y41040D01*
X82460Y55480D02*
X87840Y60860D01*
Y74460D01*
X143420Y55480D02*
X148800Y60860D01*
Y74460D01*
X168023Y79187D02*
X169780Y77430D01*
X83500Y121600D02*
X107640Y97460D01*
X139300D01*
X202800Y55480D02*
X209760Y62440D01*
Y74460D01*
X228983Y79187D02*
X230740Y77430D01*
X190100Y85960D02*
X190760Y85300D01*
X129140Y85960D02*
X129800Y85300D01*
X198920Y96120D02*
X200260Y97460D01*
X108900Y121600D02*
X124220Y106280D01*
X263760Y55480D02*
X271380Y63100D01*
Y73800D01*
X270720Y74460D02*
X271380Y73800D01*
X289943Y79187D02*
X291700Y77430D01*
X251060Y85960D02*
X251720Y85300D01*
X324720Y55480D02*
X331680Y62440D01*
Y74460D01*
X312020Y85960D02*
X312680Y85300D01*
X266300Y121600D02*
X290440Y97460D01*
X322180D01*
X149460Y106280D02*
X159620Y96120D01*
X198920D01*
X124220Y106280D02*
X149460D01*
X247320Y111360D02*
X258220Y100460D01*
X259720D01*
X261220Y98960D01*
Y97460D02*
Y98960D01*
X141920Y113980D02*
X150830D01*
X134300Y121600D02*
X141920Y113980D01*
X150830D02*
X158530Y106280D01*
X367520Y50020D02*
Y86040D01*
X362820Y45320D02*
X367520Y50020D01*
X335040Y124060D02*
X350280D01*
X339299Y140121D02*
Y145201D01*
X337500Y147000D02*
X339299Y145201D01*
Y140121D02*
X347660Y131760D01*
X373060Y101280D02*
Y113980D01*
X355280Y131760D02*
X373060Y113980D01*
X347660Y131760D02*
X355280D01*
X83500Y121600D02*
X92664Y130765D01*
X108900Y121600D02*
X118064Y130765D01*
X118064D01*
X134300Y121600D02*
X143464Y130765D01*
X159700Y121600D02*
X168864Y130765D01*
Y130765D01*
X99735Y137836D02*
X108900Y147000D01*
X238440D02*
X251140Y159700D01*
X125135Y137836D02*
X134300Y147000D01*
X108900D02*
X134300D01*
X150535Y137836D02*
X159700Y147000D01*
X134300D02*
X159700D01*
X175935Y137836D02*
X185100Y147000D01*
X159700D02*
X185100D01*
X238440D01*
X86040D02*
X108900D01*
X79415Y140375D02*
X86040Y147000D01*
X58100Y121600D02*
X59370D01*
X71179Y133409D01*
X72240D01*
X72344Y133305D01*
X251140Y159700D02*
X299400D01*
X312100Y147000D01*
X335040Y124060D01*
X318047D02*
X335040D01*
X76840Y98960D02*
X78340Y97460D01*
X61910Y121600D02*
X76840Y106670D01*
Y98960D02*
Y106670D01*
X58100Y121600D02*
X61910D01*
X44130Y30160D02*
Y41440D01*
X61210Y58520D01*
X68000D01*
X171490Y31317D02*
Y40090D01*
X171190Y31016D02*
X171490Y31317D01*
Y40090D02*
X186920Y55520D01*
X171190Y28950D02*
Y31016D01*
X309938Y41020D02*
Y49405D01*
Y41020D02*
X311438Y39520D01*
X311840D01*
X231900Y28700D02*
X233360Y30160D01*
X247880Y57020D02*
Y57020D01*
X233360Y30160D02*
Y42500D01*
X247880Y57020D01*
X250478Y39520D02*
X250880D01*
X247330Y42668D02*
Y44034D01*
Y42668D02*
X250478Y39520D01*
X362900Y90660D02*
Y111440D01*
Y90660D02*
X367520Y86040D01*
X350280Y124060D02*
X362900Y111440D01*
X312100Y119060D02*
X313047D01*
X318047Y124060D01*
X70800Y25080D02*
Y36720D01*
X68000Y39520D02*
X70800Y36720D01*
X57160Y108570D02*
X64450Y101280D01*
X44130Y73340D02*
Y102700D01*
X50000Y108570D01*
X57160D01*
X52690Y100950D02*
X53020Y101280D01*
X52690Y61910D02*
Y100950D01*
X112770Y28950D02*
X118980Y35160D01*
X231900Y28700D02*
X290793D01*
X112770Y28950D02*
X141980D01*
X171190D01*
X182480Y106280D02*
X187560Y111360D01*
X247320D01*
X158530Y106280D02*
X182480D01*
D29*
X261300Y642000D02*
D03*
X286700D02*
D03*
X312100D02*
D03*
X337500D02*
D03*
X362900D02*
D03*
X58100Y616600D02*
D03*
X83500D02*
D03*
X108900D02*
D03*
X134300D02*
D03*
X159700D02*
D03*
X261300Y477000D02*
D03*
X286700D02*
D03*
X312100D02*
D03*
X337500D02*
D03*
X362900D02*
D03*
X58100Y451600D02*
D03*
X83500D02*
D03*
X108900D02*
D03*
X134300D02*
D03*
X159700D02*
D03*
X261300Y312000D02*
D03*
X286700D02*
D03*
X312100D02*
D03*
X337500D02*
D03*
X362900D02*
D03*
X58100Y286600D02*
D03*
X83500D02*
D03*
X108900D02*
D03*
X134300D02*
D03*
X159700D02*
D03*
X261300Y147000D02*
D03*
X286700D02*
D03*
X312100D02*
D03*
X337500D02*
D03*
X362900D02*
D03*
X58100Y121600D02*
D03*
X83500D02*
D03*
X108900D02*
D03*
X134300D02*
D03*
X159700D02*
D03*
D30*
X129140Y544730D02*
D03*
X378060Y535240D02*
D03*
X373060Y596280D02*
D03*
X64450D02*
D03*
X44130Y525160D02*
D03*
Y568340D02*
D03*
X52690Y556910D02*
D03*
X183830Y531510D02*
D03*
X309938Y544405D02*
D03*
X247330Y539034D02*
D03*
X312100Y614060D02*
D03*
X70800Y520080D02*
D03*
X53020Y596280D02*
D03*
X141920Y520080D02*
D03*
X129140Y379730D02*
D03*
X378060Y370240D02*
D03*
X373060Y431280D02*
D03*
X64450D02*
D03*
X44130Y360160D02*
D03*
Y403340D02*
D03*
X52690Y391910D02*
D03*
X183830Y366510D02*
D03*
X309938Y379405D02*
D03*
X247330Y374034D02*
D03*
X312100Y449060D02*
D03*
X70800Y355080D02*
D03*
X53020Y431280D02*
D03*
X141920Y355080D02*
D03*
X129140Y214730D02*
D03*
X378060Y205240D02*
D03*
X373060Y266280D02*
D03*
X64450D02*
D03*
X44130Y195160D02*
D03*
Y238340D02*
D03*
X52690Y226910D02*
D03*
X183830Y201510D02*
D03*
X309938Y214405D02*
D03*
X247330Y209034D02*
D03*
X312100Y284060D02*
D03*
X70800Y190080D02*
D03*
X53020Y266280D02*
D03*
X141920Y190080D02*
D03*
X129140Y49730D02*
D03*
X378060Y40240D02*
D03*
X373060Y101280D02*
D03*
X64450D02*
D03*
X44130Y30160D02*
D03*
Y73340D02*
D03*
X52690Y61910D02*
D03*
X183830Y36510D02*
D03*
X309938Y49405D02*
D03*
X247330Y44034D02*
D03*
X312100Y119060D02*
D03*
X70800Y25080D02*
D03*
X53020Y101280D02*
D03*
X141920Y25080D02*
D03*
D31*
X72344Y628304D02*
D03*
X79415Y635376D02*
D03*
X92664Y625765D02*
D03*
X99735Y632836D02*
D03*
X168864Y625765D02*
D03*
X175935Y632836D02*
D03*
X150535D02*
D03*
X143464Y625765D02*
D03*
X125135Y632836D02*
D03*
X118064Y625765D02*
D03*
X72344Y463304D02*
D03*
X79415Y470376D02*
D03*
X92664Y460765D02*
D03*
X99735Y467836D02*
D03*
X168864Y460765D02*
D03*
X175935Y467836D02*
D03*
X150535D02*
D03*
X143464Y460764D02*
D03*
X125135Y467836D02*
D03*
X118064Y460764D02*
D03*
X72344Y298305D02*
D03*
X79415Y305375D02*
D03*
X92664Y295765D02*
D03*
X99735Y302836D02*
D03*
X168864Y295765D02*
D03*
X175935Y302836D02*
D03*
X150535D02*
D03*
X143464Y295765D02*
D03*
X125135Y302836D02*
D03*
X118064Y295765D02*
D03*
X72344Y133305D02*
D03*
X79415Y140375D02*
D03*
X92664Y130765D02*
D03*
X99735Y137836D02*
D03*
X168864Y130765D02*
D03*
X175935Y137836D02*
D03*
X150535D02*
D03*
X143464Y130765D02*
D03*
X125135Y137836D02*
D03*
X118064Y130765D02*
D03*
D32*
X91000Y544020D02*
D03*
X68000Y553520D02*
D03*
Y534520D02*
D03*
X151960Y544020D02*
D03*
X128960Y553520D02*
D03*
Y534520D02*
D03*
X212920Y544020D02*
D03*
X189920Y553520D02*
D03*
Y534520D02*
D03*
X273880Y544020D02*
D03*
X250880Y553520D02*
D03*
Y534520D02*
D03*
X334840Y544020D02*
D03*
X311840Y553520D02*
D03*
Y534520D02*
D03*
X91000Y379020D02*
D03*
X68000Y388520D02*
D03*
Y369520D02*
D03*
X151960Y379020D02*
D03*
X128960Y388520D02*
D03*
Y369520D02*
D03*
X212920Y379020D02*
D03*
X189920Y388520D02*
D03*
Y369520D02*
D03*
X273880Y379020D02*
D03*
X250880Y388520D02*
D03*
Y369520D02*
D03*
X334840Y379020D02*
D03*
X311840Y388520D02*
D03*
Y369520D02*
D03*
X91000Y214020D02*
D03*
X68000Y223520D02*
D03*
Y204520D02*
D03*
X151960Y214020D02*
D03*
X128960Y223520D02*
D03*
Y204520D02*
D03*
X212920Y214020D02*
D03*
X189920Y223520D02*
D03*
Y204520D02*
D03*
X273880Y214020D02*
D03*
X250880Y223520D02*
D03*
Y204520D02*
D03*
X334840Y214020D02*
D03*
X311840Y223520D02*
D03*
Y204520D02*
D03*
X91000Y49020D02*
D03*
X68000Y58520D02*
D03*
Y39520D02*
D03*
X151960Y49020D02*
D03*
X128960Y58520D02*
D03*
Y39520D02*
D03*
X212920Y49020D02*
D03*
X189920Y58520D02*
D03*
Y39520D02*
D03*
X273880Y49020D02*
D03*
X250880Y58520D02*
D03*
Y39520D02*
D03*
X334840Y49020D02*
D03*
X311840Y58520D02*
D03*
Y39520D02*
D03*
D33*
X78340Y592460D02*
D03*
X68840Y569460D02*
D03*
X87840D02*
D03*
X139300Y592460D02*
D03*
X129800Y569460D02*
D03*
X148800D02*
D03*
X200260Y592460D02*
D03*
X190760Y569460D02*
D03*
X209760D02*
D03*
X261220Y592460D02*
D03*
X251720Y569460D02*
D03*
X270720D02*
D03*
X322180Y592460D02*
D03*
X312680Y569460D02*
D03*
X331680D02*
D03*
X78340Y427460D02*
D03*
X68840Y404460D02*
D03*
X87840D02*
D03*
X139300Y427460D02*
D03*
X129800Y404460D02*
D03*
X148800D02*
D03*
X200260Y427460D02*
D03*
X190760Y404460D02*
D03*
X209760D02*
D03*
X261220Y427460D02*
D03*
X251720Y404460D02*
D03*
X270720D02*
D03*
X322180Y427460D02*
D03*
X312680Y404460D02*
D03*
X331680D02*
D03*
X78340Y262460D02*
D03*
X68840Y239460D02*
D03*
X87840D02*
D03*
X139300Y262460D02*
D03*
X129800Y239460D02*
D03*
X148800D02*
D03*
X200260Y262460D02*
D03*
X190760Y239460D02*
D03*
X209760D02*
D03*
X261220Y262460D02*
D03*
X251720Y239460D02*
D03*
X270720D02*
D03*
X322180Y262460D02*
D03*
X312680Y239460D02*
D03*
X331680D02*
D03*
X78340Y97460D02*
D03*
X68840Y74460D02*
D03*
X87840D02*
D03*
X139300Y97460D02*
D03*
X129800Y74460D02*
D03*
X148800D02*
D03*
X200260Y97460D02*
D03*
X190760Y74460D02*
D03*
X209760D02*
D03*
X261220Y97460D02*
D03*
X251720Y74460D02*
D03*
X270720D02*
D03*
X322180Y97460D02*
D03*
X312680Y74460D02*
D03*
X331680D02*
D03*
M02*
