G04*
G04 #@! TF.GenerationSoftware,Altium Limited,Altium Designer,20.2.7 (254)*
G04*
G04 Layer_Physical_Order=1*
G04 Layer_Color=255*
%FSLAX44Y44*%
%MOMM*%
G71*
G04*
G04 #@! TF.SameCoordinates,E2930A79-BBFB-44DC-8FC5-9A75561AB175*
G04*
G04*
G04 #@! TF.FilePolarity,Positive*
G04*
G01*
G75*
%ADD14R,0.9000X1.3000*%
%ADD15R,0.5500X0.4500*%
%ADD16O,0.6000X1.4500*%
G04:AMPARAMS|DCode=17|XSize=0.6mm|YSize=0.95mm|CornerRadius=0mm|HoleSize=0mm|Usage=FLASHONLY|Rotation=45.000|XOffset=0mm|YOffset=0mm|HoleType=Round|Shape=Rectangle|*
%AMROTATEDRECTD17*
4,1,4,0.1237,-0.5480,-0.5480,0.1237,-0.1237,0.5480,0.5480,-0.1237,0.1237,-0.5480,0.0*
%
%ADD17ROTATEDRECTD17*%

%ADD18R,1.3000X0.9000*%
%ADD26C,0.5000*%
%ADD27C,0.4000*%
%ADD28C,0.3000*%
%ADD29C,1.5000*%
%ADD30C,0.6000*%
D14*
X354370Y608980D02*
D03*
X335870D02*
D03*
X293410Y616600D02*
D03*
X274910D02*
D03*
X354370Y443980D02*
D03*
X335870D02*
D03*
X293410Y451600D02*
D03*
X274910D02*
D03*
X354370Y278980D02*
D03*
X335870D02*
D03*
X293410Y286600D02*
D03*
X274910D02*
D03*
X354370Y113980D02*
D03*
X335870D02*
D03*
X293410Y121600D02*
D03*
X274910D02*
D03*
D15*
X164700Y580880D02*
D03*
Y570880D02*
D03*
X45400Y538020D02*
D03*
Y548020D02*
D03*
X164700Y415880D02*
D03*
Y405880D02*
D03*
X45400Y373020D02*
D03*
Y383020D02*
D03*
X164700Y250880D02*
D03*
Y240880D02*
D03*
X45400Y208020D02*
D03*
Y218020D02*
D03*
X164700Y85880D02*
D03*
Y75880D02*
D03*
X45400Y43020D02*
D03*
Y53020D02*
D03*
D16*
X271380Y530850D02*
D03*
X284080D02*
D03*
X296780D02*
D03*
X309480D02*
D03*
X322180D02*
D03*
X334880D02*
D03*
X347580D02*
D03*
X271380Y585350D02*
D03*
X284080D02*
D03*
X296780D02*
D03*
X309480D02*
D03*
X322180D02*
D03*
X334880D02*
D03*
X347580D02*
D03*
X56750Y530850D02*
D03*
X69450D02*
D03*
X82150D02*
D03*
X94850D02*
D03*
X107550D02*
D03*
X120250D02*
D03*
X132950D02*
D03*
X145650D02*
D03*
X56750Y585350D02*
D03*
X69450D02*
D03*
X82150D02*
D03*
X94850D02*
D03*
X107550D02*
D03*
X120250D02*
D03*
X132950D02*
D03*
X145650D02*
D03*
X271380Y365850D02*
D03*
X284080D02*
D03*
X296780D02*
D03*
X309480D02*
D03*
X322180D02*
D03*
X334880D02*
D03*
X347580D02*
D03*
X271380Y420350D02*
D03*
X284080D02*
D03*
X296780D02*
D03*
X309480D02*
D03*
X322180D02*
D03*
X334880D02*
D03*
X347580D02*
D03*
X56750Y365850D02*
D03*
X69450D02*
D03*
X82150D02*
D03*
X94850D02*
D03*
X107550D02*
D03*
X120250D02*
D03*
X132950D02*
D03*
X145650D02*
D03*
X56750Y420350D02*
D03*
X69450D02*
D03*
X82150D02*
D03*
X94850D02*
D03*
X107550D02*
D03*
X120250D02*
D03*
X132950D02*
D03*
X145650D02*
D03*
X271380Y200850D02*
D03*
X284080D02*
D03*
X296780D02*
D03*
X309480D02*
D03*
X322180D02*
D03*
X334880D02*
D03*
X347580D02*
D03*
X271380Y255350D02*
D03*
X284080D02*
D03*
X296780D02*
D03*
X309480D02*
D03*
X322180D02*
D03*
X334880D02*
D03*
X347580D02*
D03*
X56750Y200850D02*
D03*
X69450D02*
D03*
X82150D02*
D03*
X94850D02*
D03*
X107550D02*
D03*
X120250D02*
D03*
X132950D02*
D03*
X145650D02*
D03*
X56750Y255350D02*
D03*
X69450D02*
D03*
X82150D02*
D03*
X94850D02*
D03*
X107550D02*
D03*
X120250D02*
D03*
X132950D02*
D03*
X145650D02*
D03*
X271380Y35850D02*
D03*
X284080D02*
D03*
X296780D02*
D03*
X309480D02*
D03*
X322180D02*
D03*
X334880D02*
D03*
X347580D02*
D03*
X271380Y90350D02*
D03*
X284080D02*
D03*
X296780D02*
D03*
X309480D02*
D03*
X322180D02*
D03*
X334880D02*
D03*
X347580D02*
D03*
X56750Y35850D02*
D03*
X69450D02*
D03*
X82150D02*
D03*
X94850D02*
D03*
X107550D02*
D03*
X120250D02*
D03*
X132950D02*
D03*
X145650D02*
D03*
X56750Y90350D02*
D03*
X69450D02*
D03*
X82150D02*
D03*
X94850D02*
D03*
X107550D02*
D03*
X120250D02*
D03*
X132950D02*
D03*
X145650D02*
D03*
D17*
X234384Y565512D02*
D03*
X227666Y558794D02*
D03*
X220949Y552077D02*
D03*
X201857Y571168D02*
D03*
X208574Y577886D02*
D03*
X215292Y584604D02*
D03*
X234384Y400512D02*
D03*
X227666Y393794D02*
D03*
X220949Y387076D02*
D03*
X201857Y406168D02*
D03*
X208574Y412886D02*
D03*
X215292Y419603D02*
D03*
X234384Y235512D02*
D03*
X227666Y228794D02*
D03*
X220949Y222077D02*
D03*
X201857Y241168D02*
D03*
X208574Y247886D02*
D03*
X215292Y254604D02*
D03*
X234384Y70512D02*
D03*
X227666Y63794D02*
D03*
X220949Y57077D02*
D03*
X201857Y76168D02*
D03*
X208574Y82886D02*
D03*
X215292Y89604D02*
D03*
D18*
X367900Y567350D02*
D03*
Y548850D02*
D03*
Y402350D02*
D03*
Y383850D02*
D03*
Y237350D02*
D03*
Y218850D02*
D03*
Y72350D02*
D03*
Y53850D02*
D03*
D26*
X347389Y531041D02*
X347580Y530850D01*
X312100Y642000D02*
X312875Y641225D01*
X334689Y585541D02*
Y590062D01*
X312100Y642000D02*
Y644380D01*
X133141Y536701D02*
X141451Y545011D01*
X133141Y531041D02*
Y536701D01*
X132950Y530850D02*
X133141Y531041D01*
X141451Y545011D02*
X164692D01*
X334880Y585350D02*
Y604720D01*
X361950Y641050D02*
X362900Y642000D01*
X365900Y567350D02*
X367900D01*
X367849Y569299D02*
Y581011D01*
X347580Y585350D02*
X363510D01*
X367849Y581011D01*
X82150Y585350D02*
Y589850D01*
X371900Y541400D02*
X378060Y535240D01*
X371900Y541400D02*
Y546850D01*
X369900Y548850D02*
X371900Y546850D01*
X378060Y535240D02*
Y535240D01*
X164620Y580960D02*
X164700Y580880D01*
X164700Y570880D02*
X164700D01*
X337500Y642000D02*
X338916Y643416D01*
X367849Y581011D02*
X372773Y585936D01*
Y595993D01*
X373060Y596280D01*
X334342Y610926D02*
X334963Y610305D01*
X348101Y548850D02*
X367900D01*
X369900D01*
X354370Y608980D02*
Y610980D01*
X356370Y612980D01*
X359021D01*
X361950Y615909D01*
Y641050D01*
X95041Y531041D02*
Y536701D01*
X94850Y530850D02*
X95041Y531041D01*
X103070Y544730D02*
X129140D01*
X95041Y536701D02*
X103070Y544730D01*
X202245Y588025D02*
X215580Y601360D01*
X44130Y568340D02*
X45400D01*
X347389Y531041D02*
Y548138D01*
X178193Y531510D02*
X183830D01*
X164692Y545011D02*
X178193Y531510D01*
X283580Y580329D02*
X284080Y580829D01*
Y585350D01*
X202245Y584922D02*
Y588025D01*
Y584922D02*
X208574Y578593D01*
Y577886D02*
Y578593D01*
X201857Y571168D02*
X202564D01*
X235621Y564274D02*
X236328D01*
X234384Y565512D02*
X235621Y564274D01*
X215031Y584864D02*
Y585571D01*
Y584864D02*
X215292Y584604D01*
X365900Y567350D02*
X367849Y569299D01*
X271380Y585350D02*
Y598431D01*
X215580Y601360D02*
X309171D01*
X312100Y604289D01*
Y614060D01*
X295245Y626371D02*
X298174Y629300D01*
X331413D01*
X295245Y618436D02*
Y626371D01*
X293410Y616600D02*
X295245Y618436D01*
X331413Y629300D02*
X334342Y626371D01*
Y610926D02*
Y626371D01*
X307020Y555640D02*
X341311D01*
X348101Y548850D01*
X347389Y366041D02*
X347580Y365850D01*
X312100Y477000D02*
X312875Y476225D01*
X334689Y420541D02*
Y425062D01*
X312100Y477000D02*
Y479380D01*
X133141Y371701D02*
X141451Y380011D01*
X133141Y366041D02*
Y371701D01*
X132950Y365850D02*
X133141Y366041D01*
X141451Y380011D02*
X164692D01*
X334880Y420350D02*
Y439720D01*
X361950Y476050D02*
X362900Y477000D01*
X365900Y402350D02*
X367900D01*
X367849Y404299D02*
Y416011D01*
X347580Y420350D02*
X363510D01*
X367849Y416011D01*
X82150Y420350D02*
Y424850D01*
X371900Y376400D02*
X378060Y370240D01*
X371900Y376400D02*
Y381850D01*
X369900Y383850D02*
X371900Y381850D01*
X378060Y370240D02*
Y370240D01*
X164620Y415960D02*
X164700Y415880D01*
X164700Y405880D02*
X164700D01*
X337500Y477000D02*
X338916Y478416D01*
X367849Y416011D02*
X372773Y420936D01*
Y430993D01*
X373060Y431280D01*
X334342Y445926D02*
X334963Y445305D01*
X348101Y383850D02*
X367900D01*
X369900D01*
X354370Y443980D02*
Y445980D01*
X356370Y447980D01*
X359021D01*
X361950Y450909D01*
Y476050D01*
X95041Y366041D02*
Y371701D01*
X94850Y365850D02*
X95041Y366041D01*
X103070Y379730D02*
X129140D01*
X95041Y371701D02*
X103070Y379730D01*
X202245Y423025D02*
X215580Y436360D01*
X44130Y403340D02*
X45400D01*
X347389Y366041D02*
Y383138D01*
X178193Y366510D02*
X183830D01*
X164692Y380011D02*
X178193Y366510D01*
X283580Y415329D02*
X284080Y415829D01*
Y420350D01*
X202245Y419922D02*
Y423025D01*
Y419922D02*
X208574Y413593D01*
Y412886D02*
Y413593D01*
X201857Y406168D02*
X202564D01*
X235621Y399274D02*
X236328D01*
X234384Y400512D02*
X235621Y399274D01*
X215031Y419864D02*
Y420571D01*
Y419864D02*
X215292Y419603D01*
X365900Y402350D02*
X367849Y404299D01*
X271380Y420350D02*
Y433431D01*
X215580Y436360D02*
X309171D01*
X312100Y439289D01*
Y449060D01*
X295245Y461371D02*
X298174Y464300D01*
X331413D01*
X295245Y453436D02*
Y461371D01*
X293410Y451600D02*
X295245Y453436D01*
X331413Y464300D02*
X334342Y461371D01*
Y445926D02*
Y461371D01*
X307020Y390640D02*
X341311D01*
X348101Y383850D01*
X347389Y201041D02*
X347580Y200850D01*
X312100Y312000D02*
X312875Y311225D01*
X334689Y255541D02*
Y260062D01*
X312100Y312000D02*
Y314380D01*
X133141Y206701D02*
X141451Y215011D01*
X133141Y201041D02*
Y206701D01*
X132950Y200850D02*
X133141Y201041D01*
X141451Y215011D02*
X164692D01*
X334880Y255350D02*
Y274720D01*
X361950Y311050D02*
X362900Y312000D01*
X365900Y237350D02*
X367900D01*
X367849Y239299D02*
Y251011D01*
X347580Y255350D02*
X363510D01*
X367849Y251011D01*
X82150Y255350D02*
Y259850D01*
X371900Y211400D02*
X378060Y205240D01*
X371900Y211400D02*
Y216850D01*
X369900Y218850D02*
X371900Y216850D01*
X378060Y205240D02*
Y205240D01*
X164620Y250960D02*
X164700Y250880D01*
X164700Y240880D02*
X164700D01*
X337500Y312000D02*
X338916Y313416D01*
X367849Y251011D02*
X372773Y255936D01*
Y265993D01*
X373060Y266280D01*
X334342Y280926D02*
X334963Y280305D01*
X348101Y218850D02*
X367900D01*
X369900D01*
X354370Y278980D02*
Y280980D01*
X356370Y282980D01*
X359021D01*
X361950Y285909D01*
Y311050D01*
X95041Y201041D02*
Y206701D01*
X94850Y200850D02*
X95041Y201041D01*
X103070Y214730D02*
X129140D01*
X95041Y206701D02*
X103070Y214730D01*
X202245Y258025D02*
X215580Y271360D01*
X44130Y238340D02*
X45400D01*
X347389Y201041D02*
Y218138D01*
X178193Y201510D02*
X183830D01*
X164692Y215011D02*
X178193Y201510D01*
X283580Y250329D02*
X284080Y250829D01*
Y255350D01*
X202245Y254922D02*
Y258025D01*
Y254922D02*
X208574Y248593D01*
Y247886D02*
Y248593D01*
X201857Y241168D02*
X202564D01*
X235621Y234274D02*
X236328D01*
X234384Y235512D02*
X235621Y234274D01*
X215031Y254864D02*
Y255571D01*
Y254864D02*
X215292Y254604D01*
X365900Y237350D02*
X367849Y239299D01*
X271380Y255350D02*
Y268431D01*
X215580Y271360D02*
X309171D01*
X312100Y274289D01*
Y284060D01*
X295245Y296371D02*
X298174Y299300D01*
X331413D01*
X295245Y288435D02*
Y296371D01*
X293410Y286600D02*
X295245Y288435D01*
X331413Y299300D02*
X334342Y296371D01*
Y280926D02*
Y296371D01*
X307020Y225640D02*
X341311D01*
X348101Y218850D01*
X347389Y36041D02*
X347580Y35850D01*
X312100Y147000D02*
X312875Y146225D01*
X334689Y90541D02*
Y95062D01*
X312100Y147000D02*
Y149380D01*
X133141Y41701D02*
X141451Y50011D01*
X133141Y36041D02*
Y41701D01*
X132950Y35850D02*
X133141Y36041D01*
X141451Y50011D02*
X164692D01*
X334880Y90350D02*
Y109720D01*
X361950Y146050D02*
X362900Y147000D01*
X365900Y72350D02*
X367900D01*
X367849Y74299D02*
Y86011D01*
X347580Y90350D02*
X363510D01*
X367849Y86011D01*
X82150Y90350D02*
Y94850D01*
X371900Y46400D02*
X378060Y40240D01*
X371900Y46400D02*
Y51850D01*
X369900Y53850D02*
X371900Y51850D01*
X378060Y40240D02*
Y40240D01*
X164620Y85960D02*
X164700Y85880D01*
X164700Y75880D02*
X164700D01*
X337500Y147000D02*
X338916Y148416D01*
X367849Y86011D02*
X372773Y90936D01*
Y100993D01*
X373060Y101280D01*
X334342Y115926D02*
X334963Y115305D01*
X348101Y53850D02*
X367900D01*
X369900D01*
X354370Y113980D02*
Y115980D01*
X356370Y117980D01*
X359021D01*
X361950Y120909D01*
Y146050D01*
X95041Y36041D02*
Y41701D01*
X94850Y35850D02*
X95041Y36041D01*
X103070Y49730D02*
X129140D01*
X95041Y41701D02*
X103070Y49730D01*
X202245Y93025D02*
X215580Y106360D01*
X44130Y73340D02*
X45400D01*
X347389Y36041D02*
Y53138D01*
X178193Y36510D02*
X183830D01*
X164692Y50011D02*
X178193Y36510D01*
X283580Y85329D02*
X284080Y85829D01*
Y90350D01*
X202245Y89922D02*
Y93025D01*
Y89922D02*
X208574Y83593D01*
Y82886D02*
Y83593D01*
X201857Y76168D02*
X202564D01*
X235621Y69274D02*
X236328D01*
X234384Y70512D02*
X235621Y69274D01*
X215031Y89864D02*
Y90571D01*
Y89864D02*
X215292Y89604D01*
X365900Y72350D02*
X367849Y74299D01*
X271380Y90350D02*
Y103431D01*
X215580Y106360D02*
X309171D01*
X312100Y109289D01*
Y119060D01*
X295245Y131371D02*
X298174Y134300D01*
X331413D01*
X295245Y123435D02*
Y131371D01*
X293410Y121600D02*
X295245Y123435D01*
X331413Y134300D02*
X334342Y131371D01*
Y115926D02*
Y131371D01*
X307020Y60640D02*
X341311D01*
X348101Y53850D01*
D27*
X296780Y570800D02*
Y585350D01*
X159620Y580960D02*
X164620D01*
X149540Y570880D02*
X159620Y580960D01*
X155810Y561990D02*
X164700Y570880D01*
X95697D02*
X149540D01*
X97470Y561990D02*
X155810D01*
X225740Y581040D02*
X246060D01*
X35840Y571774D02*
X40696Y576630D01*
X35840Y533450D02*
X44130Y525160D01*
X35840Y533450D02*
Y571774D01*
X92390Y556910D02*
X97470Y561990D01*
X40696Y576630D02*
X49850D01*
X53420Y573060D01*
X86810D01*
X94850Y581100D01*
X47477Y568340D02*
X50297Y565520D01*
X90337D01*
X95697Y570880D01*
X52690Y556910D02*
X92390D01*
X44130Y550527D02*
Y568340D01*
X45400D02*
X47477D01*
X56750Y544130D02*
X60640Y548020D01*
X96200D02*
X101280Y553100D01*
X60640Y548020D02*
X96200D01*
X56750Y538020D02*
Y544130D01*
X283580Y575989D02*
Y580329D01*
X264703Y573060D02*
X280651D01*
X246563Y591200D02*
X264703Y573060D01*
X280651D02*
X283580Y575989D01*
X45400Y538020D02*
X56750D01*
X101280Y553100D02*
X175813D01*
X207499Y566233D02*
X210933D01*
X202564Y571168D02*
X207499Y566233D01*
X210933D02*
X225740Y581040D01*
X241534Y569480D02*
X246656D01*
X236328Y564274D02*
X241534Y569480D01*
X206476Y553314D02*
X219711D01*
X187640Y572150D02*
X206476Y553314D01*
X187640Y572150D02*
Y600090D01*
X220660Y591200D02*
X246563D01*
X215031Y585571D02*
X220660Y591200D01*
X177480Y572150D02*
Y586120D01*
X168759Y604090D02*
X168949Y603900D01*
X82150Y589850D02*
X96390Y604090D01*
X133333Y586115D02*
X133524Y585924D01*
X96390Y604090D02*
X168759D01*
X166050Y597550D02*
X177480Y586120D01*
X155810Y561990D02*
X177480D01*
X227666Y558794D02*
X234630Y551830D01*
X246656Y569480D02*
X257766Y558370D01*
X291780Y565800D02*
X296780Y570800D01*
X261300Y565800D02*
X291780D01*
X246060Y581040D02*
X261300Y565800D01*
X295780Y558370D02*
X309480Y572070D01*
Y585350D01*
X257766Y558370D02*
X295780D01*
X292332Y551830D02*
X303210D01*
X292332Y551830D02*
X292332Y551830D01*
X210596Y539034D02*
X247330D01*
X177480Y572150D02*
X210596Y539034D01*
X177480Y561990D02*
X208226Y531244D01*
X204209Y524704D02*
X256586D01*
X256220Y533587D02*
Y551830D01*
X208226Y531244D02*
X253877D01*
X234630Y551830D02*
X256220D01*
X175813Y553100D02*
X204209Y524704D01*
X256586D02*
X263206Y531324D01*
X256220Y551830D02*
X292332D01*
X253877Y531244D02*
X256220Y533587D01*
X267650Y544210D02*
X309560D01*
X263206Y539766D02*
X267650Y544210D01*
X263206Y531324D02*
Y539766D01*
X70800Y520080D02*
Y520756D01*
X69833Y521724D02*
X70800Y520756D01*
X69833Y521724D02*
Y530467D01*
X69450Y530850D02*
X69833Y530467D01*
X53020Y596280D02*
X53498Y595802D01*
Y593393D02*
Y595802D01*
Y593393D02*
X56750Y590141D01*
Y585350D02*
Y590141D01*
X142398Y522807D02*
X145650Y526059D01*
Y530850D01*
X276540Y618230D02*
Y631840D01*
X286700Y642000D01*
X274910Y616600D02*
X276540Y618230D01*
X303210Y551830D02*
X307020Y555640D01*
X138110Y597550D02*
X166050D01*
X133333Y586115D02*
Y592773D01*
X138110Y597550D01*
X183830Y603900D02*
X187640Y600090D01*
X168949Y603900D02*
X183830D01*
X202880Y616600D02*
X274910D01*
X187005Y600725D02*
X202880Y616600D01*
X296780Y405800D02*
Y420350D01*
X159620Y415960D02*
X164620D01*
X149540Y405880D02*
X159620Y415960D01*
X155810Y396990D02*
X164700Y405880D01*
X95697D02*
X149540D01*
X97470Y396990D02*
X155810D01*
X225740Y416040D02*
X246060D01*
X35840Y406774D02*
X40696Y411630D01*
X35840Y368450D02*
X44130Y360160D01*
X35840Y368450D02*
Y406774D01*
X92390Y391910D02*
X97470Y396990D01*
X40696Y411630D02*
X49850D01*
X53420Y408060D01*
X86810D01*
X94850Y416100D01*
X47477Y403340D02*
X50297Y400520D01*
X90337D01*
X95697Y405880D01*
X52690Y391910D02*
X92390D01*
X44130Y385527D02*
Y403340D01*
X45400D02*
X47477D01*
X56750Y379130D02*
X60640Y383020D01*
X96200D02*
X101280Y388100D01*
X60640Y383020D02*
X96200D01*
X56750Y373020D02*
Y379130D01*
X283580Y410989D02*
Y415329D01*
X264703Y408060D02*
X280651D01*
X246563Y426200D02*
X264703Y408060D01*
X280651D02*
X283580Y410989D01*
X45400Y373020D02*
X56750D01*
X101280Y388100D02*
X175813D01*
X207499Y401233D02*
X210933D01*
X202564Y406168D02*
X207499Y401233D01*
X210933D02*
X225740Y416040D01*
X241534Y404480D02*
X246656D01*
X236328Y399274D02*
X241534Y404480D01*
X206476Y388314D02*
X219711D01*
X187640Y407150D02*
X206476Y388314D01*
X187640Y407150D02*
Y435090D01*
X220660Y426200D02*
X246563D01*
X215031Y420571D02*
X220660Y426200D01*
X177480Y407150D02*
Y421120D01*
X168759Y439090D02*
X168949Y438900D01*
X82150Y424850D02*
X96390Y439090D01*
X133333Y421115D02*
X133524Y420924D01*
X96390Y439090D02*
X168759D01*
X166050Y432550D02*
X177480Y421120D01*
X155810Y396990D02*
X177480D01*
X227666Y393794D02*
X234630Y386830D01*
X246656Y404480D02*
X257766Y393370D01*
X291780Y400800D02*
X296780Y405800D01*
X261300Y400800D02*
X291780D01*
X246060Y416040D02*
X261300Y400800D01*
X295780Y393370D02*
X309480Y407070D01*
Y420350D01*
X257766Y393370D02*
X295780D01*
X292332Y386830D02*
X303210D01*
X292332Y386830D02*
X292332Y386830D01*
X210596Y374034D02*
X247330D01*
X177480Y407150D02*
X210596Y374034D01*
X177480Y396990D02*
X208226Y366244D01*
X204209Y359704D02*
X256586D01*
X256220Y368587D02*
Y386830D01*
X208226Y366244D02*
X253877D01*
X234630Y386830D02*
X256220D01*
X175813Y388100D02*
X204209Y359704D01*
X256586D02*
X263206Y366324D01*
X256220Y386830D02*
X292332D01*
X253877Y366244D02*
X256220Y368587D01*
X267650Y379210D02*
X309560D01*
X263206Y374766D02*
X267650Y379210D01*
X263206Y366324D02*
Y374766D01*
X70800Y355080D02*
Y355756D01*
X69833Y356724D02*
X70800Y355756D01*
X69833Y356724D02*
Y365467D01*
X69450Y365850D02*
X69833Y365467D01*
X53020Y431280D02*
X53498Y430802D01*
Y428393D02*
Y430802D01*
Y428393D02*
X56750Y425141D01*
Y420350D02*
Y425141D01*
X142398Y357807D02*
X145650Y361059D01*
Y365850D01*
X276540Y453230D02*
Y466840D01*
X286700Y477000D01*
X274910Y451600D02*
X276540Y453230D01*
X303210Y386830D02*
X307020Y390640D01*
X138110Y432550D02*
X166050D01*
X133333Y421115D02*
Y427773D01*
X138110Y432550D01*
X183830Y438900D02*
X187640Y435090D01*
X168949Y438900D02*
X183830D01*
X202880Y451600D02*
X274910D01*
X187005Y435725D02*
X202880Y451600D01*
X296780Y240800D02*
Y255350D01*
X159620Y250960D02*
X164620D01*
X149540Y240880D02*
X159620Y250960D01*
X155810Y231990D02*
X164700Y240880D01*
X95697D02*
X149540D01*
X97470Y231990D02*
X155810D01*
X225740Y251040D02*
X246060D01*
X35840Y241774D02*
X40696Y246630D01*
X35840Y203450D02*
X44130Y195160D01*
X35840Y203450D02*
Y241774D01*
X92390Y226910D02*
X97470Y231990D01*
X40696Y246630D02*
X49850D01*
X53420Y243060D01*
X86810D01*
X94850Y251100D01*
X47477Y238340D02*
X50297Y235520D01*
X90337D01*
X95697Y240880D01*
X52690Y226910D02*
X92390D01*
X44130Y220527D02*
Y238340D01*
X45400D02*
X47477D01*
X56750Y214130D02*
X60640Y218020D01*
X96200D02*
X101280Y223100D01*
X60640Y218020D02*
X96200D01*
X56750Y208020D02*
Y214130D01*
X283580Y245989D02*
Y250329D01*
X264703Y243060D02*
X280651D01*
X246563Y261200D02*
X264703Y243060D01*
X280651D02*
X283580Y245989D01*
X45400Y208020D02*
X56750D01*
X101280Y223100D02*
X175813D01*
X207499Y236234D02*
X210933D01*
X202564Y241168D02*
X207499Y236234D01*
X210933D02*
X225740Y251040D01*
X241534Y239480D02*
X246656D01*
X236328Y234274D02*
X241534Y239480D01*
X206476Y223314D02*
X219711D01*
X187640Y242150D02*
X206476Y223314D01*
X187640Y242150D02*
Y270090D01*
X220660Y261200D02*
X246563D01*
X215031Y255571D02*
X220660Y261200D01*
X177480Y242150D02*
Y256120D01*
X168759Y274090D02*
X168949Y273900D01*
X82150Y259850D02*
X96390Y274090D01*
X133333Y256115D02*
X133524Y255924D01*
X96390Y274090D02*
X168759D01*
X166050Y267550D02*
X177480Y256120D01*
X155810Y231990D02*
X177480D01*
X227666Y228794D02*
X234630Y221830D01*
X246656Y239480D02*
X257766Y228370D01*
X291780Y235800D02*
X296780Y240800D01*
X261300Y235800D02*
X291780D01*
X246060Y251040D02*
X261300Y235800D01*
X295780Y228370D02*
X309480Y242070D01*
Y255350D01*
X257766Y228370D02*
X295780D01*
X292332Y221830D02*
X303210D01*
X292332Y221830D02*
X292332Y221830D01*
X210596Y209034D02*
X247330D01*
X177480Y242150D02*
X210596Y209034D01*
X177480Y231990D02*
X208226Y201244D01*
X204209Y194704D02*
X256586D01*
X256220Y203587D02*
Y221830D01*
X208226Y201244D02*
X253877D01*
X234630Y221830D02*
X256220D01*
X175813Y223100D02*
X204209Y194704D01*
X256586D02*
X263206Y201324D01*
X256220Y221830D02*
X292332D01*
X253877Y201244D02*
X256220Y203587D01*
X267650Y214210D02*
X309560D01*
X263206Y209766D02*
X267650Y214210D01*
X263206Y201324D02*
Y209766D01*
X70800Y190080D02*
Y190756D01*
X69833Y191724D02*
X70800Y190756D01*
X69833Y191724D02*
Y200467D01*
X69450Y200850D02*
X69833Y200467D01*
X53020Y266280D02*
X53498Y265802D01*
Y263393D02*
Y265802D01*
Y263393D02*
X56750Y260141D01*
Y255350D02*
Y260141D01*
X142398Y192807D02*
X145650Y196059D01*
Y200850D01*
X276540Y288230D02*
Y301840D01*
X286700Y312000D01*
X274910Y286600D02*
X276540Y288230D01*
X303210Y221830D02*
X307020Y225640D01*
X138110Y267550D02*
X166050D01*
X133333Y256115D02*
Y262773D01*
X138110Y267550D01*
X183830Y273900D02*
X187640Y270090D01*
X168949Y273900D02*
X183830D01*
X202880Y286600D02*
X274910D01*
X187005Y270725D02*
X202880Y286600D01*
X296780Y75800D02*
Y90350D01*
X159620Y85960D02*
X164620D01*
X149540Y75880D02*
X159620Y85960D01*
X155810Y66990D02*
X164700Y75880D01*
X95697D02*
X149540D01*
X97470Y66990D02*
X155810D01*
X225740Y86040D02*
X246060D01*
X35840Y76774D02*
X40696Y81630D01*
X35840Y38450D02*
X44130Y30160D01*
X35840Y38450D02*
Y76774D01*
X92390Y61910D02*
X97470Y66990D01*
X40696Y81630D02*
X49850D01*
X53420Y78060D01*
X86810D01*
X94850Y86100D01*
X47477Y73340D02*
X50297Y70520D01*
X90337D01*
X95697Y75880D01*
X52690Y61910D02*
X92390D01*
X44130Y55527D02*
Y73340D01*
X45400D02*
X47477D01*
X56750Y49130D02*
X60640Y53020D01*
X96200D02*
X101280Y58100D01*
X60640Y53020D02*
X96200D01*
X56750Y43020D02*
Y49130D01*
X283580Y80989D02*
Y85329D01*
X264703Y78060D02*
X280651D01*
X246563Y96200D02*
X264703Y78060D01*
X280651D02*
X283580Y80989D01*
X45400Y43020D02*
X56750D01*
X101280Y58100D02*
X175813D01*
X207499Y71234D02*
X210933D01*
X202564Y76168D02*
X207499Y71234D01*
X210933D02*
X225740Y86040D01*
X241534Y74480D02*
X246656D01*
X236328Y69274D02*
X241534Y74480D01*
X206476Y58314D02*
X219711D01*
X187640Y77150D02*
X206476Y58314D01*
X187640Y77150D02*
Y105090D01*
X220660Y96200D02*
X246563D01*
X215031Y90571D02*
X220660Y96200D01*
X177480Y77150D02*
Y91120D01*
X168759Y109090D02*
X168949Y108900D01*
X82150Y94850D02*
X96390Y109090D01*
X133333Y91115D02*
X133524Y90924D01*
X96390Y109090D02*
X168759D01*
X166050Y102550D02*
X177480Y91120D01*
X155810Y66990D02*
X177480D01*
X227666Y63794D02*
X234630Y56830D01*
X246656Y74480D02*
X257766Y63370D01*
X291780Y70800D02*
X296780Y75800D01*
X261300Y70800D02*
X291780D01*
X246060Y86040D02*
X261300Y70800D01*
X295780Y63370D02*
X309480Y77070D01*
Y90350D01*
X257766Y63370D02*
X295780D01*
X292332Y56830D02*
X303210D01*
X292332Y56830D02*
X292332Y56830D01*
X210596Y44034D02*
X247330D01*
X177480Y77150D02*
X210596Y44034D01*
X177480Y66990D02*
X208226Y36244D01*
X204209Y29704D02*
X256586D01*
X256220Y38587D02*
Y56830D01*
X208226Y36244D02*
X253877D01*
X234630Y56830D02*
X256220D01*
X175813Y58100D02*
X204209Y29704D01*
X256586D02*
X263206Y36324D01*
X256220Y56830D02*
X292332D01*
X253877Y36244D02*
X256220Y38587D01*
X267650Y49210D02*
X309560D01*
X263206Y44766D02*
X267650Y49210D01*
X263206Y36324D02*
Y44766D01*
X70800Y25080D02*
Y25756D01*
X69833Y26724D02*
X70800Y25756D01*
X69833Y26724D02*
Y35467D01*
X69450Y35850D02*
X69833Y35467D01*
X53020Y101280D02*
X53498Y100802D01*
Y98393D02*
Y100802D01*
Y98393D02*
X56750Y95141D01*
Y90350D02*
Y95141D01*
X142398Y27807D02*
X145650Y31059D01*
Y35850D01*
X276540Y123230D02*
Y136840D01*
X286700Y147000D01*
X274910Y121600D02*
X276540Y123230D01*
X303210Y56830D02*
X307020Y60640D01*
X138110Y102550D02*
X166050D01*
X133333Y91115D02*
Y97773D01*
X138110Y102550D01*
X183830Y108900D02*
X187640Y105090D01*
X168949Y108900D02*
X183830D01*
X202880Y121600D02*
X274910D01*
X187005Y105725D02*
X202880Y121600D01*
D28*
X94850Y581100D02*
Y585350D01*
X64450Y595412D02*
Y596280D01*
Y595412D02*
X69450Y590412D01*
Y585350D02*
Y590412D01*
X44130Y550527D02*
X44150Y550507D01*
Y548770D02*
X44900Y548020D01*
X44150Y548770D02*
Y550507D01*
X44900Y548020D02*
X45400D01*
X56750Y530850D02*
Y538020D01*
X132950Y585350D02*
X133524Y585924D01*
X219711Y553314D02*
X220949Y552077D01*
X94850Y416100D02*
Y420350D01*
X64450Y430412D02*
Y431280D01*
Y430412D02*
X69450Y425412D01*
Y420350D02*
Y425412D01*
X44130Y385527D02*
X44150Y385507D01*
Y383770D02*
X44900Y383020D01*
X44150Y383770D02*
Y385507D01*
X44900Y383020D02*
X45400D01*
X56750Y365850D02*
Y373020D01*
X132950Y420350D02*
X133524Y420924D01*
X219711Y388314D02*
X220949Y387076D01*
X94850Y251100D02*
Y255350D01*
X64450Y265412D02*
Y266280D01*
Y265412D02*
X69450Y260412D01*
Y255350D02*
Y260412D01*
X44130Y220527D02*
X44150Y220507D01*
Y218770D02*
X44900Y218020D01*
X44150Y218770D02*
Y220507D01*
X44900Y218020D02*
X45400D01*
X56750Y200850D02*
Y208020D01*
X132950Y255350D02*
X133524Y255924D01*
X219711Y223314D02*
X220949Y222077D01*
X94850Y86100D02*
Y90350D01*
X64450Y100412D02*
Y101280D01*
Y100412D02*
X69450Y95412D01*
Y90350D02*
Y95412D01*
X44130Y55527D02*
X44150Y55507D01*
Y53770D02*
X44900Y53020D01*
X44150Y53770D02*
Y55507D01*
X44900Y53020D02*
X45400D01*
X56750Y35850D02*
Y43020D01*
X132950Y90350D02*
X133524Y90924D01*
X219711Y58314D02*
X220949Y57077D01*
D29*
X261300Y642000D02*
D03*
X286700D02*
D03*
X312100D02*
D03*
X337500D02*
D03*
X362900D02*
D03*
X58100Y616600D02*
D03*
X83500D02*
D03*
X108900D02*
D03*
X134300D02*
D03*
X159700D02*
D03*
X261300Y477000D02*
D03*
X286700D02*
D03*
X312100D02*
D03*
X337500D02*
D03*
X362900D02*
D03*
X58100Y451600D02*
D03*
X83500D02*
D03*
X108900D02*
D03*
X134300D02*
D03*
X159700D02*
D03*
X261300Y312000D02*
D03*
X286700D02*
D03*
X312100D02*
D03*
X337500D02*
D03*
X362900D02*
D03*
X58100Y286600D02*
D03*
X83500D02*
D03*
X108900D02*
D03*
X134300D02*
D03*
X159700D02*
D03*
X261300Y147000D02*
D03*
X286700D02*
D03*
X312100D02*
D03*
X337500D02*
D03*
X362900D02*
D03*
X58100Y121600D02*
D03*
X83500D02*
D03*
X108900D02*
D03*
X134300D02*
D03*
X159700D02*
D03*
D30*
X129140Y544730D02*
D03*
X378060Y535240D02*
D03*
X373060Y596280D02*
D03*
X64450D02*
D03*
X44130Y525160D02*
D03*
Y568340D02*
D03*
X52690Y556910D02*
D03*
X183830Y531510D02*
D03*
X309938Y544405D02*
D03*
X247330Y539034D02*
D03*
X312100Y614060D02*
D03*
X70800Y520080D02*
D03*
X53020Y596280D02*
D03*
X141920Y520080D02*
D03*
X129140Y379730D02*
D03*
X378060Y370240D02*
D03*
X373060Y431280D02*
D03*
X64450D02*
D03*
X44130Y360160D02*
D03*
Y403340D02*
D03*
X52690Y391910D02*
D03*
X183830Y366510D02*
D03*
X309938Y379405D02*
D03*
X247330Y374034D02*
D03*
X312100Y449060D02*
D03*
X70800Y355080D02*
D03*
X53020Y431280D02*
D03*
X141920Y355080D02*
D03*
X129140Y214730D02*
D03*
X378060Y205240D02*
D03*
X373060Y266280D02*
D03*
X64450D02*
D03*
X44130Y195160D02*
D03*
Y238340D02*
D03*
X52690Y226910D02*
D03*
X183830Y201510D02*
D03*
X309938Y214405D02*
D03*
X247330Y209034D02*
D03*
X312100Y284060D02*
D03*
X70800Y190080D02*
D03*
X53020Y266280D02*
D03*
X141920Y190080D02*
D03*
X129140Y49730D02*
D03*
X378060Y40240D02*
D03*
X373060Y101280D02*
D03*
X64450D02*
D03*
X44130Y30160D02*
D03*
Y73340D02*
D03*
X52690Y61910D02*
D03*
X183830Y36510D02*
D03*
X309938Y49405D02*
D03*
X247330Y44034D02*
D03*
X312100Y119060D02*
D03*
X70800Y25080D02*
D03*
X53020Y101280D02*
D03*
X141920Y25080D02*
D03*
M02*
